  0
SECTION
  2
HEADER
  9
$ACADVER
  1
AC1009
  9
$DWGCODEPAGE
  3
ansi_1252
  9
$INSBASE
 10
0.0
 20
0.0
 30
0.0
  9
$EXTMIN
 10
-37.85237959376366
 20
38.16194300000001
 30
0.0
  9
$EXTMAX
 10
243.6087107411714
 20
416.234382
 30
0.0
  9
$LIMMIN
 10
0.0
 20
0.0
  9
$LIMMAX
 10
12.0
 20
9.0
  9
$ORTHOMODE
 70
     1
  9
$REGENMODE
 70
     1
  9
$FILLMODE
 70
     1
  9
$QTEXTMODE
 70
     0
  9
$MIRRTEXT
 70
     1
  9
$DRAGMODE
 70
     2
  9
$LTSCALE
 40
1.0
  9
$OSMODE
 70
 16895
  9
$ATTMODE
 70
     1
  9
$TEXTSIZE
 40
0.2
  9
$TRACEWID
 40
0.05
  9
$TEXTSTYLE
  7
STANDARD
  9
$CLAYER
  8
0
  9
$CELTYPE
  6
BYBLOCK
  9
$CECOLOR
 62
     4
  9
$DIMSCALE
 40
1.0
  9
$DIMASZ
 40
0.18
  9
$DIMEXO
 40
0.0625
  9
$DIMDLI
 40
0.38
  9
$DIMRND
 40
0.0
  9
$DIMDLE
 40
0.0
  9
$DIMEXE
 40
0.18
  9
$DIMTP
 40
0.0
  9
$DIMTM
 40
0.0
  9
$DIMTXT
 40
0.18
  9
$DIMCEN
 40
0.09
  9
$DIMTSZ
 40
0.0
  9
$DIMTOL
 70
     0
  9
$DIMLIM
 70
     0
  9
$DIMTIH
 70
     1
  9
$DIMTOH
 70
     1
  9
$DIMSE1
 70
     0
  9
$DIMSE2
 70
     0
  9
$DIMTAD
 70
     0
  9
$DIMZIN
 70
     0
  9
$DIMBLK
  1

  9
$DIMASO
 70
     1
  9
$DIMSHO
 70
     1
  9
$DIMPOST
  1

  9
$DIMAPOST
  1

  9
$DIMALT
 70
     0
  9
$DIMALTD
 70
     2
  9
$DIMALTF
 40
25.4
  9
$DIMLFAC
 40
1.0
  9
$DIMTOFL
 70
     0
  9
$DIMTVP
 40
0.0
  9
$DIMTIX
 70
     0
  9
$DIMSOXD
 70
     0
  9
$DIMSAH
 70
     0
  9
$DIMBLK1
  1

  9
$DIMBLK2
  1

  9
$DIMSTYLE
  2
STANDARD
  9
$DIMCLRD
 70
     0
  9
$DIMCLRE
 70
     0
  9
$DIMCLRT
 70
     0
  9
$DIMTFAC
 40
1.0
  9
$DIMGAP
 40
0.09
  9
$LUNITS
 70
     2
  9
$LUPREC
 70
     4
  9
$SKETCHINC
 40
0.1
  9
$FILLETRAD
 40
0.5
  9
$AUNITS
 70
     0
  9
$AUPREC
 70
     0
  9
$MENU
  1
.
  9
$ELEVATION
 40
0.0
  9
$PELEVATION
 40
0.0
  9
$THICKNESS
 40
0.0
  9
$LIMCHECK
 70
     0
  9
$CHAMFERA
 40
0.0
  9
$CHAMFERB
 40
0.0
  9
$SKPOLY
 70
     0
  9
$TDCREATE
 40
2457784.718709155
  9
$TDUPDATE
 40
2457785.463745081
  9
$TDINDWG
 40
0.0230299769
  9
$TDUSRTIMER
 40
2457785.46178375
  9
$USRTIMER
 70
     1
  9
$ANGBASE
 50
0.0
  9
$ANGDIR
 70
     0
  9
$PDMODE
 70
     0
  9
$PDSIZE
 40
0.0
  9
$PLINEWID
 40
0.0
  9
$COORDS
 70
     1
  9
$SPLFRAME
 70
     0
  9
$SPLINETYPE
 70
     6
  9
$SPLINESEGS
 70
     8
  9
$ATTDIA
 70
     0
  9
$ATTREQ
 70
     1
  9
$HANDLING
 70
     1
  9
$HANDSEED
  5
D6B3
  9
$SURFTAB1
 70
     6
  9
$SURFTAB2
 70
     6
  9
$SURFTYPE
 70
     6
  9
$SURFU
 70
     6
  9
$SURFV
 70
     6
  9
$UCSNAME
  2

  9
$UCSORG
 10
0.0
 20
0.0
 30
0.0
  9
$UCSXDIR
 10
1.0
 20
0.0
 30
0.0
  9
$UCSYDIR
 10
0.0
 20
1.0
 30
0.0
  9
$PUCSNAME
  2

  9
$PUCSORG
 10
0.0
 20
0.0
 30
0.0
  9
$PUCSXDIR
 10
1.0
 20
0.0
 30
0.0
  9
$PUCSYDIR
 10
0.0
 20
1.0
 30
0.0
  9
$USERI1
 70
     0
  9
$USERI2
 70
     0
  9
$USERI3
 70
     0
  9
$USERI4
 70
     0
  9
$USERI5
 70
     0
  9
$USERR1
 40
0.0
  9
$USERR2
 40
0.0
  9
$USERR3
 40
0.0
  9
$USERR4
 40
0.0
  9
$USERR5
 40
0.0
  9
$WORLDVIEW
 70
     1
  9
$SHADEDGE
 70
     3
  9
$SHADEDIF
 70
    70
  9
$TILEMODE
 70
     1
  9
$MAXACTVP
 70
    64
  9
$PLIMCHECK
 70
     0
  9
$PEXTMIN
 10
1.000000000000000E+20
 20
1.000000000000000E+20
 30
1.000000000000000E+20
  9
$PEXTMAX
 10
-1.000000000000000E+20
 20
-1.000000000000000E+20
 30
-1.000000000000000E+20
  9
$PLIMMIN
 10
0.0
 20
0.0
  9
$PLIMMAX
 10
0.0
 20
0.0
  9
$UNITMODE
 70
     0
  9
$VISRETAIN
 70
     1
  9
$PLINEGEN
 70
     0
  9
$PSLTSCALE
 70
     1
  0
ENDSEC
  0
SECTION
  2
TABLES
  0
TABLE
  2
VPORT
 70
     1
  0
VPORT
  2
*ACTIVE
 70
     0
 10
0.0
 20
0.0
 11
1.0
 21
1.0
 12
157.3920022861754
 22
213.6341449697676
 13
0.0
 23
0.0
 14
0.5
 24
0.5
 15
0.5
 25
0.5
 16
0.0
 26
0.0
 36
1.0
 17
0.0
 27
0.0
 37
0.0
 40
624.5004513516506
 41
2.388174807197943
 42
50.0
 43
0.0
 44
0.0
 50
0.0
 51
0.0
 71
    16
 72
   100
 73
     1
 74
     3
 75
     0
 76
     0
 77
     0
 78
     0
  0
ENDTAB
  0
TABLE
  2
LTYPE
 70
     1
  0
LTYPE
  2
CONTINUOUS
 70
     0
  3
Solid line
 72
    65
 73
     0
 40
0.0
  0
ENDTAB
  0
TABLE
  2
LAYER
 70
     2
  0
LAYER
  2
0
 70
     0
 62
     7
  6
CONTINUOUS
  0
LAYER
  2
CUT
 70
     0
 62
     7
  6
CONTINUOUS
  0
ENDTAB
  0
TABLE
  2
STYLE
 70
     1
  0
STYLE
  2
STANDARD
 70
     0
 40
0.0
 41
1.0
 50
0.0
 71
     0
 42
0.2
  3
txt
  4

  0
ENDTAB
  0
TABLE
  2
VIEW
 70
     0
  0
ENDTAB
  0
TABLE
  2
UCS
 70
     0
  0
ENDTAB
  0
TABLE
  2
APPID
 70
     1
  0
APPID
  2
ACAD
 70
     0
  0
ENDTAB
  0
TABLE
  2
DIMSTYLE
 70
     1
  0
DIMSTYLE
  2
STANDARD
 70
     0
  3

  4

  5

  6

  7

 40
1.0
 41
0.18
 42
0.0625
 43
0.38
 44
0.18
 45
0.0
 46
0.0
 47
0.0
 48
0.0
140
0.18
141
0.09
142
0.0
143
25.4
144
1.0
145
0.0
146
1.0
147
0.09
 71
     0
 72
     0
 73
     1
 74
     1
 75
     0
 76
     0
 77
     0
 78
     0
170
     0
171
     2
172
     0
173
     0
174
     0
175
     0
176
     0
177
     0
178
     0
  0
ENDTAB
  0
ENDSEC
  0
SECTION
  2
BLOCKS
  0
BLOCK
  8
0
  2
$MODEL_SPACE
 70
     0
 10
0.0
 20
0.0
 30
0.0
  3
$MODEL_SPACE
  1

  0
ENDBLK
  5
96D
  8
0
  0
BLOCK
 67
     1
  8
0
  2
$PAPER_SPACE
 70
     0
 10
0.0
 20
0.0
 30
0.0
  3
$PAPER_SPACE
  1

  0
ENDBLK
  5
96F
 67
     1
  8
0
  0
BLOCK
  8
0
  2
SIDE
 70
     0
 10
0.0
 20
0.0
 30
0.0
  3
SIDE
  1

  0
LINE
  5
CF9A
  8
CUT
 62
     5
 10
1530.845934558287
 20
-135.8434375493065
 30
0.0
 11
1520.845934558287
 21
-135.8434375493068
 31
0.0
  0
LINE
  5
CF9B
  8
CUT
 62
     5
 10
1520.845934558287
 20
-135.8434375493068
 30
0.0
 11
1520.845934558287
 21
-138.2615998874659
 31
0.0
  0
ARC
  5
CF9C
  8
CUT
 62
     5
 10
1520.655015727367
 20
-138.4525187183862
 30
0.0
 40
0.2699999999999764
 50
224.9999999999574
 51
45.00000000001705
  0
LINE
  5
CF9D
  8
CUT
 62
     5
 10
1520.464096896446
 20
-138.6434375493065
 30
0.0
 11
1504.477772220127
 21
-138.6434375493067
 31
0.0
  0
ARC
  5
CF9E
  8
CUT
 62
     5
 10
1504.286853389207
 20
-138.4525187183862
 30
0.0
 40
0.2699999999999588
 50
134.9999999999829
 51
314.9999999999829
  0
LINE
  5
CF9F
  8
CUT
 62
     5
 10
1504.095934558287
 20
-138.2615998874658
 30
0.0
 11
1504.095934558287
 21
-135.8434375493065
 31
0.0
  0
LINE
  5
CFA0
  8
CUT
 62
     5
 10
1504.095934558287
 20
-135.8434375493065
 30
0.0
 11
1500.595934558287
 21
-135.8434375493068
 31
0.0
  0
LINE
  5
CFA1
  8
CUT
 62
     5
 10
1500.595934558287
 20
-135.8434375493068
 30
0.0
 11
1500.595934558287
 21
-144.8834375493067
 31
0.0
  0
LINE
  5
CFA2
  8
CUT
 62
     5
 10
1500.595934558287
 20
-144.8834375493067
 30
0.0
 11
1501.845934558287
 21
-144.8434375493067
 31
0.0
  0
LINE
  5
CFA3
  8
CUT
 62
     5
 10
1501.845934558287
 20
-144.8434375493067
 30
0.0
 11
1501.845934558287
 21
-147.0634375493069
 31
0.0
  0
LINE
  5
CFA4
  8
CUT
 62
     5
 10
1501.845934558287
 20
-147.0634375493069
 30
0.0
 11
1500.595934558287
 21
-147.0234375493067
 31
0.0
  0
LINE
  5
CFA5
  8
CUT
 62
     5
 10
1500.595934558287
 20
-147.0234375493067
 30
0.0
 11
1500.595934558287
 21
-149.3434375493067
 31
0.0
  0
LINE
  5
CFA6
  8
CUT
 62
     5
 10
1500.595934558287
 20
-149.3434375493067
 30
0.0
 11
1497.595934558287
 21
-149.3434375493067
 31
0.0
  0
LINE
  5
CFA7
  8
CUT
 62
     5
 10
1497.595934558287
 20
-149.3434375493067
 30
0.0
 11
1497.595934558287
 21
-147.0234375493067
 31
0.0
  0
LINE
  5
CFA8
  8
CUT
 62
     5
 10
1497.595934558287
 20
-147.0234375493067
 30
0.0
 11
1496.345934558287
 21
-147.0634375493069
 31
0.0
  0
LINE
  5
CFA9
  8
CUT
 62
     5
 10
1496.345934558287
 20
-147.0634375493069
 30
0.0
 11
1496.345934558287
 21
-144.8434375493067
 31
0.0
  0
LINE
  5
CFAA
  8
CUT
 62
     5
 10
1496.345934558287
 20
-144.8434375493067
 30
0.0
 11
1497.595934558287
 21
-144.8834375493067
 31
0.0
  0
LINE
  5
CFAB
  8
CUT
 62
     5
 10
1497.595934558287
 20
-144.8834375493067
 30
0.0
 11
1497.595934558287
 21
-144.8434375493068
 31
0.0
  0
LINE
  5
CFAC
  8
CUT
 62
     5
 10
1497.595934558287
 20
-144.8434375493068
 30
0.0
 11
1497.595934558287
 21
-135.8434375493068
 31
0.0
  0
LINE
  5
CFAD
  8
CUT
 62
     5
 10
1497.595934558287
 20
-135.8434375493068
 30
0.0
 11
1494.095934558287
 21
-135.8434375493068
 31
0.0
  0
LINE
  5
CFAE
  8
CUT
 62
     5
 10
1494.095934558287
 20
-135.8434375493068
 30
0.0
 11
1494.095934558287
 21
-138.2615998874658
 31
0.0
  0
ARC
  5
CFAF
  8
CUT
 62
     5
 10
1493.905015727366
 20
-138.4525187183862
 30
0.0
 40
0.2699999999999487
 50
225.0000000000085
 51
44.99999999994883
  0
LINE
  5
CFB0
  8
CUT
 62
     5
 10
1493.714096896446
 20
-138.6434375493066
 30
0.0
 11
1484.477772220127
 21
-138.6434375493066
 31
0.0
  0
ARC
  5
CFB1
  8
CUT
 62
     5
 10
1484.286853389207
 20
-138.4525187183862
 30
0.0
 40
0.2700000000000065
 50
134.9999999999659
 51
314.9999999999744
  0
LINE
  5
CFB2
  8
CUT
 62
     5
 10
1484.095934558287
 20
-138.2615998874656
 30
0.0
 11
1484.095934558287
 21
-135.8434375493065
 31
0.0
  0
LINE
  5
CFB3
  8
CUT
 62
     5
 10
1484.095934558287
 20
-135.8434375493065
 30
0.0
 11
1474.095934558287
 21
-135.8434375493065
 31
0.0
  0
LINE
  5
CFB4
  8
CUT
 62
     5
 10
1474.095934558287
 20
-135.8434375493065
 30
0.0
 11
1474.095934558287
 21
-138.2615998874658
 31
0.0
  0
ARC
  5
CFB5
  8
CUT
 62
     5
 10
1473.905015727366
 20
-138.4525187183862
 30
0.0
 40
0.2699999999999085
 50
225.0
 51
45.00000000000853
  0
ARC
  5
CFB6
  8
CUT
 62
     5
 10
1478.941056425026
 20
-145.1010648636214
 30
0.0
 40
4.784028703291498
 50
261.9658721833965
 51
276.9338680117637
  0
ARC
  5
CFB7
  8
CUT
 62
     5
 10
1482.007205635509
 20
-161.6950721756189
 30
0.0
 40
12.10357062912017
 50
70.15195271350305
 51
101.865155391671
  0
LINE
  5
CFB8
  8
CUT
 62
     5
 10
1486.116692336523
 20
-150.3104974787632
 30
0.0
 11
1492.512813396774
 21
-153.1597112417803
 31
0.0
  0
ARC
  5
CFB9
  8
CUT
 62
     5
 10
1489.257511813929
 20
-160.4674476631851
 30
0.0
 40
7.999999999999877
 50
245.988955924973
 51
65.98895771566283
  0
LINE
  5
CFBA
  8
CUT
 62
     5
 10
1486.002210002693
 20
-167.7751839828506
 30
0.0
 11
1479.606094155709
 21
-164.9259723337045
 31
0.0
  0
ARC
  5
CFBB
  8
CUT
 62
     5
 10
1481.927857210211
 20
-158.3437706387175
 30
0.0
 40
6.979682144248351
 50
189.7158462178904
 51
250.5705467051798
  0
ARC
  5
CFBC
  8
CUT
 62
     5
 10
1472.660236573938
 20
-159.9430599672371
 30
0.0
 40
2.424942041997565
 50
10.00713844831716
 51
61.9981343214785
  0
LINE
  5
CFBD
  8
CUT
 62
     5
 10
1473.798747622347
 20
-157.8020002997598
 30
0.0
 11
1469.919161464434
 21
-156.0497914947435
 31
0.0
  0
ARC
  5
CFBE
  8
CUT
 62
     5
 10
1469.095934369443
 20
-157.872508256805
 30
0.0
 40
1.999999811156571
 50
65.69376184888648
 51
180.0000001862126
  0
LINE
  5
CFBF
  8
CUT
 62
     5
 10
1467.095934558287
 20
-157.8725082633049
 30
0.0
 11
1467.095934558287
 21
-165.3434375493064
 31
0.0
  0
LINE
  5
CFC0
  8
CUT
 62
     5
 10
1467.095934558287
 20
-165.3434375493064
 30
0.0
 11
1467.095934558287
 21
-165.3906094599756
 31
0.0
  0
ARC
  5
CFC1
  8
CUT
 62
     5
 10
1435.147350351013
 20
-163.6258347300525
 30
0.0
 40
31.99728836474507
 50
311.0226014056669
 51
356.8383108903469
  0
ARC
  5
CFC2
  8
CUT
 62
     5
 10
1473.905015727367
 20
-188.834356380227
 30
0.0
 40
0.2699999999998482
 50
315.0000000000085
 51
135.0
  0
LINE
  5
CFC3
  8
CUT
 62
     5
 10
1474.095934558287
 20
-189.0252752111472
 30
0.0
 11
1474.095934558287
 21
-191.4434375493067
 31
0.0
  0
LINE
  5
CFC4
  8
CUT
 62
     5
 10
1474.095934558287
 20
-191.4434375493067
 30
0.0
 11
1477.595934558287
 21
-191.4434375493067
 31
0.0
  0
LINE
  5
CFC5
  8
CUT
 62
     5
 10
1477.595934558287
 20
-191.4434375493067
 30
0.0
 11
1477.595934558287
 21
-182.4034375493067
 31
0.0
  0
LINE
  5
CFC6
  8
CUT
 62
     5
 10
1477.595934558287
 20
-182.4034375493067
 30
0.0
 11
1476.345934558287
 21
-182.4434375493067
 31
0.0
  0
LINE
  5
CFC7
  8
CUT
 62
     5
 10
1476.345934558287
 20
-182.4434375493067
 30
0.0
 11
1476.345934558287
 21
-180.2234375493066
 31
0.0
  0
LINE
  5
CFC8
  8
CUT
 62
     5
 10
1476.345934558287
 20
-180.2234375493066
 30
0.0
 11
1477.595934558287
 21
-180.2634375493066
 31
0.0
  0
LINE
  5
CFC9
  8
CUT
 62
     5
 10
1477.595934558287
 20
-180.2634375493066
 30
0.0
 11
1477.595934558287
 21
-177.9434375493067
 31
0.0
  0
LINE
  5
CFCA
  8
CUT
 62
     5
 10
1477.595934558287
 20
-177.9434375493067
 30
0.0
 11
1480.595934558287
 21
-177.9434375493067
 31
0.0
  0
LINE
  5
CFCB
  8
CUT
 62
     5
 10
1480.595934558287
 20
-177.9434375493067
 30
0.0
 11
1480.595934558287
 21
-180.2634375493066
 31
0.0
  0
LINE
  5
CFCC
  8
CUT
 62
     5
 10
1480.595934558287
 20
-180.2634375493066
 30
0.0
 11
1481.845934558287
 21
-180.2234375493066
 31
0.0
  0
LINE
  5
CFCD
  8
CUT
 62
     5
 10
1481.845934558287
 20
-180.2234375493066
 30
0.0
 11
1481.845934558287
 21
-182.4434375493067
 31
0.0
  0
LINE
  5
CFCE
  8
CUT
 62
     5
 10
1481.845934558287
 20
-182.4434375493067
 30
0.0
 11
1480.595934558287
 21
-182.4034375493067
 31
0.0
  0
LINE
  5
CFCF
  8
CUT
 62
     5
 10
1480.595934558287
 20
-182.4034375493067
 30
0.0
 11
1480.595934558287
 21
-191.4434375493067
 31
0.0
  0
LINE
  5
CFD0
  8
CUT
 62
     5
 10
1480.595934558287
 20
-191.4434375493067
 30
0.0
 11
1484.095934558287
 21
-191.4434375493066
 31
0.0
  0
LINE
  5
CFD1
  8
CUT
 62
     5
 10
1484.095934558287
 20
-191.4434375493066
 30
0.0
 11
1484.095934558287
 21
-189.0252752111473
 31
0.0
  0
ARC
  5
CFD2
  8
CUT
 62
     5
 10
1484.286853389207
 20
-188.8343563802271
 30
0.0
 40
0.269999999999999
 50
44.99999999996589
 51
224.9999999999829
  0
LINE
  5
CFD3
  8
CUT
 62
     5
 10
1484.477772220128
 20
-188.6434375493067
 30
0.0
 11
1486.095934558287
 21
-188.6434375493067
 31
0.0
  0
LINE
  5
CFD4
  8
CUT
 62
     5
 10
1486.095934558287
 20
-188.6434375493067
 30
0.0
 11
1486.095934558287
 21
-186.6434375493067
 31
0.0
  0
ARC
  5
CFD5
  8
CUT
 62
     5
 10
1489.095934558287
 20
-186.6434375493067
 30
0.0
 40
3.0
 50
0.0
 51
180.0
  0
LINE
  5
CFD6
  8
CUT
 62
     5
 10
1492.095934558287
 20
-186.6434375493067
 30
0.0
 11
1492.095934558287
 21
-188.6434375493066
 31
0.0
  0
LINE
  5
CFD7
  8
CUT
 62
     5
 10
1492.095934558287
 20
-188.6434375493066
 30
0.0
 11
1493.714096896446
 21
-188.6434375493066
 31
0.0
  0
ARC
  5
CFD8
  8
CUT
 62
     5
 10
1493.905015727367
 20
-188.834356380227
 30
0.0
 40
0.2699999999999085
 50
315.0
 51
134.9999999999915
  0
LINE
  5
CFD9
  8
CUT
 62
     5
 10
1494.095934558287
 20
-189.0252752111472
 30
0.0
 11
1494.095934558287
 21
-191.4434375493067
 31
0.0
  0
LINE
  5
CFDA
  8
CUT
 62
     5
 10
1494.095934558287
 20
-191.4434375493067
 30
0.0
 11
1504.095934558287
 21
-191.4434375493066
 31
0.0
  0
LINE
  5
CFDB
  8
CUT
 62
     5
 10
1504.095934558287
 20
-191.4434375493066
 30
0.0
 11
1504.09589983489
 21
-189.0252584842386
 31
0.0
  0
ARC
  5
CFDC
  8
CUT
 62
     5
 10
1504.286844525746
 20
-188.8343655167572
 30
0.0
 40
0.2700000000000622
 50
44.99223876699557
 51
224.9922387669359
  0
LINE
  5
CFDD
  8
CUT
 62
     5
 10
1504.477789216602
 20
-188.6434725492758
 30
0.0
 11
1512.603707558287
 21
-188.6442065493064
 31
0.0
  0
LINE
  5
CFDE
  8
CUT
 62
     5
 10
1512.603707558287
 20
-188.6442065493064
 30
0.0
 11
1515.003499558287
 21
-188.6434375493066
 31
0.0
  0
LINE
  5
CFDF
  8
CUT
 62
     5
 10
1515.003499558287
 20
-188.6434375493066
 30
0.0
 11
1542.714096896446
 21
-188.6434375493068
 31
0.0
  0
ARC
  5
CFE0
  8
CUT
 62
     5
 10
1542.905015727367
 20
-188.8343563802271
 30
0.0
 40
0.2699999999999487
 50
314.9999999999829
 51
134.9999999999915
  0
LINE
  5
CFE1
  8
CUT
 62
     5
 10
1543.095934558287
 20
-189.0252752111475
 30
0.0
 11
1543.095934558287
 21
-191.4434375493068
 31
0.0
  0
LINE
  5
CFE2
  8
CUT
 62
     5
 10
1543.095934558287
 20
-191.4434375493068
 30
0.0
 11
1560.845934558287
 21
-191.4434375493067
 31
0.0
  0
LINE
  5
CFE3
  8
CUT
 62
     5
 10
1560.845934558287
 20
-191.4434375493067
 30
0.0
 11
1560.845934558287
 21
-189.0252752111473
 31
0.0
  0
ARC
  5
CFE4
  8
CUT
 62
     5
 10
1561.036853389207
 20
-188.8343563802271
 30
0.0
 40
0.2699999999999135
 50
45.0
 51
224.9999999999403
  0
LINE
  5
CFE5
  8
CUT
 62
     5
 10
1561.227772220128
 20
-188.6434375493069
 30
0.0
 11
1580.345934558287
 21
-188.6434375493067
 31
0.0
  0
LINE
  5
CFE6
  8
CUT
 62
     5
 10
1583.345934558287
 20
-188.6434375493067
 30
0.0
 11
1588.345934558287
 21
-188.6434375493067
 31
0.0
  0
LINE
  5
CFE7
  8
CUT
 62
     5
 10
1588.345934558287
 20
-188.6434375493067
 30
0.0
 11
1598.345934558287
 21
-188.6434375493068
 31
0.0
  0
ARC
  5
CFE8
  8
CUT
 62
     5
 10
1577.786853389207
 20
-138.4525187183864
 30
0.0
 40
0.2699999999999563
 50
134.9999999999829
 51
314.9999999999829
  0
LINE
  5
CFE9
  8
CUT
 62
     5
 10
1577.595934558287
 20
-138.2615998874659
 30
0.0
 11
1577.595934558287
 21
-135.843437549307
 31
0.0
  0
LINE
  5
CFEA
  8
CUT
 62
     5
 10
1577.595934558287
 20
-135.843437549307
 30
0.0
 11
1574.095934558287
 21
-135.8434375493066
 31
0.0
  0
LINE
  5
CFEB
  8
CUT
 62
     5
 10
1574.095934558287
 20
-135.8434375493066
 30
0.0
 11
1574.095934558287
 21
-144.8379572027468
 31
0.0
  0
LINE
  5
CFEC
  8
CUT
 62
     5
 10
1574.095934558287
 20
-144.8379572027468
 30
0.0
 11
1575.345934558287
 21
-144.804060549307
 31
0.0
  0
LINE
  5
CFED
  8
CUT
 62
     5
 10
1575.345934558287
 20
-144.804060549307
 30
0.0
 11
1575.345934558287
 21
-147.0240605493071
 31
0.0
  0
LINE
  5
CFEE
  8
CUT
 62
     5
 10
1575.345934558287
 20
-147.0240605493071
 30
0.0
 11
1574.095934558287
 21
-146.984060549307
 31
0.0
  0
LINE
  5
CFEF
  8
CUT
 62
     5
 10
1574.095934558287
 20
-146.984060549307
 30
0.0
 11
1574.095934558287
 21
-149.304060549307
 31
0.0
  0
LINE
  5
CFF0
  8
CUT
 62
     5
 10
1574.095934558287
 20
-149.304060549307
 30
0.0
 11
1571.095934558287
 21
-149.304060549307
 31
0.0
  0
LINE
  5
CFF1
  8
CUT
 62
     5
 10
1571.095934558287
 20
-149.304060549307
 30
0.0
 11
1571.095934558287
 21
-146.984060549307
 31
0.0
  0
LINE
  5
CFF2
  8
CUT
 62
     5
 10
1571.095934558287
 20
-146.984060549307
 30
0.0
 11
1569.845934558287
 21
-147.0240605493071
 31
0.0
  0
LINE
  5
CFF3
  8
CUT
 62
     5
 10
1569.845934558287
 20
-147.0240605493071
 30
0.0
 11
1569.845934558287
 21
-144.804060549307
 31
0.0
  0
LINE
  5
CFF4
  8
CUT
 62
     5
 10
1569.845934558287
 20
-144.804060549307
 30
0.0
 11
1571.095934558287
 21
-144.844060549307
 31
0.0
  0
LINE
  5
CFF5
  8
CUT
 62
     5
 10
1571.095934558287
 20
-144.844060549307
 30
0.0
 11
1571.095934558287
 21
-144.8434375493066
 31
0.0
  0
LINE
  5
CFF6
  8
CUT
 62
     5
 10
1571.095934558287
 20
-144.8434375493066
 30
0.0
 11
1571.095934558287
 21
-135.8434375493066
 31
0.0
  0
LINE
  5
CFF7
  8
CUT
 62
     5
 10
1571.095934558287
 20
-135.8434375493066
 30
0.0
 11
1567.595934558287
 21
-135.8434375493069
 31
0.0
  0
LINE
  5
CFF8
  8
CUT
 62
     5
 10
1567.595934558287
 20
-135.8434375493069
 30
0.0
 11
1567.595934558287
 21
-138.261599887466
 31
0.0
  0
ARC
  5
CFF9
  8
CUT
 62
     5
 10
1567.405015727367
 20
-138.4525187183864
 30
0.0
 40
0.270000000000009
 50
224.9999999999659
 51
45.00000000002559
  0
LINE
  5
CFFA
  8
CUT
 62
     5
 10
1567.214096896446
 20
-138.6434375493068
 30
0.0
 11
1557.977772220127
 21
-138.6434375493067
 31
0.0
  0
ARC
  5
CFFB
  8
CUT
 62
     5
 10
1557.786853389207
 20
-138.4525187183862
 30
0.0
 40
0.2699999999999713
 50
134.9999999999829
 51
314.9999999999744
  0
LINE
  5
CFFC
  8
CUT
 62
     5
 10
1557.595934558287
 20
-138.2615998874658
 30
0.0
 11
1557.595934558287
 21
-135.8434375493066
 31
0.0
  0
LINE
  5
CFFD
  8
CUT
 62
     5
 10
1557.595934558287
 20
-135.8434375493066
 30
0.0
 11
1547.595934558287
 21
-135.8434375493069
 31
0.0
  0
LINE
  5
CFFE
  8
CUT
 62
     5
 10
1547.595934558287
 20
-135.8434375493069
 30
0.0
 11
1547.595934558287
 21
-138.261599887466
 31
0.0
  0
ARC
  5
CFFF
  8
CUT
 62
     5
 10
1547.405015727367
 20
-138.4525187183863
 30
0.0
 40
0.270000000000009
 50
224.9999999999659
 51
45.00000000002559
  0
LINE
  5
D000
  8
CUT
 62
     5
 10
1547.214096896446
 20
-138.6434375493066
 30
0.0
 11
1531.227772220127
 21
-138.6434375493066
 31
0.0
  0
ARC
  5
D001
  8
CUT
 62
     5
 10
1531.036853389207
 20
-138.4525187183861
 30
0.0
 40
0.2700000000000291
 50
135.0000000000341
 51
314.9999999999659
  0
LINE
  5
D002
  8
CUT
 62
     5
 10
1530.845934558287
 20
-138.2615998874658
 30
0.0
 11
1530.845934558287
 21
-135.8434375493065
 31
0.0
  0
LINE
  5
D003
  8
CUT
 62
     5
 10
1473.714096896446
 20
-138.6434375493066
 30
0.0
 11
1456.753386382012
 21
-138.6434375493064
 31
0.0
  0
ARC
  5
D004
  8
CUT
 62
     5
 10
1500.86353766588
 20
-73.68318507497452
 30
0.0
 40
79.43510055918705
 50
236.0260844076223
 51
253.4771871428498
  0
LINE
  5
D005
  8
CUT
 62
     5
 10
1473.714096896446
 20
-188.6434375493068
 30
0.0
 11
1456.477162892587
 21
-188.6434375493067
 31
0.0
  0
LINE
  5
D006
  8
CUT
 62
     5
 10
1580.345934558287
 20
-188.6434375493067
 30
0.0
 11
1580.345934558287
 21
-182.4434375493067
 31
0.0
  0
LINE
  5
D007
  8
CUT
 62
     5
 10
1580.345934558287
 20
-182.4434375493067
 30
0.0
 11
1579.095934558287
 21
-182.4834375493066
 31
0.0
  0
LINE
  5
D008
  8
CUT
 62
     5
 10
1579.095934558287
 20
-182.4834375493066
 30
0.0
 11
1579.095934558287
 21
-180.2634375493066
 31
0.0
  0
LINE
  5
D009
  8
CUT
 62
     5
 10
1579.095934558287
 20
-180.2634375493066
 30
0.0
 11
1580.345934558287
 21
-180.3034375493067
 31
0.0
  0
LINE
  5
D00A
  8
CUT
 62
     5
 10
1580.345934558287
 20
-180.3034375493067
 30
0.0
 11
1580.345934558287
 21
-177.9834375493067
 31
0.0
  0
LINE
  5
D00B
  8
CUT
 62
     5
 10
1580.345934558287
 20
-177.9834375493067
 30
0.0
 11
1583.345934558287
 21
-177.9834375493067
 31
0.0
  0
LINE
  5
D00C
  8
CUT
 62
     5
 10
1583.345934558287
 20
-177.9834375493067
 30
0.0
 11
1583.345934558287
 21
-180.3034375493067
 31
0.0
  0
LINE
  5
D00D
  8
CUT
 62
     5
 10
1583.345934558287
 20
-180.3034375493067
 30
0.0
 11
1584.595934558287
 21
-180.2634375493066
 31
0.0
  0
LINE
  5
D00E
  8
CUT
 62
     5
 10
1584.595934558287
 20
-180.2634375493066
 30
0.0
 11
1584.595934558287
 21
-182.4834375493067
 31
0.0
  0
LINE
  5
D00F
  8
CUT
 62
     5
 10
1584.595934558287
 20
-182.4834375493067
 30
0.0
 11
1583.345934558287
 21
-182.4434375493067
 31
0.0
  0
LINE
  5
D010
  8
CUT
 62
     5
 10
1583.345934558287
 20
-182.4434375493067
 30
0.0
 11
1583.345934558287
 21
-188.6434375493067
 31
0.0
  0
LINE
  5
D011
  8
CUT
 62
     1
 10
1469.632857380341
 20
-166.560567823974
 30
0.0
 11
1471.732773524747
 21
-167.5892275055725
 31
0.0
  0
LINE
  5
D012
  8
CUT
 62
     1
 10
1470.987786506599
 20
-163.7946019776882
 30
0.0
 11
1473.087702651005
 21
-164.8232616592865
 31
0.0
  0
LINE
  5
D013
  8
CUT
 62
     1
 10
1490.33653712496
 20
-176.7024207121223
 30
0.0
 11
1495.130575846918
 21
-179.0508165556594
 31
0.0
  0
LINE
  5
D014
  8
CUT
 62
     1
 10
1491.691466251217
 20
-173.9364548658361
 30
0.0
 11
1496.485504973174
 21
-176.284850709373
 31
0.0
  0
LINE
  5
D015
  8
CUT
 62
     1
 10
1504.896247035252
 20
-183.8346038711414
 30
0.0
 11
1509.69028575721
 21
-186.1829997146787
 31
0.0
  0
LINE
  5
D016
  8
CUT
 62
     1
 10
1506.251176161509
 20
-181.0686380248557
 30
0.0
 11
1511.045214883466
 21
-183.4170338683923
 31
0.0
  0
POLYLINE
  5
D017
  8
CUT
 62
     5
 66
     1
 10
0.0
 20
0.0
 30
0.0
  0
VERTEX
  5
D5C5
  8
CUT
 62
     5
 10
1577.977772220127
 20
-138.6434375493067
 30
0.0
  0
VERTEX
  5
D5C6
  8
CUT
 62
     5
 10
1604.336451820787
 20
-138.6434375493068
 30
0.0
 42
0.0706308407230908
  0
VERTEX
  5
D5C7
  8
CUT
 62
     5
 10
1598.345934558287
 20
-188.6434375493066
 30
0.0
  0
SEQEND
  5
D6A5
  8
CUT
 62
     5
  0
POLYLINE
  5
D018
  8
CUT
 62
     1
 66
     1
 10
0.0
 20
0.0
 30
0.0
 70
     1
  0
VERTEX
  5
D5C8
  8
CUT
 62
     1
 10
1547.588051950205
 20
-149.896303611436
 30
0.0
  0
VERTEX
  5
D5C9
  8
CUT
 62
     1
 10
1547.667817814817
 20
-149.0091491690203
 30
0.0
  0
VERTEX
  5
D5CA
  8
CUT
 62
     1
 10
1547.986688667614
 20
-148.1447358393535
 30
0.0
  0
VERTEX
  5
D5CB
  8
CUT
 62
     1
 10
1548.532410480545
 20
-147.336282541926
 30
0.0
  0
VERTEX
  5
D5CC
  8
CUT
 62
     1
 10
1549.284011470385
 20
-146.6148576835721
 30
0.0
  0
VERTEX
  5
D5CD
  8
CUT
 62
     1
 10
1550.212608032596
 20
-146.0081852170188
 30
0.0
  0
VERTEX
  5
D5CE
  8
CUT
 62
     1
 10
1551.282514722056
 20
-145.5395792249297
 30
0.0
  0
VERTEX
  5
D5CF
  8
CUT
 62
     1
 10
1552.452615624699
 20
-145.2270479727836
 30
0.0
  0
VERTEX
  5
D5D0
  8
CUT
 62
     1
 10
1553.677944419037
 20
-145.0826018613309
 30
0.0
  0
VERTEX
  5
D5D1
  8
CUT
 62
     1
 10
1554.911412406676
 20
-145.1117918736284
 30
0.0
  0
VERTEX
  5
D5D2
  8
CUT
 62
     1
 10
1556.105618104587
 20
-145.3134962538735
 30
0.0
  0
VERTEX
  5
D5D3
  8
CUT
 62
     1
 10
1557.214668857519
 20
-145.6799636158505
 30
0.0
  0
VERTEX
  5
D5D4
  8
CUT
 62
     1
 10
1558.195944466998
 20
-146.1971108243559
 30
0.0
  0
VERTEX
  5
D5D5
  8
CUT
 62
     1
 10
1559.011735061659
 20
-146.8450642021864
 30
0.0
  0
VERTEX
  5
D5D6
  8
CUT
 62
     1
 10
1559.630690266449
 20
-147.5989232644082
 30
0.0
  0
VERTEX
  5
D5D7
  8
CUT
 62
     1
 10
1560.029023979962
 20
-148.4297176300292
 30
0.0
  0
VERTEX
  5
D5D8
  8
CUT
 62
     1
 10
1560.191428460975
 20
-149.3055203374936
 30
0.0
  0
VERTEX
  5
D5D9
  8
CUT
 62
     1
 10
1560.111662596362
 20
-150.1926747799092
 30
0.0
  0
VERTEX
  5
D5DA
  8
CUT
 62
     1
 10
1559.792791743566
 20
-151.057088109576
 30
0.0
  0
VERTEX
  5
D5DB
  8
CUT
 62
     1
 10
1559.247069930635
 20
-151.8655414070036
 30
0.0
  0
VERTEX
  5
D5DC
  8
CUT
 62
     1
 10
1558.495468940795
 20
-152.5869662653573
 30
0.0
  0
VERTEX
  5
D5DD
  8
CUT
 62
     1
 10
1557.566872378584
 20
-153.1936387319107
 30
0.0
  0
VERTEX
  5
D5DE
  8
CUT
 62
     1
 10
1556.496965689124
 20
-153.6622447239999
 30
0.0
  0
VERTEX
  5
D5DF
  8
CUT
 62
     1
 10
1555.326864786481
 20
-153.974775976146
 30
0.0
  0
VERTEX
  5
D5E0
  8
CUT
 62
     1
 10
1554.101535992143
 20
-154.1192220875987
 30
0.0
  0
VERTEX
  5
D5E1
  8
CUT
 62
     1
 10
1552.868068004504
 20
-154.0900320753011
 30
0.0
  0
VERTEX
  5
D5E2
  8
CUT
 62
     1
 10
1551.673862306593
 20
-153.888327695056
 30
0.0
  0
VERTEX
  5
D5E3
  8
CUT
 62
     1
 10
1550.564811553661
 20
-153.521860333079
 30
0.0
  0
VERTEX
  5
D5E4
  8
CUT
 62
     1
 10
1549.583535944182
 20
-153.0047131245736
 30
0.0
  0
VERTEX
  5
D5E5
  8
CUT
 62
     1
 10
1548.767745349521
 20
-152.3567597467432
 30
0.0
  0
VERTEX
  5
D5E6
  8
CUT
 62
     1
 10
1548.148790144731
 20
-151.6029006845214
 30
0.0
  0
VERTEX
  5
D5E7
  8
CUT
 62
     1
 10
1547.750456431218
 20
-150.7721063189003
 30
0.0
  0
SEQEND
  5
D6A6
  8
CUT
 62
     1
  0
POLYLINE
  5
D019
  8
CUT
 62
     1
 66
     1
 10
0.0
 20
0.0
 30
0.0
 70
     1
  0
VERTEX
  5
D5E8
  8
CUT
 62
     1
 10
1585.217518985209
 20
-165.7364093485231
 30
0.0
 42
-0.9999999999999997
  0
VERTEX
  5
D5E9
  8
CUT
 62
     1
 10
1585.217518985209
 20
-151.9474221316363
 30
0.0
 42
-0.9999999999999997
  0
SEQEND
  5
D6A7
  8
CUT
 62
     1
  0
POLYLINE
  5
D01A
  8
CUT
 62
     1
 66
     1
 10
0.0
 20
0.0
 30
0.0
 70
     1
  0
VERTEX
  5
D5EA
  8
CUT
 62
     1
 10
1516.922978227568
 20
-172.4571008628592
 30
0.0
  0
VERTEX
  5
D5EB
  8
CUT
 62
     1
 10
1515.211646355625
 20
-172.3032315252566
 30
0.0
  0
VERTEX
  5
D5EC
  8
CUT
 62
     1
 10
1513.544182370928
 20
-171.6881257135354
 30
0.0
  0
VERTEX
  5
D5ED
  8
CUT
 62
     1
 10
1511.984665979285
 20
-170.6354215990847
 30
0.0
  0
VERTEX
  5
D5EE
  8
CUT
 62
     1
 10
1510.593028521041
 20
-169.1855740106594
 30
0.0
  0
VERTEX
  5
D5EF
  8
CUT
 62
     1
 10
1509.422749843276
 20
-167.3942997779991
 30
0.0
  0
VERTEX
  5
D5F0
  8
CUT
 62
     1
 10
1508.518803099277
 20
-165.3304365653065
 30
0.0
  0
VERTEX
  5
D5F1
  8
CUT
 62
     1
 10
1507.915926455477
 20
-163.0732974784177
 30
0.0
  0
VERTEX
  5
D5F2
  8
CUT
 62
     1
 10
1507.637288123199
 20
-160.7096231066237
 30
0.0
  0
VERTEX
  5
D5F3
  8
CUT
 62
     1
 10
1507.693596017292
 20
-158.3302481304686
 30
0.0
  0
VERTEX
  5
D5F4
  8
CUT
 62
     1
 10
1508.082686256962
 20
-156.0266105959171
 30
0.0
  0
VERTEX
  5
D5F5
  8
CUT
 62
     1
 10
1508.789606322504
 20
-153.8872380015273
 30
0.0
  0
VERTEX
  5
D5F6
  8
CUT
 62
     1
 10
1509.787189672244
 20
-151.9943452363277
 30
0.0
  0
VERTEX
  5
D5F7
  8
CUT
 62
     1
 10
1511.037099737503
 20
-150.4206751077383
 30
0.0
  0
VERTEX
  5
D5F8
  8
CUT
 62
     1
 10
1512.491303175432
 20
-149.2267028762764
 30
0.0
  0
VERTEX
  5
D5F9
  8
CUT
 62
     1
 10
1514.093915763435
 20
-148.4583122252099
 30
0.0
  0
VERTEX
  5
D5FA
  8
CUT
 62
     1
 10
1515.783349998513
 20
-148.1450319763406
 30
0.0
  0
VERTEX
  5
D5FB
  8
CUT
 62
     1
 10
1517.494681870457
 20
-148.2989013139432
 30
0.0
  0
VERTEX
  5
D5FC
  8
CUT
 62
     1
 10
1519.162145855154
 20
-148.9140071256645
 30
0.0
  0
VERTEX
  5
D5FD
  8
CUT
 62
     1
 10
1520.721662246796
 20
-149.9667112401152
 30
0.0
  0
VERTEX
  5
D5FE
  8
CUT
 62
     1
 10
1522.11329970504
 20
-151.4165588285404
 30
0.0
  0
VERTEX
  5
D5FF
  8
CUT
 62
     1
 10
1523.283578382805
 20
-153.2078330612007
 30
0.0
  0
VERTEX
  5
D600
  8
CUT
 62
     1
 10
1524.187525126804
 20
-155.2716962738934
 30
0.0
  0
VERTEX
  5
D601
  8
CUT
 62
     1
 10
1524.790401770605
 20
-157.5288353607822
 30
0.0
  0
VERTEX
  5
D602
  8
CUT
 62
     1
 10
1525.069040102882
 20
-159.8925097325761
 30
0.0
  0
VERTEX
  5
D603
  8
CUT
 62
     1
 10
1525.01273220879
 20
-162.2718847087312
 30
0.0
  0
VERTEX
  5
D604
  8
CUT
 62
     1
 10
1524.623641969119
 20
-164.5755222432827
 30
0.0
  0
VERTEX
  5
D605
  8
CUT
 62
     1
 10
1523.916721903577
 20
-166.7148948376725
 30
0.0
  0
VERTEX
  5
D606
  8
CUT
 62
     1
 10
1522.919138553837
 20
-168.6077876028721
 30
0.0
  0
VERTEX
  5
D607
  8
CUT
 62
     1
 10
1521.669228488578
 20
-170.1814577314616
 30
0.0
  0
VERTEX
  5
D608
  8
CUT
 62
     1
 10
1520.21502505065
 20
-171.3754299629234
 30
0.0
  0
VERTEX
  5
D609
  8
CUT
 62
     1
 10
1518.612412462646
 20
-172.14382061399
 30
0.0
  0
SEQEND
  5
D6A8
  8
CUT
 62
     1
  0
POLYLINE
  5
D01B
  8
CUT
 62
     1
 66
     1
 10
0.0
 20
0.0
 30
0.0
 70
     1
  0
VERTEX
  5
D60A
  8
CUT
 62
     1
 10
1532.537097884719
 20
-172.6423545229931
 30
0.0
 42
-0.9999999999999906
  0
VERTEX
  5
D60B
  8
CUT
 62
     1
 10
1532.558607231855
 20
-175.6422774133332
 30
0.0
 42
-0.9999999999999906
  0
SEQEND
  5
D6A9
  8
CUT
 62
     1
  0
POLYLINE
  5
D01C
  8
CUT
 62
     1
 66
     1
 10
0.0
 20
0.0
 30
0.0
 70
     1
  0
VERTEX
  5
D60C
  8
CUT
 62
     1
 10
1536.716014896446
 20
-158.6423159681633
 30
0.0
  0
VERTEX
  5
D60D
  8
CUT
 62
     1
 10
1534.479690220128
 20
-158.6423159681632
 30
0.0
 42
-1.000000000000037
  0
VERTEX
  5
D60E
  8
CUT
 62
     1
 10
1534.097852558287
 20
-158.2604783063224
 30
0.0
  0
VERTEX
  5
D60F
  8
CUT
 62
     1
 10
1534.097852558287
 20
-149.0241536300038
 30
0.0
 42
-0.999999999999907
  0
VERTEX
  5
D610
  8
CUT
 62
     1
 10
1534.479690220127
 20
-148.6423159681631
 30
0.0
  0
VERTEX
  5
D611
  8
CUT
 62
     1
 10
1536.716014896446
 20
-148.642315968163
 30
0.0
 42
-0.9999996678963128
  0
VERTEX
  5
D612
  8
CUT
 62
     1
 10
1537.097852516017
 20
-149.0241537568135
 30
0.0
  0
VERTEX
  5
D613
  8
CUT
 62
     1
 10
1537.097852558287
 20
-158.2604783063224
 30
0.0
 42
-1.000000000000037
  0
SEQEND
  5
D6AA
  8
CUT
 62
     1
  0
POLYLINE
  5
D01D
  8
CUT
 62
     1
 66
     1
 10
0.0
 20
0.0
 30
0.0
 70
     1
  0
VERTEX
  5
D614
  8
CUT
 62
     1
 10
1550.254645387364
 20
-161.1426501100233
 30
0.0
 42
-1.000000000000002
  0
VERTEX
  5
D615
  8
CUT
 62
     1
 10
1550.44105972921
 20
-187.1419818263031
 30
0.0
 42
-0.999999999999998
  0
SEQEND
  5
D6AB
  8
CUT
 62
     1
  0
POLYLINE
  5
D01E
  8
CUT
 62
     1
 66
     1
 10
0.0
 20
0.0
 30
0.0
 70
     1
  0
VERTEX
  5
D616
  8
CUT
 62
     1
 10
1566.647852579422
 20
-178.7604782429174
 30
0.0
  0
VERTEX
  5
D617
  8
CUT
 62
     1
 10
1566.647852579422
 20
-169.5241535665989
 30
0.0
 42
-0.9999999999998138
  0
VERTEX
  5
D618
  8
CUT
 62
     1
 10
1567.029690241263
 20
-169.1423159047581
 30
0.0
  0
VERTEX
  5
D619
  8
CUT
 62
     1
 10
1569.266014917581
 20
-169.1423159047581
 30
0.0
 42
-0.9999996678964247
  0
VERTEX
  5
D61A
  8
CUT
 62
     1
 10
1569.647852537152
 20
-169.5241536934086
 30
0.0
  0
VERTEX
  5
D61B
  8
CUT
 62
     1
 10
1569.647852579422
 20
-178.7604782429174
 30
0.0
 42
-1.0
  0
VERTEX
  5
D61C
  8
CUT
 62
     1
 10
1569.266014917582
 20
-179.1423159047583
 30
0.0
  0
VERTEX
  5
D61D
  8
CUT
 62
     1
 10
1567.029690241263
 20
-179.1423159047582
 30
0.0
 42
-1.000000000000112
  0
SEQEND
  5
D6AC
  8
CUT
 62
     1
  0
POLYLINE
  5
D01F
  8
CUT
 62
     1
 66
     1
 10
0.0
 20
0.0
 30
0.0
  0
VERTEX
  5
D61E
  8
CUT
 62
     1
 10
1473.087702651005
 20
-164.8232616592865
 30
0.0
 42
-0.8863763963863308
  0
VERTEX
  5
D61F
  8
CUT
 62
     1
 10
1473.19923439531
 20
-165.3476273557322
 30
0.0
  0
VERTEX
  5
D620
  8
CUT
 62
     1
 10
1472.215448213586
 20
-167.3559382894672
 30
0.0
 42
-0.8863763963856639
  0
VERTEX
  5
D621
  8
CUT
 62
     1
 10
1471.732773524747
 20
-167.5892275055725
 30
0.0
 42
-0.0602337920638516
  0
SEQEND
  5
D6AD
  8
CUT
 62
     1
  0
POLYLINE
  5
D020
  8
CUT
 62
     1
 66
     1
 10
0.0
 20
0.0
 30
0.0
  0
VERTEX
  5
D622
  8
CUT
 62
     1
 10
1469.632857380341
 20
-166.560567823974
 30
0.0
 42
-0.8863763963856589
  0
VERTEX
  5
D623
  8
CUT
 62
     1
 10
1469.521325636035
 20
-166.0362021275284
 30
0.0
  0
VERTEX
  5
D624
  8
CUT
 62
     1
 10
1470.505111817759
 20
-164.0278911937934
 30
0.0
 42
-0.8863763963868387
  0
VERTEX
  5
D625
  8
CUT
 62
     1
 10
1470.987786506599
 20
-163.7946019776882
 30
0.0
 42
-0.0602337920633506
  0
SEQEND
  5
D6AE
  8
CUT
 62
     1
  0
POLYLINE
  5
D021
  8
CUT
 62
     1
 66
     1
 10
0.0
 20
0.0
 30
0.0
  0
VERTEX
  5
D626
  8
CUT
 62
     1
 10
1496.485504973174
 20
-176.284850709373
 30
0.0
 42
-0.8863763963867493
  0
VERTEX
  5
D627
  8
CUT
 62
     1
 10
1496.59703671748
 20
-176.8092164058182
 30
0.0
  0
VERTEX
  5
D628
  8
CUT
 62
     1
 10
1495.613250535756
 20
-178.8175273395532
 30
0.0
 42
-0.8863763963856188
  0
VERTEX
  5
D629
  8
CUT
 62
     1
 10
1495.130575846918
 20
-179.0508165556594
 30
0.0
 42
-0.060233792064562
  0
SEQEND
  5
D6AF
  8
CUT
 62
     1
  0
POLYLINE
  5
D022
  8
CUT
 62
     1
 66
     1
 10
0.0
 20
0.0
 30
0.0
  0
VERTEX
  5
D62A
  8
CUT
 62
     1
 10
1490.33653712496
 20
-176.7024207121223
 30
0.0
 42
-0.8863763963864388
  0
VERTEX
  5
D62B
  8
CUT
 62
     1
 10
1490.225005380654
 20
-176.1780550156766
 30
0.0
  0
VERTEX
  5
D62C
  8
CUT
 62
     1
 10
1491.208791562378
 20
-174.1697440819419
 30
0.0
 42
-0.8863763963862764
  0
VERTEX
  5
D62D
  8
CUT
 62
     1
 10
1491.691466251217
 20
-173.9364548658361
 30
0.0
 42
-0.0602337920636666
  0
SEQEND
  5
D6B0
  8
CUT
 62
     1
  0
POLYLINE
  5
D023
  8
CUT
 62
     1
 66
     1
 10
0.0
 20
0.0
 30
0.0
  0
VERTEX
  5
D62E
  8
CUT
 62
     1
 10
1511.045214883466
 20
-183.4170338683923
 30
0.0
 42
-0.8863763963869108
  0
VERTEX
  5
D62F
  8
CUT
 62
     1
 10
1511.156746627773
 20
-183.9413995648374
 30
0.0
  0
VERTEX
  5
D630
  8
CUT
 62
     1
 10
1510.172960446048
 20
-185.9497104985727
 30
0.0
 42
-0.886376396385077
  0
VERTEX
  5
D631
  8
CUT
 62
     1
 10
1509.69028575721
 20
-186.1829997146787
 30
0.0
 42
-0.060233792064708
  0
SEQEND
  5
D6B1
  8
CUT
 62
     1
  0
POLYLINE
  5
D024
  8
CUT
 62
     1
 66
     1
 10
0.0
 20
0.0
 30
0.0
  0
VERTEX
  5
D632
  8
CUT
 62
     1
 10
1504.896247035252
 20
-183.8346038711414
 30
0.0
 42
-0.8863763963856816
  0
VERTEX
  5
D633
  8
CUT
 62
     1
 10
1504.784715290946
 20
-183.3102381746959
 30
0.0
  0
VERTEX
  5
D634
  8
CUT
 62
     1
 10
1505.76850147267
 20
-181.3019272409606
 30
0.0
 42
-0.8863763963871134
  0
VERTEX
  5
D635
  8
CUT
 62
     1
 10
1506.251176161509
 20
-181.0686380248557
 30
0.0
 42
-0.0602337920631881
  0
SEQEND
  5
D6B2
  8
CUT
 62
     1
  0
ARC
  5
D025
  8
CUT
 62
     5
 10
1456.753386382012
 20
-139.1434375493064
 30
0.0
 40
0.5
 50
90.0
 51
236.0260844076377
  0
ARC
  5
D026
  8
CUT
 62
     5
 10
1456.477162892587
 20
-188.1434375493067
 30
0.0
 40
0.5
 50
131.0226014056722
 51
270.0
  0
ENDBLK
  5
D027
  8
0
  0
ENDSEC
  0
SECTION
  2
ENTITIES
  0
ARC
  5
E1
  8
CUT
 62
     5
 10
83.62302940623633
 20
122.502525
 30
0.0
 40
0.27
 50
45.02282300000025
 51
225.0227469999998
  0
LINE
  5
E2
  8
CUT
 62
     5
 10
83.43218640623633
 20
122.311531
 30
0.0
 11
83.43407240623633
 21
117.575207
 31
0.0
  0
ARC
  5
E3
  8
CUT
 62
     5
 10
83.62506740623633
 20
117.384364
 30
0.0
 40
0.27
 50
135.0228230000003
 51
315.0227469999977
  0
ARC
  5
E8
  8
CUT
 62
     5
 10
68.38139440623632
 20
105.247738
 30
0.0
 40
0.27
 50
45.02371800000009
 51
225.023641999997
  0
ARC
  5
EC
  8
CUT
 62
     5
 10
57.99955740623633
 20
105.243444
 30
0.0
 40
0.27
 50
315.0237370000014
 51
135.0236610000004
  0
ARC
  5
FF
  8
CUT
 62
     5
 10
-5.151160593763677
 20
105.243444
 30
0.0
 40
0.27
 50
44.97633899999958
 51
224.9762629999991
  0
ARC
  5
103
  8
CUT
 62
     5
 10
-15.53299759376367
 20
105.247738
 30
0.0
 40
0.27
 50
314.9763580000019
 51
134.976282000001
  0
ARC
  5
108
  8
CUT
 62
     5
 10
-30.77667059376368
 20
117.384364
 30
0.0
 40
0.27
 50
224.9772530000013
 51
44.97717699999974
  0
LINE
  5
109
  8
CUT
 62
     5
 10
-30.58567559376367
 20
117.575207
 30
0.0
 11
-30.58378859376367
 21
122.311531
 31
0.0
  0
ARC
  5
10A
  8
CUT
 62
     5
 10
-30.77463159376367
 20
122.502525
 30
0.0
 40
0.27
 50
314.9772529999991
 51
134.9771769999998
  0
ARC
  5
122
  8
CUT
 62
     5
 10
-25.51216859376368
 20
155.633698
 30
0.0
 40
0.27
 50
224.9850409999979
 51
44.97351299999895
  0
ARC
  5
126
  8
CUT
 62
     5
 10
-15.13032259376368
 20
155.629414
 30
0.0
 40
0.27
 50
134.976358000002
 51
314.9762819999978
  0
LINE
  5
127
  8
CUT
 62
     5
 10
-14.93948259376368
 20
155.438416
 30
0.0
 11
-5.703159593763676
 21
155.434596
 31
0.0
  0
ARC
  5
12D
  8
CUT
 62
     5
 10
4.869675406236325
 20
155.621143
 30
0.0
 40
0.27
 50
134.9763760000019
 51
314.9763000000025
  0
LINE
  5
12E
  8
CUT
 62
     5
 10
5.060515406236327
 20
155.430145
 30
0.0
 11
21.04683840623633
 21
155.423533
 31
0.0
  0
ARC
  5
12F
  8
CUT
 62
     5
 10
21.23783640623633
 20
155.614373
 30
0.0
 40
0.27
 50
224.9763390000033
 51
44.97626299999913
  0
ARC
  5
140
  8
CUT
 62
     5
 10
31.61056140623632
 20
155.614373
 30
0.0
 40
0.27
 50
135.0237370000009
 51
315.0236609999972
  0
LINE
  5
141
  8
CUT
 62
     5
 10
31.80155840623632
 20
155.423533
 30
0.0
 11
47.78788140623632
 21
155.430145
 31
0.0
  0
ARC
  5
142
  8
CUT
 62
     5
 10
47.97872140623632
 20
155.621143
 30
0.0
 40
0.27
 50
225.0236999999975
 51
45.02362300000315
  0
LINE
  5
148
  8
CUT
 62
     5
 10
58.55155640623633
 20
155.434596
 30
0.0
 11
67.78788040623633
 21
155.438416
 31
0.0
  0
ARC
  5
149
  8
CUT
 62
     5
 10
67.97871940623632
 20
155.629414
 30
0.0
 40
0.27
 50
225.0237180000044
 51
45.02364199999912
  0
ARC
  5
14D
  8
CUT
 62
     5
 10
78.36056640623633
 20
155.633698
 30
0.0
 40
0.27
 50
135.026487
 51
315.0149590000032
  0
ARC
  5
241
  8
CUT
 10
129.752283
 20
154.986537
 30
0.0
 40
3.0
 50
0.0
 51
0.0
  0
ARC
  5
2E2
  8
CUT
 62
     5
 10
-33.43390959376367
 20
326.951847
 30
0.0
 40
0.27
 50
224.9991589999982
 51
44.9990829999952
  0
ARC
  5
2E5
  8
CUT
 62
     5
 10
26.25647740623632
 20
472.085527
 30
0.0
 40
147.235635
 50
249.889467
 51
290.110535
  0
ARC
  5
2FD
  8
CUT
 62
     5
 10
68.19761140623632
 20
307.069386
 30
0.0
 40
0.27
 50
45.00873700000118
 51
224.9972089999986
  0
ARC
  5
301
  8
CUT
 62
     5
 10
57.81576440623633
 20
307.069376
 30
0.0
 40
0.27
 50
315.0000540000011
 51
134.9999779999958
  0
ARC
  5
302
  8
CUT
 62
     5
 10
26.25691840623632
 20
259.196531
 30
0.0
 40
57.394009
 50
56.87026699999998
 51
123.130294
  0
ARC
  5
303
  8
CUT
 62
     5
 10
-5.302397593763676
 20
307.069069
 30
0.0
 40
0.27
 50
45.00005400000049
 51
224.9999780000017
  0
ARC
  5
307
  8
CUT
 62
     5
 10
-15.68456259376367
 20
307.069078
 30
0.0
 40
0.270224
 50
315.0505509999972
 51
134.8488120000009
  0
ARC
  5
30A
  8
CUT
 62
     5
 10
-33.43406859376368
 20
316.570009
 30
0.0
 40
0.27
 50
314.9991590000046
 51
134.9990830000037
  0
ARC
  5
37F
  8
CUT
 62
     5
 10
81.84890140623632
 20
58.042536
 30
0.0
 40
0.27
 50
45.02282300000025
 51
225.0227470000008
  0
LINE
  5
380
  8
CUT
 62
     5
 10
81.65805740623632
 20
57.851541
 30
0.0
 11
81.65994440623632
 21
53.115217
 31
0.0
  0
ARC
  5
381
  8
CUT
 62
     5
 10
81.85093940623632
 20
52.924374
 30
0.0
 40
0.27
 50
135.0228230000003
 51
315.0227470000009
  0
ARC
  5
386
  8
CUT
 62
     5
 10
66.60726640623632
 20
40.787749
 30
0.0
 40
0.27
 50
45.02371800000009
 51
225.0236420000002
  0
ARC
  5
38A
  8
CUT
 62
     5
 10
56.22542940623632
 20
40.783455
 30
0.0
 40
0.27
 50
315.0237369999992
 51
135.0236610000004
  0
ARC
  5
39D
  8
CUT
 62
     5
 10
-6.925288593763675
 20
40.783455
 30
0.0
 40
0.27
 50
44.97633900000012
 51
224.9762630000007
  0
ARC
  5
3A1
  8
CUT
 62
     5
 10
-17.30712559376367
 20
40.787749
 30
0.0
 40
0.27
 50
314.9763579999998
 51
134.976282000001
  0
ARC
  5
3A6
  8
CUT
 62
     5
 10
-32.55079859376367
 20
52.924374
 30
0.0
 40
0.27
 50
224.9772529999992
 51
44.97717699999974
  0
LINE
  5
3A7
  8
CUT
 62
     5
 10
-32.35980359376367
 20
53.115217
 30
0.0
 11
-32.35791659376368
 21
57.851541
 31
0.0
  0
ARC
  5
3A8
  8
CUT
 62
     5
 10
-32.54876059376367
 20
58.042536
 30
0.0
 40
0.27
 50
314.9772530000002
 51
134.9771769999998
  0
ARC
  5
3C0
  8
CUT
 62
     5
 10
-27.28629659376368
 20
91.173709
 30
0.0
 40
0.27
 50
224.9850410000011
 51
44.97351299999895
  0
ARC
  5
3C4
  8
CUT
 62
     5
 10
-16.90445059376368
 20
91.169425
 30
0.0
 40
0.27
 50
134.976358000002
 51
314.976282000001
  0
LINE
  5
3C5
  8
CUT
 62
     5
 10
-16.71361059376368
 20
90.978427
 30
0.0
 11
-7.477287593763677
 21
90.974607
 31
0.0
  0
ARC
  5
3CB
  8
CUT
 62
     5
 10
3.095547406236324
 20
91.161153
 30
0.0
 40
0.27
 50
134.9763760000013
 51
314.9762999999993
  0
LINE
  5
3CC
  8
CUT
 62
     5
 10
3.286387406236322
 20
90.970156
 30
0.0
 11
19.27271040623632
 21
90.963544
 31
0.0
  0
ARC
  5
3CD
  8
CUT
 62
     5
 10
19.46370840623633
 20
91.154384
 30
0.0
 40
0.27
 50
224.9763390000001
 51
44.97626299999913
  0
ARC
  5
3DE
  8
CUT
 62
     5
 10
29.83643240623633
 20
91.154384
 30
0.0
 40
0.27
 50
135.0237370000009
 51
315.0236610000004
  0
LINE
  5
3DF
  8
CUT
 62
     5
 10
30.02743040623633
 20
90.963544
 30
0.0
 11
46.01375340623633
 21
90.970156
 31
0.0
  0
ARC
  5
3E0
  8
CUT
 62
     5
 10
46.20459340623633
 20
91.161153
 30
0.0
 40
0.27
 50
225.0237000000007
 51
45.02362299999996
  0
LINE
  5
3E6
  8
CUT
 62
     5
 10
56.77742840623633
 20
90.974607
 30
0.0
 11
66.01375140623632
 21
90.978427
 31
0.0
  0
ARC
  5
3E7
  8
CUT
 62
     5
 10
66.20459140623632
 20
91.169425
 30
0.0
 40
0.27
 50
225.0237180000001
 51
45.02364199999698
  0
ARC
  5
3EB
  8
CUT
 62
     5
 10
76.58643740623633
 20
91.173709
 30
0.0
 40
0.27
 50
135.0264870000021
 51
315.0149589999988
  0
ARC
  5
52E
  8
CUT
 10
131.448698
 20
284.762252
 30
0.0
 40
3.0
 50
0.0
 51
0.0
  0
ARC
  5
614
  8
CUT
 62
     5
 10
83.54531540623633
 20
187.818251
 30
0.0
 40
0.27
 50
45.02282300000025
 51
225.0227469999977
  0
LINE
  5
615
  8
CUT
 62
     5
 10
83.35447240623633
 20
187.627257
 30
0.0
 11
83.35635840623632
 21
182.890933
 31
0.0
  0
ARC
  5
616
  8
CUT
 62
     5
 10
83.54735340623633
 20
182.70009
 30
0.0
 40
0.27
 50
135.022822999996
 51
315.0227469999998
  0
ARC
  5
61B
  8
CUT
 62
     5
 10
68.30368140623632
 20
170.563464
 30
0.0
 40
0.27
 50
45.02371800000435
 51
225.0236419999991
  0
ARC
  5
61F
  8
CUT
 62
     5
 10
57.92184340623633
 20
170.55917
 30
0.0
 40
0.27
 50
315.0237370000014
 51
135.0236609999972
  0
ARC
  5
632
  8
CUT
 62
     5
 10
-5.228873593763677
 20
170.55917
 30
0.0
 40
0.27
 50
44.97633900000277
 51
224.9762629999991
  0
ARC
  5
636
  8
CUT
 62
     5
 10
-15.61071059376368
 20
170.563464
 30
0.0
 40
0.27
 50
314.9763580000019
 51
134.9762819999967
  0
ARC
  5
63B
  8
CUT
 62
     5
 10
-30.85438359376367
 20
182.70009
 30
0.0
 40
0.27
 50
224.9772530000013
 51
44.97717700000295
  0
LINE
  5
63C
  8
CUT
 62
     5
 10
-30.66338859376367
 20
182.890933
 30
0.0
 11
-30.66150259376367
 21
187.627257
 31
0.0
  0
ARC
  5
63D
  8
CUT
 62
     5
 10
-30.85234559376367
 20
187.818251
 30
0.0
 40
0.27
 50
314.9772530000023
 51
134.9771769999998
  0
ARC
  5
655
  8
CUT
 62
     5
 10
-25.58988259376368
 20
220.949424
 30
0.0
 40
0.27
 50
224.9850409999979
 51
44.97351299999895
  0
ARC
  5
659
  8
CUT
 62
     5
 10
-15.20803659376368
 20
220.94514
 30
0.0
 40
0.27
 50
134.976358000002
 51
314.9762819999978
  0
LINE
  5
65A
  8
CUT
 62
     5
 10
-15.01719659376367
 20
220.754142
 30
0.0
 11
-5.780873593763676
 21
220.750323
 31
0.0
  0
ARC
  5
660
  8
CUT
 62
     5
 10
4.791962406236323
 20
220.936869
 30
0.0
 40
0.27
 50
134.9763760000013
 51
314.9763000000025
  0
LINE
  5
661
  8
CUT
 62
     5
 10
4.982801406236327
 20
220.745871
 30
0.0
 11
20.96912540623632
 21
220.739259
 31
0.0
  0
ARC
  5
662
  8
CUT
 62
     5
 10
21.16012240623633
 20
220.930099
 30
0.0
 40
0.27
 50
224.9763390000033
 51
44.97626299999913
  0
ARC
  5
673
  8
CUT
 62
     5
 10
31.53284740623632
 20
220.930099
 30
0.0
 40
0.27
 50
135.0237370000009
 51
315.0236609999972
  0
LINE
  5
674
  8
CUT
 62
     5
 10
31.72384540623632
 20
220.739259
 30
0.0
 11
47.71016840623633
 21
220.745871
 31
0.0
  0
ARC
  5
675
  8
CUT
 62
     5
 10
47.90100740623632
 20
220.936869
 30
0.0
 40
0.27
 50
225.0236999999975
 51
45.02362300000315
  0
LINE
  5
67B
  8
CUT
 62
     5
 10
58.47384340623633
 20
220.750323
 30
0.0
 11
67.71016640623633
 21
220.754142
 31
0.0
  0
ARC
  5
67C
  8
CUT
 62
     5
 10
67.90100640623632
 20
220.94514
 30
0.0
 40
0.27
 50
225.0237180000022
 51
45.02364199999698
  0
ARC
  5
680
  8
CUT
 62
     5
 10
78.28285240623633
 20
220.949424
 30
0.0
 40
0.27
 50
135.0264870000021
 51
315.014959000001
  0
ARC
  5
7C3
  8
CUT
 10
129.752283
 20
416.234382
 30
0.0
 40
3.0
 50
0.0
 51
0.0
  0
ARC
  5
884
  8
CUT
 62
     5
 10
-34.25151459376367
 20
252.034191
 30
0.0
 40
0.27
 50
224.9991589999982
 51
44.9990830000016
  0
ARC
  5
887
  8
CUT
 62
     5
 10
25.43887240623632
 20
397.16787
 30
0.0
 40
147.235635
 50
249.889467
 51
290.110535
  0
ARC
  5
89F
  8
CUT
 62
     5
 10
67.38000540623632
 20
232.151729
 30
0.0
 40
0.27
 50
45.00873700000118
 51
224.9972089999986
  0
ARC
  5
8A3
  8
CUT
 62
     5
 10
56.99815840623632
 20
232.151719
 30
0.0
 40
0.27
 50
315.0000540000011
 51
134.9999780000023
  0
ARC
  5
8A4
  8
CUT
 62
     5
 10
25.43931240623633
 20
184.278875
 30
0.0
 40
57.394009
 50
56.87026700000001
 51
123.130294
  0
ARC
  5
8A5
  8
CUT
 62
     5
 10
-6.120003593763677
 20
232.151412
 30
0.0
 40
0.27
 50
45.00005400000049
 51
224.9999780000017
  0
ARC
  5
8A9
  8
CUT
 62
     5
 10
-16.50216859376368
 20
232.151421
 30
0.0
 40
0.270224
 50
315.0505509999972
 51
134.8488120000009
  0
ARC
  5
8AC
  8
CUT
 62
     5
 10
-34.25167459376367
 20
241.652353
 30
0.0
 40
0.27
 50
314.9991589999983
 51
134.9990829999973
  0
ARC
  5
8FC
  8
CUT
 62
     5
 10
-33.40330759376367
 20
288.885410736561
 30
0.0
 40
0.27
 50
224.9991589999982
 51
44.99908299999413
  0
ARC
  5
8FF
  8
CUT
 62
     5
 10
26.28707940623632
 20
434.019089736561
 30
0.0
 40
147.235635
 50
249.889467
 51
290.110535
  0
ARC
  5
917
  8
CUT
 62
     5
 10
68.22821340623632
 20
269.002948736561
 30
0.0
 40
0.27
 50
45.00873700000118
 51
224.9972089999986
  0
ARC
  5
91B
  8
CUT
 62
     5
 10
57.84636640623633
 20
269.002938736561
 30
0.0
 40
0.27
 50
315.0000540000011
 51
134.9999779999948
  0
ARC
  5
91C
  8
CUT
 62
     5
 10
26.28752040623633
 20
221.130094736561
 30
0.0
 40
57.394009
 50
56.87026700000001
 51
123.130294
  0
ARC
  5
91D
  8
CUT
 62
     5
 10
-5.271795593763677
 20
269.002631736561
 30
0.0
 40
0.27
 50
45.00005400000049
 51
224.9999780000017
  0
ARC
  5
921
  8
CUT
 62
     5
 10
-15.65396059376368
 20
269.002640736561
 30
0.0
 40
0.270224
 50
315.0505509999972
 51
134.8488120000009
  0
ARC
  5
924
  8
CUT
 62
     5
 10
-33.40346659376367
 20
278.503572736561
 30
0.0
 40
0.27
 50
314.9991590000056
 51
134.9990830000048
  0
POLYLINE
  5
D55
  8
CUT
 62
     1
 66
     1
 10
0.0
 20
0.0
 30
0.0
 70
     1
  0
VERTEX
  5
D208
  8
CUT
 62
     1
 10
-20.19340459376367
 20
318.575246
 30
0.0
  0
VERTEX
  5
D209
  8
CUT
 62
     1
 10
-20.01911559376367
 20
319.609483
 30
0.0
  0
VERTEX
  5
D20A
  8
CUT
 62
     1
 10
-19.50297859376367
 20
320.60397
 30
0.0
  0
VERTEX
  5
D20B
  8
CUT
 62
     1
 10
-18.66482859376367
 20
321.520489
 30
0.0
  0
VERTEX
  5
D20C
  8
CUT
 62
     1
 10
-17.53687459376368
 20
322.323819
 30
0.0
  0
VERTEX
  5
D20D
  8
CUT
 62
     1
 10
-16.16246459376367
 20
322.983087
 30
0.0
  0
VERTEX
  5
D20E
  8
CUT
 62
     1
 10
-14.59441459376367
 20
323.47296
 30
0.0
  0
VERTEX
  5
D20F
  8
CUT
 62
     1
 10
-12.89298459376368
 20
323.774611
 30
0.0
  0
VERTEX
  5
D210
  8
CUT
 62
     1
 10
-11.12355959376367
 20
323.876447
 30
0.0
  0
VERTEX
  5
D211
  8
CUT
 62
     1
 10
-9.354138593763675
 20
323.774556
 30
0.0
  0
VERTEX
  5
D212
  8
CUT
 62
     1
 10
-7.652718593763677
 20
323.472853
 30
0.0
  0
VERTEX
  5
D213
  8
CUT
 62
     1
 10
-6.084683593763675
 20
322.982933
 30
0.0
  0
VERTEX
  5
D214
  8
CUT
 62
     1
 10
-4.710292593763675
 20
322.323622
 30
0.0
  0
VERTEX
  5
D215
  8
CUT
 62
     1
 10
-3.582363593763674
 20
321.520258
 30
0.0
  0
VERTEX
  5
D216
  8
CUT
 62
     1
 10
-2.744241593763675
 20
320.603713
 30
0.0
  0
VERTEX
  5
D217
  8
CUT
 62
     1
 10
-2.228135593763675
 20
319.60921
 30
0.0
  0
VERTEX
  5
D218
  8
CUT
 62
     1
 10
-2.053877593763676
 20
318.574968
 30
0.0
  0
VERTEX
  5
D219
  8
CUT
 62
     1
 10
-2.228166593763675
 20
317.54073
 30
0.0
  0
VERTEX
  5
D21A
  8
CUT
 62
     1
 10
-2.744303593763675
 20
316.546243
 30
0.0
  0
VERTEX
  5
D21B
  8
CUT
 62
     1
 10
-3.582453593763674
 20
315.629724
 30
0.0
  0
VERTEX
  5
D21C
  8
CUT
 62
     1
 10
-4.710407593763676
 20
314.826395
 30
0.0
  0
VERTEX
  5
D21D
  8
CUT
 62
     1
 10
-6.084818593763675
 20
314.167126
 30
0.0
  0
VERTEX
  5
D21E
  8
CUT
 62
     1
 10
-7.652868593763674
 20
313.677253
 30
0.0
  0
VERTEX
  5
D21F
  8
CUT
 62
     1
 10
-9.354297593763675
 20
313.375603
 30
0.0
  0
VERTEX
  5
D220
  8
CUT
 62
     1
 10
-11.12372259376367
 20
313.273766
 30
0.0
  0
VERTEX
  5
D221
  8
CUT
 62
     1
 10
-12.89314459376368
 20
313.375657
 30
0.0
  0
VERTEX
  5
D222
  8
CUT
 62
     1
 10
-14.59456459376368
 20
313.67736
 30
0.0
  0
VERTEX
  5
D223
  8
CUT
 62
     1
 10
-16.16259959376367
 20
314.16728
 30
0.0
  0
VERTEX
  5
D224
  8
CUT
 62
     1
 10
-17.53698959376368
 20
314.826591
 30
0.0
  0
VERTEX
  5
D225
  8
CUT
 62
     1
 10
-18.66491859376367
 20
315.629955
 30
0.0
  0
VERTEX
  5
D226
  8
CUT
 62
     1
 10
-19.50304159376368
 20
316.5465
 30
0.0
  0
VERTEX
  5
D227
  8
CUT
 62
     1
 10
-20.01914759376368
 20
317.541003
 30
0.0
  0
SEQEND
  5
D636
  8
CUT
 62
     1
  0
POLYLINE
  5
D75
  8
CUT
 62
     1
 66
     1
 10
0.0
 20
0.0
 30
0.0
 70
     1
  0
VERTEX
  5
D228
  8
CUT
 62
     1
 10
-17.73386659376368
 20
130.268342
 30
0.0
  0
VERTEX
  5
D229
  8
CUT
 62
     1
 10
-17.36093059376368
 20
133.084442
 30
0.0
  0
VERTEX
  5
D22A
  8
CUT
 62
     1
 10
-16.25886959376368
 20
135.792001
 30
0.0
  0
VERTEX
  5
D22B
  8
CUT
 62
     1
 10
-14.47003459376367
 20
138.286971
 30
0.0
  0
VERTEX
  5
D22C
  8
CUT
 62
     1
 10
-12.06317059376367
 20
140.473471
 30
0.0
  0
VERTEX
  5
D22D
  8
CUT
 62
     1
 10
-9.130771593763676
 20
142.267474
 30
0.0
  0
VERTEX
  5
D22E
  8
CUT
 62
     1
 10
-5.785528593763676
 20
143.600038
 30
0.0
  0
VERTEX
  5
D22F
  8
CUT
 62
     1
 10
-2.155995593763677
 20
144.419954
 30
0.0
  0
VERTEX
  5
D230
  8
CUT
 62
     1
 10
1.618344406236325
 20
144.695712
 30
0.0
  0
VERTEX
  5
D231
  8
CUT
 62
     1
 10
5.392446406236324
 20
144.416716
 30
0.0
  0
VERTEX
  5
D232
  8
CUT
 62
     1
 10
9.021273406236325
 20
143.593687
 30
0.0
  0
VERTEX
  5
D233
  8
CUT
 62
     1
 10
12.36537240623633
 20
142.258254
 30
0.0
  0
VERTEX
  5
D234
  8
CUT
 62
     1
 10
15.29623140623632
 20
140.461736
 30
0.0
  0
VERTEX
  5
D235
  8
CUT
 62
     1
 10
17.70121940623632
 20
138.273172
 30
0.0
  0
VERTEX
  5
D236
  8
CUT
 62
     1
 10
19.48791240623633
 20
135.776669
 30
0.0
  0
VERTEX
  5
D237
  8
CUT
 62
     1
 10
20.58765040623632
 20
133.068165
 30
0.0
  0
VERTEX
  5
D238
  8
CUT
 62
     1
 10
20.95817140623632
 20
130.251746
 30
0.0
  0
VERTEX
  5
D239
  8
CUT
 62
     1
 10
20.58523540623633
 20
127.435646
 30
0.0
  0
VERTEX
  5
D23A
  8
CUT
 62
     1
 10
19.48317340623633
 20
124.728087
 30
0.0
  0
VERTEX
  5
D23B
  8
CUT
 62
     1
 10
17.69433940623632
 20
122.233117
 30
0.0
  0
VERTEX
  5
D23C
  8
CUT
 62
     1
 10
15.28747540623633
 20
120.046618
 30
0.0
  0
VERTEX
  5
D23D
  8
CUT
 62
     1
 10
12.35507640623632
 20
118.252615
 30
0.0
  0
VERTEX
  5
D23E
  8
CUT
 62
     1
 10
9.009832406236324
 20
116.92005
 30
0.0
  0
VERTEX
  5
D23F
  8
CUT
 62
     1
 10
5.380300406236323
 20
116.100134
 30
0.0
  0
VERTEX
  5
D240
  8
CUT
 62
     1
 10
1.605960406236324
 20
115.824376
 30
0.0
  0
VERTEX
  5
D241
  8
CUT
 62
     1
 10
-2.168141593763675
 20
116.103372
 30
0.0
  0
VERTEX
  5
D242
  8
CUT
 62
     1
 10
-5.796968593763676
 20
116.926401
 30
0.0
  0
VERTEX
  5
D243
  8
CUT
 62
     1
 10
-9.141068593763677
 20
118.261835
 30
0.0
  0
VERTEX
  5
D244
  8
CUT
 62
     1
 10
-12.07192759376368
 20
120.058353
 30
0.0
  0
VERTEX
  5
D245
  8
CUT
 62
     1
 10
-14.47691459376367
 20
122.246916
 30
0.0
  0
VERTEX
  5
D246
  8
CUT
 62
     1
 10
-16.26360859376368
 20
124.743419
 30
0.0
  0
VERTEX
  5
D247
  8
CUT
 62
     1
 10
-17.36334659376368
 20
127.451923
 30
0.0
  0
SEQEND
  5
D637
  8
CUT
 62
     1
  0
POLYLINE
  5
D95
  8
CUT
 62
     1
 66
     1
 10
0.0
 20
0.0
 30
0.0
 70
     1
  0
VERTEX
  5
D248
  8
CUT
 62
     1
 10
70.58226340623632
 20
130.268342
 30
0.0
  0
VERTEX
  5
D249
  8
CUT
 62
     1
 10
70.20932740623633
 20
133.084442
 30
0.0
  0
VERTEX
  5
D24A
  8
CUT
 62
     1
 10
69.10726640623632
 20
135.792001
 30
0.0
  0
VERTEX
  5
D24B
  8
CUT
 62
     1
 10
67.31843140623633
 20
138.286971
 30
0.0
  0
VERTEX
  5
D24C
  8
CUT
 62
     1
 10
64.91156740623633
 20
140.473471
 30
0.0
  0
VERTEX
  5
D24D
  8
CUT
 62
     1
 10
61.97916840623633
 20
142.267474
 30
0.0
  0
VERTEX
  5
D24E
  8
CUT
 62
     1
 10
58.63392540623633
 20
143.600038
 30
0.0
  0
VERTEX
  5
D24F
  8
CUT
 62
     1
 10
55.00439340623632
 20
144.419954
 30
0.0
  0
VERTEX
  5
D250
  8
CUT
 62
     1
 10
51.23005340623632
 20
144.695712
 30
0.0
  0
VERTEX
  5
D251
  8
CUT
 62
     1
 10
47.45595140623632
 20
144.416716
 30
0.0
  0
VERTEX
  5
D252
  8
CUT
 62
     1
 10
43.82712340623632
 20
143.593687
 30
0.0
  0
VERTEX
  5
D253
  8
CUT
 62
     1
 10
40.48302440623632
 20
142.258254
 30
0.0
  0
VERTEX
  5
D254
  8
CUT
 62
     1
 10
37.55216540623633
 20
140.461736
 30
0.0
  0
VERTEX
  5
D255
  8
CUT
 62
     1
 10
35.14717840623632
 20
138.273172
 30
0.0
  0
VERTEX
  5
D256
  8
CUT
 62
     1
 10
33.36048440623632
 20
135.776669
 30
0.0
  0
VERTEX
  5
D257
  8
CUT
 62
     1
 10
32.26074640623632
 20
133.068165
 30
0.0
  0
VERTEX
  5
D258
  8
CUT
 62
     1
 10
31.89022540623633
 20
130.251746
 30
0.0
  0
VERTEX
  5
D259
  8
CUT
 62
     1
 10
32.26316240623633
 20
127.435646
 30
0.0
  0
VERTEX
  5
D25A
  8
CUT
 62
     1
 10
33.36522340623632
 20
124.728087
 30
0.0
  0
VERTEX
  5
D25B
  8
CUT
 62
     1
 10
35.15405740623633
 20
122.233117
 30
0.0
  0
VERTEX
  5
D25C
  8
CUT
 62
     1
 10
37.56092140623633
 20
120.046618
 30
0.0
  0
VERTEX
  5
D25D
  8
CUT
 62
     1
 10
40.49332040623632
 20
118.252615
 30
0.0
  0
VERTEX
  5
D25E
  8
CUT
 62
     1
 10
43.83856440623632
 20
116.92005
 30
0.0
  0
VERTEX
  5
D25F
  8
CUT
 62
     1
 10
47.46809640623633
 20
116.100134
 30
0.0
  0
VERTEX
  5
D260
  8
CUT
 62
     1
 10
51.24243640623632
 20
115.824376
 30
0.0
  0
VERTEX
  5
D261
  8
CUT
 62
     1
 10
55.01653840623632
 20
116.103372
 30
0.0
  0
VERTEX
  5
D262
  8
CUT
 62
     1
 10
58.64536640623632
 20
116.926401
 30
0.0
  0
VERTEX
  5
D263
  8
CUT
 62
     1
 10
61.98946540623632
 20
118.261835
 30
0.0
  0
VERTEX
  5
D264
  8
CUT
 62
     1
 10
64.92032440623632
 20
120.058353
 30
0.0
  0
VERTEX
  5
D265
  8
CUT
 62
     1
 10
67.32531140623632
 20
122.246916
 30
0.0
  0
VERTEX
  5
D266
  8
CUT
 62
     1
 10
69.11200540623632
 20
124.743419
 30
0.0
  0
VERTEX
  5
D267
  8
CUT
 62
     1
 10
70.21174340623632
 20
127.451923
 30
0.0
  0
SEQEND
  5
D638
  8
CUT
 62
     1
  0
POLYLINE
  5
DA5
  8
CUT
 62
     5
 66
     1
 10
0.0
 20
0.0
 30
0.0
  0
VERTEX
  5
D268
  8
CUT
 62
     5
 10
86.30848742541902
 20
135.446357612566
 30
0.0
 42
1.0
  0
VERTEX
  5
D269
  8
CUT
 62
     5
 10
85.92680138705363
 20
135.064368387434
 30
0.0
 42
0.000004834562028
  0
VERTEX
  5
D26A
  8
CUT
 62
     5
 10
85.92680508059053
 20
135.0643646969
 30
0.0
  0
SEQEND
  5
D639
  8
CUT
 62
     5
  0
POLYLINE
  5
DA7
  8
CUT
 62
     5
 66
     1
 10
0.0
 20
0.0
 30
0.0
  0
VERTEX
  5
D26B
  8
CUT
 62
     5
 10
85.92680540623633
 20
135.064364
 30
0.0
  0
VERTEX
  5
D26C
  8
CUT
 62
     5
 10
85.93185840623633
 20
122.694364
 30
0.0
  0
VERTEX
  5
D26D
  8
CUT
 62
     5
 10
83.81387140623633
 20
122.69352
 30
0.0
  0
SEQEND
  5
D63A
  8
CUT
 62
     5
  0
POLYLINE
  5
DAD
  8
CUT
 62
     5
 66
     1
 10
0.0
 20
0.0
 30
0.0
  0
VERTEX
  5
D26E
  8
CUT
 62
     5
 10
83.81606240623633
 20
117.193521
 30
0.0
  0
VERTEX
  5
D26F
  8
CUT
 62
     5
 10
85.93410440623633
 20
117.194364
 30
0.0
  0
VERTEX
  5
D270
  8
CUT
 62
     5
 10
85.93890240623632
 20
105.447006
 30
0.0
  0
VERTEX
  5
D271
  8
CUT
 62
     5
 10
78.19039540623632
 20
105.442715
 30
0.0
  0
VERTEX
  5
D272
  8
CUT
 62
     5
 10
68.57223440623632
 20
105.438736
 30
0.0
  0
SEQEND
  5
D63B
  8
CUT
 62
     5
  0
POLYLINE
  5
DB2
  8
CUT
 62
     5
 66
     1
 10
0.0
 20
0.0
 30
0.0
  0
VERTEX
  5
D273
  8
CUT
 62
     5
 10
68.19055440623633
 20
105.056741
 30
0.0
  0
VERTEX
  5
D274
  8
CUT
 62
     5
 10
68.19155440623632
 20
102.638579
 30
0.0
  0
VERTEX
  5
D275
  8
CUT
 62
     5
 10
58.19155540623632
 20
102.634442
 30
0.0
  0
VERTEX
  5
D276
  8
CUT
 62
     5
 10
58.19055540623633
 20
105.052605
 30
0.0
  0
SEQEND
  5
D63C
  8
CUT
 62
     5
  0
POLYLINE
  5
DC2
  8
CUT
 62
     5
 66
     1
 10
0.0
 20
0.0
 30
0.0
  0
VERTEX
  5
D277
  8
CUT
 62
     5
 10
57.80855940623633
 20
105.434284
 30
0.0
  0
VERTEX
  5
D278
  8
CUT
 62
     5
 10
31.44039940623632
 20
105.42338
 30
0.0
  0
VERTEX
  5
D279
  8
CUT
 62
     5
 10
31.44155740623633
 20
102.62338
 30
0.0
  0
VERTEX
  5
D27A
  8
CUT
 62
     5
 10
27.94241140623632
 20
102.621932
 30
0.0
  0
VERTEX
  5
D27B
  8
CUT
 62
     5
 10
27.93841240623632
 20
111.622542
 30
0.0
  0
VERTEX
  5
D27C
  8
CUT
 62
     5
 10
29.18853340623632
 20
111.586528
 30
0.0
  0
VERTEX
  5
D27D
  8
CUT
 62
     5
 10
29.18145440623633
 20
113.806517
 30
0.0
  0
VERTEX
  5
D27E
  8
CUT
 62
     5
 10
27.93158840623632
 20
113.762531
 30
0.0
  0
VERTEX
  5
D27F
  8
CUT
 62
     5
 10
27.92419140623633
 20
116.082519
 30
0.0
  0
VERTEX
  5
D280
  8
CUT
 62
     5
 10
26.42419840623632
 20
116.077736
 30
0.0
  0
VERTEX
  5
D281
  8
CUT
 62
     5
 10
24.92420640623633
 20
116.082519
 30
0.0
  0
VERTEX
  5
D282
  8
CUT
 62
     5
 10
24.91680840623632
 20
113.762531
 30
0.0
  0
VERTEX
  5
D283
  8
CUT
 62
     5
 10
23.66694240623632
 20
113.806517
 30
0.0
  0
VERTEX
  5
D284
  8
CUT
 62
     5
 10
23.65986340623633
 20
111.586528
 30
0.0
  0
VERTEX
  5
D285
  8
CUT
 62
     5
 10
24.90998440623633
 20
111.622542
 30
0.0
  0
VERTEX
  5
D286
  8
CUT
 62
     5
 10
24.90598640623632
 20
102.621932
 30
0.0
  0
VERTEX
  5
D287
  8
CUT
 62
     5
 10
21.40683940623633
 20
102.62338
 30
0.0
  0
VERTEX
  5
D288
  8
CUT
 62
     5
 10
21.40799740623632
 20
105.42338
 30
0.0
  0
VERTEX
  5
D289
  8
CUT
 62
     5
 10
-4.960162593763677
 20
105.434284
 30
0.0
  0
SEQEND
  5
D63D
  8
CUT
 62
     5
  0
POLYLINE
  5
DC9
  8
CUT
 62
     5
 66
     1
 10
0.0
 20
0.0
 30
0.0
  0
VERTEX
  5
D28A
  8
CUT
 62
     5
 10
-5.342158593763674
 20
105.052605
 30
0.0
  0
VERTEX
  5
D28B
  8
CUT
 62
     5
 10
-5.343158593763675
 20
102.634442
 30
0.0
  0
VERTEX
  5
D28C
  8
CUT
 62
     5
 10
-15.34315759376368
 20
102.638579
 30
0.0
  0
VERTEX
  5
D28D
  8
CUT
 62
     5
 10
-15.34215759376367
 20
105.056741
 30
0.0
  0
SEQEND
  5
D63E
  8
CUT
 62
     5
  0
POLYLINE
  5
DCD
  8
CUT
 62
     5
 66
     1
 10
0.0
 20
0.0
 30
0.0
  0
VERTEX
  5
D28E
  8
CUT
 62
     5
 10
-15.72383759376368
 20
105.438736
 30
0.0
  0
VERTEX
  5
D28F
  8
CUT
 62
     5
 10
-25.34199859376368
 20
105.442715
 30
0.0
  0
VERTEX
  5
D290
  8
CUT
 62
     5
 10
-33.09050559376368
 20
105.447006
 30
0.0
  0
VERTEX
  5
D291
  8
CUT
 62
     5
 10
-33.08570659376367
 20
117.194364
 30
0.0
  0
VERTEX
  5
D292
  8
CUT
 62
     5
 10
-30.96766459376367
 20
117.193521
 30
0.0
  0
SEQEND
  5
D63F
  8
CUT
 62
     5
  0
POLYLINE
  5
DD2
  8
CUT
 62
     5
 66
     1
 10
0.0
 20
0.0
 30
0.0
  0
VERTEX
  5
D293
  8
CUT
 62
     5
 10
-30.96547459376367
 20
122.69352
 30
0.0
  0
VERTEX
  5
D294
  8
CUT
 62
     5
 10
-33.08346059376368
 20
122.694364
 30
0.0
  0
VERTEX
  5
D295
  8
CUT
 62
     5
 10
-33.07840759376367
 20
135.064364
 30
0.0
  0
SEQEND
  5
D640
  8
CUT
 62
     5
  0
POLYLINE
  5
DD4
  8
CUT
 62
     5
 66
     1
 10
0.0
 20
0.0
 30
0.0
  0
VERTEX
  5
D296
  8
CUT
 62
     5
 10
-33.07840826811788
 20
135.0643646969
 30
0.0
 42
0.9999999999999999
  0
VERTEX
  5
D297
  8
CUT
 62
     5
 10
-33.46008691940948
 20
135.4463613030999
 30
0.0
 42
0.0000048345620281
  0
VERTEX
  5
D298
  8
CUT
 62
     5
 10
-33.46009061294637
 20
135.446357612566
 30
0.0
  0
SEQEND
  5
D641
  8
CUT
 62
     5
  0
POLYLINE
  5
DE4
  8
CUT
 62
     5
 66
     1
 10
0.0
 20
0.0
 30
0.0
  0
VERTEX
  5
D299
  8
CUT
 62
     5
 10
-33.46009059376367
 20
135.446357
 30
0.0
  0
VERTEX
  5
D29A
  8
CUT
 62
     5
 10
-36.07825159376367
 20
135.447398
 30
0.0
  0
VERTEX
  5
D29B
  8
CUT
 62
     5
 10
-36.07685759376368
 20
138.947398
 30
0.0
  0
VERTEX
  5
D29C
  8
CUT
 62
     5
 10
-27.07695059376368
 20
138.943814
 30
0.0
  0
VERTEX
  5
D29D
  8
CUT
 62
     5
 10
-27.11748659376367
 20
137.693831
 30
0.0
  0
VERTEX
  5
D29E
  8
CUT
 62
     5
 10
-24.89748659376367
 20
137.692879
 30
0.0
  0
VERTEX
  5
D29F
  8
CUT
 62
     5
 10
-24.93695059376368
 20
138.942896
 30
0.0
  0
VERTEX
  5
D2A0
  8
CUT
 62
     5
 10
-22.61695059376368
 20
138.941901
 30
0.0
  0
VERTEX
  5
D2A1
  8
CUT
 62
     5
 10
-22.61566459376368
 20
141.941901
 30
0.0
  0
VERTEX
  5
D2A2
  8
CUT
 62
     5
 10
-24.93566359376368
 20
141.942896
 30
0.0
  0
VERTEX
  5
D2A3
  8
CUT
 62
     5
 10
-24.89512759376368
 20
143.192878
 30
0.0
  0
VERTEX
  5
D2A4
  8
CUT
 62
     5
 10
-27.11512759376367
 20
143.193831
 30
0.0
  0
VERTEX
  5
D2A5
  8
CUT
 62
     5
 10
-27.07566359376368
 20
141.943814
 30
0.0
  0
VERTEX
  5
D2A6
  8
CUT
 62
     5
 10
-36.07566359376368
 20
141.947398
 30
0.0
  0
VERTEX
  5
D2A7
  8
CUT
 62
     5
 10
-36.07426859376368
 20
145.447398
 30
0.0
  0
VERTEX
  5
D2A8
  8
CUT
 62
     5
 10
-33.45611359376367
 20
145.446355
 30
0.0
  0
SEQEND
  5
D642
  8
CUT
 62
     5
  0
POLYLINE
  5
DE6
  8
CUT
 62
     5
 66
     1
 10
0.0
 20
0.0
 30
0.0
  0
VERTEX
  5
D2A9
  8
CUT
 62
     5
 10
-33.45611389686361
 20
145.4463556743542
 30
0.0
 42
0.9999999999999999
  0
VERTEX
  5
D2AA
  8
CUT
 62
     5
 10
-33.07411729066374
 20
145.8280343256458
 30
0.0
 42
0.000013164145884
  0
VERTEX
  5
D2AB
  8
CUT
 62
     5
 10
-33.07412733987542
 20
145.8280443826993
 30
0.0
  0
SEQEND
  5
D643
  8
CUT
 62
     5
  0
POLYLINE
  5
DE8
  8
CUT
 62
     5
 66
     1
 10
0.0
 20
0.0
 30
0.0
  0
VERTEX
  5
D2AC
  8
CUT
 62
     5
 10
-33.07412659376368
 20
145.828044
 30
0.0
  0
VERTEX
  5
D2AD
  8
CUT
 62
     5
 10
-33.07059459376367
 20
155.445131
 30
0.0
  0
VERTEX
  5
D2AE
  8
CUT
 62
     5
 10
-25.70313759376367
 20
155.442829
 30
0.0
  0
SEQEND
  5
D644
  8
CUT
 62
     5
  0
POLYLINE
  5
DEC
  8
CUT
 62
     5
 66
     1
 10
0.0
 20
0.0
 30
0.0
  0
VERTEX
  5
D2AF
  8
CUT
 62
     5
 10
-25.32116159376368
 20
155.824529
 30
0.0
  0
VERTEX
  5
D2B0
  8
CUT
 62
     5
 10
-25.32016259376368
 20
158.24116
 30
0.0
  0
VERTEX
  5
D2B1
  8
CUT
 62
     5
 10
-15.32016359376367
 20
158.237024
 30
0.0
  0
VERTEX
  5
D2B2
  8
CUT
 62
     5
 10
-15.32116259376367
 20
155.820412
 30
0.0
  0
SEQEND
  5
D645
  8
CUT
 62
     5
  0
POLYLINE
  5
DEF
  8
CUT
 62
     5
 66
     1
 10
0.0
 20
0.0
 30
0.0
  0
VERTEX
  5
D2B3
  8
CUT
 62
     5
 10
-5.703159876878967
 20
155.4345966543529
 30
0.0
 42
1.0
  0
VERTEX
  5
D2B4
  8
CUT
 62
     5
 10
-5.321163310648384
 20
155.8162753456471
 30
0.0
 42
0.0000006501351464
  0
VERTEX
  5
D2B5
  8
CUT
 62
     5
 10
-5.321163806934493
 20
155.8162758423452
 30
0.0
  0
SEQEND
  5
D646
  8
CUT
 62
     5
  0
POLYLINE
  5
DF3
  8
CUT
 62
     5
 66
     1
 10
0.0
 20
0.0
 30
0.0
  0
VERTEX
  5
D2B6
  8
CUT
 62
     5
 10
-5.321163593763675
 20
155.816276
 30
0.0
  0
VERTEX
  5
D2B7
  8
CUT
 62
     5
 10
-5.320163593763674
 20
158.234438
 30
0.0
  0
VERTEX
  5
D2B8
  8
CUT
 62
     5
 10
4.679835406236325
 20
158.230302
 30
0.0
  0
VERTEX
  5
D2B9
  8
CUT
 62
     5
 10
4.678835406236324
 20
155.81214
 30
0.0
  0
SEQEND
  5
D647
  8
CUT
 62
     5
  0
POLYLINE
  5
E05
  8
CUT
 62
     5
 66
     1
 10
0.0
 20
0.0
 30
0.0
  0
VERTEX
  5
D2BA
  8
CUT
 62
     5
 10
21.42883440623632
 20
155.805213
 30
0.0
  0
VERTEX
  5
D2BB
  8
CUT
 62
     5
 10
21.42983440623632
 20
158.223375
 30
0.0
  0
VERTEX
  5
D2BC
  8
CUT
 62
     5
 10
24.92983440623632
 20
158.221927
 30
0.0
  0
VERTEX
  5
D2BD
  8
CUT
 62
     5
 10
24.92607240623633
 20
149.125928
 30
0.0
  0
VERTEX
  5
D2BE
  8
CUT
 62
     5
 10
23.67612940623632
 20
149.262464
 30
0.0
  0
VERTEX
  5
D2BF
  8
CUT
 62
     5
 10
23.67517640623633
 20
147.042464
 30
0.0
  0
VERTEX
  5
D2C0
  8
CUT
 62
     5
 10
24.92519340623632
 20
147.081928
 30
0.0
  0
VERTEX
  5
D2C1
  8
CUT
 62
     5
 10
24.92419840623633
 20
144.761928
 30
0.0
  0
VERTEX
  5
D2C2
  8
CUT
 62
     5
 10
26.42419840623632
 20
144.761285
 30
0.0
  0
VERTEX
  5
D2C3
  8
CUT
 62
     5
 10
27.92419840623632
 20
144.761928
 30
0.0
  0
VERTEX
  5
D2C4
  8
CUT
 62
     5
 10
27.92320340623633
 20
147.081928
 30
0.0
  0
VERTEX
  5
D2C5
  8
CUT
 62
     5
 10
29.17322040623633
 20
147.042464
 30
0.0
  0
VERTEX
  5
D2C6
  8
CUT
 62
     5
 10
29.17226840623633
 20
149.262464
 30
0.0
  0
VERTEX
  5
D2C7
  8
CUT
 62
     5
 10
27.92232540623633
 20
149.125928
 30
0.0
  0
VERTEX
  5
D2C8
  8
CUT
 62
     5
 10
27.91856340623632
 20
158.221927
 30
0.0
  0
VERTEX
  5
D2C9
  8
CUT
 62
     5
 10
31.41856240623633
 20
158.223375
 30
0.0
  0
VERTEX
  5
D2CA
  8
CUT
 62
     5
 10
31.41956340623632
 20
155.805213
 30
0.0
  0
SEQEND
  5
D648
  8
CUT
 62
     5
  0
POLYLINE
  5
E0C
  8
CUT
 62
     5
 66
     1
 10
0.0
 20
0.0
 30
0.0
  0
VERTEX
  5
D2CB
  8
CUT
 62
     5
 10
48.16956140623633
 20
155.81214
 30
0.0
  0
VERTEX
  5
D2CC
  8
CUT
 62
     5
 10
48.16856140623632
 20
158.230302
 30
0.0
  0
VERTEX
  5
D2CD
  8
CUT
 62
     5
 10
58.16856040623632
 20
158.234438
 30
0.0
  0
VERTEX
  5
D2CE
  8
CUT
 62
     5
 10
58.16956040623633
 20
155.816276
 30
0.0
  0
SEQEND
  5
D649
  8
CUT
 62
     5
  0
POLYLINE
  5
E0E
  8
CUT
 62
     5
 66
     1
 10
0.0
 20
0.0
 30
0.0
  0
VERTEX
  5
D2CF
  8
CUT
 62
     5
 10
58.16956061940714
 20
155.8162758423452
 30
0.0
 42
1.0
  0
VERTEX
  5
D2D0
  8
CUT
 62
     5
 10
58.55155619306551
 20
155.4345961576548
 30
0.0
 42
0.0000006501351462
  0
VERTEX
  5
D2D1
  8
CUT
 62
     5
 10
58.55155668935161
 20
155.4345966543529
 30
0.0
  0
SEQEND
  5
D64A
  8
CUT
 62
     5
  0
POLYLINE
  5
E13
  8
CUT
 62
     5
 66
     1
 10
0.0
 20
0.0
 30
0.0
  0
VERTEX
  5
D2D2
  8
CUT
 62
     5
 10
68.16955940623633
 20
155.820412
 30
0.0
  0
VERTEX
  5
D2D3
  8
CUT
 62
     5
 10
68.16856040623632
 20
158.237024
 30
0.0
  0
VERTEX
  5
D2D4
  8
CUT
 62
     5
 10
78.16855940623633
 20
158.24116
 30
0.0
  0
VERTEX
  5
D2D5
  8
CUT
 62
     5
 10
78.16955940623633
 20
155.824529
 30
0.0
  0
SEQEND
  5
D64B
  8
CUT
 62
     5
  0
POLYLINE
  5
E15
  8
CUT
 62
     5
 66
     1
 10
0.0
 20
0.0
 30
0.0
  0
VERTEX
  5
D2D6
  8
CUT
 62
     5
 10
78.55153440623633
 20
155.442829
 30
0.0
  0
VERTEX
  5
D2D7
  8
CUT
 62
     5
 10
85.91899140623633
 20
155.445131
 30
0.0
  0
VERTEX
  5
D2D8
  8
CUT
 62
     5
 10
85.92252440623632
 20
145.828044
 30
0.0
  0
SEQEND
  5
D64C
  8
CUT
 62
     5
  0
POLYLINE
  5
E17
  8
CUT
 62
     5
 66
     1
 10
0.0
 20
0.0
 30
0.0
  0
VERTEX
  5
D2D9
  8
CUT
 62
     5
 10
85.92252415234806
 20
145.8280443826993
 30
0.0
 42
1.000000000000001
  0
VERTEX
  5
D2DA
  8
CUT
 62
     5
 10
86.30450066012459
 20
145.4463456173007
 30
0.0
 42
0.0000131641458837
  0
VERTEX
  5
D2DB
  8
CUT
 62
     5
 10
86.30451070933627
 20
145.4463556743542
 30
0.0
  0
SEQEND
  5
D64D
  8
CUT
 62
     5
  0
POLYLINE
  5
E19
  8
CUT
 62
     5
 66
     1
 10
0.0
 20
0.0
 30
0.0
  0
VERTEX
  5
D2DC
  8
CUT
 62
     5
 10
86.30451040623632
 20
145.446355
 30
0.0
  0
VERTEX
  5
D2DD
  8
CUT
 62
     5
 10
88.92266640623633
 20
145.447398
 30
0.0
  0
VERTEX
  5
D2DE
  8
CUT
 62
     5
 10
88.92406040623632
 20
141.947398
 30
0.0
  0
VERTEX
  5
D2DF
  8
CUT
 62
     5
 10
79.92406140623632
 20
141.943814
 30
0.0
  0
VERTEX
  5
D2E0
  8
CUT
 62
     5
 10
79.96352440623633
 20
143.193831
 30
0.0
  0
VERTEX
  5
D2E1
  8
CUT
 62
     5
 10
77.74352540623633
 20
143.192878
 30
0.0
  0
VERTEX
  5
D2E2
  8
CUT
 62
     5
 10
77.78406140623632
 20
141.942896
 30
0.0
  0
VERTEX
  5
D2E3
  8
CUT
 62
     5
 10
75.46406140623633
 20
141.941901
 30
0.0
  0
VERTEX
  5
D2E4
  8
CUT
 62
     5
 10
75.46534840623633
 20
138.941901
 30
0.0
  0
VERTEX
  5
D2E5
  8
CUT
 62
     5
 10
77.78534740623633
 20
138.942896
 30
0.0
  0
VERTEX
  5
D2E6
  8
CUT
 62
     5
 10
77.74588440623633
 20
137.692879
 30
0.0
  0
VERTEX
  5
D2E7
  8
CUT
 62
     5
 10
79.96588340623633
 20
137.693831
 30
0.0
  0
VERTEX
  5
D2E8
  8
CUT
 62
     5
 10
79.92534740623633
 20
138.943814
 30
0.0
  0
VERTEX
  5
D2E9
  8
CUT
 62
     5
 10
88.92525540623632
 20
138.947398
 30
0.0
  0
VERTEX
  5
D2EA
  8
CUT
 62
     5
 10
88.92664840623632
 20
135.447398
 30
0.0
  0
VERTEX
  5
D2EB
  8
CUT
 62
     5
 10
86.30848740623632
 20
135.446357
 30
0.0
  0
SEQEND
  5
D64E
  8
CUT
 62
     5
  0
POLYLINE
  5
E23
  8
CUT
 62
     5
 66
     1
 10
0.0
 20
0.0
 30
0.0
  0
VERTEX
  5
D2EC
  8
CUT
 62
     5
 10
-30.24256159376367
 20
320.262613
 30
0.0
  0
VERTEX
  5
D2ED
  8
CUT
 62
     5
 10
-30.28258059376368
 20
319.012614
 30
0.0
  0
VERTEX
  5
D2EE
  8
CUT
 62
     5
 10
-28.06258059376368
 20
319.01258
 30
0.0
  0
VERTEX
  5
D2EF
  8
CUT
 62
     5
 10
-28.10256159376367
 20
320.26258
 30
0.0
  0
VERTEX
  5
D2F0
  8
CUT
 62
     5
 10
-25.78256159376367
 20
320.262545
 30
0.0
  0
VERTEX
  5
D2F1
  8
CUT
 62
     5
 10
-25.78251559376368
 20
323.262545
 30
0.0
  0
VERTEX
  5
D2F2
  8
CUT
 62
     5
 10
-28.10251559376368
 20
323.26258
 30
0.0
  0
VERTEX
  5
D2F3
  8
CUT
 62
     5
 10
-28.06249659376368
 20
324.51258
 30
0.0
  0
VERTEX
  5
D2F4
  8
CUT
 62
     5
 10
-30.28249659376367
 20
324.512614
 30
0.0
  0
VERTEX
  5
D2F5
  8
CUT
 62
     5
 10
-30.24251559376367
 20
323.262613
 30
0.0
  0
VERTEX
  5
D2F6
  8
CUT
 62
     5
 10
-36.24304659376368
 20
323.262889
 30
0.0
  0
VERTEX
  5
D2F7
  8
CUT
 62
     5
 10
-36.24299359376367
 20
326.760971
 30
0.0
  0
VERTEX
  5
D2F8
  8
CUT
 62
     5
 10
-33.62483059376368
 20
326.760931
 30
0.0
  0
SEQEND
  5
D64F
  8
CUT
 62
     5
  0
POLYLINE
  5
E28
  8
CUT
 62
     5
 66
     1
 10
0.0
 20
0.0
 30
0.0
  0
VERTEX
  5
D2F9
  8
CUT
 62
     5
 10
-33.24298759376367
 20
327.142763
 30
0.0
  0
VERTEX
  5
D2FA
  8
CUT
 62
     5
 10
-33.24288459376368
 20
333.826693
 30
0.0
  0
VERTEX
  5
D2FB
  8
CUT
 62
     5
 10
-24.36789459376368
 20
333.826693
 30
0.0
  0
SEQEND
  5
D650
  8
CUT
 62
     5
  0
POLYLINE
  5
E2B
  8
CUT
 62
     5
 66
     1
 10
0.0
 20
0.0
 30
0.0
  0
VERTEX
  5
D2FC
  8
CUT
 62
     5
 10
76.88085340623633
 20
333.826694
 30
0.0
  0
VERTEX
  5
D2FD
  8
CUT
 62
     5
 10
85.75461040623632
 20
333.826694
 30
0.0
  0
VERTEX
  5
D2FE
  8
CUT
 62
     5
 10
85.75463440623632
 20
327.140848
 30
0.0
  0
SEQEND
  5
D651
  8
CUT
 62
     5
  0
POLYLINE
  5
E2D
  8
CUT
 62
     5
 66
     1
 10
0.0
 20
0.0
 30
0.0
  0
VERTEX
  5
D2FF
  8
CUT
 62
     5
 10
85.75463410179832
 20
327.1408473574012
 30
0.0
 42
0.9999999999999999
  0
VERTEX
  5
D300
  8
CUT
 62
     5
 10
86.13647071067435
 20
326.7590086425988
 30
0.0
 42
0.0000048345620281
  0
VERTEX
  5
D301
  8
CUT
 62
     5
 10
86.13647440268456
 20
326.75901233466
 30
0.0
  0
SEQEND
  5
D652
  8
CUT
 62
     5
  0
POLYLINE
  5
E3D
  8
CUT
 62
     5
 66
     1
 10
0.0
 20
0.0
 30
0.0
  0
VERTEX
  5
D302
  8
CUT
 62
     5
 10
86.13647440623633
 20
326.759013
 30
0.0
  0
VERTEX
  5
D303
  8
CUT
 62
     5
 10
88.75463540623632
 20
326.759054
 30
0.0
  0
VERTEX
  5
D304
  8
CUT
 62
     5
 10
88.75469040623632
 20
323.259054
 30
0.0
  0
VERTEX
  5
D305
  8
CUT
 62
     5
 10
82.75478240623633
 20
323.258916
 30
0.0
  0
VERTEX
  5
D306
  8
CUT
 62
     5
 10
82.79480140623633
 20
324.508916
 30
0.0
  0
VERTEX
  5
D307
  8
CUT
 62
     5
 10
80.57480140623632
 20
324.50895
 30
0.0
  0
VERTEX
  5
D308
  8
CUT
 62
     5
 10
80.61478240623633
 20
323.258949
 30
0.0
  0
VERTEX
  5
D309
  8
CUT
 62
     5
 10
78.29478240623632
 20
323.258985
 30
0.0
  0
VERTEX
  5
D30A
  8
CUT
 62
     5
 10
78.29473640623632
 20
320.258985
 30
0.0
  0
VERTEX
  5
D30B
  8
CUT
 62
     5
 10
80.61473640623632
 20
320.258949
 30
0.0
  0
VERTEX
  5
D30C
  8
CUT
 62
     5
 10
80.57471740623633
 20
319.00895
 30
0.0
  0
VERTEX
  5
D30D
  8
CUT
 62
     5
 10
82.79471740623633
 20
319.008916
 30
0.0
  0
VERTEX
  5
D30E
  8
CUT
 62
     5
 10
82.75473640623632
 20
320.258916
 30
0.0
  0
VERTEX
  5
D30F
  8
CUT
 62
     5
 10
88.75473640623632
 20
320.259054
 30
0.0
  0
VERTEX
  5
D310
  8
CUT
 62
     5
 10
88.75478940623633
 20
316.759054
 30
0.0
  0
VERTEX
  5
D311
  8
CUT
 62
     5
 10
86.13663340623633
 20
316.759014
 30
0.0
  0
SEQEND
  5
D653
  8
CUT
 62
     5
  0
POLYLINE
  5
E3F
  8
CUT
 62
     5
 66
     1
 10
0.0
 20
0.0
 30
0.0
  0
VERTEX
  5
D312
  8
CUT
 62
     5
 10
86.13663376363759
 20
316.759013304438
 30
0.0
 42
0.9999999999999999
  0
VERTEX
  5
D313
  8
CUT
 62
     5
 10
85.75479504883505
 20
316.377176695562
 30
0.0
 42
0.0000131641458839
  0
VERTEX
  5
D314
  8
CUT
 62
     5
 10
85.75480510220537
 20
316.3771666426656
 30
0.0
  0
SEQEND
  5
D654
  8
CUT
 62
     5
  0
POLYLINE
  5
E41
  8
CUT
 62
     5
 66
     1
 10
0.0
 20
0.0
 30
0.0
  0
VERTEX
  5
D315
  8
CUT
 62
     5
 10
85.75480540623633
 20
316.377167
 30
0.0
  0
VERTEX
  5
D316
  8
CUT
 62
     5
 10
85.75525740623632
 20
307.260925
 30
0.0
  0
VERTEX
  5
D317
  8
CUT
 62
     5
 10
68.38850140623633
 20
307.260333
 30
0.0
  0
SEQEND
  5
D655
  8
CUT
 62
     5
  0
POLYLINE
  5
E45
  8
CUT
 62
     5
 66
     1
 10
0.0
 20
0.0
 30
0.0
  0
VERTEX
  5
D318
  8
CUT
 62
     5
 10
68.00668340623632
 20
306.878476
 30
0.0
  0
VERTEX
  5
D319
  8
CUT
 62
     5
 10
68.00668340623632
 20
304.461844
 30
0.0
  0
VERTEX
  5
D31A
  8
CUT
 62
     5
 10
58.00668340623633
 20
304.461845
 30
0.0
  0
VERTEX
  5
D31B
  8
CUT
 62
     5
 10
58.00668340623633
 20
306.878457
 30
0.0
  0
SEQEND
  5
D656
  8
CUT
 62
     5
  0
POLYLINE
  5
E4B
  8
CUT
 62
     5
 66
     1
 10
0.0
 20
0.0
 30
0.0
  0
VERTEX
  5
D31C
  8
CUT
 62
     5
 10
-5.493316593763677
 20
306.87815
 30
0.0
  0
VERTEX
  5
D31D
  8
CUT
 62
     5
 10
-5.493316593763677
 20
304.461538
 30
0.0
  0
VERTEX
  5
D31E
  8
CUT
 62
     5
 10
-15.49331659376367
 20
304.461537
 30
0.0
  0
VERTEX
  5
D31F
  8
CUT
 62
     5
 10
-15.49331659376367
 20
306.878169
 30
0.0
  0
SEQEND
  5
D657
  8
CUT
 62
     5
  0
POLYLINE
  5
E4D
  8
CUT
 62
     5
 66
     1
 10
0.0
 20
0.0
 30
0.0
  0
VERTEX
  5
D320
  8
CUT
 62
     5
 10
-15.87513559376367
 20
307.260659
 30
0.0
  0
VERTEX
  5
D321
  8
CUT
 62
     5
 10
-33.24329259376368
 20
307.260925
 30
0.0
  0
VERTEX
  5
D322
  8
CUT
 62
     5
 10
-33.24315259376367
 20
316.379087
 30
0.0
  0
SEQEND
  5
D658
  8
CUT
 62
     5
  0
POLYLINE
  5
E52
  8
CUT
 62
     5
 66
     1
 10
0.0
 20
0.0
 30
0.0
  0
VERTEX
  5
D323
  8
CUT
 62
     5
 10
-33.62498459376367
 20
316.760931
 30
0.0
  0
VERTEX
  5
D324
  8
CUT
 62
     5
 10
-36.24314659376368
 20
316.760971
 30
0.0
  0
VERTEX
  5
D325
  8
CUT
 62
     5
 10
-36.24309259376368
 20
320.262889
 30
0.0
  0
VERTEX
  5
D326
  8
CUT
 62
     5
 10
-30.24251559376367
 20
320.262613
 30
0.0
  0
SEQEND
  5
D659
  8
CUT
 62
     5
  0
POLYLINE
  5
E71
  8
CUT
 62
     1
 66
     1
 10
0.0
 20
0.0
 30
0.0
 70
     1
  0
VERTEX
  5
D327
  8
CUT
 62
     1
 10
72.01625440623633
 20
320.60397
 30
0.0
  0
VERTEX
  5
D328
  8
CUT
 62
     1
 10
71.17810440623633
 20
321.520489
 30
0.0
  0
VERTEX
  5
D329
  8
CUT
 62
     1
 10
70.05015040623633
 20
322.323819
 30
0.0
  0
VERTEX
  5
D32A
  8
CUT
 62
     1
 10
68.67573940623632
 20
322.983087
 30
0.0
  0
VERTEX
  5
D32B
  8
CUT
 62
     1
 10
67.10768940623632
 20
323.47296
 30
0.0
  0
VERTEX
  5
D32C
  8
CUT
 62
     1
 10
65.40626040623633
 20
323.774611
 30
0.0
  0
VERTEX
  5
D32D
  8
CUT
 62
     1
 10
63.63683540623633
 20
323.876447
 30
0.0
  0
VERTEX
  5
D32E
  8
CUT
 62
     1
 10
61.86741340623632
 20
323.774556
 30
0.0
  0
VERTEX
  5
D32F
  8
CUT
 62
     1
 10
60.16599340623632
 20
323.472853
 30
0.0
  0
VERTEX
  5
D330
  8
CUT
 62
     1
 10
58.59795840623633
 20
322.982933
 30
0.0
  0
VERTEX
  5
D331
  8
CUT
 62
     1
 10
57.22356840623632
 20
322.323622
 30
0.0
  0
VERTEX
  5
D332
  8
CUT
 62
     1
 10
56.09563940623632
 20
321.520258
 30
0.0
  0
VERTEX
  5
D333
  8
CUT
 62
     1
 10
55.25751640623633
 20
320.603713
 30
0.0
  0
VERTEX
  5
D334
  8
CUT
 62
     1
 10
54.74141040623633
 20
319.60921
 30
0.0
  0
VERTEX
  5
D335
  8
CUT
 62
     1
 10
54.56715340623632
 20
318.574968
 30
0.0
  0
VERTEX
  5
D336
  8
CUT
 62
     1
 10
54.74144240623632
 20
317.54073
 30
0.0
  0
VERTEX
  5
D337
  8
CUT
 62
     1
 10
55.25757940623632
 20
316.546243
 30
0.0
  0
VERTEX
  5
D338
  8
CUT
 62
     1
 10
56.09572940623632
 20
315.629724
 30
0.0
  0
VERTEX
  5
D339
  8
CUT
 62
     1
 10
57.22368340623633
 20
314.826395
 30
0.0
  0
VERTEX
  5
D33A
  8
CUT
 62
     1
 10
58.59809340623633
 20
314.167126
 30
0.0
  0
VERTEX
  5
D33B
  8
CUT
 62
     1
 10
60.16614340623633
 20
313.677253
 30
0.0
  0
VERTEX
  5
D33C
  8
CUT
 62
     1
 10
61.86757340623632
 20
313.375603
 30
0.0
  0
VERTEX
  5
D33D
  8
CUT
 62
     1
 10
63.63699840623633
 20
313.273766
 30
0.0
  0
VERTEX
  5
D33E
  8
CUT
 62
     1
 10
65.40641940623632
 20
313.375657
 30
0.0
  0
VERTEX
  5
D33F
  8
CUT
 62
     1
 10
67.10783940623632
 20
313.67736
 30
0.0
  0
VERTEX
  5
D340
  8
CUT
 62
     1
 10
68.67587440623632
 20
314.16728
 30
0.0
  0
VERTEX
  5
D341
  8
CUT
 62
     1
 10
70.05026540623632
 20
314.826591
 30
0.0
  0
VERTEX
  5
D342
  8
CUT
 62
     1
 10
71.17819440623633
 20
315.629955
 30
0.0
  0
VERTEX
  5
D343
  8
CUT
 62
     1
 10
72.01631640623633
 20
316.5465
 30
0.0
  0
VERTEX
  5
D344
  8
CUT
 62
     1
 10
72.53242240623632
 20
317.541003
 30
0.0
  0
VERTEX
  5
D345
  8
CUT
 62
     1
 10
72.70668040623633
 20
318.575246
 30
0.0
  0
VERTEX
  5
D346
  8
CUT
 62
     1
 10
72.53239140623633
 20
319.609483
 30
0.0
  0
SEQEND
  5
D65A
  8
CUT
 62
     1
  0
POLYLINE
  5
E91
  8
CUT
 62
     1
 66
     1
 10
0.0
 20
0.0
 30
0.0
 70
     1
  0
VERTEX
  5
D347
  8
CUT
 62
     1
 10
-18.03299759376367
 20
71.332012
 30
0.0
  0
VERTEX
  5
D348
  8
CUT
 62
     1
 10
-16.24416259376368
 20
73.826982
 30
0.0
  0
VERTEX
  5
D349
  8
CUT
 62
     1
 10
-13.83729859376368
 20
76.013481
 30
0.0
  0
VERTEX
  5
D34A
  8
CUT
 62
     1
 10
-10.90489959376367
 20
77.807484
 30
0.0
  0
VERTEX
  5
D34B
  8
CUT
 62
     1
 10
-7.559656593763677
 20
79.140049
 30
0.0
  0
VERTEX
  5
D34C
  8
CUT
 62
     1
 10
-3.930124593763676
 20
79.959965
 30
0.0
  0
VERTEX
  5
D34D
  8
CUT
 62
     1
 10
-0.155784593763677
 20
80.235723
 30
0.0
  0
VERTEX
  5
D34E
  8
CUT
 62
     1
 10
3.618318406236327
 20
79.956727
 30
0.0
  0
VERTEX
  5
D34F
  8
CUT
 62
     1
 10
7.247145406236324
 20
79.133698
 30
0.0
  0
VERTEX
  5
D350
  8
CUT
 62
     1
 10
10.59124440623632
 20
77.798264
 30
0.0
  0
VERTEX
  5
D351
  8
CUT
 62
     1
 10
13.52210340623633
 20
76.001746
 30
0.0
  0
VERTEX
  5
D352
  8
CUT
 62
     1
 10
15.92709140623633
 20
73.813183
 30
0.0
  0
VERTEX
  5
D353
  8
CUT
 62
     1
 10
17.71378440623632
 20
71.31668
 30
0.0
  0
VERTEX
  5
D354
  8
CUT
 62
     1
 10
18.81352240623632
 20
68.608176
 30
0.0
  0
VERTEX
  5
D355
  8
CUT
 62
     1
 10
19.18404340623632
 20
65.791757
 30
0.0
  0
VERTEX
  5
D356
  8
CUT
 62
     1
 10
18.81110640623632
 20
62.975657
 30
0.0
  0
VERTEX
  5
D357
  8
CUT
 62
     1
 10
17.70904540623632
 20
60.268098
 30
0.0
  0
VERTEX
  5
D358
  8
CUT
 62
     1
 10
15.92021140623632
 20
57.773128
 30
0.0
  0
VERTEX
  5
D359
  8
CUT
 62
     1
 10
13.51334740623632
 20
55.586628
 30
0.0
  0
VERTEX
  5
D35A
  8
CUT
 62
     1
 10
10.58094840623632
 20
53.792625
 30
0.0
  0
VERTEX
  5
D35B
  8
CUT
 62
     1
 10
7.235704406236325
 20
52.460061
 30
0.0
  0
VERTEX
  5
D35C
  8
CUT
 62
     1
 10
3.606172406236325
 20
51.640145
 30
0.0
  0
VERTEX
  5
D35D
  8
CUT
 62
     1
 10
-0.1681675937636768
 20
51.364387
 30
0.0
  0
VERTEX
  5
D35E
  8
CUT
 62
     1
 10
-3.942269593763676
 20
51.643383
 30
0.0
  0
VERTEX
  5
D35F
  8
CUT
 62
     1
 10
-7.571097593763675
 20
52.466412
 30
0.0
  0
VERTEX
  5
D360
  8
CUT
 62
     1
 10
-10.91519659376367
 20
53.801845
 30
0.0
  0
VERTEX
  5
D361
  8
CUT
 62
     1
 10
-13.84605559376367
 20
55.598363
 30
0.0
  0
VERTEX
  5
D362
  8
CUT
 62
     1
 10
-16.25104259376367
 20
57.786927
 30
0.0
  0
VERTEX
  5
D363
  8
CUT
 62
     1
 10
-18.03773659376368
 20
60.28343
 30
0.0
  0
VERTEX
  5
D364
  8
CUT
 62
     1
 10
-19.13747459376368
 20
62.991934
 30
0.0
  0
VERTEX
  5
D365
  8
CUT
 62
     1
 10
-19.50799459376368
 20
65.808353
 30
0.0
  0
VERTEX
  5
D366
  8
CUT
 62
     1
 10
-19.13505859376367
 20
68.624452
 30
0.0
  0
SEQEND
  5
D65B
  8
CUT
 62
     1
  0
POLYLINE
  5
EB1
  8
CUT
 62
     1
 66
     1
 10
0.0
 20
0.0
 30
0.0
 70
     1
  0
VERTEX
  5
D367
  8
CUT
 62
     1
 10
67.33313840623633
 20
71.332012
 30
0.0
  0
VERTEX
  5
D368
  8
CUT
 62
     1
 10
65.54430340623632
 20
73.826982
 30
0.0
  0
VERTEX
  5
D369
  8
CUT
 62
     1
 10
63.13743940623633
 20
76.013481
 30
0.0
  0
VERTEX
  5
D36A
  8
CUT
 62
     1
 10
60.20504040623632
 20
77.807484
 30
0.0
  0
VERTEX
  5
D36B
  8
CUT
 62
     1
 10
56.85979740623632
 20
79.140049
 30
0.0
  0
VERTEX
  5
D36C
  8
CUT
 62
     1
 10
53.23026540623633
 20
79.959965
 30
0.0
  0
VERTEX
  5
D36D
  8
CUT
 62
     1
 10
49.45592440623633
 20
80.235723
 30
0.0
  0
VERTEX
  5
D36E
  8
CUT
 62
     1
 10
45.68182240623632
 20
79.956727
 30
0.0
  0
VERTEX
  5
D36F
  8
CUT
 62
     1
 10
42.05299540623633
 20
79.133698
 30
0.0
  0
VERTEX
  5
D370
  8
CUT
 62
     1
 10
38.70889640623633
 20
77.798264
 30
0.0
  0
VERTEX
  5
D371
  8
CUT
 62
     1
 10
35.77803740623632
 20
76.001746
 30
0.0
  0
VERTEX
  5
D372
  8
CUT
 62
     1
 10
33.37304940623633
 20
73.813183
 30
0.0
  0
VERTEX
  5
D373
  8
CUT
 62
     1
 10
31.58635640623633
 20
71.31668
 30
0.0
  0
VERTEX
  5
D374
  8
CUT
 62
     1
 10
30.48661840623632
 20
68.608176
 30
0.0
  0
VERTEX
  5
D375
  8
CUT
 62
     1
 10
30.11609740623633
 20
65.791757
 30
0.0
  0
VERTEX
  5
D376
  8
CUT
 62
     1
 10
30.48903440623632
 20
62.975657
 30
0.0
  0
VERTEX
  5
D377
  8
CUT
 62
     1
 10
31.59109540623633
 20
60.268098
 30
0.0
  0
VERTEX
  5
D378
  8
CUT
 62
     1
 10
33.37992940623632
 20
57.773128
 30
0.0
  0
VERTEX
  5
D379
  8
CUT
 62
     1
 10
35.78679340623633
 20
55.586628
 30
0.0
  0
VERTEX
  5
D37A
  8
CUT
 62
     1
 10
38.71919240623632
 20
53.792625
 30
0.0
  0
VERTEX
  5
D37B
  8
CUT
 62
     1
 10
42.06443640623633
 20
52.460061
 30
0.0
  0
VERTEX
  5
D37C
  8
CUT
 62
     1
 10
45.69396840623632
 20
51.640145
 30
0.0
  0
VERTEX
  5
D37D
  8
CUT
 62
     1
 10
49.46830840623632
 20
51.364387
 30
0.0
  0
VERTEX
  5
D37E
  8
CUT
 62
     1
 10
53.24241040623632
 20
51.643383
 30
0.0
  0
VERTEX
  5
D37F
  8
CUT
 62
     1
 10
56.87123840623632
 20
52.466412
 30
0.0
  0
VERTEX
  5
D380
  8
CUT
 62
     1
 10
60.21533740623633
 20
53.801845
 30
0.0
  0
VERTEX
  5
D381
  8
CUT
 62
     1
 10
63.14619640623633
 20
55.598363
 30
0.0
  0
VERTEX
  5
D382
  8
CUT
 62
     1
 10
65.55118340623632
 20
57.786927
 30
0.0
  0
VERTEX
  5
D383
  8
CUT
 62
     1
 10
67.33787740623633
 20
60.28343
 30
0.0
  0
VERTEX
  5
D384
  8
CUT
 62
     1
 10
68.43761540623632
 20
62.991934
 30
0.0
  0
VERTEX
  5
D385
  8
CUT
 62
     1
 10
68.80813540623632
 20
65.808353
 30
0.0
  0
VERTEX
  5
D386
  8
CUT
 62
     1
 10
68.43519940623632
 20
68.624452
 30
0.0
  0
SEQEND
  5
D65C
  8
CUT
 62
     1
  0
POLYLINE
  5
EC0
  8
CUT
 62
     5
 66
     1
 10
0.0
 20
0.0
 30
0.0
  0
VERTEX
  5
D387
  8
CUT
 62
     5
 10
84.53435942541901
 20
70.986367612566
 30
0.0
 42
1.0
  0
VERTEX
  5
D388
  8
CUT
 62
     5
 10
84.15267338705362
 20
70.604378387434
 30
0.0
 42
0.000004834562028
  0
VERTEX
  5
D389
  8
CUT
 62
     5
 10
84.15267708059052
 20
70.60437469690005
 30
0.0
  0
SEQEND
  5
D65D
  8
CUT
 62
     5
  0
POLYLINE
  5
EC2
  8
CUT
 62
     5
 66
     1
 10
0.0
 20
0.0
 30
0.0
  0
VERTEX
  5
D38A
  8
CUT
 62
     5
 10
84.15267640623632
 20
70.604375
 30
0.0
  0
VERTEX
  5
D38B
  8
CUT
 62
     5
 10
84.15772940623633
 20
58.234374
 30
0.0
  0
VERTEX
  5
D38C
  8
CUT
 62
     5
 10
82.03974340623633
 20
58.233531
 30
0.0
  0
SEQEND
  5
D65E
  8
CUT
 62
     5
  0
POLYLINE
  5
EC9
  8
CUT
 62
     5
 66
     1
 10
0.0
 20
0.0
 30
0.0
  0
VERTEX
  5
D38D
  8
CUT
 62
     5
 10
82.04193340623632
 20
52.733531
 30
0.0
  0
VERTEX
  5
D38E
  8
CUT
 62
     5
 10
84.15997540623633
 20
52.734375
 30
0.0
  0
VERTEX
  5
D38F
  8
CUT
 62
     5
 10
84.16477440623632
 20
40.987017
 30
0.0
  0
VERTEX
  5
D390
  8
CUT
 62
     5
 10
76.41626740623633
 20
40.982725
 30
0.0
  0
VERTEX
  5
D391
  8
CUT
 62
     5
 10
66.79810640623633
 20
40.978747
 30
0.0
  0
SEQEND
  5
D65F
  8
CUT
 62
     5
  0
POLYLINE
  5
ECE
  8
CUT
 62
     5
 66
     1
 10
0.0
 20
0.0
 30
0.0
  0
VERTEX
  5
D392
  8
CUT
 62
     5
 10
66.41642640623633
 20
40.596751
 30
0.0
  0
VERTEX
  5
D393
  8
CUT
 62
     5
 10
66.41742640623633
 20
38.178589
 30
0.0
  0
VERTEX
  5
D394
  8
CUT
 62
     5
 10
56.41742740623632
 20
38.174453
 30
0.0
  0
VERTEX
  5
D395
  8
CUT
 62
     5
 10
56.41642740623632
 20
40.592615
 30
0.0
  0
SEQEND
  5
D660
  8
CUT
 62
     5
  0
POLYLINE
  5
EDE
  8
CUT
 62
     5
 66
     1
 10
0.0
 20
0.0
 30
0.0
  0
VERTEX
  5
D396
  8
CUT
 62
     5
 10
56.03443140623632
 20
40.974295
 30
0.0
  0
VERTEX
  5
D397
  8
CUT
 62
     5
 10
29.66627140623633
 20
40.96339
 30
0.0
  0
VERTEX
  5
D398
  8
CUT
 62
     5
 10
29.66742940623632
 20
38.163391
 30
0.0
  0
VERTEX
  5
D399
  8
CUT
 62
     5
 10
26.16828340623633
 20
38.161943
 30
0.0
  0
VERTEX
  5
D39A
  8
CUT
 62
     5
 10
26.16428440623633
 20
47.162553
 30
0.0
  0
VERTEX
  5
D39B
  8
CUT
 62
     5
 10
27.41440540623633
 20
47.126539
 30
0.0
  0
VERTEX
  5
D39C
  8
CUT
 62
     5
 10
27.40732640623632
 20
49.346527
 30
0.0
  0
VERTEX
  5
D39D
  8
CUT
 62
     5
 10
26.15746040623632
 20
49.302542
 30
0.0
  0
VERTEX
  5
D39E
  8
CUT
 62
     5
 10
26.15006240623632
 20
51.62253
 30
0.0
  0
VERTEX
  5
D39F
  8
CUT
 62
     5
 10
24.65007040623632
 20
51.617747
 30
0.0
  0
VERTEX
  5
D3A0
  8
CUT
 62
     5
 10
23.15007840623633
 20
51.62253
 30
0.0
  0
VERTEX
  5
D3A1
  8
CUT
 62
     5
 10
23.14268040623632
 20
49.302542
 30
0.0
  0
VERTEX
  5
D3A2
  8
CUT
 62
     5
 10
21.89281440623633
 20
49.346527
 30
0.0
  0
VERTEX
  5
D3A3
  8
CUT
 62
     5
 10
21.88573540623632
 20
47.126539
 30
0.0
  0
VERTEX
  5
D3A4
  8
CUT
 62
     5
 10
23.13585640623633
 20
47.162553
 30
0.0
  0
VERTEX
  5
D3A5
  8
CUT
 62
     5
 10
23.13185740623632
 20
38.161943
 30
0.0
  0
VERTEX
  5
D3A6
  8
CUT
 62
     5
 10
19.63271140623633
 20
38.163391
 30
0.0
  0
VERTEX
  5
D3A7
  8
CUT
 62
     5
 10
19.63386940623633
 20
40.96339
 30
0.0
  0
VERTEX
  5
D3A8
  8
CUT
 62
     5
 10
-6.734290593763674
 20
40.974295
 30
0.0
  0
SEQEND
  5
D661
  8
CUT
 62
     5
  0
POLYLINE
  5
EE5
  8
CUT
 62
     5
 66
     1
 10
0.0
 20
0.0
 30
0.0
  0
VERTEX
  5
D3A9
  8
CUT
 62
     5
 10
-7.116286593763675
 20
40.592615
 30
0.0
  0
VERTEX
  5
D3AA
  8
CUT
 62
     5
 10
-7.117286593763676
 20
38.174453
 30
0.0
  0
VERTEX
  5
D3AB
  8
CUT
 62
     5
 10
-17.11728559376368
 20
38.178589
 30
0.0
  0
VERTEX
  5
D3AC
  8
CUT
 62
     5
 10
-17.11628559376368
 20
40.596751
 30
0.0
  0
SEQEND
  5
D662
  8
CUT
 62
     5
  0
POLYLINE
  5
EE9
  8
CUT
 62
     5
 66
     1
 10
0.0
 20
0.0
 30
0.0
  0
VERTEX
  5
D3AD
  8
CUT
 62
     5
 10
-17.49796559376367
 20
40.978747
 30
0.0
  0
VERTEX
  5
D3AE
  8
CUT
 62
     5
 10
-27.11612659376367
 20
40.982725
 30
0.0
  0
VERTEX
  5
D3AF
  8
CUT
 62
     5
 10
-34.86463359376367
 20
40.987017
 30
0.0
  0
VERTEX
  5
D3B0
  8
CUT
 62
     5
 10
-34.85983459376368
 20
52.734375
 30
0.0
  0
VERTEX
  5
D3B1
  8
CUT
 62
     5
 10
-32.74179259376368
 20
52.733531
 30
0.0
  0
SEQEND
  5
D663
  8
CUT
 62
     5
  0
POLYLINE
  5
EEE
  8
CUT
 62
     5
 66
     1
 10
0.0
 20
0.0
 30
0.0
  0
VERTEX
  5
D3B2
  8
CUT
 62
     5
 10
-32.73960259376368
 20
58.233531
 30
0.0
  0
VERTEX
  5
D3B3
  8
CUT
 62
     5
 10
-34.85758859376368
 20
58.234374
 30
0.0
  0
VERTEX
  5
D3B4
  8
CUT
 62
     5
 10
-34.85253559376368
 20
70.604375
 30
0.0
  0
SEQEND
  5
D664
  8
CUT
 62
     5
  0
POLYLINE
  5
EF0
  8
CUT
 62
     5
 66
     1
 10
0.0
 20
0.0
 30
0.0
  0
VERTEX
  5
D3B5
  8
CUT
 62
     5
 10
-34.85253626811787
 20
70.60437469690005
 30
0.0
 42
0.9999999999999999
  0
VERTEX
  5
D3B6
  8
CUT
 62
     5
 10
-35.23421491940947
 20
70.98637130309994
 30
0.0
 42
0.0000048345620281
  0
VERTEX
  5
D3B7
  8
CUT
 62
     5
 10
-35.23421861294636
 20
70.986367612566
 30
0.0
  0
SEQEND
  5
D665
  8
CUT
 62
     5
  0
POLYLINE
  5
F00
  8
CUT
 62
     5
 66
     1
 10
0.0
 20
0.0
 30
0.0
  0
VERTEX
  5
D3B8
  8
CUT
 62
     5
 10
-35.23421859376367
 20
70.986368
 30
0.0
  0
VERTEX
  5
D3B9
  8
CUT
 62
     5
 10
-37.85237959376367
 20
70.987409
 30
0.0
  0
VERTEX
  5
D3BA
  8
CUT
 62
     5
 10
-37.85098559376367
 20
74.487409
 30
0.0
  0
VERTEX
  5
D3BB
  8
CUT
 62
     5
 10
-28.85107859376367
 20
74.483825
 30
0.0
  0
VERTEX
  5
D3BC
  8
CUT
 62
     5
 10
-28.89161459376368
 20
73.233842
 30
0.0
  0
VERTEX
  5
D3BD
  8
CUT
 62
     5
 10
-26.67161559376368
 20
73.23289
 30
0.0
  0
VERTEX
  5
D3BE
  8
CUT
 62
     5
 10
-26.71107859376367
 20
74.482907
 30
0.0
  0
VERTEX
  5
D3BF
  8
CUT
 62
     5
 10
-24.39107959376368
 20
74.481912
 30
0.0
  0
VERTEX
  5
D3C0
  8
CUT
 62
     5
 10
-24.38979259376367
 20
77.481911
 30
0.0
  0
VERTEX
  5
D3C1
  8
CUT
 62
     5
 10
-26.70979259376368
 20
77.482906
 30
0.0
  0
VERTEX
  5
D3C2
  8
CUT
 62
     5
 10
-26.66925559376368
 20
78.732889
 30
0.0
  0
VERTEX
  5
D3C3
  8
CUT
 62
     5
 10
-28.88925559376368
 20
78.733841
 30
0.0
  0
VERTEX
  5
D3C4
  8
CUT
 62
     5
 10
-28.84979159376368
 20
77.483824
 30
0.0
  0
VERTEX
  5
D3C5
  8
CUT
 62
     5
 10
-37.84979159376368
 20
77.487409
 30
0.0
  0
VERTEX
  5
D3C6
  8
CUT
 62
     5
 10
-37.84839659376367
 20
80.987408
 30
0.0
  0
VERTEX
  5
D3C7
  8
CUT
 62
     5
 10
-35.23024159376368
 20
80.986366
 30
0.0
  0
SEQEND
  5
D666
  8
CUT
 62
     5
  0
POLYLINE
  5
F02
  8
CUT
 62
     5
 66
     1
 10
0.0
 20
0.0
 30
0.0
  0
VERTEX
  5
D3C8
  8
CUT
 62
     5
 10
-35.23024189686362
 20
80.9863656743542
 30
0.0
 42
0.9999999999999999
  0
VERTEX
  5
D3C9
  8
CUT
 62
     5
 10
-34.84824529066373
 20
81.3680443256458
 30
0.0
 42
0.000013164145884
  0
VERTEX
  5
D3CA
  8
CUT
 62
     5
 10
-34.84825533987541
 20
81.36805438269933
 30
0.0
  0
SEQEND
  5
D667
  8
CUT
 62
     5
  0
POLYLINE
  5
F04
  8
CUT
 62
     5
 66
     1
 10
0.0
 20
0.0
 30
0.0
  0
VERTEX
  5
D3CB
  8
CUT
 62
     5
 10
-34.84825559376367
 20
81.368055
 30
0.0
  0
VERTEX
  5
D3CC
  8
CUT
 62
     5
 10
-34.84472259376368
 20
90.985142
 30
0.0
  0
VERTEX
  5
D3CD
  8
CUT
 62
     5
 10
-27.47726559376368
 20
90.98284
 30
0.0
  0
SEQEND
  5
D668
  8
CUT
 62
     5
  0
POLYLINE
  5
F08
  8
CUT
 62
     5
 66
     1
 10
0.0
 20
0.0
 30
0.0
  0
VERTEX
  5
D3CE
  8
CUT
 62
     5
 10
-27.09528959376367
 20
91.364539
 30
0.0
  0
VERTEX
  5
D3CF
  8
CUT
 62
     5
 10
-27.09429059376367
 20
93.781171
 30
0.0
  0
VERTEX
  5
D3D0
  8
CUT
 62
     5
 10
-17.09429159376367
 20
93.777035
 30
0.0
  0
VERTEX
  5
D3D1
  8
CUT
 62
     5
 10
-17.09529059376368
 20
91.360423
 30
0.0
  0
SEQEND
  5
D669
  8
CUT
 62
     5
  0
POLYLINE
  5
F0B
  8
CUT
 62
     5
 66
     1
 10
0.0
 20
0.0
 30
0.0
  0
VERTEX
  5
D3D2
  8
CUT
 62
     5
 10
-7.477287876878968
 20
90.97460765435291
 30
0.0
 42
1.0
  0
VERTEX
  5
D3D3
  8
CUT
 62
     5
 10
-7.095291310648385
 20
91.35628634564709
 30
0.0
 42
0.0000006501351464
  0
VERTEX
  5
D3D4
  8
CUT
 62
     5
 10
-7.095291806934494
 20
91.35628684234524
 30
0.0
  0
SEQEND
  5
D66A
  8
CUT
 62
     5
  0
POLYLINE
  5
F0F
  8
CUT
 62
     5
 66
     1
 10
0.0
 20
0.0
 30
0.0
  0
VERTEX
  5
D3D5
  8
CUT
 62
     5
 10
-7.095291593763676
 20
91.356286
 30
0.0
  0
VERTEX
  5
D3D6
  8
CUT
 62
     5
 10
-7.094291593763675
 20
93.774448
 30
0.0
  0
VERTEX
  5
D3D7
  8
CUT
 62
     5
 10
2.905707406236324
 20
93.770313
 30
0.0
  0
VERTEX
  5
D3D8
  8
CUT
 62
     5
 10
2.904707406236327
 20
91.352151
 30
0.0
  0
SEQEND
  5
D66B
  8
CUT
 62
     5
  0
POLYLINE
  5
F21
  8
CUT
 62
     5
 66
     1
 10
0.0
 20
0.0
 30
0.0
  0
VERTEX
  5
D3D9
  8
CUT
 62
     5
 10
19.65470540623632
 20
91.345224
 30
0.0
  0
VERTEX
  5
D3DA
  8
CUT
 62
     5
 10
19.65570640623632
 20
93.763386
 30
0.0
  0
VERTEX
  5
D3DB
  8
CUT
 62
     5
 10
23.15570540623633
 20
93.761938
 30
0.0
  0
VERTEX
  5
D3DC
  8
CUT
 62
     5
 10
23.15194340623632
 20
84.665938
 30
0.0
  0
VERTEX
  5
D3DD
  8
CUT
 62
     5
 10
21.90200040623633
 20
84.802474
 30
0.0
  0
VERTEX
  5
D3DE
  8
CUT
 62
     5
 10
21.90104840623632
 20
82.582475
 30
0.0
  0
VERTEX
  5
D3DF
  8
CUT
 62
     5
 10
23.15106540623632
 20
82.621939
 30
0.0
  0
VERTEX
  5
D3E0
  8
CUT
 62
     5
 10
23.15007040623632
 20
80.301939
 30
0.0
  0
VERTEX
  5
D3E1
  8
CUT
 62
     5
 10
24.65007040623632
 20
80.301295
 30
0.0
  0
VERTEX
  5
D3E2
  8
CUT
 62
     5
 10
26.15007040623632
 20
80.301939
 30
0.0
  0
VERTEX
  5
D3E3
  8
CUT
 62
     5
 10
26.14907540623633
 20
82.621939
 30
0.0
  0
VERTEX
  5
D3E4
  8
CUT
 62
     5
 10
27.39909240623633
 20
82.582475
 30
0.0
  0
VERTEX
  5
D3E5
  8
CUT
 62
     5
 10
27.39814040623632
 20
84.802474
 30
0.0
  0
VERTEX
  5
D3E6
  8
CUT
 62
     5
 10
26.14819740623633
 20
84.665938
 30
0.0
  0
VERTEX
  5
D3E7
  8
CUT
 62
     5
 10
26.14443540623633
 20
93.761938
 30
0.0
  0
VERTEX
  5
D3E8
  8
CUT
 62
     5
 10
29.64443440623632
 20
93.763386
 30
0.0
  0
VERTEX
  5
D3E9
  8
CUT
 62
     5
 10
29.64543540623632
 20
91.345224
 30
0.0
  0
SEQEND
  5
D66C
  8
CUT
 62
     5
  0
POLYLINE
  5
F28
  8
CUT
 62
     5
 66
     1
 10
0.0
 20
0.0
 30
0.0
  0
VERTEX
  5
D3EA
  8
CUT
 62
     5
 10
46.39543340623632
 20
91.352151
 30
0.0
  0
VERTEX
  5
D3EB
  8
CUT
 62
     5
 10
46.39443340623632
 20
93.770313
 30
0.0
  0
VERTEX
  5
D3EC
  8
CUT
 62
     5
 10
56.39443240623633
 20
93.774448
 30
0.0
  0
VERTEX
  5
D3ED
  8
CUT
 62
     5
 10
56.39543240623632
 20
91.356286
 30
0.0
  0
SEQEND
  5
D66D
  8
CUT
 62
     5
  0
POLYLINE
  5
F2A
  8
CUT
 62
     5
 66
     1
 10
0.0
 20
0.0
 30
0.0
  0
VERTEX
  5
D3EE
  8
CUT
 62
     5
 10
56.39543261940715
 20
91.35628684234524
 30
0.0
 42
1.0
  0
VERTEX
  5
D3EF
  8
CUT
 62
     5
 10
56.7774281930655
 20
90.97460715765476
 30
0.0
 42
0.0000006501351462
  0
VERTEX
  5
D3F0
  8
CUT
 62
     5
 10
56.77742868935162
 20
90.97460765435291
 30
0.0
  0
SEQEND
  5
D66E
  8
CUT
 62
     5
  0
POLYLINE
  5
F2F
  8
CUT
 62
     5
 66
     1
 10
0.0
 20
0.0
 30
0.0
  0
VERTEX
  5
D3F1
  8
CUT
 62
     5
 10
66.39543140623633
 20
91.360423
 30
0.0
  0
VERTEX
  5
D3F2
  8
CUT
 62
     5
 10
66.39443240623632
 20
93.777035
 30
0.0
  0
VERTEX
  5
D3F3
  8
CUT
 62
     5
 10
76.39443140623632
 20
93.781171
 30
0.0
  0
VERTEX
  5
D3F4
  8
CUT
 62
     5
 10
76.39543040623633
 20
91.364539
 30
0.0
  0
SEQEND
  5
D66F
  8
CUT
 62
     5
  0
POLYLINE
  5
F31
  8
CUT
 62
     5
 66
     1
 10
0.0
 20
0.0
 30
0.0
  0
VERTEX
  5
D3F5
  8
CUT
 62
     5
 10
76.77740640623632
 20
90.98284
 30
0.0
  0
VERTEX
  5
D3F6
  8
CUT
 62
     5
 10
84.14486340623633
 20
90.985142
 30
0.0
  0
VERTEX
  5
D3F7
  8
CUT
 62
     5
 10
84.14839540623632
 20
81.368055
 30
0.0
  0
SEQEND
  5
D670
  8
CUT
 62
     5
  0
POLYLINE
  5
F33
  8
CUT
 62
     5
 66
     1
 10
0.0
 20
0.0
 30
0.0
  0
VERTEX
  5
D3F8
  8
CUT
 62
     5
 10
84.14839615234806
 20
81.36805438269933
 30
0.0
 42
1.000000000000001
  0
VERTEX
  5
D3F9
  8
CUT
 62
     5
 10
84.53037266012458
 20
80.98635561730067
 30
0.0
 42
0.0000131641458837
  0
VERTEX
  5
D3FA
  8
CUT
 62
     5
 10
84.53038270933627
 20
80.9863656743542
 30
0.0
  0
SEQEND
  5
D671
  8
CUT
 62
     5
  0
POLYLINE
  5
F35
  8
CUT
 62
     5
 66
     1
 10
0.0
 20
0.0
 30
0.0
  0
VERTEX
  5
D3FB
  8
CUT
 62
     5
 10
84.53038240623633
 20
80.986366
 30
0.0
  0
VERTEX
  5
D3FC
  8
CUT
 62
     5
 10
87.14853740623633
 20
80.987408
 30
0.0
  0
VERTEX
  5
D3FD
  8
CUT
 62
     5
 10
87.14993240623633
 20
77.487409
 30
0.0
  0
VERTEX
  5
D3FE
  8
CUT
 62
     5
 10
78.14993240623633
 20
77.483824
 30
0.0
  0
VERTEX
  5
D3FF
  8
CUT
 62
     5
 10
78.18939640623633
 20
78.733841
 30
0.0
  0
VERTEX
  5
D400
  8
CUT
 62
     5
 10
75.96939640623633
 20
78.732889
 30
0.0
  0
VERTEX
  5
D401
  8
CUT
 62
     5
 10
76.00993340623633
 20
77.482906
 30
0.0
  0
VERTEX
  5
D402
  8
CUT
 62
     5
 10
73.68993340623632
 20
77.481911
 30
0.0
  0
VERTEX
  5
D403
  8
CUT
 62
     5
 10
73.69122040623633
 20
74.481912
 30
0.0
  0
VERTEX
  5
D404
  8
CUT
 62
     5
 10
76.01121940623632
 20
74.482907
 30
0.0
  0
VERTEX
  5
D405
  8
CUT
 62
     5
 10
75.97175540623633
 20
73.23289
 30
0.0
  0
VERTEX
  5
D406
  8
CUT
 62
     5
 10
78.19175540623633
 20
73.233842
 30
0.0
  0
VERTEX
  5
D407
  8
CUT
 62
     5
 10
78.15121940623632
 20
74.483825
 30
0.0
  0
VERTEX
  5
D408
  8
CUT
 62
     5
 10
87.15112640623633
 20
74.487409
 30
0.0
  0
VERTEX
  5
D409
  8
CUT
 62
     5
 10
87.15252040623632
 20
70.987409
 30
0.0
  0
VERTEX
  5
D40A
  8
CUT
 62
     5
 10
84.53435940623632
 20
70.986368
 30
0.0
  0
SEQEND
  5
D672
  8
CUT
 62
     5
  0
POLYLINE
  5
F55
  8
CUT
 62
     1
 66
     1
 10
0.0
 20
0.0
 30
0.0
 70
     1
  0
VERTEX
  5
D40B
  8
CUT
 62
     1
 10
17.62350540623633
 20
203.588898
 30
0.0
  0
VERTEX
  5
D40C
  8
CUT
 62
     1
 10
19.41019940623632
 20
201.092395
 30
0.0
  0
VERTEX
  5
D40D
  8
CUT
 62
     1
 10
20.50993740623633
 20
198.383891
 30
0.0
  0
VERTEX
  5
D40E
  8
CUT
 62
     1
 10
20.88045740623632
 20
195.567472
 30
0.0
  0
VERTEX
  5
D40F
  8
CUT
 62
     1
 10
20.50752140623633
 20
192.751373
 30
0.0
  0
VERTEX
  5
D410
  8
CUT
 62
     1
 10
19.40546040623633
 20
190.043813
 30
0.0
  0
VERTEX
  5
D411
  8
CUT
 62
     1
 10
17.61662540623632
 20
187.548843
 30
0.0
  0
VERTEX
  5
D412
  8
CUT
 62
     1
 10
15.20976140623632
 20
185.362344
 30
0.0
  0
VERTEX
  5
D413
  8
CUT
 62
     1
 10
12.27736240623632
 20
183.568341
 30
0.0
  0
VERTEX
  5
D414
  8
CUT
 62
     1
 10
8.932119406236325
 20
182.235776
 30
0.0
  0
VERTEX
  5
D415
  8
CUT
 62
     1
 10
5.302587406236324
 20
181.41586
 30
0.0
  0
VERTEX
  5
D416
  8
CUT
 62
     1
 10
1.528247406236325
 20
181.140102
 30
0.0
  0
VERTEX
  5
D417
  8
CUT
 62
     1
 10
-2.245855593763675
 20
181.419098
 30
0.0
  0
VERTEX
  5
D418
  8
CUT
 62
     1
 10
-5.874682593763676
 20
182.242127
 30
0.0
  0
VERTEX
  5
D419
  8
CUT
 62
     1
 10
-9.218781593763676
 20
183.577561
 30
0.0
  0
VERTEX
  5
D41A
  8
CUT
 62
     1
 10
-12.14964059376368
 20
185.374079
 30
0.0
  0
VERTEX
  5
D41B
  8
CUT
 62
     1
 10
-14.55462859376367
 20
187.562642
 30
0.0
  0
VERTEX
  5
D41C
  8
CUT
 62
     1
 10
-16.34132159376367
 20
190.059145
 30
0.0
  0
VERTEX
  5
D41D
  8
CUT
 62
     1
 10
-17.44105959376368
 20
192.767649
 30
0.0
  0
VERTEX
  5
D41E
  8
CUT
 62
     1
 10
-17.81158059376368
 20
195.584068
 30
0.0
  0
VERTEX
  5
D41F
  8
CUT
 62
     1
 10
-17.43864359376367
 20
198.400168
 30
0.0
  0
VERTEX
  5
D420
  8
CUT
 62
     1
 10
-16.33658259376368
 20
201.107728
 30
0.0
  0
VERTEX
  5
D421
  8
CUT
 62
     1
 10
-14.54774859376367
 20
203.602697
 30
0.0
  0
VERTEX
  5
D422
  8
CUT
 62
     1
 10
-12.14088459376367
 20
205.789197
 30
0.0
  0
VERTEX
  5
D423
  8
CUT
 62
     1
 10
-9.208485593763676
 20
207.5832
 30
0.0
  0
VERTEX
  5
D424
  8
CUT
 62
     1
 10
-5.863241593763675
 20
208.915764
 30
0.0
  0
VERTEX
  5
D425
  8
CUT
 62
     1
 10
-2.233709593763678
 20
209.73568
 30
0.0
  0
VERTEX
  5
D426
  8
CUT
 62
     1
 10
1.540630406236325
 20
210.011438
 30
0.0
  0
VERTEX
  5
D427
  8
CUT
 62
     1
 10
5.314732406236324
 20
209.732442
 30
0.0
  0
VERTEX
  5
D428
  8
CUT
 62
     1
 10
8.943560406236324
 20
208.909413
 30
0.0
  0
VERTEX
  5
D429
  8
CUT
 62
     1
 10
12.28765940623633
 20
207.57398
 30
0.0
  0
VERTEX
  5
D42A
  8
CUT
 62
     1
 10
15.21851840623632
 20
205.777462
 30
0.0
  0
SEQEND
  5
D673
  8
CUT
 62
     1
  0
POLYLINE
  5
F75
  8
CUT
 62
     1
 66
     1
 10
0.0
 20
0.0
 30
0.0
 70
     1
  0
VERTEX
  5
D42B
  8
CUT
 62
     1
 10
35.06946440623632
 20
203.588898
 30
0.0
  0
VERTEX
  5
D42C
  8
CUT
 62
     1
 10
33.28277040623632
 20
201.092395
 30
0.0
  0
VERTEX
  5
D42D
  8
CUT
 62
     1
 10
32.18303240623632
 20
198.383891
 30
0.0
  0
VERTEX
  5
D42E
  8
CUT
 62
     1
 10
31.81251240623632
 20
195.567472
 30
0.0
  0
VERTEX
  5
D42F
  8
CUT
 62
     1
 10
32.18544840623633
 20
192.751373
 30
0.0
  0
VERTEX
  5
D430
  8
CUT
 62
     1
 10
33.28750940623632
 20
190.043813
 30
0.0
  0
VERTEX
  5
D431
  8
CUT
 62
     1
 10
35.07634440623632
 20
187.548843
 30
0.0
  0
VERTEX
  5
D432
  8
CUT
 62
     1
 10
37.48320840623632
 20
185.362344
 30
0.0
  0
VERTEX
  5
D433
  8
CUT
 62
     1
 10
40.41560740623633
 20
183.568341
 30
0.0
  0
VERTEX
  5
D434
  8
CUT
 62
     1
 10
43.76085040623632
 20
182.235776
 30
0.0
  0
VERTEX
  5
D435
  8
CUT
 62
     1
 10
47.39038340623632
 20
181.41586
 30
0.0
  0
VERTEX
  5
D436
  8
CUT
 62
     1
 10
51.16472340623633
 20
181.140102
 30
0.0
  0
VERTEX
  5
D437
  8
CUT
 62
     1
 10
54.93882540623633
 20
181.419098
 30
0.0
  0
VERTEX
  5
D438
  8
CUT
 62
     1
 10
58.56765240623632
 20
182.242127
 30
0.0
  0
VERTEX
  5
D439
  8
CUT
 62
     1
 10
61.91175140623632
 20
183.577561
 30
0.0
  0
VERTEX
  5
D43A
  8
CUT
 62
     1
 10
64.84261040623632
 20
185.374079
 30
0.0
  0
VERTEX
  5
D43B
  8
CUT
 62
     1
 10
67.24759840623632
 20
187.562642
 30
0.0
  0
VERTEX
  5
D43C
  8
CUT
 62
     1
 10
69.03429140623632
 20
190.059145
 30
0.0
  0
VERTEX
  5
D43D
  8
CUT
 62
     1
 10
70.13402940623632
 20
192.767649
 30
0.0
  0
VERTEX
  5
D43E
  8
CUT
 62
     1
 10
70.50455040623632
 20
195.584068
 30
0.0
  0
VERTEX
  5
D43F
  8
CUT
 62
     1
 10
70.13161440623632
 20
198.400168
 30
0.0
  0
VERTEX
  5
D440
  8
CUT
 62
     1
 10
69.02955240623632
 20
201.107728
 30
0.0
  0
VERTEX
  5
D441
  8
CUT
 62
     1
 10
67.24071840623633
 20
203.602697
 30
0.0
  0
VERTEX
  5
D442
  8
CUT
 62
     1
 10
64.83385440623633
 20
205.789197
 30
0.0
  0
VERTEX
  5
D443
  8
CUT
 62
     1
 10
61.90145540623632
 20
207.5832
 30
0.0
  0
VERTEX
  5
D444
  8
CUT
 62
     1
 10
58.55621140623633
 20
208.915764
 30
0.0
  0
VERTEX
  5
D445
  8
CUT
 62
     1
 10
54.92667940623632
 20
209.73568
 30
0.0
  0
VERTEX
  5
D446
  8
CUT
 62
     1
 10
51.15233940623632
 20
210.011438
 30
0.0
  0
VERTEX
  5
D447
  8
CUT
 62
     1
 10
47.37823740623632
 20
209.732442
 30
0.0
  0
VERTEX
  5
D448
  8
CUT
 62
     1
 10
43.74940940623632
 20
208.909413
 30
0.0
  0
VERTEX
  5
D449
  8
CUT
 62
     1
 10
40.40531040623632
 20
207.57398
 30
0.0
  0
VERTEX
  5
D44A
  8
CUT
 62
     1
 10
37.47445140623633
 20
205.777462
 30
0.0
  0
SEQEND
  5
D674
  8
CUT
 62
     1
  0
POLYLINE
  5
F85
  8
CUT
 62
     5
 66
     1
 10
0.0
 20
0.0
 30
0.0
  0
VERTEX
  5
D44B
  8
CUT
 62
     5
 10
86.23077342541902
 20
200.762083612566
 30
0.0
 42
1.0
  0
VERTEX
  5
D44C
  8
CUT
 62
     5
 10
85.84908738705363
 20
200.380094387434
 30
0.0
 42
0.000004834562028
  0
VERTEX
  5
D44D
  8
CUT
 62
     5
 10
85.84909108059053
 20
200.3800906969001
 30
0.0
  0
SEQEND
  5
D675
  8
CUT
 62
     5
  0
POLYLINE
  5
F87
  8
CUT
 62
     5
 66
     1
 10
0.0
 20
0.0
 30
0.0
  0
VERTEX
  5
D44E
  8
CUT
 62
     5
 10
85.84909140623633
 20
200.38009
 30
0.0
  0
VERTEX
  5
D44F
  8
CUT
 62
     5
 10
85.85414440623633
 20
188.01009
 30
0.0
  0
VERTEX
  5
D450
  8
CUT
 62
     5
 10
83.73615840623633
 20
188.009246
 30
0.0
  0
SEQEND
  5
D676
  8
CUT
 62
     5
  0
POLYLINE
  5
F8D
  8
CUT
 62
     5
 66
     1
 10
0.0
 20
0.0
 30
0.0
  0
VERTEX
  5
D451
  8
CUT
 62
     5
 10
83.73834840623633
 20
182.509247
 30
0.0
  0
VERTEX
  5
D452
  8
CUT
 62
     5
 10
85.85639040623633
 20
182.51009
 30
0.0
  0
VERTEX
  5
D453
  8
CUT
 62
     5
 10
85.86118940623632
 20
170.762732
 30
0.0
  0
VERTEX
  5
D454
  8
CUT
 62
     5
 10
78.11268240623633
 20
170.758441
 30
0.0
  0
VERTEX
  5
D455
  8
CUT
 62
     5
 10
68.49452040623632
 20
170.754462
 30
0.0
  0
SEQEND
  5
D677
  8
CUT
 62
     5
  0
POLYLINE
  5
F92
  8
CUT
 62
     5
 66
     1
 10
0.0
 20
0.0
 30
0.0
  0
VERTEX
  5
D456
  8
CUT
 62
     5
 10
68.11284140623633
 20
170.372467
 30
0.0
  0
VERTEX
  5
D457
  8
CUT
 62
     5
 10
68.11384140623632
 20
167.954305
 30
0.0
  0
VERTEX
  5
D458
  8
CUT
 62
     5
 10
58.11384240623633
 20
167.950168
 30
0.0
  0
VERTEX
  5
D459
  8
CUT
 62
     5
 10
58.11284140623633
 20
170.368331
 30
0.0
  0
SEQEND
  5
D678
  8
CUT
 62
     5
  0
POLYLINE
  5
FA2
  8
CUT
 62
     5
 66
     1
 10
0.0
 20
0.0
 30
0.0
  0
VERTEX
  5
D45A
  8
CUT
 62
     5
 10
57.73084640623632
 20
170.75001
 30
0.0
  0
VERTEX
  5
D45B
  8
CUT
 62
     5
 10
31.36268640623632
 20
170.739106
 30
0.0
  0
VERTEX
  5
D45C
  8
CUT
 62
     5
 10
31.36384440623632
 20
167.939106
 30
0.0
  0
VERTEX
  5
D45D
  8
CUT
 62
     5
 10
27.86469740623632
 20
167.937658
 30
0.0
  0
VERTEX
  5
D45E
  8
CUT
 62
     5
 10
27.86069940623632
 20
176.938268
 30
0.0
  0
VERTEX
  5
D45F
  8
CUT
 62
     5
 10
29.11082040623632
 20
176.902254
 30
0.0
  0
VERTEX
  5
D460
  8
CUT
 62
     5
 10
29.10374140623632
 20
179.122243
 30
0.0
  0
VERTEX
  5
D461
  8
CUT
 62
     5
 10
27.85387540623633
 20
179.078257
 30
0.0
  0
VERTEX
  5
D462
  8
CUT
 62
     5
 10
27.84647740623632
 20
181.398245
 30
0.0
  0
VERTEX
  5
D463
  8
CUT
 62
     5
 10
26.34648540623633
 20
181.393462
 30
0.0
  0
VERTEX
  5
D464
  8
CUT
 62
     5
 10
24.84649240623633
 20
181.398245
 30
0.0
  0
VERTEX
  5
D465
  8
CUT
 62
     5
 10
24.83909440623632
 20
179.078257
 30
0.0
  0
VERTEX
  5
D466
  8
CUT
 62
     5
 10
23.58922840623632
 20
179.122243
 30
0.0
  0
VERTEX
  5
D467
  8
CUT
 62
     5
 10
23.58214940623633
 20
176.902254
 30
0.0
  0
VERTEX
  5
D468
  8
CUT
 62
     5
 10
24.83227140623632
 20
176.938268
 30
0.0
  0
VERTEX
  5
D469
  8
CUT
 62
     5
 10
24.82827240623632
 20
167.937658
 30
0.0
  0
VERTEX
  5
D46A
  8
CUT
 62
     5
 10
21.32912540623633
 20
167.939106
 30
0.0
  0
VERTEX
  5
D46B
  8
CUT
 62
     5
 10
21.33028340623633
 20
170.739106
 30
0.0
  0
VERTEX
  5
D46C
  8
CUT
 62
     5
 10
-5.037876593763677
 20
170.75001
 30
0.0
  0
SEQEND
  5
D679
  8
CUT
 62
     5
  0
POLYLINE
  5
FA9
  8
CUT
 62
     5
 66
     1
 10
0.0
 20
0.0
 30
0.0
  0
VERTEX
  5
D46D
  8
CUT
 62
     5
 10
-5.419871593763677
 20
170.368331
 30
0.0
  0
VERTEX
  5
D46E
  8
CUT
 62
     5
 10
-5.420871593763675
 20
167.950168
 30
0.0
  0
VERTEX
  5
D46F
  8
CUT
 62
     5
 10
-15.42087159376368
 20
167.954305
 30
0.0
  0
VERTEX
  5
D470
  8
CUT
 62
     5
 10
-15.41987059376368
 20
170.372467
 30
0.0
  0
SEQEND
  5
D67A
  8
CUT
 62
     5
  0
POLYLINE
  5
FAD
  8
CUT
 62
     5
 66
     1
 10
0.0
 20
0.0
 30
0.0
  0
VERTEX
  5
D471
  8
CUT
 62
     5
 10
-15.80155059376368
 20
170.754462
 30
0.0
  0
VERTEX
  5
D472
  8
CUT
 62
     5
 10
-25.41971259376368
 20
170.758441
 30
0.0
  0
VERTEX
  5
D473
  8
CUT
 62
     5
 10
-33.16821959376368
 20
170.762732
 30
0.0
  0
VERTEX
  5
D474
  8
CUT
 62
     5
 10
-33.16342059376368
 20
182.51009
 30
0.0
  0
VERTEX
  5
D475
  8
CUT
 62
     5
 10
-31.04537859376367
 20
182.509247
 30
0.0
  0
SEQEND
  5
D67B
  8
CUT
 62
     5
  0
POLYLINE
  5
FB2
  8
CUT
 62
     5
 66
     1
 10
0.0
 20
0.0
 30
0.0
  0
VERTEX
  5
D476
  8
CUT
 62
     5
 10
-31.04318859376367
 20
188.009246
 30
0.0
  0
VERTEX
  5
D477
  8
CUT
 62
     5
 10
-33.16117459376368
 20
188.01009
 30
0.0
  0
VERTEX
  5
D478
  8
CUT
 62
     5
 10
-33.15612159376367
 20
200.38009
 30
0.0
  0
SEQEND
  5
D67C
  8
CUT
 62
     5
  0
POLYLINE
  5
FB4
  8
CUT
 62
     5
 66
     1
 10
0.0
 20
0.0
 30
0.0
  0
VERTEX
  5
D479
  8
CUT
 62
     5
 10
-33.15612126811787
 20
200.3800906969001
 30
0.0
 42
0.9999999999999999
  0
VERTEX
  5
D47A
  8
CUT
 62
     5
 10
-33.53779991940948
 20
200.7620873030999
 30
0.0
 42
0.0000048345620281
  0
VERTEX
  5
D47B
  8
CUT
 62
     5
 10
-33.53780361294636
 20
200.762083612566
 30
0.0
  0
SEQEND
  5
D67D
  8
CUT
 62
     5
  0
POLYLINE
  5
FC4
  8
CUT
 62
     5
 66
     1
 10
0.0
 20
0.0
 30
0.0
  0
VERTEX
  5
D47C
  8
CUT
 62
     5
 10
-33.53780359376368
 20
200.762083
 30
0.0
  0
VERTEX
  5
D47D
  8
CUT
 62
     5
 10
-36.15596459376367
 20
200.763124
 30
0.0
  0
VERTEX
  5
D47E
  8
CUT
 62
     5
 10
-36.15457159376368
 20
204.263124
 30
0.0
  0
VERTEX
  5
D47F
  8
CUT
 62
     5
 10
-27.15466459376368
 20
204.25954
 30
0.0
  0
VERTEX
  5
D480
  8
CUT
 62
     5
 10
-27.19520059376367
 20
203.009557
 30
0.0
  0
VERTEX
  5
D481
  8
CUT
 62
     5
 10
-24.97520059376367
 20
203.008605
 30
0.0
  0
VERTEX
  5
D482
  8
CUT
 62
     5
 10
-25.01466459376368
 20
204.258622
 30
0.0
  0
VERTEX
  5
D483
  8
CUT
 62
     5
 10
-22.69466459376368
 20
204.257627
 30
0.0
  0
VERTEX
  5
D484
  8
CUT
 62
     5
 10
-22.69337759376367
 20
207.257627
 30
0.0
  0
VERTEX
  5
D485
  8
CUT
 62
     5
 10
-25.01337759376368
 20
207.258622
 30
0.0
  0
VERTEX
  5
D486
  8
CUT
 62
     5
 10
-24.97284159376368
 20
208.508604
 30
0.0
  0
VERTEX
  5
D487
  8
CUT
 62
     5
 10
-27.19284159376367
 20
208.509557
 30
0.0
  0
VERTEX
  5
D488
  8
CUT
 62
     5
 10
-27.15337759376368
 20
207.25954
 30
0.0
  0
VERTEX
  5
D489
  8
CUT
 62
     5
 10
-36.15337659376367
 20
207.263124
 30
0.0
  0
VERTEX
  5
D48A
  8
CUT
 62
     5
 10
-36.15198259376368
 20
210.763124
 30
0.0
  0
VERTEX
  5
D48B
  8
CUT
 62
     5
 10
-33.53382659376368
 20
210.762081
 30
0.0
  0
SEQEND
  5
D67E
  8
CUT
 62
     5
  0
POLYLINE
  5
FC6
  8
CUT
 62
     5
 66
     1
 10
0.0
 20
0.0
 30
0.0
  0
VERTEX
  5
D48C
  8
CUT
 62
     5
 10
-33.53382689686362
 20
210.7620816743542
 30
0.0
 42
0.9999999999999999
  0
VERTEX
  5
D48D
  8
CUT
 62
     5
 10
-33.15183029066374
 20
211.1437603256458
 30
0.0
 42
0.000013164145884
  0
VERTEX
  5
D48E
  8
CUT
 62
     5
 10
-33.15184033987542
 20
211.1437703826993
 30
0.0
  0
SEQEND
  5
D67F
  8
CUT
 62
     5
  0
POLYLINE
  5
FC8
  8
CUT
 62
     5
 66
     1
 10
0.0
 20
0.0
 30
0.0
  0
VERTEX
  5
D48F
  8
CUT
 62
     5
 10
-33.15184059376368
 20
211.14377
 30
0.0
  0
VERTEX
  5
D490
  8
CUT
 62
     5
 10
-33.14830759376368
 20
220.760857
 30
0.0
  0
VERTEX
  5
D491
  8
CUT
 62
     5
 10
-25.78085159376367
 20
220.758555
 30
0.0
  0
SEQEND
  5
D680
  8
CUT
 62
     5
  0
POLYLINE
  5
FCC
  8
CUT
 62
     5
 66
     1
 10
0.0
 20
0.0
 30
0.0
  0
VERTEX
  5
D492
  8
CUT
 62
     5
 10
-25.39887559376368
 20
221.140255
 30
0.0
  0
VERTEX
  5
D493
  8
CUT
 62
     5
 10
-25.39787559376367
 20
223.556886
 30
0.0
  0
VERTEX
  5
D494
  8
CUT
 62
     5
 10
-15.39787659376368
 20
223.55275
 30
0.0
  0
VERTEX
  5
D495
  8
CUT
 62
     5
 10
-15.39887659376367
 20
221.136138
 30
0.0
  0
SEQEND
  5
D681
  8
CUT
 62
     5
  0
POLYLINE
  5
FCF
  8
CUT
 62
     5
 66
     1
 10
0.0
 20
0.0
 30
0.0
  0
VERTEX
  5
D496
  8
CUT
 62
     5
 10
-5.780872876878966
 20
220.7503226543529
 30
0.0
 42
1.0
  0
VERTEX
  5
D497
  8
CUT
 62
     5
 10
-5.398876310648383
 20
221.1320013456471
 30
0.0
 42
0.0000006501351464
  0
VERTEX
  5
D498
  8
CUT
 62
     5
 10
-5.398876806934492
 20
221.1320018423452
 30
0.0
  0
SEQEND
  5
D682
  8
CUT
 62
     5
  0
POLYLINE
  5
FD3
  8
CUT
 62
     5
 66
     1
 10
0.0
 20
0.0
 30
0.0
  0
VERTEX
  5
D499
  8
CUT
 62
     5
 10
-5.398877593763675
 20
221.132002
 30
0.0
  0
VERTEX
  5
D49A
  8
CUT
 62
     5
 10
-5.397876593763677
 20
223.550164
 30
0.0
  0
VERTEX
  5
D49B
  8
CUT
 62
     5
 10
4.602122406236326
 20
223.546029
 30
0.0
  0
VERTEX
  5
D49C
  8
CUT
 62
     5
 10
4.601122406236325
 20
221.127866
 30
0.0
  0
SEQEND
  5
D683
  8
CUT
 62
     5
  0
POLYLINE
  5
FE5
  8
CUT
 62
     5
 66
     1
 10
0.0
 20
0.0
 30
0.0
  0
VERTEX
  5
D49D
  8
CUT
 62
     5
 10
21.35112040623633
 20
221.120939
 30
0.0
  0
VERTEX
  5
D49E
  8
CUT
 62
     5
 10
21.35212040623632
 20
223.539101
 30
0.0
  0
VERTEX
  5
D49F
  8
CUT
 62
     5
 10
24.85212040623632
 20
223.537653
 30
0.0
  0
VERTEX
  5
D4A0
  8
CUT
 62
     5
 10
24.84835840623633
 20
214.441654
 30
0.0
  0
VERTEX
  5
D4A1
  8
CUT
 62
     5
 10
23.59841540623632
 20
214.57819
 30
0.0
  0
VERTEX
  5
D4A2
  8
CUT
 62
     5
 10
23.59746340623633
 20
212.35819
 30
0.0
  0
VERTEX
  5
D4A3
  8
CUT
 62
     5
 10
24.84748040623633
 20
212.397654
 30
0.0
  0
VERTEX
  5
D4A4
  8
CUT
 62
     5
 10
24.84648540623633
 20
210.077654
 30
0.0
  0
VERTEX
  5
D4A5
  8
CUT
 62
     5
 10
26.34648540623633
 20
210.077011
 30
0.0
  0
VERTEX
  5
D4A6
  8
CUT
 62
     5
 10
27.84648440623632
 20
210.077654
 30
0.0
  0
VERTEX
  5
D4A7
  8
CUT
 62
     5
 10
27.84548940623633
 20
212.397654
 30
0.0
  0
VERTEX
  5
D4A8
  8
CUT
 62
     5
 10
29.09550640623632
 20
212.35819
 30
0.0
  0
VERTEX
  5
D4A9
  8
CUT
 62
     5
 10
29.09455440623633
 20
214.57819
 30
0.0
  0
VERTEX
  5
D4AA
  8
CUT
 62
     5
 10
27.84461140623633
 20
214.441654
 30
0.0
  0
VERTEX
  5
D4AB
  8
CUT
 62
     5
 10
27.84084940623632
 20
223.537653
 30
0.0
  0
VERTEX
  5
D4AC
  8
CUT
 62
     5
 10
31.34084940623632
 20
223.539101
 30
0.0
  0
VERTEX
  5
D4AD
  8
CUT
 62
     5
 10
31.34184940623633
 20
221.120939
 30
0.0
  0
SEQEND
  5
D684
  8
CUT
 62
     5
  0
POLYLINE
  5
FEC
  8
CUT
 62
     5
 66
     1
 10
0.0
 20
0.0
 30
0.0
  0
VERTEX
  5
D4AE
  8
CUT
 62
     5
 10
48.09184840623632
 20
221.127866
 30
0.0
  0
VERTEX
  5
D4AF
  8
CUT
 62
     5
 10
48.09084740623632
 20
223.546029
 30
0.0
  0
VERTEX
  5
D4B0
  8
CUT
 62
     5
 10
58.09084740623632
 20
223.550164
 30
0.0
  0
VERTEX
  5
D4B1
  8
CUT
 62
     5
 10
58.09184740623633
 20
221.132002
 30
0.0
  0
SEQEND
  5
D685
  8
CUT
 62
     5
  0
POLYLINE
  5
FEE
  8
CUT
 62
     5
 66
     1
 10
0.0
 20
0.0
 30
0.0
  0
VERTEX
  5
D4B2
  8
CUT
 62
     5
 10
58.09184761940714
 20
221.1320018423452
 30
0.0
 42
1.0
  0
VERTEX
  5
D4B3
  8
CUT
 62
     5
 10
58.47384319306551
 20
220.7503221576548
 30
0.0
 42
0.0000006501351462
  0
VERTEX
  5
D4B4
  8
CUT
 62
     5
 10
58.47384368935161
 20
220.7503226543529
 30
0.0
  0
SEQEND
  5
D686
  8
CUT
 62
     5
  0
POLYLINE
  5
FF3
  8
CUT
 62
     5
 66
     1
 10
0.0
 20
0.0
 30
0.0
  0
VERTEX
  5
D4B5
  8
CUT
 62
     5
 10
68.09184640623633
 20
221.136138
 30
0.0
  0
VERTEX
  5
D4B6
  8
CUT
 62
     5
 10
68.09084640623632
 20
223.55275
 30
0.0
  0
VERTEX
  5
D4B7
  8
CUT
 62
     5
 10
78.09084640623632
 20
223.556886
 30
0.0
  0
VERTEX
  5
D4B8
  8
CUT
 62
     5
 10
78.09184540623633
 20
221.140255
 30
0.0
  0
SEQEND
  5
D687
  8
CUT
 62
     5
  0
POLYLINE
  5
FF5
  8
CUT
 62
     5
 66
     1
 10
0.0
 20
0.0
 30
0.0
  0
VERTEX
  5
D4B9
  8
CUT
 62
     5
 10
78.47382140623633
 20
220.758555
 30
0.0
  0
VERTEX
  5
D4BA
  8
CUT
 62
     5
 10
85.84127840623633
 20
220.760857
 30
0.0
  0
VERTEX
  5
D4BB
  8
CUT
 62
     5
 10
85.84481040623632
 20
211.14377
 30
0.0
  0
SEQEND
  5
D688
  8
CUT
 62
     5
  0
POLYLINE
  5
FF7
  8
CUT
 62
     5
 66
     1
 10
0.0
 20
0.0
 30
0.0
  0
VERTEX
  5
D4BC
  8
CUT
 62
     5
 10
85.84481015234806
 20
211.1437703826993
 30
0.0
 42
1.000000000000001
  0
VERTEX
  5
D4BD
  8
CUT
 62
     5
 10
86.22678666012459
 20
210.7620716173007
 30
0.0
 42
0.0000131641458837
  0
VERTEX
  5
D4BE
  8
CUT
 62
     5
 10
86.22679670933627
 20
210.7620816743542
 30
0.0
  0
SEQEND
  5
D689
  8
CUT
 62
     5
  0
POLYLINE
  5
FF9
  8
CUT
 62
     5
 66
     1
 10
0.0
 20
0.0
 30
0.0
  0
VERTEX
  5
D4BF
  8
CUT
 62
     5
 10
86.22679740623633
 20
210.762081
 30
0.0
  0
VERTEX
  5
D4C0
  8
CUT
 62
     5
 10
88.84495240623633
 20
210.763124
 30
0.0
  0
VERTEX
  5
D4C1
  8
CUT
 62
     5
 10
88.84634640623632
 20
207.263124
 30
0.0
  0
VERTEX
  5
D4C2
  8
CUT
 62
     5
 10
79.84634740623632
 20
207.25954
 30
0.0
  0
VERTEX
  5
D4C3
  8
CUT
 62
     5
 10
79.88581140623633
 20
208.509557
 30
0.0
  0
VERTEX
  5
D4C4
  8
CUT
 62
     5
 10
77.66581140623633
 20
208.508604
 30
0.0
  0
VERTEX
  5
D4C5
  8
CUT
 62
     5
 10
77.70634740623632
 20
207.258622
 30
0.0
  0
VERTEX
  5
D4C6
  8
CUT
 62
     5
 10
75.38634740623633
 20
207.257627
 30
0.0
  0
VERTEX
  5
D4C7
  8
CUT
 62
     5
 10
75.38763440623633
 20
204.257627
 30
0.0
  0
VERTEX
  5
D4C8
  8
CUT
 62
     5
 10
77.70763440623632
 20
204.258622
 30
0.0
  0
VERTEX
  5
D4C9
  8
CUT
 62
     5
 10
77.66817040623633
 20
203.008605
 30
0.0
  0
VERTEX
  5
D4CA
  8
CUT
 62
     5
 10
79.88817040623633
 20
203.009557
 30
0.0
  0
VERTEX
  5
D4CB
  8
CUT
 62
     5
 10
79.84763440623632
 20
204.25954
 30
0.0
  0
VERTEX
  5
D4CC
  8
CUT
 62
     5
 10
88.84754140623633
 20
204.263124
 30
0.0
  0
VERTEX
  5
D4CD
  8
CUT
 62
     5
 10
88.84893440623632
 20
200.763124
 30
0.0
  0
VERTEX
  5
D4CE
  8
CUT
 62
     5
 10
86.23077340623632
 20
200.762083
 30
0.0
  0
SEQEND
  5
D68A
  8
CUT
 62
     5
  0
POLYLINE
  5
11E3
  8
CUT
 62
     1
 66
     1
 10
0.0
 20
0.0
 30
0.0
 70
     1
  0
VERTEX
  5
D4CF
  8
CUT
 62
     1
 10
-21.01101059376367
 20
243.657589
 30
0.0
  0
VERTEX
  5
D4D0
  8
CUT
 62
     1
 10
-20.83672159376368
 20
244.691827
 30
0.0
  0
VERTEX
  5
D4D1
  8
CUT
 62
     1
 10
-20.32058459376368
 20
245.686314
 30
0.0
  0
VERTEX
  5
D4D2
  8
CUT
 62
     1
 10
-19.48243459376368
 20
246.602833
 30
0.0
  0
VERTEX
  5
D4D3
  8
CUT
 62
     1
 10
-18.35448059376368
 20
247.406162
 30
0.0
  0
VERTEX
  5
D4D4
  8
CUT
 62
     1
 10
-16.98006959376367
 20
248.065431
 30
0.0
  0
VERTEX
  5
D4D5
  8
CUT
 62
     1
 10
-15.41201959376367
 20
248.555303
 30
0.0
  0
VERTEX
  5
D4D6
  8
CUT
 62
     1
 10
-13.71059059376368
 20
248.856954
 30
0.0
  0
VERTEX
  5
D4D7
  8
CUT
 62
     1
 10
-11.94116559376368
 20
248.958791
 30
0.0
  0
VERTEX
  5
D4D8
  8
CUT
 62
     1
 10
-10.17174459376368
 20
248.8569
 30
0.0
  0
VERTEX
  5
D4D9
  8
CUT
 62
     1
 10
-8.470323593763677
 20
248.555197
 30
0.0
  0
VERTEX
  5
D4DA
  8
CUT
 62
     1
 10
-6.902288593763675
 20
248.065277
 30
0.0
  0
VERTEX
  5
D4DB
  8
CUT
 62
     1
 10
-5.527898593763677
 20
247.405966
 30
0.0
  0
VERTEX
  5
D4DC
  8
CUT
 62
     1
 10
-4.399969593763675
 20
246.602602
 30
0.0
  0
VERTEX
  5
D4DD
  8
CUT
 62
     1
 10
-3.561847593763677
 20
245.686057
 30
0.0
  0
VERTEX
  5
D4DE
  8
CUT
 62
     1
 10
-3.045740593763675
 20
244.691554
 30
0.0
  0
VERTEX
  5
D4DF
  8
CUT
 62
     1
 10
-2.871483593763674
 20
243.657311
 30
0.0
  0
VERTEX
  5
D4E0
  8
CUT
 62
     1
 10
-3.045772593763676
 20
242.623074
 30
0.0
  0
VERTEX
  5
D4E1
  8
CUT
 62
     1
 10
-3.561909593763676
 20
241.628587
 30
0.0
  0
VERTEX
  5
D4E2
  8
CUT
 62
     1
 10
-4.400059593763675
 20
240.712068
 30
0.0
  0
VERTEX
  5
D4E3
  8
CUT
 62
     1
 10
-5.528013593763674
 20
239.908738
 30
0.0
  0
VERTEX
  5
D4E4
  8
CUT
 62
     1
 10
-6.902423593763675
 20
239.249469
 30
0.0
  0
VERTEX
  5
D4E5
  8
CUT
 62
     1
 10
-8.470473593763675
 20
238.759597
 30
0.0
  0
VERTEX
  5
D4E6
  8
CUT
 62
     1
 10
-10.17190359376367
 20
238.457946
 30
0.0
  0
VERTEX
  5
D4E7
  8
CUT
 62
     1
 10
-11.94132859376368
 20
238.35611
 30
0.0
  0
VERTEX
  5
D4E8
  8
CUT
 62
     1
 10
-13.71074959376367
 20
238.458001
 30
0.0
  0
VERTEX
  5
D4E9
  8
CUT
 62
     1
 10
-15.41217059376368
 20
238.759704
 30
0.0
  0
VERTEX
  5
D4EA
  8
CUT
 62
     1
 10
-16.98020459376367
 20
239.249624
 30
0.0
  0
VERTEX
  5
D4EB
  8
CUT
 62
     1
 10
-18.35459559376368
 20
239.908935
 30
0.0
  0
VERTEX
  5
D4EC
  8
CUT
 62
     1
 10
-19.48252459376368
 20
240.712299
 30
0.0
  0
VERTEX
  5
D4ED
  8
CUT
 62
     1
 10
-20.32064659376368
 20
241.628844
 30
0.0
  0
VERTEX
  5
D4EE
  8
CUT
 62
     1
 10
-20.83675359376367
 20
242.623346
 30
0.0
  0
SEQEND
  5
D68B
  8
CUT
 62
     1
  0
POLYLINE
  5
11F0
  8
CUT
 62
     5
 66
     1
 10
0.0
 20
0.0
 30
0.0
  0
VERTEX
  5
D4EF
  8
CUT
 62
     5
 10
-31.06016759376368
 20
245.344957
 30
0.0
  0
VERTEX
  5
D4F0
  8
CUT
 62
     5
 10
-31.10018659376368
 20
244.094957
 30
0.0
  0
VERTEX
  5
D4F1
  8
CUT
 62
     5
 10
-28.88018659376367
 20
244.094923
 30
0.0
  0
VERTEX
  5
D4F2
  8
CUT
 62
     5
 10
-28.92016759376368
 20
245.344924
 30
0.0
  0
VERTEX
  5
D4F3
  8
CUT
 62
     5
 10
-26.60016759376367
 20
245.344888
 30
0.0
  0
VERTEX
  5
D4F4
  8
CUT
 62
     5
 10
-26.60012159376367
 20
248.344888
 30
0.0
  0
VERTEX
  5
D4F5
  8
CUT
 62
     5
 10
-28.92012159376367
 20
248.344924
 30
0.0
  0
VERTEX
  5
D4F6
  8
CUT
 62
     5
 10
-28.88010259376368
 20
249.594923
 30
0.0
  0
VERTEX
  5
D4F7
  8
CUT
 62
     5
 10
-31.10010259376368
 20
249.594957
 30
0.0
  0
VERTEX
  5
D4F8
  8
CUT
 62
     5
 10
-31.06012159376368
 20
248.344957
 30
0.0
  0
VERTEX
  5
D4F9
  8
CUT
 62
     5
 10
-37.06065259376368
 20
248.345233
 30
0.0
  0
VERTEX
  5
D4FA
  8
CUT
 62
     5
 10
-37.06059859376367
 20
251.843315
 30
0.0
  0
VERTEX
  5
D4FB
  8
CUT
 62
     5
 10
-34.44243659376367
 20
251.843275
 30
0.0
  0
SEQEND
  5
D68C
  8
CUT
 62
     5
  0
POLYLINE
  5
11F2
  8
CUT
 62
     5
 66
     1
 10
0.0
 20
0.0
 30
0.0
  0
VERTEX
  5
D4FC
  8
CUT
 62
     5
 10
-34.06059259376367
 20
252.225107
 30
0.0
  0
VERTEX
  5
D4FD
  8
CUT
 62
     5
 10
-34.06049059376367
 20
258.909036
 30
0.0
  0
VERTEX
  5
D4FE
  8
CUT
 62
     5
 10
-25.18549959376368
 20
258.909036
 30
0.0
  0
SEQEND
  5
D68D
  8
CUT
 62
     5
  0
POLYLINE
  5
11F5
  8
CUT
 62
     5
 66
     1
 10
0.0
 20
0.0
 30
0.0
  0
VERTEX
  5
D4FF
  8
CUT
 62
     5
 10
76.06324840623633
 20
258.909038
 30
0.0
  0
VERTEX
  5
D500
  8
CUT
 62
     5
 10
84.93700540623632
 20
258.909038
 30
0.0
  0
VERTEX
  5
D501
  8
CUT
 62
     5
 10
84.93702840623632
 20
252.223191
 30
0.0
  0
SEQEND
  5
D68E
  8
CUT
 62
     5
  0
POLYLINE
  5
11F7
  8
CUT
 62
     5
 66
     1
 10
0.0
 20
0.0
 30
0.0
  0
VERTEX
  5
D502
  8
CUT
 62
     5
 10
84.93702910179832
 20
252.2231913574013
 30
0.0
 42
0.9999999999999999
  0
VERTEX
  5
D503
  8
CUT
 62
     5
 10
85.31886571067434
 20
251.8413526425987
 30
0.0
 42
0.0000048345620281
  0
VERTEX
  5
D504
  8
CUT
 62
     5
 10
85.31886940268456
 20
251.84135633466
 30
0.0
  0
SEQEND
  5
D68F
  8
CUT
 62
     5
  0
POLYLINE
  5
1207
  8
CUT
 62
     5
 66
     1
 10
0.0
 20
0.0
 30
0.0
  0
VERTEX
  5
D505
  8
CUT
 62
     5
 10
85.31886940623633
 20
251.841356
 30
0.0
  0
VERTEX
  5
D506
  8
CUT
 62
     5
 10
87.93703040623632
 20
251.841398
 30
0.0
  0
VERTEX
  5
D507
  8
CUT
 62
     5
 10
87.93708440623632
 20
248.341398
 30
0.0
  0
VERTEX
  5
D508
  8
CUT
 62
     5
 10
81.93717640623632
 20
248.34126
 30
0.0
  0
VERTEX
  5
D509
  8
CUT
 62
     5
 10
81.97719540623632
 20
249.591259
 30
0.0
  0
VERTEX
  5
D50A
  8
CUT
 62
     5
 10
79.75719540623632
 20
249.591293
 30
0.0
  0
VERTEX
  5
D50B
  8
CUT
 62
     5
 10
79.79717640623632
 20
248.341293
 30
0.0
  0
VERTEX
  5
D50C
  8
CUT
 62
     5
 10
77.47717640623632
 20
248.341328
 30
0.0
  0
VERTEX
  5
D50D
  8
CUT
 62
     5
 10
77.47713040623633
 20
245.341328
 30
0.0
  0
VERTEX
  5
D50E
  8
CUT
 62
     5
 10
79.79713040623632
 20
245.341293
 30
0.0
  0
VERTEX
  5
D50F
  8
CUT
 62
     5
 10
79.75711140623632
 20
244.091293
 30
0.0
  0
VERTEX
  5
D510
  8
CUT
 62
     5
 10
81.97711140623632
 20
244.091259
 30
0.0
  0
VERTEX
  5
D511
  8
CUT
 62
     5
 10
81.93713040623632
 20
245.34126
 30
0.0
  0
VERTEX
  5
D512
  8
CUT
 62
     5
 10
87.93713040623632
 20
245.341398
 30
0.0
  0
VERTEX
  5
D513
  8
CUT
 62
     5
 10
87.93718340623633
 20
241.841398
 30
0.0
  0
VERTEX
  5
D514
  8
CUT
 62
     5
 10
85.31902840623633
 20
241.841357
 30
0.0
  0
SEQEND
  5
D690
  8
CUT
 62
     5
  0
POLYLINE
  5
1209
  8
CUT
 62
     5
 66
     1
 10
0.0
 20
0.0
 30
0.0
  0
VERTEX
  5
D515
  8
CUT
 62
     5
 10
85.31902776363759
 20
241.841357304438
 30
0.0
 42
0.9999999999999999
  0
VERTEX
  5
D516
  8
CUT
 62
     5
 10
84.93718904883505
 20
241.459520695562
 30
0.0
 42
0.0000131641458839
  0
VERTEX
  5
D517
  8
CUT
 62
     5
 10
84.93719910220537
 20
241.4595106426656
 30
0.0
  0
SEQEND
  5
D691
  8
CUT
 62
     5
  0
POLYLINE
  5
120B
  8
CUT
 62
     5
 66
     1
 10
0.0
 20
0.0
 30
0.0
  0
VERTEX
  5
D518
  8
CUT
 62
     5
 10
84.93719940623633
 20
241.459511
 30
0.0
  0
VERTEX
  5
D519
  8
CUT
 62
     5
 10
84.93765240623632
 20
232.343269
 30
0.0
  0
VERTEX
  5
D51A
  8
CUT
 62
     5
 10
67.57089540623632
 20
232.342677
 30
0.0
  0
SEQEND
  5
D692
  8
CUT
 62
     5
  0
POLYLINE
  5
120F
  8
CUT
 62
     5
 66
     1
 10
0.0
 20
0.0
 30
0.0
  0
VERTEX
  5
D51B
  8
CUT
 62
     5
 10
67.18907740623632
 20
231.96082
 30
0.0
  0
VERTEX
  5
D51C
  8
CUT
 62
     5
 10
67.18907740623632
 20
229.544188
 30
0.0
  0
VERTEX
  5
D51D
  8
CUT
 62
     5
 10
57.18907740623632
 20
229.544188
 30
0.0
  0
VERTEX
  5
D51E
  8
CUT
 62
     5
 10
57.18907740623632
 20
231.960801
 30
0.0
  0
SEQEND
  5
D693
  8
CUT
 62
     5
  0
POLYLINE
  5
1215
  8
CUT
 62
     5
 66
     1
 10
0.0
 20
0.0
 30
0.0
  0
VERTEX
  5
D51F
  8
CUT
 62
     5
 10
-6.310922593763674
 20
231.960493
 30
0.0
  0
VERTEX
  5
D520
  8
CUT
 62
     5
 10
-6.310922593763674
 20
229.543881
 30
0.0
  0
VERTEX
  5
D521
  8
CUT
 62
     5
 10
-16.31092259376368
 20
229.543881
 30
0.0
  0
VERTEX
  5
D522
  8
CUT
 62
     5
 10
-16.31092259376368
 20
231.960513
 30
0.0
  0
SEQEND
  5
D694
  8
CUT
 62
     5
  0
POLYLINE
  5
1217
  8
CUT
 62
     5
 66
     1
 10
0.0
 20
0.0
 30
0.0
  0
VERTEX
  5
D523
  8
CUT
 62
     5
 10
-16.69274059376367
 20
232.343002
 30
0.0
  0
VERTEX
  5
D524
  8
CUT
 62
     5
 10
-34.06089759376368
 20
232.343269
 30
0.0
  0
VERTEX
  5
D525
  8
CUT
 62
     5
 10
-34.06075759376368
 20
241.461431
 30
0.0
  0
SEQEND
  5
D695
  8
CUT
 62
     5
  0
POLYLINE
  5
121C
  8
CUT
 62
     5
 66
     1
 10
0.0
 20
0.0
 30
0.0
  0
VERTEX
  5
D526
  8
CUT
 62
     5
 10
-34.44258959376367
 20
241.843275
 30
0.0
  0
VERTEX
  5
D527
  8
CUT
 62
     5
 10
-37.06075259376368
 20
241.843315
 30
0.0
  0
VERTEX
  5
D528
  8
CUT
 62
     5
 10
-37.06069859376368
 20
245.345233
 30
0.0
  0
VERTEX
  5
D529
  8
CUT
 62
     5
 10
-31.06012159376368
 20
245.344957
 30
0.0
  0
SEQEND
  5
D696
  8
CUT
 62
     5
  0
POLYLINE
  5
123B
  8
CUT
 62
     1
 66
     1
 10
0.0
 20
0.0
 30
0.0
 70
     1
  0
VERTEX
  5
D52A
  8
CUT
 62
     1
 10
71.19864840623633
 20
245.686314
 30
0.0
  0
VERTEX
  5
D52B
  8
CUT
 62
     1
 10
70.36049840623633
 20
246.602833
 30
0.0
  0
VERTEX
  5
D52C
  8
CUT
 62
     1
 10
69.23254440623633
 20
247.406162
 30
0.0
  0
VERTEX
  5
D52D
  8
CUT
 62
     1
 10
67.85813340623632
 20
248.065431
 30
0.0
  0
VERTEX
  5
D52E
  8
CUT
 62
     1
 10
66.29008440623632
 20
248.555303
 30
0.0
  0
VERTEX
  5
D52F
  8
CUT
 62
     1
 10
64.58865440623633
 20
248.856954
 30
0.0
  0
VERTEX
  5
D530
  8
CUT
 62
     1
 10
62.81922940623632
 20
248.958791
 30
0.0
  0
VERTEX
  5
D531
  8
CUT
 62
     1
 10
61.04980840623632
 20
248.8569
 30
0.0
  0
VERTEX
  5
D532
  8
CUT
 62
     1
 10
59.34838740623633
 20
248.555197
 30
0.0
  0
VERTEX
  5
D533
  8
CUT
 62
     1
 10
57.78035340623632
 20
248.065277
 30
0.0
  0
VERTEX
  5
D534
  8
CUT
 62
     1
 10
56.40596240623633
 20
247.405966
 30
0.0
  0
VERTEX
  5
D535
  8
CUT
 62
     1
 10
55.27803340623633
 20
246.602602
 30
0.0
  0
VERTEX
  5
D536
  8
CUT
 62
     1
 10
54.43991140623633
 20
245.686057
 30
0.0
  0
VERTEX
  5
D537
  8
CUT
 62
     1
 10
53.92380440623632
 20
244.691554
 30
0.0
  0
VERTEX
  5
D538
  8
CUT
 62
     1
 10
53.74954740623632
 20
243.657311
 30
0.0
  0
VERTEX
  5
D539
  8
CUT
 62
     1
 10
53.92383640623633
 20
242.623074
 30
0.0
  0
VERTEX
  5
D53A
  8
CUT
 62
     1
 10
54.43997340623633
 20
241.628587
 30
0.0
  0
VERTEX
  5
D53B
  8
CUT
 62
     1
 10
55.27812340623633
 20
240.712068
 30
0.0
  0
VERTEX
  5
D53C
  8
CUT
 62
     1
 10
56.40607740623633
 20
239.908738
 30
0.0
  0
VERTEX
  5
D53D
  8
CUT
 62
     1
 10
57.78048840623632
 20
239.249469
 30
0.0
  0
VERTEX
  5
D53E
  8
CUT
 62
     1
 10
59.34853840623633
 20
238.759597
 30
0.0
  0
VERTEX
  5
D53F
  8
CUT
 62
     1
 10
61.04996740623632
 20
238.457946
 30
0.0
  0
VERTEX
  5
D540
  8
CUT
 62
     1
 10
62.81939240623632
 20
238.35611
 30
0.0
  0
VERTEX
  5
D541
  8
CUT
 62
     1
 10
64.58881340623633
 20
238.458001
 30
0.0
  0
VERTEX
  5
D542
  8
CUT
 62
     1
 10
66.29023440623632
 20
238.759704
 30
0.0
  0
VERTEX
  5
D543
  8
CUT
 62
     1
 10
67.85826940623632
 20
239.249624
 30
0.0
  0
VERTEX
  5
D544
  8
CUT
 62
     1
 10
69.23265940623632
 20
239.908935
 30
0.0
  0
VERTEX
  5
D545
  8
CUT
 62
     1
 10
70.36058840623632
 20
240.712299
 30
0.0
  0
VERTEX
  5
D546
  8
CUT
 62
     1
 10
71.19871040623633
 20
241.628844
 30
0.0
  0
VERTEX
  5
D547
  8
CUT
 62
     1
 10
71.71481740623632
 20
242.623346
 30
0.0
  0
VERTEX
  5
D548
  8
CUT
 62
     1
 10
71.88907440623632
 20
243.657589
 30
0.0
  0
VERTEX
  5
D549
  8
CUT
 62
     1
 10
71.71478540623633
 20
244.691827
 30
0.0
  0
SEQEND
  5
D697
  8
CUT
 62
     1
  0
POLYLINE
  5
125B
  8
CUT
 62
     1
 66
     1
 10
0.0
 20
0.0
 30
0.0
 70
     1
  0
VERTEX
  5
D54A
  8
CUT
 62
     1
 10
-19.47237759376367
 20
282.537533736561
 30
0.0
  0
VERTEX
  5
D54B
  8
CUT
 62
     1
 10
-18.63422659376367
 20
283.454052736561
 30
0.0
  0
VERTEX
  5
D54C
  8
CUT
 62
     1
 10
-17.50627359376367
 20
284.257381736561
 30
0.0
  0
VERTEX
  5
D54D
  8
CUT
 62
     1
 10
-16.13186259376368
 20
284.916650736561
 30
0.0
  0
VERTEX
  5
D54E
  8
CUT
 62
     1
 10
-14.56381259376367
 20
285.406523736561
 30
0.0
  0
VERTEX
  5
D54F
  8
CUT
 62
     1
 10
-12.86238259376368
 20
285.708173736561
 30
0.0
  0
VERTEX
  5
D550
  8
CUT
 62
     1
 10
-11.09295859376368
 20
285.810010736561
 30
0.0
  0
VERTEX
  5
D551
  8
CUT
 62
     1
 10
-9.323536593763677
 20
285.708119736561
 30
0.0
  0
VERTEX
  5
D552
  8
CUT
 62
     1
 10
-7.622116593763675
 20
285.406416736561
 30
0.0
  0
VERTEX
  5
D553
  8
CUT
 62
     1
 10
-6.054081593763676
 20
284.916496736561
 30
0.0
  0
VERTEX
  5
D554
  8
CUT
 62
     1
 10
-4.679690593763674
 20
284.257185736561
 30
0.0
  0
VERTEX
  5
D555
  8
CUT
 62
     1
 10
-3.551761593763676
 20
283.453821736561
 30
0.0
  0
VERTEX
  5
D556
  8
CUT
 62
     1
 10
-2.713639593763677
 20
282.537276736561
 30
0.0
  0
VERTEX
  5
D557
  8
CUT
 62
     1
 10
-2.197533593763676
 20
281.542773736561
 30
0.0
  0
VERTEX
  5
D558
  8
CUT
 62
     1
 10
-2.023276593763676
 20
280.508530736561
 30
0.0
  0
VERTEX
  5
D559
  8
CUT
 62
     1
 10
-2.197565593763677
 20
279.474293736561
 30
0.0
  0
VERTEX
  5
D55A
  8
CUT
 62
     1
 10
-2.713702593763674
 20
278.479806736561
 30
0.0
  0
VERTEX
  5
D55B
  8
CUT
 62
     1
 10
-3.551852593763677
 20
277.563287736561
 30
0.0
  0
VERTEX
  5
D55C
  8
CUT
 62
     1
 10
-4.679805593763675
 20
276.759957736561
 30
0.0
  0
VERTEX
  5
D55D
  8
CUT
 62
     1
 10
-6.054216593763677
 20
276.100689736561
 30
0.0
  0
VERTEX
  5
D55E
  8
CUT
 62
     1
 10
-7.622266593763676
 20
275.610816736561
 30
0.0
  0
VERTEX
  5
D55F
  8
CUT
 62
     1
 10
-9.323696593763675
 20
275.309165736561
 30
0.0
  0
VERTEX
  5
D560
  8
CUT
 62
     1
 10
-11.09312059376367
 20
275.207329736561
 30
0.0
  0
VERTEX
  5
D561
  8
CUT
 62
     1
 10
-12.86254259376368
 20
275.309220736561
 30
0.0
  0
VERTEX
  5
D562
  8
CUT
 62
     1
 10
-14.56396259376368
 20
275.610923736561
 30
0.0
  0
VERTEX
  5
D563
  8
CUT
 62
     1
 10
-16.13199759376367
 20
276.100843736561
 30
0.0
  0
VERTEX
  5
D564
  8
CUT
 62
     1
 10
-17.50638859376367
 20
276.760154736561
 30
0.0
  0
VERTEX
  5
D565
  8
CUT
 62
     1
 10
-18.63431759376368
 20
277.563518736561
 30
0.0
  0
VERTEX
  5
D566
  8
CUT
 62
     1
 10
-19.47243959376367
 20
278.480063736561
 30
0.0
  0
VERTEX
  5
D567
  8
CUT
 62
     1
 10
-19.98854559376367
 20
279.474566736561
 30
0.0
  0
VERTEX
  5
D568
  8
CUT
 62
     1
 10
-20.16280259376367
 20
280.508808736561
 30
0.0
  0
VERTEX
  5
D569
  8
CUT
 62
     1
 10
-19.98851459376368
 20
281.543046736561
 30
0.0
  0
SEQEND
  5
D698
  8
CUT
 62
     1
  0
POLYLINE
  5
1268
  8
CUT
 62
     5
 66
     1
 10
0.0
 20
0.0
 30
0.0
  0
VERTEX
  5
D56A
  8
CUT
 62
     5
 10
-30.21196059376368
 20
282.196176736561
 30
0.0
  0
VERTEX
  5
D56B
  8
CUT
 62
     5
 10
-30.25197959376368
 20
280.946176736561
 30
0.0
  0
VERTEX
  5
D56C
  8
CUT
 62
     5
 10
-28.03197959376368
 20
280.946142736561
 30
0.0
  0
VERTEX
  5
D56D
  8
CUT
 62
     5
 10
-28.07196059376368
 20
282.196143736561
 30
0.0
  0
VERTEX
  5
D56E
  8
CUT
 62
     5
 10
-25.75196059376368
 20
282.196107736561
 30
0.0
  0
VERTEX
  5
D56F
  8
CUT
 62
     5
 10
-25.75191459376367
 20
285.196107736561
 30
0.0
  0
VERTEX
  5
D570
  8
CUT
 62
     5
 10
-28.07191459376368
 20
285.196143736561
 30
0.0
  0
VERTEX
  5
D571
  8
CUT
 62
     5
 10
-28.03189459376367
 20
286.446142736561
 30
0.0
  0
VERTEX
  5
D572
  8
CUT
 62
     5
 10
-30.25189459376368
 20
286.446176736561
 30
0.0
  0
VERTEX
  5
D573
  8
CUT
 62
     5
 10
-30.21191459376368
 20
285.196176736561
 30
0.0
  0
VERTEX
  5
D574
  8
CUT
 62
     5
 10
-36.21244559376368
 20
285.196452736561
 30
0.0
  0
VERTEX
  5
D575
  8
CUT
 62
     5
 10
-36.21239159376368
 20
288.694534736561
 30
0.0
  0
VERTEX
  5
D576
  8
CUT
 62
     5
 10
-33.59422959376367
 20
288.694494736561
 30
0.0
  0
SEQEND
  5
D699
  8
CUT
 62
     5
  0
POLYLINE
  5
126A
  8
CUT
 62
     5
 66
     1
 10
0.0
 20
0.0
 30
0.0
  0
VERTEX
  5
D577
  8
CUT
 62
     5
 10
-33.21238559376367
 20
289.076326736561
 30
0.0
  0
VERTEX
  5
D578
  8
CUT
 62
     5
 10
-33.21228359376367
 20
295.760255736561
 30
0.0
  0
VERTEX
  5
D579
  8
CUT
 62
     5
 10
-24.33729259376368
 20
295.760255736561
 30
0.0
  0
SEQEND
  5
D69A
  8
CUT
 62
     5
  0
POLYLINE
  5
126D
  8
CUT
 62
     5
 66
     1
 10
0.0
 20
0.0
 30
0.0
  0
VERTEX
  5
D57A
  8
CUT
 62
     5
 10
76.91145540623633
 20
295.760257736561
 30
0.0
  0
VERTEX
  5
D57B
  8
CUT
 62
     5
 10
85.78521240623633
 20
295.760257736561
 30
0.0
  0
VERTEX
  5
D57C
  8
CUT
 62
     5
 10
85.78523640623632
 20
289.074410736561
 30
0.0
  0
SEQEND
  5
D69B
  8
CUT
 62
     5
  0
POLYLINE
  5
126F
  8
CUT
 62
     5
 66
     1
 10
0.0
 20
0.0
 30
0.0
  0
VERTEX
  5
D57D
  8
CUT
 62
     5
 10
85.78523610179829
 20
289.0744110939622
 30
0.0
 42
0.9999999999999999
  0
VERTEX
  5
D57E
  8
CUT
 62
     5
 10
86.16707271067435
 20
288.6925723791597
 30
0.0
 42
0.0000048345620248
  0
VERTEX
  5
D57F
  8
CUT
 62
     5
 10
86.16707640268454
 20
288.692576071221
 30
0.0
  0
SEQEND
  5
D69C
  8
CUT
 62
     5
  0
POLYLINE
  5
127F
  8
CUT
 62
     5
 66
     1
 10
0.0
 20
0.0
 30
0.0
  0
VERTEX
  5
D580
  8
CUT
 62
     5
 10
86.16707640623632
 20
288.692575736561
 30
0.0
  0
VERTEX
  5
D581
  8
CUT
 62
     5
 10
88.78523740623632
 20
288.692617736561
 30
0.0
  0
VERTEX
  5
D582
  8
CUT
 62
     5
 10
88.78529140623633
 20
285.192617736561
 30
0.0
  0
VERTEX
  5
D583
  8
CUT
 62
     5
 10
82.78538340623632
 20
285.192479736561
 30
0.0
  0
VERTEX
  5
D584
  8
CUT
 62
     5
 10
82.82540340623632
 20
286.442478736561
 30
0.0
  0
VERTEX
  5
D585
  8
CUT
 62
     5
 10
80.60540340623632
 20
286.442512736561
 30
0.0
  0
VERTEX
  5
D586
  8
CUT
 62
     5
 10
80.64538340623632
 20
285.192512736561
 30
0.0
  0
VERTEX
  5
D587
  8
CUT
 62
     5
 10
78.32538340623633
 20
285.192547736561
 30
0.0
  0
VERTEX
  5
D588
  8
CUT
 62
     5
 10
78.32533740623633
 20
282.192547736561
 30
0.0
  0
VERTEX
  5
D589
  8
CUT
 62
     5
 10
80.64533740623632
 20
282.192512736561
 30
0.0
  0
VERTEX
  5
D58A
  8
CUT
 62
     5
 10
80.60531840623632
 20
280.942512736561
 30
0.0
  0
VERTEX
  5
D58B
  8
CUT
 62
     5
 10
82.82531840623632
 20
280.942478736561
 30
0.0
  0
VERTEX
  5
D58C
  8
CUT
 62
     5
 10
82.78533740623632
 20
282.192479736561
 30
0.0
  0
VERTEX
  5
D58D
  8
CUT
 62
     5
 10
88.78533740623632
 20
282.192617736561
 30
0.0
  0
VERTEX
  5
D58E
  8
CUT
 62
     5
 10
88.78539140623633
 20
278.692617736561
 30
0.0
  0
VERTEX
  5
D58F
  8
CUT
 62
     5
 10
86.16723540623633
 20
278.692576736561
 30
0.0
  0
SEQEND
  5
D69D
  8
CUT
 62
     5
  0
POLYLINE
  5
1281
  8
CUT
 62
     5
 66
     1
 10
0.0
 20
0.0
 30
0.0
  0
VERTEX
  5
D590
  8
CUT
 62
     5
 10
86.16723576363759
 20
278.692577040999
 30
0.0
 42
0.9999999999999999
  0
VERTEX
  5
D591
  8
CUT
 62
     5
 10
85.78539704883505
 20
278.310740432123
 30
0.0
 42
0.0000131641458857
  0
VERTEX
  5
D592
  8
CUT
 62
     5
 10
85.78540710220538
 20
278.3107303792266
 30
0.0
  0
SEQEND
  5
D69E
  8
CUT
 62
     5
  0
POLYLINE
  5
1283
  8
CUT
 62
     5
 66
     1
 10
0.0
 20
0.0
 30
0.0
  0
VERTEX
  5
D593
  8
CUT
 62
     5
 10
85.78540640623632
 20
278.310730736561
 30
0.0
  0
VERTEX
  5
D594
  8
CUT
 62
     5
 10
85.78585940623633
 20
269.194488736561
 30
0.0
  0
VERTEX
  5
D595
  8
CUT
 62
     5
 10
68.41910240623632
 20
269.193896736561
 30
0.0
  0
SEQEND
  5
D69F
  8
CUT
 62
     5
  0
POLYLINE
  5
1287
  8
CUT
 62
     5
 66
     1
 10
0.0
 20
0.0
 30
0.0
  0
VERTEX
  5
D596
  8
CUT
 62
     5
 10
68.03728540623632
 20
268.812039736561
 30
0.0
  0
VERTEX
  5
D597
  8
CUT
 62
     5
 10
68.03728540623632
 20
266.395407736561
 30
0.0
  0
VERTEX
  5
D598
  8
CUT
 62
     5
 10
58.03728540623632
 20
266.395407736561
 30
0.0
  0
VERTEX
  5
D599
  8
CUT
 62
     5
 10
58.03728540623632
 20
268.812020736561
 30
0.0
  0
SEQEND
  5
D6A0
  8
CUT
 62
     5
  0
POLYLINE
  5
128D
  8
CUT
 62
     5
 66
     1
 10
0.0
 20
0.0
 30
0.0
  0
VERTEX
  5
D59A
  8
CUT
 62
     5
 10
-5.462714593763675
 20
268.811712736561
 30
0.0
  0
VERTEX
  5
D59B
  8
CUT
 62
     5
 10
-5.462714593763675
 20
266.395100736561
 30
0.0
  0
VERTEX
  5
D59C
  8
CUT
 62
     5
 10
-15.46271459376368
 20
266.395100736561
 30
0.0
  0
VERTEX
  5
D59D
  8
CUT
 62
     5
 10
-15.46271559376368
 20
268.811732736561
 30
0.0
  0
SEQEND
  5
D6A1
  8
CUT
 62
     5
  0
POLYLINE
  5
128F
  8
CUT
 62
     5
 66
     1
 10
0.0
 20
0.0
 30
0.0
  0
VERTEX
  5
D59E
  8
CUT
 62
     5
 10
-15.84453359376367
 20
269.194221736561
 30
0.0
  0
VERTEX
  5
D59F
  8
CUT
 62
     5
 10
-33.21269059376367
 20
269.194488736561
 30
0.0
  0
VERTEX
  5
D5A0
  8
CUT
 62
     5
 10
-33.21255059376368
 20
278.312650736561
 30
0.0
  0
SEQEND
  5
D6A2
  8
CUT
 62
     5
  0
POLYLINE
  5
1294
  8
CUT
 62
     5
 66
     1
 10
0.0
 20
0.0
 30
0.0
  0
VERTEX
  5
D5A1
  8
CUT
 62
     5
 10
-33.59438259376368
 20
278.694494736561
 30
0.0
  0
VERTEX
  5
D5A2
  8
CUT
 62
     5
 10
-36.21254459376367
 20
278.694534736561
 30
0.0
  0
VERTEX
  5
D5A3
  8
CUT
 62
     5
 10
-36.21249159376367
 20
282.196452736561
 30
0.0
  0
VERTEX
  5
D5A4
  8
CUT
 62
     5
 10
-30.21191459376368
 20
282.196176736561
 30
0.0
  0
SEQEND
  5
D6A3
  8
CUT
 62
     5
  0
POLYLINE
  5
12A4
  8
CUT
 62
     1
 66
     1
 10
0.0
 20
0.0
 30
0.0
 70
     1
  0
VERTEX
  5
D5A5
  8
CUT
 62
     1
 10
72.56302440623632
 20
279.474566736561
 30
0.0
  0
VERTEX
  5
D5A6
  8
CUT
 62
     1
 10
72.73728140623632
 20
280.508808736561
 30
0.0
  0
VERTEX
  5
D5A7
  8
CUT
 62
     1
 10
72.56299240623632
 20
281.543046736561
 30
0.0
  0
VERTEX
  5
D5A8
  8
CUT
 62
     1
 10
72.04685540623632
 20
282.537533736561
 30
0.0
  0
VERTEX
  5
D5A9
  8
CUT
 62
     1
 10
71.20870540623632
 20
283.454052736561
 30
0.0
  0
VERTEX
  5
D5AA
  8
CUT
 62
     1
 10
70.08075240623633
 20
284.257381736561
 30
0.0
  0
VERTEX
  5
D5AB
  8
CUT
 62
     1
 10
68.70634140623632
 20
284.916650736561
 30
0.0
  0
VERTEX
  5
D5AC
  8
CUT
 62
     1
 10
67.13829140623632
 20
285.406523736561
 30
0.0
  0
VERTEX
  5
D5AD
  8
CUT
 62
     1
 10
65.43686140623632
 20
285.708173736561
 30
0.0
  0
VERTEX
  5
D5AE
  8
CUT
 62
     1
 10
63.66743740623633
 20
285.810010736561
 30
0.0
  0
VERTEX
  5
D5AF
  8
CUT
 62
     1
 10
61.89801540623633
 20
285.708119736561
 30
0.0
  0
VERTEX
  5
D5B0
  8
CUT
 62
     1
 10
60.19659540623633
 20
285.406416736561
 30
0.0
  0
VERTEX
  5
D5B1
  8
CUT
 62
     1
 10
58.62856040623632
 20
284.916496736561
 30
0.0
  0
VERTEX
  5
D5B2
  8
CUT
 62
     1
 10
57.25416940623632
 20
284.257185736561
 30
0.0
  0
VERTEX
  5
D5B3
  8
CUT
 62
     1
 10
56.12624040623633
 20
283.453821736561
 30
0.0
  0
VERTEX
  5
D5B4
  8
CUT
 62
     1
 10
55.28811840623632
 20
282.537276736561
 30
0.0
  0
VERTEX
  5
D5B5
  8
CUT
 62
     1
 10
54.77201240623632
 20
281.542773736561
 30
0.0
  0
VERTEX
  5
D5B6
  8
CUT
 62
     1
 10
54.59775540623632
 20
280.508530736561
 30
0.0
  0
VERTEX
  5
D5B7
  8
CUT
 62
     1
 10
54.77204340623632
 20
279.474293736561
 30
0.0
  0
VERTEX
  5
D5B8
  8
CUT
 62
     1
 10
55.28818040623632
 20
278.479806736561
 30
0.0
  0
VERTEX
  5
D5B9
  8
CUT
 62
     1
 10
56.12633140623632
 20
277.563287736561
 30
0.0
  0
VERTEX
  5
D5BA
  8
CUT
 62
     1
 10
57.25428440623632
 20
276.759957736561
 30
0.0
  0
VERTEX
  5
D5BB
  8
CUT
 62
     1
 10
58.62869540623632
 20
276.100689736561
 30
0.0
  0
VERTEX
  5
D5BC
  8
CUT
 62
     1
 10
60.19674540623632
 20
275.610816736561
 30
0.0
  0
VERTEX
  5
D5BD
  8
CUT
 62
     1
 10
61.89817540623632
 20
275.309165736561
 30
0.0
  0
VERTEX
  5
D5BE
  8
CUT
 62
     1
 10
63.66759940623632
 20
275.207329736561
 30
0.0
  0
VERTEX
  5
D5BF
  8
CUT
 62
     1
 10
65.43702140623633
 20
275.309220736561
 30
0.0
  0
VERTEX
  5
D5C0
  8
CUT
 62
     1
 10
67.13844140623632
 20
275.610923736561
 30
0.0
  0
VERTEX
  5
D5C1
  8
CUT
 62
     1
 10
68.70647640623632
 20
276.100843736561
 30
0.0
  0
VERTEX
  5
D5C2
  8
CUT
 62
     1
 10
70.08086640623632
 20
276.760154736561
 30
0.0
  0
VERTEX
  5
D5C3
  8
CUT
 62
     1
 10
71.20879640623633
 20
277.563518736561
 30
0.0
  0
VERTEX
  5
D5C4
  8
CUT
 62
     1
 10
72.04691840623633
 20
278.480063736561
 30
0.0
  0
SEQEND
  5
D6A4
  8
CUT
 62
     1
  0
INSERT
  5
D0E8
  8
0
  6
BYBLOCK
  2
SIDE
 10
-1362.678429919641
 20
232.3748040031756
 30
0.0
  0
INSERT
  5
D0E9
  8
0
  6
BYBLOCK
  2
SIDE
 10
-1362.678429919641
 20
-34.35117686518373
 30
0.0
 41
-1.0
 50
180.0
  0
INSERT
  5
D0EA
  8
0
  6
BYBLOCK
  2
SIDE
 10
-1361.07303030177
 20
475.5928461105661
 30
0.0
  0
INSERT
  5
D0EB
  8
0
  6
BYBLOCK
  2
SIDE
 10
-1361.07303030177
 20
208.8668652422068
 30
0.0
 41
-1.0
 50
180.0
  0
INSERT
  5
D0EC
  8
0
  6
BYBLOCK
  2
SIDE
 10
-1360.727741079616
 20
415.1483495434447
 30
0.0
  0
INSERT
  5
D0ED
  8
0
  6
BYBLOCK
  2
SIDE
 10
-1360.727741079616
 20
27.30058021457677
 30
0.0
 41
-1.0
 50
180.0
  0
ENDSEC
  0
EOF
