  0
SECTION
  2
HEADER
  9
$ACADVER
  1
AC1009
  9
$DWGCODEPAGE
  3
ansi_1252
  9
$INSBASE
 10
0.0
 20
0.0
 30
0.0
  9
$EXTMIN
 10
93.29873297294591
 20
40.9313664538688
 30
0.0
  9
$EXTMAX
 10
241.6580219011461
 20
416.234382
 30
0.0
  9
$LIMMIN
 10
0.0
 20
0.0
  9
$LIMMAX
 10
12.0
 20
9.0
  9
$ORTHOMODE
 70
     0
  9
$REGENMODE
 70
     1
  9
$FILLMODE
 70
     1
  9
$QTEXTMODE
 70
     0
  9
$MIRRTEXT
 70
     1
  9
$DRAGMODE
 70
     2
  9
$LTSCALE
 40
1.0
  9
$OSMODE
 70
 13247
  9
$ATTMODE
 70
     1
  9
$TEXTSIZE
 40
0.2
  9
$TRACEWID
 40
0.05
  9
$TEXTSTYLE
  7
STANDARD
  9
$CLAYER
  8
0
  9
$CELTYPE
  6
BYBLOCK
  9
$CECOLOR
 62
     4
  9
$DIMSCALE
 40
1.0
  9
$DIMASZ
 40
0.18
  9
$DIMEXO
 40
0.0625
  9
$DIMDLI
 40
0.38
  9
$DIMRND
 40
0.0
  9
$DIMDLE
 40
0.0
  9
$DIMEXE
 40
0.18
  9
$DIMTP
 40
0.0
  9
$DIMTM
 40
0.0
  9
$DIMTXT
 40
0.18
  9
$DIMCEN
 40
0.09
  9
$DIMTSZ
 40
0.0
  9
$DIMTOL
 70
     0
  9
$DIMLIM
 70
     0
  9
$DIMTIH
 70
     1
  9
$DIMTOH
 70
     1
  9
$DIMSE1
 70
     0
  9
$DIMSE2
 70
     0
  9
$DIMTAD
 70
     0
  9
$DIMZIN
 70
     0
  9
$DIMBLK
  1

  9
$DIMASO
 70
     1
  9
$DIMSHO
 70
     1
  9
$DIMPOST
  1

  9
$DIMAPOST
  1

  9
$DIMALT
 70
     0
  9
$DIMALTD
 70
     2
  9
$DIMALTF
 40
25.4
  9
$DIMLFAC
 40
1.0
  9
$DIMTOFL
 70
     0
  9
$DIMTVP
 40
0.0
  9
$DIMTIX
 70
     0
  9
$DIMSOXD
 70
     0
  9
$DIMSAH
 70
     0
  9
$DIMBLK1
  1

  9
$DIMBLK2
  1

  9
$DIMSTYLE
  2
STANDARD
  9
$DIMCLRD
 70
     0
  9
$DIMCLRE
 70
     0
  9
$DIMCLRT
 70
     0
  9
$DIMTFAC
 40
1.0
  9
$DIMGAP
 40
0.09
  9
$LUNITS
 70
     2
  9
$LUPREC
 70
     4
  9
$SKETCHINC
 40
0.1
  9
$FILLETRAD
 40
0.5
  9
$AUNITS
 70
     0
  9
$AUPREC
 70
     0
  9
$MENU
  1
.
  9
$ELEVATION
 40
0.0
  9
$PELEVATION
 40
0.0
  9
$THICKNESS
 40
0.0
  9
$LIMCHECK
 70
     0
  9
$CHAMFERA
 40
0.0
  9
$CHAMFERB
 40
0.0
  9
$SKPOLY
 70
     0
  9
$TDCREATE
 40
2457784.718709143
  9
$TDUPDATE
 40
2457812.38742044
  9
$TDINDWG
 40
0.0241149653
  9
$TDUSRTIMER
 40
2457812.385918449
  9
$USRTIMER
 70
     1
  9
$ANGBASE
 50
0.0
  9
$ANGDIR
 70
     0
  9
$PDMODE
 70
     0
  9
$PDSIZE
 40
0.0
  9
$PLINEWID
 40
0.0
  9
$COORDS
 70
     1
  9
$SPLFRAME
 70
     0
  9
$SPLINETYPE
 70
     6
  9
$SPLINESEGS
 70
     8
  9
$ATTDIA
 70
     0
  9
$ATTREQ
 70
     1
  9
$HANDLING
 70
     1
  9
$HANDSEED
  5
D90C
  9
$SURFTAB1
 70
     6
  9
$SURFTAB2
 70
     6
  9
$SURFTYPE
 70
     6
  9
$SURFU
 70
     6
  9
$SURFV
 70
     6
  9
$UCSNAME
  2

  9
$UCSORG
 10
0.0
 20
0.0
 30
0.0
  9
$UCSXDIR
 10
1.0
 20
0.0
 30
0.0
  9
$UCSYDIR
 10
0.0
 20
1.0
 30
0.0
  9
$PUCSNAME
  2

  9
$PUCSORG
 10
0.0
 20
0.0
 30
0.0
  9
$PUCSXDIR
 10
1.0
 20
0.0
 30
0.0
  9
$PUCSYDIR
 10
0.0
 20
1.0
 30
0.0
  9
$USERI1
 70
     0
  9
$USERI2
 70
     0
  9
$USERI3
 70
     0
  9
$USERI4
 70
     0
  9
$USERI5
 70
     0
  9
$USERR1
 40
0.0
  9
$USERR2
 40
0.0
  9
$USERR3
 40
0.0
  9
$USERR4
 40
0.0
  9
$USERR5
 40
0.0
  9
$WORLDVIEW
 70
     1
  9
$SHADEDGE
 70
     3
  9
$SHADEDIF
 70
    70
  9
$TILEMODE
 70
     1
  9
$MAXACTVP
 70
    64
  9
$PLIMCHECK
 70
     0
  9
$PEXTMIN
 10
1.000000000000000E+20
 20
1.000000000000000E+20
 30
1.000000000000000E+20
  9
$PEXTMAX
 10
-1.000000000000000E+20
 20
-1.000000000000000E+20
 30
-1.000000000000000E+20
  9
$PLIMMIN
 10
0.0
 20
0.0
  9
$PLIMMAX
 10
0.0
 20
0.0
  9
$UNITMODE
 70
     0
  9
$VISRETAIN
 70
     1
  9
$PLINEGEN
 70
     0
  9
$PSLTSCALE
 70
     1
  0
ENDSEC
  0
SECTION
  2
TABLES
  0
TABLE
  2
VPORT
 70
     1
  0
VPORT
  2
*ACTIVE
 70
     0
 10
0.0
 20
0.0
 11
1.0
 21
1.0
 12
208.3033083054787
 22
111.786206146789
 13
0.0
 23
0.0
 14
0.5
 24
0.5
 15
0.5
 25
0.5
 16
0.0
 26
0.0
 36
1.0
 17
0.0
 27
0.0
 37
0.0
 40
545.8358700759927
 41
2.185882352941177
 42
50.0
 43
0.0
 44
0.0
 50
0.0
 51
0.0
 71
    16
 72
   100
 73
     1
 74
     3
 75
     0
 76
     0
 77
     0
 78
     0
  0
ENDTAB
  0
TABLE
  2
LTYPE
 70
     1
  0
LTYPE
  2
CONTINUOUS
 70
     0
  3
Solid line
 72
    65
 73
     0
 40
0.0
  0
ENDTAB
  0
TABLE
  2
LAYER
 70
     2
  0
LAYER
  2
0
 70
     0
 62
     7
  6
CONTINUOUS
  0
LAYER
  2
CUT
 70
     0
 62
     7
  6
CONTINUOUS
  0
ENDTAB
  0
TABLE
  2
STYLE
 70
     1
  0
STYLE
  2
STANDARD
 70
     0
 40
0.0
 41
1.0
 50
0.0
 71
     0
 42
0.2
  3
txt
  4

  0
ENDTAB
  0
TABLE
  2
VIEW
 70
     0
  0
ENDTAB
  0
TABLE
  2
UCS
 70
     0
  0
ENDTAB
  0
TABLE
  2
APPID
 70
     1
  0
APPID
  2
ACAD
 70
     0
  0
ENDTAB
  0
TABLE
  2
DIMSTYLE
 70
     1
  0
DIMSTYLE
  2
STANDARD
 70
     0
  3

  4

  5

  6

  7

 40
1.0
 41
0.18
 42
0.0625
 43
0.38
 44
0.18
 45
0.0
 46
0.0
 47
0.0
 48
0.0
140
0.18
141
0.09
142
0.0
143
25.4
144
1.0
145
0.0
146
1.0
147
0.09
 71
     0
 72
     0
 73
     1
 74
     1
 75
     0
 76
     0
 77
     0
 78
     0
170
     0
171
     2
172
     0
173
     0
174
     0
175
     0
176
     0
177
     0
178
     0
  0
ENDTAB
  0
ENDSEC
  0
SECTION
  2
BLOCKS
  0
BLOCK
  8
0
  2
$MODEL_SPACE
 70
     0
 10
0.0
 20
0.0
 30
0.0
  3
$MODEL_SPACE
  1

  0
ENDBLK
  5
96D
  8
0
  0
BLOCK
 67
     1
  8
0
  2
$PAPER_SPACE
 70
     0
 10
0.0
 20
0.0
 30
0.0
  3
$PAPER_SPACE
  1

  0
ENDBLK
  5
96F
 67
     1
  8
0
  0
BLOCK
  8
0
  2
SIDE
 70
     0
 10
0.0
 20
0.0
 30
0.0
  3
SIDE
  1

  0
LINE
  5
CF9A
  8
CUT
 62
     5
 10
1530.845934558287
 20
-135.8434375493065
 30
0.0
 11
1520.845934558287
 21
-135.8434375493068
 31
0.0
  0
LINE
  5
CF9B
  8
CUT
 62
     5
 10
1520.845934558287
 20
-135.8434375493068
 30
0.0
 11
1520.845934558287
 21
-138.2615998874659
 31
0.0
  0
ARC
  5
CF9C
  8
CUT
 62
     5
 10
1520.655015727367
 20
-138.4525187183862
 30
0.0
 40
0.2699999999999764
 50
224.9999999999574
 51
45.00000000001705
  0
LINE
  5
CF9D
  8
CUT
 62
     5
 10
1520.464096896446
 20
-138.6434375493065
 30
0.0
 11
1504.477772220127
 21
-138.6434375493067
 31
0.0
  0
ARC
  5
CF9E
  8
CUT
 62
     5
 10
1504.286853389207
 20
-138.4525187183862
 30
0.0
 40
0.2699999999999588
 50
134.9999999999829
 51
314.9999999999829
  0
LINE
  5
CF9F
  8
CUT
 62
     5
 10
1504.095934558287
 20
-138.2615998874658
 30
0.0
 11
1504.095934558287
 21
-135.8434375493065
 31
0.0
  0
LINE
  5
CFA0
  8
CUT
 62
     5
 10
1504.095934558287
 20
-135.8434375493065
 30
0.0
 11
1500.595934558287
 21
-135.8434375493068
 31
0.0
  0
LINE
  5
CFA1
  8
CUT
 62
     5
 10
1500.595934558287
 20
-135.8434375493068
 30
0.0
 11
1500.595934558287
 21
-144.8834375493067
 31
0.0
  0
LINE
  5
CFA2
  8
CUT
 62
     5
 10
1500.595934558287
 20
-144.8834375493067
 30
0.0
 11
1501.845934558287
 21
-144.8434375493067
 31
0.0
  0
LINE
  5
CFA3
  8
CUT
 62
     5
 10
1501.845934558287
 20
-144.8434375493067
 30
0.0
 11
1501.845934558287
 21
-147.0634375493069
 31
0.0
  0
LINE
  5
CFA4
  8
CUT
 62
     5
 10
1501.845934558287
 20
-147.0634375493069
 30
0.0
 11
1500.595934558287
 21
-147.0234375493067
 31
0.0
  0
LINE
  5
CFA5
  8
CUT
 62
     5
 10
1500.595934558287
 20
-147.0234375493067
 30
0.0
 11
1500.595934558287
 21
-149.3434375493067
 31
0.0
  0
LINE
  5
CFA6
  8
CUT
 62
     5
 10
1500.595934558287
 20
-149.3434375493067
 30
0.0
 11
1497.595934558287
 21
-149.3434375493067
 31
0.0
  0
LINE
  5
CFA7
  8
CUT
 62
     5
 10
1497.595934558287
 20
-149.3434375493067
 30
0.0
 11
1497.595934558287
 21
-147.0234375493067
 31
0.0
  0
LINE
  5
CFA8
  8
CUT
 62
     5
 10
1497.595934558287
 20
-147.0234375493067
 30
0.0
 11
1496.345934558287
 21
-147.0634375493069
 31
0.0
  0
LINE
  5
CFA9
  8
CUT
 62
     5
 10
1496.345934558287
 20
-147.0634375493069
 30
0.0
 11
1496.345934558287
 21
-144.8434375493067
 31
0.0
  0
LINE
  5
CFAA
  8
CUT
 62
     5
 10
1496.345934558287
 20
-144.8434375493067
 30
0.0
 11
1497.595934558287
 21
-144.8834375493067
 31
0.0
  0
LINE
  5
CFAB
  8
CUT
 62
     5
 10
1497.595934558287
 20
-144.8834375493067
 30
0.0
 11
1497.595934558287
 21
-144.8434375493068
 31
0.0
  0
LINE
  5
CFAC
  8
CUT
 62
     5
 10
1497.595934558287
 20
-144.8434375493068
 30
0.0
 11
1497.595934558287
 21
-135.8434375493068
 31
0.0
  0
LINE
  5
CFAD
  8
CUT
 62
     5
 10
1497.595934558287
 20
-135.8434375493068
 30
0.0
 11
1494.095934558287
 21
-135.8434375493068
 31
0.0
  0
LINE
  5
CFAE
  8
CUT
 62
     5
 10
1494.095934558287
 20
-135.8434375493068
 30
0.0
 11
1494.095934558287
 21
-138.2615998874658
 31
0.0
  0
ARC
  5
CFAF
  8
CUT
 62
     5
 10
1493.905015727366
 20
-138.4525187183862
 30
0.0
 40
0.2699999999999487
 50
225.0000000000085
 51
44.99999999994883
  0
LINE
  5
CFB0
  8
CUT
 62
     5
 10
1493.714096896446
 20
-138.6434375493066
 30
0.0
 11
1484.477772220127
 21
-138.6434375493066
 31
0.0
  0
ARC
  5
CFB1
  8
CUT
 62
     5
 10
1484.286853389207
 20
-138.4525187183862
 30
0.0
 40
0.2700000000000065
 50
134.9999999999659
 51
314.9999999999745
  0
LINE
  5
CFB2
  8
CUT
 62
     5
 10
1484.095934558287
 20
-138.2615998874656
 30
0.0
 11
1484.095934558287
 21
-135.8434375493065
 31
0.0
  0
LINE
  5
CFB3
  8
CUT
 62
     5
 10
1484.095934558287
 20
-135.8434375493065
 30
0.0
 11
1474.095934558287
 21
-135.8434375493065
 31
0.0
  0
LINE
  5
CFB4
  8
CUT
 62
     5
 10
1474.095934558287
 20
-135.8434375493065
 30
0.0
 11
1474.095934558287
 21
-138.2615998874658
 31
0.0
  0
ARC
  5
CFB5
  8
CUT
 62
     5
 10
1473.905015727366
 20
-138.4525187183862
 30
0.0
 40
0.2699999999999085
 50
225.0
 51
45.00000000000853
  0
ARC
  5
CFB6
  8
CUT
 62
     5
 10
1478.941056425026
 20
-145.1010648636214
 30
0.0
 40
4.784028703291498
 50
261.9658721833965
 51
276.9338680117637
  0
ARC
  5
CFB7
  8
CUT
 62
     5
 10
1482.007205635509
 20
-161.6950721756189
 30
0.0
 40
12.10357062912017
 50
70.15195271350305
 51
101.865155391671
  0
LINE
  5
CFB8
  8
CUT
 62
     5
 10
1486.116692336523
 20
-150.3104974787632
 30
0.0
 11
1492.512813396774
 21
-153.1597112417803
 31
0.0
  0
ARC
  5
CFB9
  8
CUT
 62
     5
 10
1489.257511813929
 20
-160.4674476631851
 30
0.0
 40
7.999999999999877
 50
245.988955924973
 51
65.98895771566283
  0
LINE
  5
CFBA
  8
CUT
 62
     5
 10
1486.002210002693
 20
-167.7751839828506
 30
0.0
 11
1479.606094155709
 21
-164.9259723337045
 31
0.0
  0
ARC
  5
CFBB
  8
CUT
 62
     5
 10
1481.927857210211
 20
-158.3437706387175
 30
0.0
 40
6.979682144248351
 50
189.7158462178904
 51
250.5705467051798
  0
ARC
  5
CFBC
  8
CUT
 62
     5
 10
1472.660236573938
 20
-159.9430599672371
 30
0.0
 40
2.424942041997565
 50
10.00713844831716
 51
61.9981343214785
  0
LINE
  5
CFBD
  8
CUT
 62
     5
 10
1473.798747622347
 20
-157.8020002997598
 30
0.0
 11
1469.919161464434
 21
-156.0497914947435
 31
0.0
  0
ARC
  5
CFBE
  8
CUT
 62
     5
 10
1469.095934369443
 20
-157.872508256805
 30
0.0
 40
1.999999811156571
 50
65.69376184888648
 51
180.0000001862126
  0
LINE
  5
CFBF
  8
CUT
 62
     5
 10
1467.095934558287
 20
-157.8725082633049
 30
0.0
 11
1467.095934558287
 21
-165.3434375493064
 31
0.0
  0
LINE
  5
CFC0
  8
CUT
 62
     5
 10
1467.095934558287
 20
-165.3434375493064
 30
0.0
 11
1467.095934558287
 21
-165.3906094599756
 31
0.0
  0
ARC
  5
CFC1
  8
CUT
 62
     5
 10
1435.147350351013
 20
-163.6258347300525
 30
0.0
 40
31.99728836474507
 50
311.0226014056669
 51
356.8383108903469
  0
ARC
  5
CFC2
  8
CUT
 62
     5
 10
1473.905015727367
 20
-188.834356380227
 30
0.0
 40
0.2699999999998482
 50
315.0000000000085
 51
135.0
  0
LINE
  5
CFC3
  8
CUT
 62
     5
 10
1474.095934558287
 20
-189.0252752111472
 30
0.0
 11
1474.095934558287
 21
-191.4434375493067
 31
0.0
  0
LINE
  5
CFC4
  8
CUT
 62
     5
 10
1474.095934558287
 20
-191.4434375493067
 30
0.0
 11
1477.595934558287
 21
-191.4434375493067
 31
0.0
  0
LINE
  5
CFC5
  8
CUT
 62
     5
 10
1477.595934558287
 20
-191.4434375493067
 30
0.0
 11
1477.595934558287
 21
-182.4034375493067
 31
0.0
  0
LINE
  5
CFC6
  8
CUT
 62
     5
 10
1477.595934558287
 20
-182.4034375493067
 30
0.0
 11
1476.345934558287
 21
-182.4434375493067
 31
0.0
  0
LINE
  5
CFC7
  8
CUT
 62
     5
 10
1476.345934558287
 20
-182.4434375493067
 30
0.0
 11
1476.345934558287
 21
-180.2234375493066
 31
0.0
  0
LINE
  5
CFC8
  8
CUT
 62
     5
 10
1476.345934558287
 20
-180.2234375493066
 30
0.0
 11
1477.595934558287
 21
-180.2634375493066
 31
0.0
  0
LINE
  5
CFC9
  8
CUT
 62
     5
 10
1477.595934558287
 20
-180.2634375493066
 30
0.0
 11
1477.595934558287
 21
-177.9434375493067
 31
0.0
  0
LINE
  5
CFCA
  8
CUT
 62
     5
 10
1477.595934558287
 20
-177.9434375493067
 30
0.0
 11
1480.595934558287
 21
-177.9434375493067
 31
0.0
  0
LINE
  5
CFCB
  8
CUT
 62
     5
 10
1480.595934558287
 20
-177.9434375493067
 30
0.0
 11
1480.595934558287
 21
-180.2634375493066
 31
0.0
  0
LINE
  5
CFCC
  8
CUT
 62
     5
 10
1480.595934558287
 20
-180.2634375493066
 30
0.0
 11
1481.845934558287
 21
-180.2234375493066
 31
0.0
  0
LINE
  5
CFCD
  8
CUT
 62
     5
 10
1481.845934558287
 20
-180.2234375493066
 30
0.0
 11
1481.845934558287
 21
-182.4434375493067
 31
0.0
  0
LINE
  5
CFCE
  8
CUT
 62
     5
 10
1481.845934558287
 20
-182.4434375493067
 30
0.0
 11
1480.595934558287
 21
-182.4034375493067
 31
0.0
  0
LINE
  5
CFCF
  8
CUT
 62
     5
 10
1480.595934558287
 20
-182.4034375493067
 30
0.0
 11
1480.595934558287
 21
-191.4434375493067
 31
0.0
  0
LINE
  5
CFD0
  8
CUT
 62
     5
 10
1480.595934558287
 20
-191.4434375493067
 30
0.0
 11
1484.095934558287
 21
-191.4434375493066
 31
0.0
  0
LINE
  5
CFD1
  8
CUT
 62
     5
 10
1484.095934558287
 20
-191.4434375493066
 30
0.0
 11
1484.095934558287
 21
-189.0252752111473
 31
0.0
  0
ARC
  5
CFD2
  8
CUT
 62
     5
 10
1484.286853389207
 20
-188.8343563802271
 30
0.0
 40
0.269999999999999
 50
44.99999999996589
 51
224.9999999999829
  0
LINE
  5
CFD3
  8
CUT
 62
     5
 10
1484.477772220128
 20
-188.6434375493067
 30
0.0
 11
1486.095934558287
 21
-188.6434375493067
 31
0.0
  0
LINE
  5
CFD4
  8
CUT
 62
     5
 10
1486.095934558287
 20
-188.6434375493067
 30
0.0
 11
1486.095934558287
 21
-186.6434375493067
 31
0.0
  0
ARC
  5
CFD5
  8
CUT
 62
     5
 10
1489.095934558287
 20
-186.6434375493067
 30
0.0
 40
3.0
 50
0.0
 51
180.0
  0
LINE
  5
CFD6
  8
CUT
 62
     5
 10
1492.095934558287
 20
-186.6434375493067
 30
0.0
 11
1492.095934558287
 21
-188.6434375493066
 31
0.0
  0
LINE
  5
CFD7
  8
CUT
 62
     5
 10
1492.095934558287
 20
-188.6434375493066
 30
0.0
 11
1493.714096896446
 21
-188.6434375493066
 31
0.0
  0
ARC
  5
CFD8
  8
CUT
 62
     5
 10
1493.905015727367
 20
-188.834356380227
 30
0.0
 40
0.2699999999999085
 50
315.0
 51
134.9999999999915
  0
LINE
  5
CFD9
  8
CUT
 62
     5
 10
1494.095934558287
 20
-189.0252752111472
 30
0.0
 11
1494.095934558287
 21
-191.4434375493067
 31
0.0
  0
LINE
  5
CFDA
  8
CUT
 62
     5
 10
1494.095934558287
 20
-191.4434375493067
 30
0.0
 11
1504.095934558287
 21
-191.4434375493066
 31
0.0
  0
LINE
  5
CFDB
  8
CUT
 62
     5
 10
1504.095934558287
 20
-191.4434375493066
 30
0.0
 11
1504.09589983489
 21
-189.0252584842386
 31
0.0
  0
ARC
  5
CFDC
  8
CUT
 62
     5
 10
1504.286844525746
 20
-188.8343655167572
 30
0.0
 40
0.2700000000000622
 50
44.99223876699557
 51
224.9922387669359
  0
LINE
  5
CFDD
  8
CUT
 62
     5
 10
1504.477789216602
 20
-188.6434725492758
 30
0.0
 11
1512.603707558287
 21
-188.6442065493064
 31
0.0
  0
LINE
  5
CFDE
  8
CUT
 62
     5
 10
1512.603707558287
 20
-188.6442065493064
 30
0.0
 11
1515.003499558287
 21
-188.6434375493066
 31
0.0
  0
LINE
  5
CFDF
  8
CUT
 62
     5
 10
1515.003499558287
 20
-188.6434375493066
 30
0.0
 11
1542.714096896446
 21
-188.6434375493068
 31
0.0
  0
ARC
  5
CFE0
  8
CUT
 62
     5
 10
1542.905015727367
 20
-188.8343563802271
 30
0.0
 40
0.2699999999999487
 50
314.9999999999829
 51
134.9999999999915
  0
LINE
  5
CFE1
  8
CUT
 62
     5
 10
1543.095934558287
 20
-189.0252752111475
 30
0.0
 11
1543.095934558287
 21
-191.4434375493068
 31
0.0
  0
LINE
  5
CFE2
  8
CUT
 62
     5
 10
1543.095934558287
 20
-191.4434375493068
 30
0.0
 11
1560.845934558287
 21
-191.4434375493067
 31
0.0
  0
LINE
  5
CFE3
  8
CUT
 62
     5
 10
1560.845934558287
 20
-191.4434375493067
 30
0.0
 11
1560.845934558287
 21
-189.0252752111473
 31
0.0
  0
ARC
  5
CFE4
  8
CUT
 62
     5
 10
1561.036853389207
 20
-188.8343563802271
 30
0.0
 40
0.2699999999999135
 50
45.0
 51
224.9999999999403
  0
LINE
  5
CFE5
  8
CUT
 62
     5
 10
1561.227772220128
 20
-188.6434375493069
 30
0.0
 11
1580.345934558287
 21
-188.6434375493067
 31
0.0
  0
LINE
  5
CFE6
  8
CUT
 62
     5
 10
1583.345934558287
 20
-188.6434375493067
 30
0.0
 11
1588.345934558287
 21
-188.6434375493067
 31
0.0
  0
LINE
  5
CFE7
  8
CUT
 62
     5
 10
1588.345934558287
 20
-188.6434375493067
 30
0.0
 11
1598.345934558287
 21
-188.6434375493068
 31
0.0
  0
ARC
  5
CFE8
  8
CUT
 62
     5
 10
1577.786853389207
 20
-138.4525187183864
 30
0.0
 40
0.2699999999999563
 50
134.9999999999829
 51
314.9999999999829
  0
LINE
  5
CFE9
  8
CUT
 62
     5
 10
1577.595934558287
 20
-138.2615998874659
 30
0.0
 11
1577.595934558287
 21
-135.843437549307
 31
0.0
  0
LINE
  5
CFEA
  8
CUT
 62
     5
 10
1577.595934558287
 20
-135.843437549307
 30
0.0
 11
1574.095934558287
 21
-135.8434375493066
 31
0.0
  0
LINE
  5
CFEB
  8
CUT
 62
     5
 10
1574.095934558287
 20
-135.8434375493066
 30
0.0
 11
1574.095934558287
 21
-144.8379572027468
 31
0.0
  0
LINE
  5
CFEC
  8
CUT
 62
     5
 10
1574.095934558287
 20
-144.8379572027468
 30
0.0
 11
1575.345934558287
 21
-144.804060549307
 31
0.0
  0
LINE
  5
CFED
  8
CUT
 62
     5
 10
1575.345934558287
 20
-144.804060549307
 30
0.0
 11
1575.345934558287
 21
-147.0240605493071
 31
0.0
  0
LINE
  5
CFEE
  8
CUT
 62
     5
 10
1575.345934558287
 20
-147.0240605493071
 30
0.0
 11
1574.095934558287
 21
-146.984060549307
 31
0.0
  0
LINE
  5
CFEF
  8
CUT
 62
     5
 10
1574.095934558287
 20
-146.984060549307
 30
0.0
 11
1574.095934558287
 21
-149.304060549307
 31
0.0
  0
LINE
  5
CFF0
  8
CUT
 62
     5
 10
1574.095934558287
 20
-149.304060549307
 30
0.0
 11
1571.095934558287
 21
-149.304060549307
 31
0.0
  0
LINE
  5
CFF1
  8
CUT
 62
     5
 10
1571.095934558287
 20
-149.304060549307
 30
0.0
 11
1571.095934558287
 21
-146.984060549307
 31
0.0
  0
LINE
  5
CFF2
  8
CUT
 62
     5
 10
1571.095934558287
 20
-146.984060549307
 30
0.0
 11
1569.845934558287
 21
-147.0240605493071
 31
0.0
  0
LINE
  5
CFF3
  8
CUT
 62
     5
 10
1569.845934558287
 20
-147.0240605493071
 30
0.0
 11
1569.845934558287
 21
-144.804060549307
 31
0.0
  0
LINE
  5
CFF4
  8
CUT
 62
     5
 10
1569.845934558287
 20
-144.804060549307
 30
0.0
 11
1571.095934558287
 21
-144.844060549307
 31
0.0
  0
LINE
  5
CFF5
  8
CUT
 62
     5
 10
1571.095934558287
 20
-144.844060549307
 30
0.0
 11
1571.095934558287
 21
-144.8434375493066
 31
0.0
  0
LINE
  5
CFF6
  8
CUT
 62
     5
 10
1571.095934558287
 20
-144.8434375493066
 30
0.0
 11
1571.095934558287
 21
-135.8434375493066
 31
0.0
  0
LINE
  5
CFF7
  8
CUT
 62
     5
 10
1571.095934558287
 20
-135.8434375493066
 30
0.0
 11
1567.595934558287
 21
-135.8434375493069
 31
0.0
  0
LINE
  5
CFF8
  8
CUT
 62
     5
 10
1567.595934558287
 20
-135.8434375493069
 30
0.0
 11
1567.595934558287
 21
-138.261599887466
 31
0.0
  0
ARC
  5
CFF9
  8
CUT
 62
     5
 10
1567.405015727367
 20
-138.4525187183864
 30
0.0
 40
0.270000000000009
 50
224.9999999999659
 51
45.00000000002558
  0
LINE
  5
CFFA
  8
CUT
 62
     5
 10
1567.214096896446
 20
-138.6434375493068
 30
0.0
 11
1557.977772220127
 21
-138.6434375493067
 31
0.0
  0
ARC
  5
CFFB
  8
CUT
 62
     5
 10
1557.786853389207
 20
-138.4525187183862
 30
0.0
 40
0.2699999999999713
 50
134.9999999999829
 51
314.9999999999745
  0
LINE
  5
CFFC
  8
CUT
 62
     5
 10
1557.595934558287
 20
-138.2615998874658
 30
0.0
 11
1557.595934558287
 21
-135.8434375493066
 31
0.0
  0
LINE
  5
CFFD
  8
CUT
 62
     5
 10
1557.595934558287
 20
-135.8434375493066
 30
0.0
 11
1547.595934558287
 21
-135.8434375493069
 31
0.0
  0
LINE
  5
CFFE
  8
CUT
 62
     5
 10
1547.595934558287
 20
-135.8434375493069
 30
0.0
 11
1547.595934558287
 21
-138.261599887466
 31
0.0
  0
ARC
  5
CFFF
  8
CUT
 62
     5
 10
1547.405015727367
 20
-138.4525187183863
 30
0.0
 40
0.270000000000009
 50
224.9999999999659
 51
45.00000000002558
  0
LINE
  5
D000
  8
CUT
 62
     5
 10
1547.214096896446
 20
-138.6434375493066
 30
0.0
 11
1531.227772220127
 21
-138.6434375493066
 31
0.0
  0
ARC
  5
D001
  8
CUT
 62
     5
 10
1531.036853389207
 20
-138.4525187183861
 30
0.0
 40
0.2700000000000291
 50
135.0000000000341
 51
314.9999999999659
  0
LINE
  5
D002
  8
CUT
 62
     5
 10
1530.845934558287
 20
-138.2615998874658
 30
0.0
 11
1530.845934558287
 21
-135.8434375493065
 31
0.0
  0
LINE
  5
D003
  8
CUT
 62
     5
 10
1473.714096896446
 20
-138.6434375493066
 30
0.0
 11
1456.753386382012
 21
-138.6434375493064
 31
0.0
  0
ARC
  5
D004
  8
CUT
 62
     5
 10
1500.86353766588
 20
-73.68318507497452
 30
0.0
 40
79.43510055918705
 50
236.0260844076223
 51
253.4771871428498
  0
LINE
  5
D005
  8
CUT
 62
     5
 10
1473.714096896446
 20
-188.6434375493068
 30
0.0
 11
1456.477162892587
 21
-188.6434375493067
 31
0.0
  0
LINE
  5
D006
  8
CUT
 62
     5
 10
1580.345934558287
 20
-188.6434375493067
 30
0.0
 11
1580.345934558287
 21
-182.4434375493067
 31
0.0
  0
LINE
  5
D007
  8
CUT
 62
     5
 10
1580.345934558287
 20
-182.4434375493067
 30
0.0
 11
1579.095934558287
 21
-182.4834375493066
 31
0.0
  0
LINE
  5
D008
  8
CUT
 62
     5
 10
1579.095934558287
 20
-182.4834375493066
 30
0.0
 11
1579.095934558287
 21
-180.2634375493066
 31
0.0
  0
LINE
  5
D009
  8
CUT
 62
     5
 10
1579.095934558287
 20
-180.2634375493066
 30
0.0
 11
1580.345934558287
 21
-180.3034375493067
 31
0.0
  0
LINE
  5
D00A
  8
CUT
 62
     5
 10
1580.345934558287
 20
-180.3034375493067
 30
0.0
 11
1580.345934558287
 21
-177.9834375493067
 31
0.0
  0
LINE
  5
D00B
  8
CUT
 62
     5
 10
1580.345934558287
 20
-177.9834375493067
 30
0.0
 11
1583.345934558287
 21
-177.9834375493067
 31
0.0
  0
LINE
  5
D00C
  8
CUT
 62
     5
 10
1583.345934558287
 20
-177.9834375493067
 30
0.0
 11
1583.345934558287
 21
-180.3034375493067
 31
0.0
  0
LINE
  5
D00D
  8
CUT
 62
     5
 10
1583.345934558287
 20
-180.3034375493067
 30
0.0
 11
1584.595934558287
 21
-180.2634375493066
 31
0.0
  0
LINE
  5
D00E
  8
CUT
 62
     5
 10
1584.595934558287
 20
-180.2634375493066
 30
0.0
 11
1584.595934558287
 21
-182.4834375493067
 31
0.0
  0
LINE
  5
D00F
  8
CUT
 62
     5
 10
1584.595934558287
 20
-182.4834375493067
 30
0.0
 11
1583.345934558287
 21
-182.4434375493067
 31
0.0
  0
LINE
  5
D010
  8
CUT
 62
     5
 10
1583.345934558287
 20
-182.4434375493067
 30
0.0
 11
1583.345934558287
 21
-188.6434375493067
 31
0.0
  0
LINE
  5
D011
  8
CUT
 62
     1
 10
1469.632857380341
 20
-166.560567823974
 30
0.0
 11
1471.732773524747
 21
-167.5892275055725
 31
0.0
  0
LINE
  5
D012
  8
CUT
 62
     1
 10
1470.987786506599
 20
-163.7946019776882
 30
0.0
 11
1473.087702651005
 21
-164.8232616592865
 31
0.0
  0
LINE
  5
D013
  8
CUT
 62
     1
 10
1490.33653712496
 20
-176.7024207121223
 30
0.0
 11
1495.130575846918
 21
-179.0508165556594
 31
0.0
  0
LINE
  5
D014
  8
CUT
 62
     1
 10
1491.691466251217
 20
-173.9364548658361
 30
0.0
 11
1496.485504973174
 21
-176.284850709373
 31
0.0
  0
LINE
  5
D015
  8
CUT
 62
     1
 10
1504.896247035252
 20
-183.8346038711414
 30
0.0
 11
1509.69028575721
 21
-186.1829997146787
 31
0.0
  0
LINE
  5
D016
  8
CUT
 62
     1
 10
1506.251176161509
 20
-181.0686380248557
 30
0.0
 11
1511.045214883466
 21
-183.4170338683923
 31
0.0
  0
POLYLINE
  5
D017
  8
CUT
 62
     5
 66
     1
 10
0.0
 20
0.0
 30
0.0
  0
VERTEX
  5
D868
  8
CUT
 62
     5
 10
1577.977772220127
 20
-138.6434375493067
 30
0.0
  0
VERTEX
  5
D869
  8
CUT
 62
     5
 10
1604.336451820787
 20
-138.6434375493068
 30
0.0
 42
0.0706308407230908
  0
VERTEX
  5
D86A
  8
CUT
 62
     5
 10
1598.345934558287
 20
-188.6434375493066
 30
0.0
  0
SEQEND
  5
D8FE
  8
CUT
 62
     5
  0
POLYLINE
  5
D018
  8
CUT
 62
     1
 66
     1
 10
0.0
 20
0.0
 30
0.0
 70
     1
  0
VERTEX
  5
D86B
  8
CUT
 62
     1
 10
1547.588051950205
 20
-149.896303611436
 30
0.0
  0
VERTEX
  5
D86C
  8
CUT
 62
     1
 10
1547.667817814817
 20
-149.0091491690203
 30
0.0
  0
VERTEX
  5
D86D
  8
CUT
 62
     1
 10
1547.986688667614
 20
-148.1447358393535
 30
0.0
  0
VERTEX
  5
D86E
  8
CUT
 62
     1
 10
1548.532410480545
 20
-147.336282541926
 30
0.0
  0
VERTEX
  5
D86F
  8
CUT
 62
     1
 10
1549.284011470385
 20
-146.6148576835721
 30
0.0
  0
VERTEX
  5
D870
  8
CUT
 62
     1
 10
1550.212608032596
 20
-146.0081852170188
 30
0.0
  0
VERTEX
  5
D871
  8
CUT
 62
     1
 10
1551.282514722056
 20
-145.5395792249297
 30
0.0
  0
VERTEX
  5
D872
  8
CUT
 62
     1
 10
1552.452615624699
 20
-145.2270479727836
 30
0.0
  0
VERTEX
  5
D873
  8
CUT
 62
     1
 10
1553.677944419037
 20
-145.0826018613309
 30
0.0
  0
VERTEX
  5
D874
  8
CUT
 62
     1
 10
1554.911412406676
 20
-145.1117918736284
 30
0.0
  0
VERTEX
  5
D875
  8
CUT
 62
     1
 10
1556.105618104587
 20
-145.3134962538735
 30
0.0
  0
VERTEX
  5
D876
  8
CUT
 62
     1
 10
1557.214668857519
 20
-145.6799636158505
 30
0.0
  0
VERTEX
  5
D877
  8
CUT
 62
     1
 10
1558.195944466998
 20
-146.1971108243559
 30
0.0
  0
VERTEX
  5
D878
  8
CUT
 62
     1
 10
1559.011735061659
 20
-146.8450642021864
 30
0.0
  0
VERTEX
  5
D879
  8
CUT
 62
     1
 10
1559.630690266449
 20
-147.5989232644082
 30
0.0
  0
VERTEX
  5
D87A
  8
CUT
 62
     1
 10
1560.029023979962
 20
-148.4297176300292
 30
0.0
  0
VERTEX
  5
D87B
  8
CUT
 62
     1
 10
1560.191428460975
 20
-149.3055203374936
 30
0.0
  0
VERTEX
  5
D87C
  8
CUT
 62
     1
 10
1560.111662596362
 20
-150.1926747799092
 30
0.0
  0
VERTEX
  5
D87D
  8
CUT
 62
     1
 10
1559.792791743566
 20
-151.057088109576
 30
0.0
  0
VERTEX
  5
D87E
  8
CUT
 62
     1
 10
1559.247069930635
 20
-151.8655414070036
 30
0.0
  0
VERTEX
  5
D87F
  8
CUT
 62
     1
 10
1558.495468940795
 20
-152.5869662653573
 30
0.0
  0
VERTEX
  5
D880
  8
CUT
 62
     1
 10
1557.566872378584
 20
-153.1936387319107
 30
0.0
  0
VERTEX
  5
D881
  8
CUT
 62
     1
 10
1556.496965689124
 20
-153.6622447239999
 30
0.0
  0
VERTEX
  5
D882
  8
CUT
 62
     1
 10
1555.326864786481
 20
-153.974775976146
 30
0.0
  0
VERTEX
  5
D883
  8
CUT
 62
     1
 10
1554.101535992143
 20
-154.1192220875987
 30
0.0
  0
VERTEX
  5
D884
  8
CUT
 62
     1
 10
1552.868068004504
 20
-154.0900320753011
 30
0.0
  0
VERTEX
  5
D885
  8
CUT
 62
     1
 10
1551.673862306593
 20
-153.888327695056
 30
0.0
  0
VERTEX
  5
D886
  8
CUT
 62
     1
 10
1550.564811553661
 20
-153.521860333079
 30
0.0
  0
VERTEX
  5
D887
  8
CUT
 62
     1
 10
1549.583535944182
 20
-153.0047131245736
 30
0.0
  0
VERTEX
  5
D888
  8
CUT
 62
     1
 10
1548.767745349521
 20
-152.3567597467432
 30
0.0
  0
VERTEX
  5
D889
  8
CUT
 62
     1
 10
1548.148790144731
 20
-151.6029006845214
 30
0.0
  0
VERTEX
  5
D88A
  8
CUT
 62
     1
 10
1547.750456431218
 20
-150.7721063189003
 30
0.0
  0
SEQEND
  5
D8FF
  8
CUT
 62
     1
  0
POLYLINE
  5
D019
  8
CUT
 62
     1
 66
     1
 10
0.0
 20
0.0
 30
0.0
 70
     1
  0
VERTEX
  5
D88B
  8
CUT
 62
     1
 10
1585.217518985209
 20
-165.7364093485231
 30
0.0
 42
-0.9999999999999997
  0
VERTEX
  5
D88C
  8
CUT
 62
     1
 10
1585.217518985209
 20
-151.9474221316363
 30
0.0
 42
-0.9999999999999997
  0
SEQEND
  5
D900
  8
CUT
 62
     1
  0
POLYLINE
  5
D01A
  8
CUT
 62
     1
 66
     1
 10
0.0
 20
0.0
 30
0.0
 70
     1
  0
VERTEX
  5
D88D
  8
CUT
 62
     1
 10
1516.922978227568
 20
-172.4571008628592
 30
0.0
  0
VERTEX
  5
D88E
  8
CUT
 62
     1
 10
1515.211646355625
 20
-172.3032315252566
 30
0.0
  0
VERTEX
  5
D88F
  8
CUT
 62
     1
 10
1513.544182370928
 20
-171.6881257135354
 30
0.0
  0
VERTEX
  5
D890
  8
CUT
 62
     1
 10
1511.984665979285
 20
-170.6354215990847
 30
0.0
  0
VERTEX
  5
D891
  8
CUT
 62
     1
 10
1510.593028521041
 20
-169.1855740106594
 30
0.0
  0
VERTEX
  5
D892
  8
CUT
 62
     1
 10
1509.422749843276
 20
-167.3942997779991
 30
0.0
  0
VERTEX
  5
D893
  8
CUT
 62
     1
 10
1508.518803099277
 20
-165.3304365653065
 30
0.0
  0
VERTEX
  5
D894
  8
CUT
 62
     1
 10
1507.915926455477
 20
-163.0732974784177
 30
0.0
  0
VERTEX
  5
D895
  8
CUT
 62
     1
 10
1507.637288123199
 20
-160.7096231066237
 30
0.0
  0
VERTEX
  5
D896
  8
CUT
 62
     1
 10
1507.693596017292
 20
-158.3302481304686
 30
0.0
  0
VERTEX
  5
D897
  8
CUT
 62
     1
 10
1508.082686256962
 20
-156.0266105959171
 30
0.0
  0
VERTEX
  5
D898
  8
CUT
 62
     1
 10
1508.789606322504
 20
-153.8872380015273
 30
0.0
  0
VERTEX
  5
D899
  8
CUT
 62
     1
 10
1509.787189672244
 20
-151.9943452363277
 30
0.0
  0
VERTEX
  5
D89A
  8
CUT
 62
     1
 10
1511.037099737503
 20
-150.4206751077383
 30
0.0
  0
VERTEX
  5
D89B
  8
CUT
 62
     1
 10
1512.491303175432
 20
-149.2267028762764
 30
0.0
  0
VERTEX
  5
D89C
  8
CUT
 62
     1
 10
1514.093915763435
 20
-148.4583122252099
 30
0.0
  0
VERTEX
  5
D89D
  8
CUT
 62
     1
 10
1515.783349998513
 20
-148.1450319763406
 30
0.0
  0
VERTEX
  5
D89E
  8
CUT
 62
     1
 10
1517.494681870457
 20
-148.2989013139432
 30
0.0
  0
VERTEX
  5
D89F
  8
CUT
 62
     1
 10
1519.162145855154
 20
-148.9140071256645
 30
0.0
  0
VERTEX
  5
D8A0
  8
CUT
 62
     1
 10
1520.721662246796
 20
-149.9667112401152
 30
0.0
  0
VERTEX
  5
D8A1
  8
CUT
 62
     1
 10
1522.11329970504
 20
-151.4165588285404
 30
0.0
  0
VERTEX
  5
D8A2
  8
CUT
 62
     1
 10
1523.283578382805
 20
-153.2078330612007
 30
0.0
  0
VERTEX
  5
D8A3
  8
CUT
 62
     1
 10
1524.187525126804
 20
-155.2716962738934
 30
0.0
  0
VERTEX
  5
D8A4
  8
CUT
 62
     1
 10
1524.790401770605
 20
-157.5288353607822
 30
0.0
  0
VERTEX
  5
D8A5
  8
CUT
 62
     1
 10
1525.069040102882
 20
-159.8925097325761
 30
0.0
  0
VERTEX
  5
D8A6
  8
CUT
 62
     1
 10
1525.01273220879
 20
-162.2718847087312
 30
0.0
  0
VERTEX
  5
D8A7
  8
CUT
 62
     1
 10
1524.623641969119
 20
-164.5755222432827
 30
0.0
  0
VERTEX
  5
D8A8
  8
CUT
 62
     1
 10
1523.916721903577
 20
-166.7148948376725
 30
0.0
  0
VERTEX
  5
D8A9
  8
CUT
 62
     1
 10
1522.919138553837
 20
-168.6077876028721
 30
0.0
  0
VERTEX
  5
D8AA
  8
CUT
 62
     1
 10
1521.669228488578
 20
-170.1814577314616
 30
0.0
  0
VERTEX
  5
D8AB
  8
CUT
 62
     1
 10
1520.21502505065
 20
-171.3754299629234
 30
0.0
  0
VERTEX
  5
D8AC
  8
CUT
 62
     1
 10
1518.612412462646
 20
-172.14382061399
 30
0.0
  0
SEQEND
  5
D901
  8
CUT
 62
     1
  0
POLYLINE
  5
D01B
  8
CUT
 62
     1
 66
     1
 10
0.0
 20
0.0
 30
0.0
 70
     1
  0
VERTEX
  5
D8AD
  8
CUT
 62
     1
 10
1532.537097884719
 20
-172.6423545229931
 30
0.0
 42
-0.9999999999999906
  0
VERTEX
  5
D8AE
  8
CUT
 62
     1
 10
1532.558607231855
 20
-175.6422774133332
 30
0.0
 42
-0.9999999999999906
  0
SEQEND
  5
D902
  8
CUT
 62
     1
  0
POLYLINE
  5
D01C
  8
CUT
 62
     1
 66
     1
 10
0.0
 20
0.0
 30
0.0
 70
     1
  0
VERTEX
  5
D8AF
  8
CUT
 62
     1
 10
1536.716014896446
 20
-158.6423159681633
 30
0.0
  0
VERTEX
  5
D8B0
  8
CUT
 62
     1
 10
1534.479690220128
 20
-158.6423159681632
 30
0.0
 42
-1.000000000000037
  0
VERTEX
  5
D8B1
  8
CUT
 62
     1
 10
1534.097852558287
 20
-158.2604783063224
 30
0.0
  0
VERTEX
  5
D8B2
  8
CUT
 62
     1
 10
1534.097852558287
 20
-149.0241536300038
 30
0.0
 42
-0.999999999999907
  0
VERTEX
  5
D8B3
  8
CUT
 62
     1
 10
1534.479690220127
 20
-148.6423159681631
 30
0.0
  0
VERTEX
  5
D8B4
  8
CUT
 62
     1
 10
1536.716014896446
 20
-148.642315968163
 30
0.0
 42
-0.9999996678963128
  0
VERTEX
  5
D8B5
  8
CUT
 62
     1
 10
1537.097852516017
 20
-149.0241537568135
 30
0.0
  0
VERTEX
  5
D8B6
  8
CUT
 62
     1
 10
1537.097852558287
 20
-158.2604783063224
 30
0.0
 42
-1.000000000000037
  0
SEQEND
  5
D903
  8
CUT
 62
     1
  0
POLYLINE
  5
D01D
  8
CUT
 62
     1
 66
     1
 10
0.0
 20
0.0
 30
0.0
 70
     1
  0
VERTEX
  5
D8B7
  8
CUT
 62
     1
 10
1550.254645387364
 20
-161.1426501100233
 30
0.0
 42
-1.000000000000002
  0
VERTEX
  5
D8B8
  8
CUT
 62
     1
 10
1550.44105972921
 20
-187.1419818263031
 30
0.0
 42
-0.999999999999998
  0
SEQEND
  5
D904
  8
CUT
 62
     1
  0
POLYLINE
  5
D01E
  8
CUT
 62
     1
 66
     1
 10
0.0
 20
0.0
 30
0.0
 70
     1
  0
VERTEX
  5
D8B9
  8
CUT
 62
     1
 10
1566.647852579422
 20
-178.7604782429174
 30
0.0
  0
VERTEX
  5
D8BA
  8
CUT
 62
     1
 10
1566.647852579422
 20
-169.5241535665989
 30
0.0
 42
-0.9999999999998138
  0
VERTEX
  5
D8BB
  8
CUT
 62
     1
 10
1567.029690241263
 20
-169.1423159047581
 30
0.0
  0
VERTEX
  5
D8BC
  8
CUT
 62
     1
 10
1569.266014917581
 20
-169.1423159047581
 30
0.0
 42
-0.9999996678964247
  0
VERTEX
  5
D8BD
  8
CUT
 62
     1
 10
1569.647852537152
 20
-169.5241536934086
 30
0.0
  0
VERTEX
  5
D8BE
  8
CUT
 62
     1
 10
1569.647852579422
 20
-178.7604782429174
 30
0.0
 42
-1.0
  0
VERTEX
  5
D8BF
  8
CUT
 62
     1
 10
1569.266014917582
 20
-179.1423159047583
 30
0.0
  0
VERTEX
  5
D8C0
  8
CUT
 62
     1
 10
1567.029690241263
 20
-179.1423159047582
 30
0.0
 42
-1.000000000000112
  0
SEQEND
  5
D905
  8
CUT
 62
     1
  0
POLYLINE
  5
D01F
  8
CUT
 62
     1
 66
     1
 10
0.0
 20
0.0
 30
0.0
  0
VERTEX
  5
D8C1
  8
CUT
 62
     1
 10
1473.087702651005
 20
-164.8232616592865
 30
0.0
 42
-0.8863763963863308
  0
VERTEX
  5
D8C2
  8
CUT
 62
     1
 10
1473.19923439531
 20
-165.3476273557322
 30
0.0
  0
VERTEX
  5
D8C3
  8
CUT
 62
     1
 10
1472.215448213586
 20
-167.3559382894672
 30
0.0
 42
-0.8863763963856639
  0
VERTEX
  5
D8C4
  8
CUT
 62
     1
 10
1471.732773524747
 20
-167.5892275055725
 30
0.0
 42
-0.0602337920638516
  0
SEQEND
  5
D906
  8
CUT
 62
     1
  0
POLYLINE
  5
D020
  8
CUT
 62
     1
 66
     1
 10
0.0
 20
0.0
 30
0.0
  0
VERTEX
  5
D8C5
  8
CUT
 62
     1
 10
1469.632857380341
 20
-166.560567823974
 30
0.0
 42
-0.8863763963856589
  0
VERTEX
  5
D8C6
  8
CUT
 62
     1
 10
1469.521325636035
 20
-166.0362021275284
 30
0.0
  0
VERTEX
  5
D8C7
  8
CUT
 62
     1
 10
1470.505111817759
 20
-164.0278911937934
 30
0.0
 42
-0.8863763963868387
  0
VERTEX
  5
D8C8
  8
CUT
 62
     1
 10
1470.987786506599
 20
-163.7946019776882
 30
0.0
 42
-0.0602337920633506
  0
SEQEND
  5
D907
  8
CUT
 62
     1
  0
POLYLINE
  5
D021
  8
CUT
 62
     1
 66
     1
 10
0.0
 20
0.0
 30
0.0
  0
VERTEX
  5
D8C9
  8
CUT
 62
     1
 10
1496.485504973174
 20
-176.284850709373
 30
0.0
 42
-0.8863763963867493
  0
VERTEX
  5
D8CA
  8
CUT
 62
     1
 10
1496.59703671748
 20
-176.8092164058182
 30
0.0
  0
VERTEX
  5
D8CB
  8
CUT
 62
     1
 10
1495.613250535756
 20
-178.8175273395532
 30
0.0
 42
-0.8863763963856188
  0
VERTEX
  5
D8CC
  8
CUT
 62
     1
 10
1495.130575846918
 20
-179.0508165556594
 30
0.0
 42
-0.060233792064562
  0
SEQEND
  5
D908
  8
CUT
 62
     1
  0
POLYLINE
  5
D022
  8
CUT
 62
     1
 66
     1
 10
0.0
 20
0.0
 30
0.0
  0
VERTEX
  5
D8CD
  8
CUT
 62
     1
 10
1490.33653712496
 20
-176.7024207121223
 30
0.0
 42
-0.8863763963864388
  0
VERTEX
  5
D8CE
  8
CUT
 62
     1
 10
1490.225005380654
 20
-176.1780550156766
 30
0.0
  0
VERTEX
  5
D8CF
  8
CUT
 62
     1
 10
1491.208791562378
 20
-174.1697440819419
 30
0.0
 42
-0.8863763963862764
  0
VERTEX
  5
D8D0
  8
CUT
 62
     1
 10
1491.691466251217
 20
-173.9364548658361
 30
0.0
 42
-0.0602337920636666
  0
SEQEND
  5
D909
  8
CUT
 62
     1
  0
POLYLINE
  5
D023
  8
CUT
 62
     1
 66
     1
 10
0.0
 20
0.0
 30
0.0
  0
VERTEX
  5
D8D1
  8
CUT
 62
     1
 10
1511.045214883466
 20
-183.4170338683923
 30
0.0
 42
-0.8863763963869108
  0
VERTEX
  5
D8D2
  8
CUT
 62
     1
 10
1511.156746627773
 20
-183.9413995648374
 30
0.0
  0
VERTEX
  5
D8D3
  8
CUT
 62
     1
 10
1510.172960446048
 20
-185.9497104985727
 30
0.0
 42
-0.886376396385077
  0
VERTEX
  5
D8D4
  8
CUT
 62
     1
 10
1509.69028575721
 20
-186.1829997146787
 30
0.0
 42
-0.060233792064708
  0
SEQEND
  5
D90A
  8
CUT
 62
     1
  0
POLYLINE
  5
D024
  8
CUT
 62
     1
 66
     1
 10
0.0
 20
0.0
 30
0.0
  0
VERTEX
  5
D8D5
  8
CUT
 62
     1
 10
1504.896247035252
 20
-183.8346038711414
 30
0.0
 42
-0.8863763963856816
  0
VERTEX
  5
D8D6
  8
CUT
 62
     1
 10
1504.784715290946
 20
-183.3102381746959
 30
0.0
  0
VERTEX
  5
D8D7
  8
CUT
 62
     1
 10
1505.76850147267
 20
-181.3019272409606
 30
0.0
 42
-0.8863763963871134
  0
VERTEX
  5
D8D8
  8
CUT
 62
     1
 10
1506.251176161509
 20
-181.0686380248557
 30
0.0
 42
-0.0602337920631881
  0
SEQEND
  5
D90B
  8
CUT
 62
     1
  0
ARC
  5
D025
  8
CUT
 62
     5
 10
1456.753386382012
 20
-139.1434375493064
 30
0.0
 40
0.5
 50
90.0
 51
236.0260844076377
  0
ARC
  5
D026
  8
CUT
 62
     5
 10
1456.477162892587
 20
-188.1434375493067
 30
0.0
 40
0.5
 50
131.0226014056722
 51
270.0
  0
ENDBLK
  5
D027
  8
0
  0
ENDSEC
  0
SECTION
  2
ENTITIES
  0
ARC
  5
241
  8
CUT
 10
129.752283
 20
154.986537
 30
0.0
 40
3.0
 50
0.0
 51
0.0
  0
ARC
  5
2E2
  8
CUT
 62
     5
 10
107.2158280113906
 20
245.2703054789471
 30
0.0
 40
0.27
 50
224.9991589999982
 51
44.9990829999952
  0
ARC
  5
2E5
  8
CUT
 62
     5
 10
166.9062150113906
 20
390.4039854789471
 30
0.0
 40
147.235635
 50
249.8894669999999
 51
290.110535
  0
ARC
  5
2FD
  8
CUT
 62
     5
 10
208.8473490113906
 20
225.3878444789471
 30
0.0
 40
0.27
 50
45.00873700000118
 51
224.9972090000007
  0
ARC
  5
301
  8
CUT
 62
     5
 10
198.4655020113906
 20
225.3878344789471
 30
0.0
 40
0.27
 50
315.0000540000011
 51
134.9999779999938
  0
ARC
  5
302
  8
CUT
 62
     5
 10
166.9066560113906
 20
177.5149894789471
 30
0.0
 40
57.394009
 50
56.87026699999996
 51
123.130294
  0
ARC
  5
303
  8
CUT
 62
     5
 10
135.3473400113906
 20
225.3875274789471
 30
0.0
 40
0.27
 50
45.00005400000101
 51
224.9999780000022
  0
ARC
  5
307
  8
CUT
 62
     5
 10
124.9651750113906
 20
225.3875364789471
 30
0.0
 40
0.270224
 50
315.0505509999972
 51
134.8488120000009
  0
ARC
  5
30A
  8
CUT
 62
     5
 10
107.2156690113906
 20
234.8884674789471
 30
0.0
 40
0.27
 50
314.9991590000046
 51
134.9990830000059
  0
ARC
  5
37F
  8
CUT
 62
     5
 10
224.2206765101603
 20
182.6149000580258
 30
0.0
 40
0.27
 50
45.02282299999813
 51
225.0227470000019
  0
LINE
  5
380
  8
CUT
 62
     5
 10
224.0298325101602
 20
182.4239050580258
 30
0.0
 11
224.0317195101603
 21
177.6875810580258
 31
0.0
  0
ARC
  5
381
  8
CUT
 62
     5
 10
224.2227145101602
 20
177.4967380580258
 30
0.0
 40
0.27
 50
135.0228229999938
 51
315.0227470000019
  0
ARC
  5
386
  8
CUT
 62
     5
 10
208.9790415101602
 20
165.3601130580258
 30
0.0
 40
0.27
 50
45.02371799999797
 51
225.0236420000012
  0
ARC
  5
38A
  8
CUT
 62
     5
 10
198.5972045101603
 20
165.3558190580258
 30
0.0
 40
0.27
 50
315.0237369999982
 51
135.0236610000015
  0
ARC
  5
39D
  8
CUT
 62
     5
 10
135.4464865101603
 20
165.3558190580258
 30
0.0
 40
0.27
 50
44.97633899999851
 51
224.9762630000018
  0
ARC
  5
3A1
  8
CUT
 62
     5
 10
125.0646495101603
 20
165.3601130580258
 30
0.0
 40
0.27
 50
314.9763580000009
 51
134.9762819999978
  0
ARC
  5
3A6
  8
CUT
 62
     5
 10
109.8209765101603
 20
177.4967380580258
 30
0.0
 40
0.27
 50
224.9772530000002
 51
44.97717700000401
  0
LINE
  5
3A7
  8
CUT
 62
     5
 10
110.0119715101603
 20
177.6875810580258
 30
0.0
 11
110.0138585101602
 21
182.4239050580258
 31
0.0
  0
ARC
  5
3A8
  8
CUT
 62
     5
 10
109.8230145101603
 20
182.6149000580258
 30
0.0
 40
0.27
 50
314.977252999996
 51
134.9771770000062
  0
ARC
  5
3C0
  8
CUT
 62
     5
 10
115.0854785101603
 20
215.7460730580258
 30
0.0
 40
0.27
 50
224.985040999999
 51
44.97351299999789
  0
ARC
  5
3C4
  8
CUT
 62
     5
 10
125.4673245101603
 20
215.7417890580258
 30
0.0
 40
0.27
 50
134.976358000003
 51
314.9762819999978
  0
LINE
  5
3C5
  8
CUT
 62
     5
 10
125.6581645101603
 20
215.5507910580258
 30
0.0
 11
134.8944875101603
 21
215.5469710580258
 31
0.0
  0
ARC
  5
3CB
  8
CUT
 62
     5
 10
145.4673225101603
 20
215.7335170580258
 30
0.0
 40
0.27
 50
134.9763759999992
 51
314.9762999999982
  0
LINE
  5
3CC
  8
CUT
 62
     5
 10
145.6581625101603
 20
215.5425200580258
 30
0.0
 11
161.6444855101603
 21
215.5359080580258
 31
0.0
  0
ARC
  5
3CD
  8
CUT
 62
     5
 10
161.8354835101603
 20
215.7267480580258
 30
0.0
 40
0.27
 50
224.9763389999985
 51
44.97626299999753
  0
ARC
  5
3DE
  8
CUT
 62
     5
 10
172.2082075101603
 20
215.7267480580258
 30
0.0
 40
0.27
 50
135.0237369999982
 51
315.0236610000015
  0
LINE
  5
3DF
  8
CUT
 62
     5
 10
172.3992055101603
 20
215.5359080580258
 30
0.0
 11
188.3855285101603
 21
215.5425200580258
 31
0.0
  0
ARC
  5
3E0
  8
CUT
 62
     5
 10
188.5763685101603
 20
215.7335170580258
 30
0.0
 40
0.27
 50
225.0237000000018
 51
45.02362300000102
  0
LINE
  5
3E6
  8
CUT
 62
     5
 10
199.1492035101603
 20
215.5469710580258
 30
0.0
 11
208.3855265101603
 21
215.5507910580258
 31
0.0
  0
ARC
  5
3E7
  8
CUT
 62
     5
 10
208.5763665101603
 20
215.7417890580258
 30
0.0
 40
0.27
 50
225.0237180000022
 51
45.02364199999273
  0
ARC
  5
3EB
  8
CUT
 62
     5
 10
218.9582125101603
 20
215.7460730580258
 30
0.0
 40
0.27
 50
135.026487
 51
315.0149590000032
  0
ARC
  5
52E
  8
CUT
 10
131.448698
 20
284.762252
 30
0.0
 40
3.0
 50
0.0
 51
0.0
  0
ARC
  5
7C3
  8
CUT
 10
129.752283
 20
416.234382
 30
0.0
 40
3.0
 50
0.0
 51
0.0
  0
POLYLINE
  5
D55
  8
CUT
 62
     1
 66
     1
 10
0.0
 20
0.0
 30
0.0
 70
     1
  0
VERTEX
  5
D729
  8
CUT
 62
     1
 10
120.4563330113906
 20
236.8937044789471
 30
0.0
  0
VERTEX
  5
D72A
  8
CUT
 62
     1
 10
120.6306220113906
 20
237.9279414789471
 30
0.0
  0
VERTEX
  5
D72B
  8
CUT
 62
     1
 10
121.1467590113906
 20
238.9224284789471
 30
0.0
  0
VERTEX
  5
D72C
  8
CUT
 62
     1
 10
121.9849090113906
 20
239.8389474789471
 30
0.0
  0
VERTEX
  5
D72D
  8
CUT
 62
     1
 10
123.1128630113906
 20
240.6422774789471
 30
0.0
  0
VERTEX
  5
D72E
  8
CUT
 62
     1
 10
124.4872730113906
 20
241.3015454789471
 30
0.0
  0
VERTEX
  5
D72F
  8
CUT
 62
     1
 10
126.0553230113906
 20
241.7914184789471
 30
0.0
  0
VERTEX
  5
D730
  8
CUT
 62
     1
 10
127.7567530113906
 20
242.0930694789471
 30
0.0
  0
VERTEX
  5
D731
  8
CUT
 62
     1
 10
129.5261780113906
 20
242.1949054789471
 30
0.0
  0
VERTEX
  5
D732
  8
CUT
 62
     1
 10
131.2955990113906
 20
242.0930144789471
 30
0.0
  0
VERTEX
  5
D733
  8
CUT
 62
     1
 10
132.9970190113906
 20
241.7913114789471
 30
0.0
  0
VERTEX
  5
D734
  8
CUT
 62
     1
 10
134.5650540113906
 20
241.3013914789471
 30
0.0
  0
VERTEX
  5
D735
  8
CUT
 62
     1
 10
135.9394450113906
 20
240.6420804789471
 30
0.0
  0
VERTEX
  5
D736
  8
CUT
 62
     1
 10
137.0673740113906
 20
239.8387164789471
 30
0.0
  0
VERTEX
  5
D737
  8
CUT
 62
     1
 10
137.9054960113906
 20
238.9221714789471
 30
0.0
  0
VERTEX
  5
D738
  8
CUT
 62
     1
 10
138.4216020113906
 20
237.9276684789471
 30
0.0
  0
VERTEX
  5
D739
  8
CUT
 62
     1
 10
138.5958600113906
 20
236.8934264789471
 30
0.0
  0
VERTEX
  5
D73A
  8
CUT
 62
     1
 10
138.4215710113906
 20
235.8591884789471
 30
0.0
  0
VERTEX
  5
D73B
  8
CUT
 62
     1
 10
137.9054340113906
 20
234.8647014789471
 30
0.0
  0
VERTEX
  5
D73C
  8
CUT
 62
     1
 10
137.0672840113906
 20
233.9481824789471
 30
0.0
  0
VERTEX
  5
D73D
  8
CUT
 62
     1
 10
135.9393300113906
 20
233.1448534789471
 30
0.0
  0
VERTEX
  5
D73E
  8
CUT
 62
     1
 10
134.5649190113906
 20
232.4855844789471
 30
0.0
  0
VERTEX
  5
D73F
  8
CUT
 62
     1
 10
132.9968690113906
 20
231.9957114789471
 30
0.0
  0
VERTEX
  5
D740
  8
CUT
 62
     1
 10
131.2954400113906
 20
231.6940614789471
 30
0.0
  0
VERTEX
  5
D741
  8
CUT
 62
     1
 10
129.5260150113906
 20
231.5922244789471
 30
0.0
  0
VERTEX
  5
D742
  8
CUT
 62
     1
 10
127.7565930113906
 20
231.6941154789471
 30
0.0
  0
VERTEX
  5
D743
  8
CUT
 62
     1
 10
126.0551730113906
 20
231.9958184789471
 30
0.0
  0
VERTEX
  5
D744
  8
CUT
 62
     1
 10
124.4871380113906
 20
232.4857384789471
 30
0.0
  0
VERTEX
  5
D745
  8
CUT
 62
     1
 10
123.1127480113906
 20
233.1450494789471
 30
0.0
  0
VERTEX
  5
D746
  8
CUT
 62
     1
 10
121.9848190113906
 20
233.9484134789471
 30
0.0
  0
VERTEX
  5
D747
  8
CUT
 62
     1
 10
121.1466960113906
 20
234.8649584789471
 30
0.0
  0
VERTEX
  5
D748
  8
CUT
 62
     1
 10
120.6305900113906
 20
235.8594614789471
 30
0.0
  0
SEQEND
  5
D8D9
  8
CUT
 62
     1
  0
POLYLINE
  5
E23
  8
CUT
 62
     5
 66
     1
 10
0.0
 20
0.0
 30
0.0
  0
VERTEX
  5
D749
  8
CUT
 62
     5
 10
110.4071760113906
 20
238.5810714789471
 30
0.0
  0
VERTEX
  5
D74A
  8
CUT
 62
     5
 10
110.3671570113906
 20
237.3310724789471
 30
0.0
  0
VERTEX
  5
D74B
  8
CUT
 62
     5
 10
112.5871570113906
 20
237.3310384789471
 30
0.0
  0
VERTEX
  5
D74C
  8
CUT
 62
     5
 10
112.5471760113906
 20
238.5810384789471
 30
0.0
  0
VERTEX
  5
D74D
  8
CUT
 62
     5
 10
114.8671760113906
 20
238.5810034789471
 30
0.0
  0
VERTEX
  5
D74E
  8
CUT
 62
     5
 10
114.8672220113906
 20
241.5810034789471
 30
0.0
  0
VERTEX
  5
D74F
  8
CUT
 62
     5
 10
112.5472220113906
 20
241.5810384789471
 30
0.0
  0
VERTEX
  5
D750
  8
CUT
 62
     5
 10
112.5872410113906
 20
242.8310384789471
 30
0.0
  0
VERTEX
  5
D751
  8
CUT
 62
     5
 10
110.3672410113906
 20
242.8310724789471
 30
0.0
  0
VERTEX
  5
D752
  8
CUT
 62
     5
 10
110.4072220113906
 20
241.5810714789471
 30
0.0
  0
VERTEX
  5
D753
  8
CUT
 62
     5
 10
104.4066910113906
 20
241.5813474789471
 30
0.0
  0
VERTEX
  5
D754
  8
CUT
 62
     5
 10
104.4067440113906
 20
245.0794294789471
 30
0.0
  0
VERTEX
  5
D755
  8
CUT
 62
     5
 10
107.0249070113906
 20
245.0793894789471
 30
0.0
  0
SEQEND
  5
D8DA
  8
CUT
 62
     5
  0
POLYLINE
  5
E28
  8
CUT
 62
     5
 66
     1
 10
0.0
 20
0.0
 30
0.0
  0
VERTEX
  5
D756
  8
CUT
 62
     5
 10
107.4067500113906
 20
245.4612214789471
 30
0.0
  0
VERTEX
  5
D757
  8
CUT
 62
     5
 10
107.4068530113906
 20
252.1451514789471
 30
0.0
  0
VERTEX
  5
D758
  8
CUT
 62
     5
 10
116.2818430113906
 20
252.1451514789471
 30
0.0
  0
SEQEND
  5
D8DB
  8
CUT
 62
     5
  0
POLYLINE
  5
E2B
  8
CUT
 62
     5
 66
     1
 10
0.0
 20
0.0
 30
0.0
  0
VERTEX
  5
D759
  8
CUT
 62
     5
 10
217.5305910113906
 20
252.1451524789471
 30
0.0
  0
VERTEX
  5
D75A
  8
CUT
 62
     5
 10
226.4043480113906
 20
252.1451524789471
 30
0.0
  0
VERTEX
  5
D75B
  8
CUT
 62
     5
 10
226.4043720113906
 20
245.4593064789471
 30
0.0
  0
SEQEND
  5
D8DC
  8
CUT
 62
     5
  0
POLYLINE
  5
E2D
  8
CUT
 62
     5
 66
     1
 10
0.0
 20
0.0
 30
0.0
  0
VERTEX
  5
D75C
  8
CUT
 62
     5
 10
226.4043717069526
 20
245.4593058363483
 30
0.0
 42
0.9999999999999999
  0
VERTEX
  5
D75D
  8
CUT
 62
     5
 10
226.7862083158286
 20
245.0774671215459
 30
0.0
 42
0.0000048345620281
  0
VERTEX
  5
D75E
  8
CUT
 62
     5
 10
226.7862120078388
 20
245.0774708136071
 30
0.0
  0
SEQEND
  5
D8DD
  8
CUT
 62
     5
  0
POLYLINE
  5
E3D
  8
CUT
 62
     5
 66
     1
 10
0.0
 20
0.0
 30
0.0
  0
VERTEX
  5
D75F
  8
CUT
 62
     5
 10
226.7862120113906
 20
245.0774714789471
 30
0.0
  0
VERTEX
  5
D760
  8
CUT
 62
     5
 10
229.4043730113906
 20
245.0775124789471
 30
0.0
  0
VERTEX
  5
D761
  8
CUT
 62
     5
 10
229.4044280113906
 20
241.5775124789471
 30
0.0
  0
VERTEX
  5
D762
  8
CUT
 62
     5
 10
223.4045200113906
 20
241.5773744789471
 30
0.0
  0
VERTEX
  5
D763
  8
CUT
 62
     5
 10
223.4445390113906
 20
242.8273744789471
 30
0.0
  0
VERTEX
  5
D764
  8
CUT
 62
     5
 10
221.2245390113906
 20
242.8274084789471
 30
0.0
  0
VERTEX
  5
D765
  8
CUT
 62
     5
 10
221.2645200113906
 20
241.5774074789471
 30
0.0
  0
VERTEX
  5
D766
  8
CUT
 62
     5
 10
218.9445200113906
 20
241.5774434789471
 30
0.0
  0
VERTEX
  5
D767
  8
CUT
 62
     5
 10
218.9444740113906
 20
238.5774434789471
 30
0.0
  0
VERTEX
  5
D768
  8
CUT
 62
     5
 10
221.2644740113906
 20
238.5774074789471
 30
0.0
  0
VERTEX
  5
D769
  8
CUT
 62
     5
 10
221.2244550113906
 20
237.3274084789471
 30
0.0
  0
VERTEX
  5
D76A
  8
CUT
 62
     5
 10
223.4444550113906
 20
237.3273744789471
 30
0.0
  0
VERTEX
  5
D76B
  8
CUT
 62
     5
 10
223.4044740113906
 20
238.5773744789471
 30
0.0
  0
VERTEX
  5
D76C
  8
CUT
 62
     5
 10
229.4044740113906
 20
238.5775124789471
 30
0.0
  0
VERTEX
  5
D76D
  8
CUT
 62
     5
 10
229.4045270113906
 20
235.0775124789471
 30
0.0
  0
VERTEX
  5
D76E
  8
CUT
 62
     5
 10
226.7863710113906
 20
235.0774724789471
 30
0.0
  0
SEQEND
  5
D8DE
  8
CUT
 62
     5
  0
POLYLINE
  5
E3F
  8
CUT
 62
     5
 66
     1
 10
0.0
 20
0.0
 30
0.0
  0
VERTEX
  5
D76F
  8
CUT
 62
     5
 10
226.7863713687918
 20
235.0774717833851
 30
0.0
 42
0.9999999999999999
  0
VERTEX
  5
D770
  8
CUT
 62
     5
 10
226.4045326539893
 20
234.6956351745091
 30
0.0
 42
0.0000131641458839
  0
VERTEX
  5
D771
  8
CUT
 62
     5
 10
226.4045427073596
 20
234.6956251216127
 30
0.0
  0
SEQEND
  5
D8DF
  8
CUT
 62
     5
  0
POLYLINE
  5
E41
  8
CUT
 62
     5
 66
     1
 10
0.0
 20
0.0
 30
0.0
  0
VERTEX
  5
D772
  8
CUT
 62
     5
 10
226.4045430113906
 20
234.6956254789471
 30
0.0
  0
VERTEX
  5
D773
  8
CUT
 62
     5
 10
226.4049950113906
 20
225.5793834789471
 30
0.0
  0
VERTEX
  5
D774
  8
CUT
 62
     5
 10
209.0382390113906
 20
225.5787914789471
 30
0.0
  0
SEQEND
  5
D8E0
  8
CUT
 62
     5
  0
POLYLINE
  5
E45
  8
CUT
 62
     5
 66
     1
 10
0.0
 20
0.0
 30
0.0
  0
VERTEX
  5
D775
  8
CUT
 62
     5
 10
208.6564210113906
 20
225.1969344789471
 30
0.0
  0
VERTEX
  5
D776
  8
CUT
 62
     5
 10
208.6564210113906
 20
222.7803024789471
 30
0.0
  0
VERTEX
  5
D777
  8
CUT
 62
     5
 10
198.6564210113906
 20
222.7803034789471
 30
0.0
  0
VERTEX
  5
D778
  8
CUT
 62
     5
 10
198.6564210113906
 20
225.1969154789471
 30
0.0
  0
SEQEND
  5
D8E1
  8
CUT
 62
     5
  0
POLYLINE
  5
E4B
  8
CUT
 62
     5
 66
     1
 10
0.0
 20
0.0
 30
0.0
  0
VERTEX
  5
D779
  8
CUT
 62
     5
 10
135.1564210113906
 20
225.1966084789471
 30
0.0
  0
VERTEX
  5
D77A
  8
CUT
 62
     5
 10
135.1564210113906
 20
222.7799964789471
 30
0.0
  0
VERTEX
  5
D77B
  8
CUT
 62
     5
 10
125.1564210113906
 20
222.7799954789471
 30
0.0
  0
VERTEX
  5
D77C
  8
CUT
 62
     5
 10
125.1564210113906
 20
225.1966274789471
 30
0.0
  0
SEQEND
  5
D8E2
  8
CUT
 62
     5
  0
POLYLINE
  5
E4D
  8
CUT
 62
     5
 66
     1
 10
0.0
 20
0.0
 30
0.0
  0
VERTEX
  5
D77D
  8
CUT
 62
     5
 10
124.7746020113906
 20
225.5791174789471
 30
0.0
  0
VERTEX
  5
D77E
  8
CUT
 62
     5
 10
107.4064450113906
 20
225.5793834789471
 30
0.0
  0
VERTEX
  5
D77F
  8
CUT
 62
     5
 10
107.4065850113906
 20
234.6975454789471
 30
0.0
  0
SEQEND
  5
D8E3
  8
CUT
 62
     5
  0
POLYLINE
  5
E52
  8
CUT
 62
     5
 66
     1
 10
0.0
 20
0.0
 30
0.0
  0
VERTEX
  5
D780
  8
CUT
 62
     5
 10
107.0247530113906
 20
235.0793894789471
 30
0.0
  0
VERTEX
  5
D781
  8
CUT
 62
     5
 10
104.4065910113906
 20
235.0794294789471
 30
0.0
  0
VERTEX
  5
D782
  8
CUT
 62
     5
 10
104.4066450113906
 20
238.5813474789471
 30
0.0
  0
VERTEX
  5
D783
  8
CUT
 62
     5
 10
110.4072220113906
 20
238.5810714789471
 30
0.0
  0
SEQEND
  5
D8E4
  8
CUT
 62
     5
  0
POLYLINE
  5
E71
  8
CUT
 62
     1
 66
     1
 10
0.0
 20
0.0
 30
0.0
 70
     1
  0
VERTEX
  5
D784
  8
CUT
 62
     1
 10
212.6659920113906
 20
238.9224284789471
 30
0.0
  0
VERTEX
  5
D785
  8
CUT
 62
     1
 10
211.8278420113906
 20
239.8389474789471
 30
0.0
  0
VERTEX
  5
D786
  8
CUT
 62
     1
 10
210.6998880113906
 20
240.6422774789471
 30
0.0
  0
VERTEX
  5
D787
  8
CUT
 62
     1
 10
209.3254770113906
 20
241.3015454789471
 30
0.0
  0
VERTEX
  5
D788
  8
CUT
 62
     1
 10
207.7574270113906
 20
241.7914184789471
 30
0.0
  0
VERTEX
  5
D789
  8
CUT
 62
     1
 10
206.0559980113906
 20
242.0930694789471
 30
0.0
  0
VERTEX
  5
D78A
  8
CUT
 62
     1
 10
204.2865730113906
 20
242.1949054789471
 30
0.0
  0
VERTEX
  5
D78B
  8
CUT
 62
     1
 10
202.5171510113906
 20
242.0930144789471
 30
0.0
  0
VERTEX
  5
D78C
  8
CUT
 62
     1
 10
200.8157310113906
 20
241.7913114789471
 30
0.0
  0
VERTEX
  5
D78D
  8
CUT
 62
     1
 10
199.2476960113906
 20
241.3013914789471
 30
0.0
  0
VERTEX
  5
D78E
  8
CUT
 62
     1
 10
197.8733060113906
 20
240.6420804789471
 30
0.0
  0
VERTEX
  5
D78F
  8
CUT
 62
     1
 10
196.7453770113906
 20
239.8387164789471
 30
0.0
  0
VERTEX
  5
D790
  8
CUT
 62
     1
 10
195.9072540113906
 20
238.9221714789471
 30
0.0
  0
VERTEX
  5
D791
  8
CUT
 62
     1
 10
195.3911480113906
 20
237.9276684789471
 30
0.0
  0
VERTEX
  5
D792
  8
CUT
 62
     1
 10
195.2168910113906
 20
236.8934264789471
 30
0.0
  0
VERTEX
  5
D793
  8
CUT
 62
     1
 10
195.3911800113906
 20
235.8591884789471
 30
0.0
  0
VERTEX
  5
D794
  8
CUT
 62
     1
 10
195.9073170113906
 20
234.8647014789471
 30
0.0
  0
VERTEX
  5
D795
  8
CUT
 62
     1
 10
196.7454670113906
 20
233.9481824789471
 30
0.0
  0
VERTEX
  5
D796
  8
CUT
 62
     1
 10
197.8734210113906
 20
233.1448534789471
 30
0.0
  0
VERTEX
  5
D797
  8
CUT
 62
     1
 10
199.2478310113906
 20
232.4855844789471
 30
0.0
  0
VERTEX
  5
D798
  8
CUT
 62
     1
 10
200.8158810113906
 20
231.9957114789471
 30
0.0
  0
VERTEX
  5
D799
  8
CUT
 62
     1
 10
202.5173110113906
 20
231.6940614789471
 30
0.0
  0
VERTEX
  5
D79A
  8
CUT
 62
     1
 10
204.2867360113906
 20
231.5922244789471
 30
0.0
  0
VERTEX
  5
D79B
  8
CUT
 62
     1
 10
206.0561570113906
 20
231.6941154789471
 30
0.0
  0
VERTEX
  5
D79C
  8
CUT
 62
     1
 10
207.7575770113906
 20
231.9958184789471
 30
0.0
  0
VERTEX
  5
D79D
  8
CUT
 62
     1
 10
209.3256120113906
 20
232.4857384789471
 30
0.0
  0
VERTEX
  5
D79E
  8
CUT
 62
     1
 10
210.7000030113906
 20
233.1450494789471
 30
0.0
  0
VERTEX
  5
D79F
  8
CUT
 62
     1
 10
211.8279320113906
 20
233.9484134789471
 30
0.0
  0
VERTEX
  5
D7A0
  8
CUT
 62
     1
 10
212.6660540113906
 20
234.8649584789471
 30
0.0
  0
VERTEX
  5
D7A1
  8
CUT
 62
     1
 10
213.1821600113906
 20
235.8594614789471
 30
0.0
  0
VERTEX
  5
D7A2
  8
CUT
 62
     1
 10
213.3564180113906
 20
236.8937044789471
 30
0.0
  0
VERTEX
  5
D7A3
  8
CUT
 62
     1
 10
213.1821290113906
 20
237.9279414789471
 30
0.0
  0
SEQEND
  5
D8E5
  8
CUT
 62
     1
  0
POLYLINE
  5
E91
  8
CUT
 62
     1
 66
     1
 10
0.0
 20
0.0
 30
0.0
 70
     1
  0
VERTEX
  5
D7A4
  8
CUT
 62
     1
 10
124.3387775101603
 20
195.9043760580258
 30
0.0
  0
VERTEX
  5
D7A5
  8
CUT
 62
     1
 10
126.1276125101603
 20
198.3993460580258
 30
0.0
  0
VERTEX
  5
D7A6
  8
CUT
 62
     1
 10
128.5344765101603
 20
200.5858450580258
 30
0.0
  0
VERTEX
  5
D7A7
  8
CUT
 62
     1
 10
131.4668755101603
 20
202.3798480580258
 30
0.0
  0
VERTEX
  5
D7A8
  8
CUT
 62
     1
 10
134.8121185101602
 20
203.7124130580258
 30
0.0
  0
VERTEX
  5
D7A9
  8
CUT
 62
     1
 10
138.4416505101603
 20
204.5323290580258
 30
0.0
  0
VERTEX
  5
D7AA
  8
CUT
 62
     1
 10
142.2159905101603
 20
204.8080870580258
 30
0.0
  0
VERTEX
  5
D7AB
  8
CUT
 62
     1
 10
145.9900935101603
 20
204.5290910580258
 30
0.0
  0
VERTEX
  5
D7AC
  8
CUT
 62
     1
 10
149.6189205101603
 20
203.7060620580258
 30
0.0
  0
VERTEX
  5
D7AD
  8
CUT
 62
     1
 10
152.9630195101603
 20
202.3706280580258
 30
0.0
  0
VERTEX
  5
D7AE
  8
CUT
 62
     1
 10
155.8938785101603
 20
200.5741100580258
 30
0.0
  0
VERTEX
  5
D7AF
  8
CUT
 62
     1
 10
158.2988665101603
 20
198.3855470580258
 30
0.0
  0
VERTEX
  5
D7B0
  8
CUT
 62
     1
 10
160.0855595101603
 20
195.8890440580258
 30
0.0
  0
VERTEX
  5
D7B1
  8
CUT
 62
     1
 10
161.1852975101603
 20
193.1805400580258
 30
0.0
  0
VERTEX
  5
D7B2
  8
CUT
 62
     1
 10
161.5558185101603
 20
190.3641210580258
 30
0.0
  0
VERTEX
  5
D7B3
  8
CUT
 62
     1
 10
161.1828815101603
 20
187.5480210580258
 30
0.0
  0
VERTEX
  5
D7B4
  8
CUT
 62
     1
 10
160.0808205101603
 20
184.8404620580258
 30
0.0
  0
VERTEX
  5
D7B5
  8
CUT
 62
     1
 10
158.2919865101603
 20
182.3454920580258
 30
0.0
  0
VERTEX
  5
D7B6
  8
CUT
 62
     1
 10
155.8851225101603
 20
180.1589920580258
 30
0.0
  0
VERTEX
  5
D7B7
  8
CUT
 62
     1
 10
152.9527235101603
 20
178.3649890580258
 30
0.0
  0
VERTEX
  5
D7B8
  8
CUT
 62
     1
 10
149.6074795101603
 20
177.0324250580258
 30
0.0
  0
VERTEX
  5
D7B9
  8
CUT
 62
     1
 10
145.9779475101602
 20
176.2125090580258
 30
0.0
  0
VERTEX
  5
D7BA
  8
CUT
 62
     1
 10
142.2036075101603
 20
175.9367510580258
 30
0.0
  0
VERTEX
  5
D7BB
  8
CUT
 62
     1
 10
138.4295055101603
 20
176.2157470580258
 30
0.0
  0
VERTEX
  5
D7BC
  8
CUT
 62
     1
 10
134.8006775101603
 20
177.0387760580258
 30
0.0
  0
VERTEX
  5
D7BD
  8
CUT
 62
     1
 10
131.4565785101603
 20
178.3742090580258
 30
0.0
  0
VERTEX
  5
D7BE
  8
CUT
 62
     1
 10
128.5257195101603
 20
180.1707270580258
 30
0.0
  0
VERTEX
  5
D7BF
  8
CUT
 62
     1
 10
126.1207325101603
 20
182.3592910580258
 30
0.0
  0
VERTEX
  5
D7C0
  8
CUT
 62
     1
 10
124.3340385101603
 20
184.8557940580258
 30
0.0
  0
VERTEX
  5
D7C1
  8
CUT
 62
     1
 10
123.2343005101603
 20
187.5642980580258
 30
0.0
  0
VERTEX
  5
D7C2
  8
CUT
 62
     1
 10
122.8637805101603
 20
190.3807170580258
 30
0.0
  0
VERTEX
  5
D7C3
  8
CUT
 62
     1
 10
123.2367165101603
 20
193.1968160580258
 30
0.0
  0
SEQEND
  5
D8E6
  8
CUT
 62
     1
  0
POLYLINE
  5
EB1
  8
CUT
 62
     1
 66
     1
 10
0.0
 20
0.0
 30
0.0
 70
     1
  0
VERTEX
  5
D7C4
  8
CUT
 62
     1
 10
209.7049135101603
 20
195.9043760580258
 30
0.0
  0
VERTEX
  5
D7C5
  8
CUT
 62
     1
 10
207.9160785101603
 20
198.3993460580258
 30
0.0
  0
VERTEX
  5
D7C6
  8
CUT
 62
     1
 10
205.5092145101603
 20
200.5858450580258
 30
0.0
  0
VERTEX
  5
D7C7
  8
CUT
 62
     1
 10
202.5768155101603
 20
202.3798480580258
 30
0.0
  0
VERTEX
  5
D7C8
  8
CUT
 62
     1
 10
199.2315725101602
 20
203.7124130580258
 30
0.0
  0
VERTEX
  5
D7C9
  8
CUT
 62
     1
 10
195.6020405101603
 20
204.5323290580258
 30
0.0
  0
VERTEX
  5
D7CA
  8
CUT
 62
     1
 10
191.8276995101603
 20
204.8080870580258
 30
0.0
  0
VERTEX
  5
D7CB
  8
CUT
 62
     1
 10
188.0535975101603
 20
204.5290910580258
 30
0.0
  0
VERTEX
  5
D7CC
  8
CUT
 62
     1
 10
184.4247705101603
 20
203.7060620580258
 30
0.0
  0
VERTEX
  5
D7CD
  8
CUT
 62
     1
 10
181.0806715101603
 20
202.3706280580258
 30
0.0
  0
VERTEX
  5
D7CE
  8
CUT
 62
     1
 10
178.1498125101602
 20
200.5741100580258
 30
0.0
  0
VERTEX
  5
D7CF
  8
CUT
 62
     1
 10
175.7448245101603
 20
198.3855470580258
 30
0.0
  0
VERTEX
  5
D7D0
  8
CUT
 62
     1
 10
173.9581315101603
 20
195.8890440580258
 30
0.0
  0
VERTEX
  5
D7D1
  8
CUT
 62
     1
 10
172.8583935101603
 20
193.1805400580258
 30
0.0
  0
VERTEX
  5
D7D2
  8
CUT
 62
     1
 10
172.4878725101603
 20
190.3641210580258
 30
0.0
  0
VERTEX
  5
D7D3
  8
CUT
 62
     1
 10
172.8608095101603
 20
187.5480210580258
 30
0.0
  0
VERTEX
  5
D7D4
  8
CUT
 62
     1
 10
173.9628705101603
 20
184.8404620580258
 30
0.0
  0
VERTEX
  5
D7D5
  8
CUT
 62
     1
 10
175.7517045101603
 20
182.3454920580258
 30
0.0
  0
VERTEX
  5
D7D6
  8
CUT
 62
     1
 10
178.1585685101603
 20
180.1589920580258
 30
0.0
  0
VERTEX
  5
D7D7
  8
CUT
 62
     1
 10
181.0909675101603
 20
178.3649890580258
 30
0.0
  0
VERTEX
  5
D7D8
  8
CUT
 62
     1
 10
184.4362115101603
 20
177.0324250580258
 30
0.0
  0
VERTEX
  5
D7D9
  8
CUT
 62
     1
 10
188.0657435101602
 20
176.2125090580258
 30
0.0
  0
VERTEX
  5
D7DA
  8
CUT
 62
     1
 10
191.8400835101602
 20
175.9367510580258
 30
0.0
  0
VERTEX
  5
D7DB
  8
CUT
 62
     1
 10
195.6141855101603
 20
176.2157470580258
 30
0.0
  0
VERTEX
  5
D7DC
  8
CUT
 62
     1
 10
199.2430135101603
 20
177.0387760580258
 30
0.0
  0
VERTEX
  5
D7DD
  8
CUT
 62
     1
 10
202.5871125101603
 20
178.3742090580258
 30
0.0
  0
VERTEX
  5
D7DE
  8
CUT
 62
     1
 10
205.5179715101603
 20
180.1707270580258
 30
0.0
  0
VERTEX
  5
D7DF
  8
CUT
 62
     1
 10
207.9229585101602
 20
182.3592910580258
 30
0.0
  0
VERTEX
  5
D7E0
  8
CUT
 62
     1
 10
209.7096525101603
 20
184.8557940580258
 30
0.0
  0
VERTEX
  5
D7E1
  8
CUT
 62
     1
 10
210.8093905101603
 20
187.5642980580258
 30
0.0
  0
VERTEX
  5
D7E2
  8
CUT
 62
     1
 10
211.1799105101603
 20
190.3807170580258
 30
0.0
  0
VERTEX
  5
D7E3
  8
CUT
 62
     1
 10
210.8069745101603
 20
193.1968160580258
 30
0.0
  0
SEQEND
  5
D8E7
  8
CUT
 62
     1
  0
POLYLINE
  5
EC0
  8
CUT
 62
     5
 66
     1
 10
0.0
 20
0.0
 30
0.0
  0
VERTEX
  5
D7E4
  8
CUT
 62
     5
 10
226.9061345293429
 20
195.5587316705918
 30
0.0
 42
1.0
  0
VERTEX
  5
D7E5
  8
CUT
 62
     5
 10
226.5244484909776
 20
195.1767424454598
 30
0.0
 42
0.000004834562028
  0
VERTEX
  5
D7E6
  8
CUT
 62
     5
 10
226.5244521845145
 20
195.1767387549259
 30
0.0
  0
SEQEND
  5
D8E8
  8
CUT
 62
     5
  0
POLYLINE
  5
EC2
  8
CUT
 62
     5
 66
     1
 10
0.0
 20
0.0
 30
0.0
  0
VERTEX
  5
D7E7
  8
CUT
 62
     5
 10
226.5244515101602
 20
195.1767390580258
 30
0.0
  0
VERTEX
  5
D7E8
  8
CUT
 62
     5
 10
226.5295045101603
 20
182.8067380580258
 30
0.0
  0
VERTEX
  5
D7E9
  8
CUT
 62
     5
 10
224.4115185101602
 20
182.8058950580258
 30
0.0
  0
SEQEND
  5
D8E9
  8
CUT
 62
     5
  0
POLYLINE
  5
EC9
  8
CUT
 62
     5
 66
     1
 10
0.0
 20
0.0
 30
0.0
  0
VERTEX
  5
D7EA
  8
CUT
 62
     5
 10
224.4137085101603
 20
177.3058950580258
 30
0.0
  0
VERTEX
  5
D7EB
  8
CUT
 62
     5
 10
226.5317505101603
 20
177.3067390580258
 30
0.0
  0
VERTEX
  5
D7EC
  8
CUT
 62
     5
 10
226.5365495101603
 20
165.5593810580258
 30
0.0
  0
VERTEX
  5
D7ED
  8
CUT
 62
     5
 10
218.7880425101603
 20
165.5550890580258
 30
0.0
  0
VERTEX
  5
D7EE
  8
CUT
 62
     5
 10
209.1698815101603
 20
165.5511110580258
 30
0.0
  0
SEQEND
  5
D8EA
  8
CUT
 62
     5
  0
POLYLINE
  5
ECE
  8
CUT
 62
     5
 66
     1
 10
0.0
 20
0.0
 30
0.0
  0
VERTEX
  5
D7EF
  8
CUT
 62
     5
 10
208.7882015101603
 20
165.1691150580258
 30
0.0
  0
VERTEX
  5
D7F0
  8
CUT
 62
     5
 10
208.7892015101603
 20
162.7509530580258
 30
0.0
  0
VERTEX
  5
D7F1
  8
CUT
 62
     5
 10
198.7892025101603
 20
162.7468170580258
 30
0.0
  0
VERTEX
  5
D7F2
  8
CUT
 62
     5
 10
198.7882025101603
 20
165.1649790580258
 30
0.0
  0
SEQEND
  5
D8EB
  8
CUT
 62
     5
  0
POLYLINE
  5
EDE
  8
CUT
 62
     5
 66
     1
 10
0.0
 20
0.0
 30
0.0
  0
VERTEX
  5
D7F3
  8
CUT
 62
     5
 10
198.4062065101602
 20
165.5466590580258
 30
0.0
  0
VERTEX
  5
D7F4
  8
CUT
 62
     5
 10
172.0380465101603
 20
165.5357540580258
 30
0.0
  0
VERTEX
  5
D7F5
  8
CUT
 62
     5
 10
172.0392045101603
 20
162.7357550580258
 30
0.0
  0
VERTEX
  5
D7F6
  8
CUT
 62
     5
 10
168.5400585101603
 20
162.7343070580258
 30
0.0
  0
VERTEX
  5
D7F7
  8
CUT
 62
     5
 10
168.5360595101603
 20
171.7349170580258
 30
0.0
  0
VERTEX
  5
D7F8
  8
CUT
 62
     5
 10
169.7861805101603
 20
171.6989030580258
 30
0.0
  0
VERTEX
  5
D7F9
  8
CUT
 62
     5
 10
169.7791015101602
 20
173.9188910580258
 30
0.0
  0
VERTEX
  5
D7FA
  8
CUT
 62
     5
 10
168.5292355101602
 20
173.8749060580258
 30
0.0
  0
VERTEX
  5
D7FB
  8
CUT
 62
     5
 10
168.5218375101603
 20
176.1948940580258
 30
0.0
  0
VERTEX
  5
D7FC
  8
CUT
 62
     5
 10
167.0218455101603
 20
176.1901110580258
 30
0.0
  0
VERTEX
  5
D7FD
  8
CUT
 62
     5
 10
165.5218535101603
 20
176.1948940580258
 30
0.0
  0
VERTEX
  5
D7FE
  8
CUT
 62
     5
 10
165.5144555101602
 20
173.8749060580258
 30
0.0
  0
VERTEX
  5
D7FF
  8
CUT
 62
     5
 10
164.2645895101603
 20
173.9188910580258
 30
0.0
  0
VERTEX
  5
D800
  8
CUT
 62
     5
 10
164.2575105101603
 20
171.6989030580258
 30
0.0
  0
VERTEX
  5
D801
  8
CUT
 62
     5
 10
165.5076315101603
 20
171.7349170580258
 30
0.0
  0
VERTEX
  5
D802
  8
CUT
 62
     5
 10
165.5036325101603
 20
162.7343070580258
 30
0.0
  0
VERTEX
  5
D803
  8
CUT
 62
     5
 10
162.0044865101603
 20
162.7357550580258
 30
0.0
  0
VERTEX
  5
D804
  8
CUT
 62
     5
 10
162.0056445101603
 20
165.5357540580258
 30
0.0
  0
VERTEX
  5
D805
  8
CUT
 62
     5
 10
135.6374845101603
 20
165.5466590580258
 30
0.0
  0
SEQEND
  5
D8EC
  8
CUT
 62
     5
  0
POLYLINE
  5
EE5
  8
CUT
 62
     5
 66
     1
 10
0.0
 20
0.0
 30
0.0
  0
VERTEX
  5
D806
  8
CUT
 62
     5
 10
135.2554885101603
 20
165.1649790580258
 30
0.0
  0
VERTEX
  5
D807
  8
CUT
 62
     5
 10
135.2544885101603
 20
162.7468170580258
 30
0.0
  0
VERTEX
  5
D808
  8
CUT
 62
     5
 10
125.2544895101603
 20
162.7509530580258
 30
0.0
  0
VERTEX
  5
D809
  8
CUT
 62
     5
 10
125.2554895101603
 20
165.1691150580258
 30
0.0
  0
SEQEND
  5
D8ED
  8
CUT
 62
     5
  0
POLYLINE
  5
EE9
  8
CUT
 62
     5
 66
     1
 10
0.0
 20
0.0
 30
0.0
  0
VERTEX
  5
D80A
  8
CUT
 62
     5
 10
124.8738095101603
 20
165.5511110580258
 30
0.0
  0
VERTEX
  5
D80B
  8
CUT
 62
     5
 10
115.2556485101603
 20
165.5550890580258
 30
0.0
  0
VERTEX
  5
D80C
  8
CUT
 62
     5
 10
107.5071415101603
 20
165.5593810580258
 30
0.0
  0
VERTEX
  5
D80D
  8
CUT
 62
     5
 10
107.5119405101603
 20
177.3067390580258
 30
0.0
  0
VERTEX
  5
D80E
  8
CUT
 62
     5
 10
109.6299825101603
 20
177.3058950580258
 30
0.0
  0
SEQEND
  5
D8EE
  8
CUT
 62
     5
  0
POLYLINE
  5
EEE
  8
CUT
 62
     5
 66
     1
 10
0.0
 20
0.0
 30
0.0
  0
VERTEX
  5
D80F
  8
CUT
 62
     5
 10
109.6321725101603
 20
182.8058950580258
 30
0.0
  0
VERTEX
  5
D810
  8
CUT
 62
     5
 10
107.5141865101603
 20
182.8067380580258
 30
0.0
  0
VERTEX
  5
D811
  8
CUT
 62
     5
 10
107.5192395101602
 20
195.1767390580258
 30
0.0
  0
SEQEND
  5
D8EF
  8
CUT
 62
     5
  0
POLYLINE
  5
EF0
  8
CUT
 62
     5
 66
     1
 10
0.0
 20
0.0
 30
0.0
  0
VERTEX
  5
D812
  8
CUT
 62
     5
 10
107.5192388358061
 20
195.1767387549259
 30
0.0
 42
0.9999999999999999
  0
VERTEX
  5
D813
  8
CUT
 62
     5
 10
107.1375601845145
 20
195.5587353611258
 30
0.0
 42
0.0000048345620281
  0
VERTEX
  5
D814
  8
CUT
 62
     5
 10
107.1375564909776
 20
195.5587316705918
 30
0.0
  0
SEQEND
  5
D8F0
  8
CUT
 62
     5
  0
POLYLINE
  5
F00
  8
CUT
 62
     5
 66
     1
 10
0.0
 20
0.0
 30
0.0
  0
VERTEX
  5
D815
  8
CUT
 62
     5
 10
107.1375565101603
 20
195.5587320580258
 30
0.0
  0
VERTEX
  5
D816
  8
CUT
 62
     5
 10
104.5193955101603
 20
195.5597730580258
 30
0.0
  0
VERTEX
  5
D817
  8
CUT
 62
     5
 10
104.5207895101603
 20
199.0597730580258
 30
0.0
  0
VERTEX
  5
D818
  8
CUT
 62
     5
 10
113.5206965101603
 20
199.0561890580258
 30
0.0
  0
VERTEX
  5
D819
  8
CUT
 62
     5
 10
113.4801605101603
 20
197.8062060580258
 30
0.0
  0
VERTEX
  5
D81A
  8
CUT
 62
     5
 10
115.7001595101603
 20
197.8052540580258
 30
0.0
  0
VERTEX
  5
D81B
  8
CUT
 62
     5
 10
115.6606965101603
 20
199.0552710580258
 30
0.0
  0
VERTEX
  5
D81C
  8
CUT
 62
     5
 10
117.9806955101603
 20
199.0542760580258
 30
0.0
  0
VERTEX
  5
D81D
  8
CUT
 62
     5
 10
117.9819825101603
 20
202.0542750580258
 30
0.0
  0
VERTEX
  5
D81E
  8
CUT
 62
     5
 10
115.6619825101603
 20
202.0552700580258
 30
0.0
  0
VERTEX
  5
D81F
  8
CUT
 62
     5
 10
115.7025195101603
 20
203.3052530580258
 30
0.0
  0
VERTEX
  5
D820
  8
CUT
 62
     5
 10
113.4825195101603
 20
203.3062050580258
 30
0.0
  0
VERTEX
  5
D821
  8
CUT
 62
     5
 10
113.5219835101603
 20
202.0561880580258
 30
0.0
  0
VERTEX
  5
D822
  8
CUT
 62
     5
 10
104.5219835101603
 20
202.0597730580258
 30
0.0
  0
VERTEX
  5
D823
  8
CUT
 62
     5
 10
104.5233785101603
 20
205.5597720580258
 30
0.0
  0
VERTEX
  5
D824
  8
CUT
 62
     5
 10
107.1415335101603
 20
205.5587300580258
 30
0.0
  0
SEQEND
  5
D8F1
  8
CUT
 62
     5
  0
POLYLINE
  5
F02
  8
CUT
 62
     5
 66
     1
 10
0.0
 20
0.0
 30
0.0
  0
VERTEX
  5
D825
  8
CUT
 62
     5
 10
107.1415332070603
 20
205.55872973238
 30
0.0
 42
0.9999999999999999
  0
VERTEX
  5
D826
  8
CUT
 62
     5
 10
107.5235298132602
 20
205.9404083836716
 30
0.0
 42
0.000013164145884
  0
VERTEX
  5
D827
  8
CUT
 62
     5
 10
107.5235197640485
 20
205.9404184407252
 30
0.0
  0
SEQEND
  5
D8F2
  8
CUT
 62
     5
  0
POLYLINE
  5
F04
  8
CUT
 62
     5
 66
     1
 10
0.0
 20
0.0
 30
0.0
  0
VERTEX
  5
D828
  8
CUT
 62
     5
 10
107.5235195101603
 20
205.9404190580258
 30
0.0
  0
VERTEX
  5
D829
  8
CUT
 62
     5
 10
107.5270525101603
 20
215.5575060580258
 30
0.0
  0
VERTEX
  5
D82A
  8
CUT
 62
     5
 10
114.8945095101603
 20
215.5552040580258
 30
0.0
  0
SEQEND
  5
D8F3
  8
CUT
 62
     5
  0
POLYLINE
  5
F08
  8
CUT
 62
     5
 66
     1
 10
0.0
 20
0.0
 30
0.0
  0
VERTEX
  5
D82B
  8
CUT
 62
     5
 10
115.2764855101603
 20
215.9369030580258
 30
0.0
  0
VERTEX
  5
D82C
  8
CUT
 62
     5
 10
115.2774845101603
 20
218.3535350580258
 30
0.0
  0
VERTEX
  5
D82D
  8
CUT
 62
     5
 10
125.2774835101603
 20
218.3493990580258
 30
0.0
  0
VERTEX
  5
D82E
  8
CUT
 62
     5
 10
125.2764845101603
 20
215.9327870580258
 30
0.0
  0
SEQEND
  5
D8F4
  8
CUT
 62
     5
  0
POLYLINE
  5
F0B
  8
CUT
 62
     5
 66
     1
 10
0.0
 20
0.0
 30
0.0
  0
VERTEX
  5
D82F
  8
CUT
 62
     5
 10
134.894487227045
 20
215.5469717123787
 30
0.0
 42
1.0
  0
VERTEX
  5
D830
  8
CUT
 62
     5
 10
135.2764837932756
 20
215.9286504036729
 30
0.0
 42
0.0000006501351464
  0
VERTEX
  5
D831
  8
CUT
 62
     5
 10
135.2764832969895
 20
215.9286509003711
 30
0.0
  0
SEQEND
  5
D8F5
  8
CUT
 62
     5
  0
POLYLINE
  5
F0F
  8
CUT
 62
     5
 66
     1
 10
0.0
 20
0.0
 30
0.0
  0
VERTEX
  5
D832
  8
CUT
 62
     5
 10
135.2764835101603
 20
215.9286500580258
 30
0.0
  0
VERTEX
  5
D833
  8
CUT
 62
     5
 10
135.2774835101603
 20
218.3468120580258
 30
0.0
  0
VERTEX
  5
D834
  8
CUT
 62
     5
 10
145.2774825101603
 20
218.3426770580258
 30
0.0
  0
VERTEX
  5
D835
  8
CUT
 62
     5
 10
145.2764825101603
 20
215.9245150580258
 30
0.0
  0
SEQEND
  5
D8F6
  8
CUT
 62
     5
  0
POLYLINE
  5
F21
  8
CUT
 62
     5
 66
     1
 10
0.0
 20
0.0
 30
0.0
  0
VERTEX
  5
D836
  8
CUT
 62
     5
 10
162.0264805101603
 20
215.9175880580258
 30
0.0
  0
VERTEX
  5
D837
  8
CUT
 62
     5
 10
162.0274815101603
 20
218.3357500580258
 30
0.0
  0
VERTEX
  5
D838
  8
CUT
 62
     5
 10
165.5274805101603
 20
218.3343020580258
 30
0.0
  0
VERTEX
  5
D839
  8
CUT
 62
     5
 10
165.5237185101603
 20
209.2383020580258
 30
0.0
  0
VERTEX
  5
D83A
  8
CUT
 62
     5
 10
164.2737755101603
 20
209.3748380580258
 30
0.0
  0
VERTEX
  5
D83B
  8
CUT
 62
     5
 10
164.2728235101603
 20
207.1548390580258
 30
0.0
  0
VERTEX
  5
D83C
  8
CUT
 62
     5
 10
165.5228405101603
 20
207.1943030580258
 30
0.0
  0
VERTEX
  5
D83D
  8
CUT
 62
     5
 10
165.5218455101603
 20
204.8743030580258
 30
0.0
  0
VERTEX
  5
D83E
  8
CUT
 62
     5
 10
167.0218455101603
 20
204.8736590580258
 30
0.0
  0
VERTEX
  5
D83F
  8
CUT
 62
     5
 10
168.5218455101603
 20
204.8743030580258
 30
0.0
  0
VERTEX
  5
D840
  8
CUT
 62
     5
 10
168.5208505101603
 20
207.1943030580258
 30
0.0
  0
VERTEX
  5
D841
  8
CUT
 62
     5
 10
169.7708675101603
 20
207.1548390580258
 30
0.0
  0
VERTEX
  5
D842
  8
CUT
 62
     5
 10
169.7699155101602
 20
209.3748380580258
 30
0.0
  0
VERTEX
  5
D843
  8
CUT
 62
     5
 10
168.5199725101603
 20
209.2383020580258
 30
0.0
  0
VERTEX
  5
D844
  8
CUT
 62
     5
 10
168.5162105101603
 20
218.3343020580258
 30
0.0
  0
VERTEX
  5
D845
  8
CUT
 62
     5
 10
172.0162095101603
 20
218.3357500580258
 30
0.0
  0
VERTEX
  5
D846
  8
CUT
 62
     5
 10
172.0172105101603
 20
215.9175880580258
 30
0.0
  0
SEQEND
  5
D8F7
  8
CUT
 62
     5
  0
POLYLINE
  5
F28
  8
CUT
 62
     5
 66
     1
 10
0.0
 20
0.0
 30
0.0
  0
VERTEX
  5
D847
  8
CUT
 62
     5
 10
188.7672085101603
 20
215.9245150580258
 30
0.0
  0
VERTEX
  5
D848
  8
CUT
 62
     5
 10
188.7662085101603
 20
218.3426770580258
 30
0.0
  0
VERTEX
  5
D849
  8
CUT
 62
     5
 10
198.7662075101603
 20
218.3468120580258
 30
0.0
  0
VERTEX
  5
D84A
  8
CUT
 62
     5
 10
198.7672075101603
 20
215.9286500580258
 30
0.0
  0
SEQEND
  5
D8F8
  8
CUT
 62
     5
  0
POLYLINE
  5
F2A
  8
CUT
 62
     5
 66
     1
 10
0.0
 20
0.0
 30
0.0
  0
VERTEX
  5
D84B
  8
CUT
 62
     5
 10
198.7672077233311
 20
215.9286509003711
 30
0.0
 42
1.0
  0
VERTEX
  5
D84C
  8
CUT
 62
     5
 10
199.1492032969894
 20
215.5469712156806
 30
0.0
 42
0.0000006501351462
  0
VERTEX
  5
D84D
  8
CUT
 62
     5
 10
199.1492037932755
 20
215.5469717123787
 30
0.0
  0
SEQEND
  5
D8F9
  8
CUT
 62
     5
  0
POLYLINE
  5
F2F
  8
CUT
 62
     5
 66
     1
 10
0.0
 20
0.0
 30
0.0
  0
VERTEX
  5
D84E
  8
CUT
 62
     5
 10
208.7672065101603
 20
215.9327870580258
 30
0.0
  0
VERTEX
  5
D84F
  8
CUT
 62
     5
 10
208.7662075101603
 20
218.3493990580258
 30
0.0
  0
VERTEX
  5
D850
  8
CUT
 62
     5
 10
218.7662065101603
 20
218.3535350580258
 30
0.0
  0
VERTEX
  5
D851
  8
CUT
 62
     5
 10
218.7672055101603
 20
215.9369030580258
 30
0.0
  0
SEQEND
  5
D8FA
  8
CUT
 62
     5
  0
POLYLINE
  5
F31
  8
CUT
 62
     5
 66
     1
 10
0.0
 20
0.0
 30
0.0
  0
VERTEX
  5
D852
  8
CUT
 62
     5
 10
219.1491815101602
 20
215.5552040580258
 30
0.0
  0
VERTEX
  5
D853
  8
CUT
 62
     5
 10
226.5166385101602
 20
215.5575060580258
 30
0.0
  0
VERTEX
  5
D854
  8
CUT
 62
     5
 10
226.5201705101603
 20
205.9404190580258
 30
0.0
  0
SEQEND
  5
D8FB
  8
CUT
 62
     5
  0
POLYLINE
  5
F33
  8
CUT
 62
     5
 66
     1
 10
0.0
 20
0.0
 30
0.0
  0
VERTEX
  5
D855
  8
CUT
 62
     5
 10
226.520171256272
 20
205.9404184407252
 30
0.0
 42
1.000000000000001
  0
VERTEX
  5
D856
  8
CUT
 62
     5
 10
226.9021477640485
 20
205.5587196753265
 30
0.0
 42
0.0000131641458837
  0
VERTEX
  5
D857
  8
CUT
 62
     5
 10
226.9021578132602
 20
205.55872973238
 30
0.0
  0
SEQEND
  5
D8FC
  8
CUT
 62
     5
  0
POLYLINE
  5
F35
  8
CUT
 62
     5
 66
     1
 10
0.0
 20
0.0
 30
0.0
  0
VERTEX
  5
D858
  8
CUT
 62
     5
 10
226.9021575101603
 20
205.5587300580258
 30
0.0
  0
VERTEX
  5
D859
  8
CUT
 62
     5
 10
229.5203125101603
 20
205.5597720580258
 30
0.0
  0
VERTEX
  5
D85A
  8
CUT
 62
     5
 10
229.5217075101603
 20
202.0597730580258
 30
0.0
  0
VERTEX
  5
D85B
  8
CUT
 62
     5
 10
220.5217075101603
 20
202.0561880580258
 30
0.0
  0
VERTEX
  5
D85C
  8
CUT
 62
     5
 10
220.5611715101602
 20
203.3062050580258
 30
0.0
  0
VERTEX
  5
D85D
  8
CUT
 62
     5
 10
218.3411715101603
 20
203.3052530580258
 30
0.0
  0
VERTEX
  5
D85E
  8
CUT
 62
     5
 10
218.3817085101603
 20
202.0552700580258
 30
0.0
  0
VERTEX
  5
D85F
  8
CUT
 62
     5
 10
216.0617085101603
 20
202.0542750580258
 30
0.0
  0
VERTEX
  5
D860
  8
CUT
 62
     5
 10
216.0629955101602
 20
199.0542760580258
 30
0.0
  0
VERTEX
  5
D861
  8
CUT
 62
     5
 10
218.3829945101602
 20
199.0552710580258
 30
0.0
  0
VERTEX
  5
D862
  8
CUT
 62
     5
 10
218.3435305101603
 20
197.8052540580258
 30
0.0
  0
VERTEX
  5
D863
  8
CUT
 62
     5
 10
220.5635305101603
 20
197.8062060580258
 30
0.0
  0
VERTEX
  5
D864
  8
CUT
 62
     5
 10
220.5229945101603
 20
199.0561890580258
 30
0.0
  0
VERTEX
  5
D865
  8
CUT
 62
     5
 10
229.5229015101603
 20
199.0597730580258
 30
0.0
  0
VERTEX
  5
D866
  8
CUT
 62
     5
 10
229.5242955101602
 20
195.5597730580258
 30
0.0
  0
VERTEX
  5
D867
  8
CUT
 62
     5
 10
226.9061345101603
 20
195.5587320580258
 30
0.0
  0
SEQEND
  5
D8FD
  8
CUT
 62
     5
  0
INSERT
  5
D0E8
  8
0
  6
BYBLOCK
  2
SIDE
 10
-1362.678429919641
 20
232.3748040031756
 30
0.0
  0
INSERT
  5
D0E9
  8
0
  6
BYBLOCK
  2
SIDE
 10
-1362.678429919641
 20
-34.35117686518373
 30
0.0
 41
-1.0
 50
180.0
  0
ENDSEC
  0
EOF
