  0
SECTION
  2
HEADER
  9
$ACADVER
  1
AC1009
  9
$DWGCODEPAGE
  3
ansi_1252
  9
$INSBASE
 10
0.0
 20
0.0
 30
0.0
  9
$EXTMIN
 10
8.999350517776747
 20
-3.808129090863758
 30
0.0
  9
$EXTMAX
 10
278.3397505884913
 20
357.9041729628855
 30
0.0
  9
$LIMMIN
 10
0.0
 20
0.0
  9
$LIMMAX
 10
12.0
 20
9.0
  9
$ORTHOMODE
 70
     0
  9
$REGENMODE
 70
     1
  9
$FILLMODE
 70
     1
  9
$QTEXTMODE
 70
     0
  9
$MIRRTEXT
 70
     0
  9
$DRAGMODE
 70
     2
  9
$LTSCALE
 40
1.0
  9
$OSMODE
 70
 29119
  9
$ATTMODE
 70
     1
  9
$TEXTSIZE
 40
0.2
  9
$TRACEWID
 40
0.05
  9
$TEXTSTYLE
  7
STANDARD
  9
$CLAYER
  8
0
  9
$CELTYPE
  6
BYLAYER
  9
$CECOLOR
 62
   256
  9
$DIMSCALE
 40
1.0
  9
$DIMASZ
 40
0.18
  9
$DIMEXO
 40
0.0625
  9
$DIMDLI
 40
0.38
  9
$DIMRND
 40
0.0
  9
$DIMDLE
 40
0.0
  9
$DIMEXE
 40
0.18
  9
$DIMTP
 40
0.0
  9
$DIMTM
 40
0.0
  9
$DIMTXT
 40
0.18
  9
$DIMCEN
 40
0.09
  9
$DIMTSZ
 40
0.0
  9
$DIMTOL
 70
     0
  9
$DIMLIM
 70
     0
  9
$DIMTIH
 70
     1
  9
$DIMTOH
 70
     1
  9
$DIMSE1
 70
     0
  9
$DIMSE2
 70
     0
  9
$DIMTAD
 70
     0
  9
$DIMZIN
 70
     0
  9
$DIMBLK
  1

  9
$DIMASO
 70
     1
  9
$DIMSHO
 70
     1
  9
$DIMPOST
  1

  9
$DIMAPOST
  1

  9
$DIMALT
 70
     0
  9
$DIMALTD
 70
     2
  9
$DIMALTF
 40
25.4
  9
$DIMLFAC
 40
1.0
  9
$DIMTOFL
 70
     0
  9
$DIMTVP
 40
0.0
  9
$DIMTIX
 70
     0
  9
$DIMSOXD
 70
     0
  9
$DIMSAH
 70
     0
  9
$DIMBLK1
  1

  9
$DIMBLK2
  1

  9
$DIMSTYLE
  2
STANDARD
  9
$DIMCLRD
 70
     0
  9
$DIMCLRE
 70
     0
  9
$DIMCLRT
 70
     0
  9
$DIMTFAC
 40
1.0
  9
$DIMGAP
 40
0.09
  9
$LUNITS
 70
     2
  9
$LUPREC
 70
     4
  9
$SKETCHINC
 40
0.1
  9
$FILLETRAD
 40
0.0
  9
$AUNITS
 70
     0
  9
$AUPREC
 70
     0
  9
$MENU
  1
.
  9
$ELEVATION
 40
0.0
  9
$PELEVATION
 40
0.0
  9
$THICKNESS
 40
0.0
  9
$LIMCHECK
 70
     0
  9
$CHAMFERA
 40
0.0
  9
$CHAMFERB
 40
0.0
  9
$SKPOLY
 70
     0
  9
$TDCREATE
 40
2452643.063384271
  9
$TDUPDATE
 40
2457832.281019433
  9
$TDINDWG
 40
0.0002221065
  9
$TDUSRTIMER
 40
2457832.28079772
  9
$USRTIMER
 70
     1
  9
$ANGBASE
 50
0.0
  9
$ANGDIR
 70
     0
  9
$PDMODE
 70
     0
  9
$PDSIZE
 40
0.0
  9
$PLINEWID
 40
0.0
  9
$COORDS
 70
     1
  9
$SPLFRAME
 70
     0
  9
$SPLINETYPE
 70
     6
  9
$SPLINESEGS
 70
     8
  9
$ATTDIA
 70
     0
  9
$ATTREQ
 70
     1
  9
$HANDLING
 70
     1
  9
$HANDSEED
  5
4A0
  9
$SURFTAB1
 70
     6
  9
$SURFTAB2
 70
     6
  9
$SURFTYPE
 70
     6
  9
$SURFU
 70
     6
  9
$SURFV
 70
     6
  9
$UCSNAME
  2

  9
$UCSORG
 10
0.0
 20
0.0
 30
0.0
  9
$UCSXDIR
 10
1.0
 20
0.0
 30
0.0
  9
$UCSYDIR
 10
0.0
 20
1.0
 30
0.0
  9
$PUCSNAME
  2

  9
$PUCSORG
 10
0.0
 20
0.0
 30
0.0
  9
$PUCSXDIR
 10
1.0
 20
0.0
 30
0.0
  9
$PUCSYDIR
 10
0.0
 20
1.0
 30
0.0
  9
$USERI1
 70
     0
  9
$USERI2
 70
     0
  9
$USERI3
 70
     0
  9
$USERI4
 70
     0
  9
$USERI5
 70
     0
  9
$USERR1
 40
0.0
  9
$USERR2
 40
0.0
  9
$USERR3
 40
0.0
  9
$USERR4
 40
0.0
  9
$USERR5
 40
0.0
  9
$WORLDVIEW
 70
     1
  9
$SHADEDGE
 70
     3
  9
$SHADEDIF
 70
    70
  9
$TILEMODE
 70
     1
  9
$MAXACTVP
 70
    64
  9
$PLIMCHECK
 70
     0
  9
$PEXTMIN
 10
0.0
 20
0.0
 30
0.0
  9
$PEXTMAX
 10
0.0
 20
0.0
 30
0.0
  9
$PLIMMIN
 10
0.0
 20
0.0
  9
$PLIMMAX
 10
0.0
 20
0.0
  9
$UNITMODE
 70
     0
  9
$VISRETAIN
 70
     1
  9
$PLINEGEN
 70
     0
  9
$PSLTSCALE
 70
     1
  0
ENDSEC
  0
SECTION
  2
TABLES
  0
TABLE
  2
VPORT
 70
     1
  0
VPORT
  2
*ACTIVE
 70
     0
 10
0.0
 20
0.0
 11
1.0
 21
1.0
 12
173.5512151142861
 22
133.075695103761
 13
0.0
 23
0.0
 14
0.5
 24
0.5
 15
0.5
 25
0.5
 16
0.0
 26
0.0
 36
1.0
 17
-27.66959356597982
 27
-19.53870295786204
 37
0.0
 40
610.9398701223001
 41
2.185882352941177
 42
50.0
 43
0.0
 44
0.0
 50
0.0
 51
0.0
 71
    16
 72
  1000
 73
     1
 74
     3
 75
     0
 76
     0
 77
     0
 78
     0
  0
ENDTAB
  0
TABLE
  2
LTYPE
 70
     1
  0
LTYPE
  2
CONTINUOUS
 70
     0
  3
Solid line
 72
    65
 73
     0
 40
0.0
  0
ENDTAB
  0
TABLE
  2
LAYER
 70
     4
  0
LAYER
  2
0
 70
     0
 62
     7
  6
CONTINUOUS
  0
LAYER
  2
CUT
 70
     0
 62
     4
  6
CONTINUOUS
  0
LAYER
  2
APS_GEOMETRY
 70
     0
 62
     7
  6
CONTINUOUS
  0
LAYER
  2
BUMPED
 70
     0
 62
     4
  6
CONTINUOUS
  0
ENDTAB
  0
TABLE
  2
STYLE
 70
     2
  0
STYLE
  2
STANDARD
 70
     0
 40
0.0
 41
1.0
 50
0.0
 71
     0
 42
0.2
  3
arial.ttf
  4

  0
STYLE
  2
ANNOTATIVE
 70
     0
 40
0.0
 41
1.0
 50
0.0
 71
     0
 42
0.2
  3
arial.ttf
  4

  0
ENDTAB
  0
TABLE
  2
VIEW
 70
     0
  0
ENDTAB
  0
TABLE
  2
UCS
 70
     0
  0
ENDTAB
  0
TABLE
  2
APPID
 70
     2
  0
APPID
  2
ACAD
 70
     0
  0
APPID
  2
ACADANNOTATIVE
 70
     0
  0
ENDTAB
  0
TABLE
  2
DIMSTYLE
 70
     3
  0
DIMSTYLE
  2
STANDARD
 70
     0
  3

  4

  5

  6

  7

 40
1.0
 41
0.18
 42
0.0625
 43
0.38
 44
0.18
 45
0.0
 46
0.0
 47
0.0
 48
0.0
140
0.18
141
0.09
142
0.0
143
25.4
144
1.0
145
0.0
146
1.0
147
0.09
 71
     0
 72
     0
 73
     1
 74
     1
 75
     0
 76
     0
 77
     0
 78
     0
170
     0
171
     2
172
     0
173
     0
174
     0
175
     0
176
     0
177
     0
178
     0
  0
DIMSTYLE
  2
ANNOTATIVE
 70
     0
  3

  4

  5

  6

  7

 40
0.0
 41
0.18
 42
0.0625
 43
0.38
 44
0.18
 45
0.0
 46
0.0
 47
0.0
 48
0.0
140
0.18
141
0.09
142
0.0
143
25.4
144
1.0
145
0.0
146
1.0
147
0.09
 71
     0
 72
     0
 73
     1
 74
     1
 75
     0
 76
     0
 77
     0
 78
     0
170
     0
171
     2
172
     0
173
     0
174
     0
175
     0
176
     0
177
     0
178
     0
  0
DIMSTYLE
  2
ISO-25
 70
     0
  3

  4

  5

  6

  7

 40
1.0
 41
2.5
 42
0.625
 43
3.75
 44
1.25
 45
0.0
 46
0.0
 47
0.0
 48
0.0
140
2.5
141
2.5
142
0.0
143
0.03937007874016
144
1.0
145
0.0
146
1.0
147
0.625
 71
     0
 72
     0
 73
     0
 74
     0
 75
     0
 76
     0
 77
     1
 78
     8
170
     0
171
     3
172
     1
173
     0
174
     0
175
     0
176
     0
177
     0
178
     0
  0
ENDTAB
  0
ENDSEC
  0
SECTION
  2
BLOCKS
  0
BLOCK
  8
0
  2
$MODEL_SPACE
 70
     0
 10
0.0
 20
0.0
 30
0.0
  3
$MODEL_SPACE
  1

  0
ENDBLK
  5
21
  8
0
  0
BLOCK
 67
     1
  8
0
  2
$PAPER_SPACE
 70
     0
 10
0.0
 20
0.0
 30
0.0
  3
$PAPER_SPACE
  1

  0
ENDBLK
  5
5B
 67
     1
  8
0
  0
BLOCK
  8
0
  2
BOTTOM
 70
     0
 10
0.0
 20
0.0
 30
0.0
  3
BOTTOM
  1

  0
LINE
  5
152
  8
CUT
 62
     1
 10
-850.9815284109698
 20
82.8164202284861
 30
0.0
 11
-850.9815284109698
 21
85.8164202284861
 31
0.0
  0
CIRCLE
  5
153
  8
CUT
 62
     1
 10
-881.7256532020499
 20
196.8358983962285
 30
0.0
 40
1.5
  0
POLYLINE
  5
154
  8
CUT
 62
     1
 66
     1
 10
0.0
 20
0.0
 30
0.0
  0
VERTEX
  5
2A3
  8
CUT
 62
     1
 10
-820.6204074109698
 20
109.3655776595533
 30
0.0
  0
VERTEX
  5
2A4
  8
CUT
 62
     1
 10
-822.8567325800493
 20
109.3655784904736
 30
0.0
 42
0.9999995572073856
  0
VERTEX
  5
2A5
  8
CUT
 62
     1
 10
-823.2385704109699
 20
108.9837406595534
 30
0.0
  0
VERTEX
  5
2A6
  8
CUT
 62
     1
 10
-823.2385702418903
 20
91.99741549047349
 30
0.0
 42
0.9999995572073856
  0
VERTEX
  5
2A7
  8
CUT
 62
     1
 10
-822.8567324109697
 20
91.61557765955331
 30
0.0
  0
VERTEX
  5
2A8
  8
CUT
 62
     1
 10
-820.6204082418901
 20
91.61557782863292
 30
0.0
 42
0.9999995570820374
  0
VERTEX
  5
2A9
  8
CUT
 62
     1
 10
-820.2385704109699
 20
91.9974156595531
 30
0.0
  0
VERTEX
  5
2AA
  8
CUT
 62
     1
 10
-820.2385705800496
 20
108.983740828633
 30
0.0
 42
0.9999999999999999
  0
VERTEX
  5
2AB
  8
CUT
 62
     1
 10
-820.6204082418901
 20
109.3655784904736
 30
0.0
  0
SEQEND
  5
457
  8
CUT
 62
     1
  0
POLYLINE
  5
155
  8
CUT
 62
     1
 66
     1
 10
0.0
 20
0.0
 30
0.0
  0
VERTEX
  5
2AC
  8
CUT
 62
     1
 10
-945.2315284109694
 20
157.983740659553
 30
0.0
  0
VERTEX
  5
2AD
  8
CUT
 62
     1
 10
-945.2315282418899
 20
148.7474154904735
 30
0.0
 42
0.9999999999999999
  0
VERTEX
  5
2AE
  8
CUT
 62
     1
 10
-944.8496905800491
 20
148.3655778286329
 30
0.0
  0
VERTEX
  5
2AF
  8
CUT
 62
     1
 10
-942.6133662418899
 20
148.3655778286329
 30
0.0
 42
0.9999999999999999
  0
VERTEX
  5
2B0
  8
CUT
 62
     1
 10
-942.2315285800491
 20
148.7474154904735
 30
0.0
  0
VERTEX
  5
2B1
  8
CUT
 62
     1
 10
-942.231528580049
 20
157.983740828633
 30
0.0
 42
0.9999999999999999
  0
VERTEX
  5
2B2
  8
CUT
 62
     1
 10
-942.6133662418898
 20
158.3655784904736
 30
0.0
  0
VERTEX
  5
2B3
  8
CUT
 62
     1
 10
-944.849690580049
 20
158.3655784904736
 30
0.0
 42
0.9999999999999999
  0
VERTEX
  5
2B4
  8
CUT
 62
     1
 10
-945.2315282418898
 20
157.983740828633
 30
0.0
  0
SEQEND
  5
458
  8
CUT
 62
     1
  0
CIRCLE
  5
156
  8
CUT
 62
     1
 10
-881.7773978111477
 20
213.8358196459117
 30
0.0
 40
1.4
  0
POLYLINE
  5
157
  8
CUT
 62
     1
 66
     1
 10
0.0
 20
0.0
 30
0.0
 70
     1
  0
VERTEX
  5
2B5
  8
CUT
 62
     1
 10
-945.2315282418898
 20
177.983740828633
 30
0.0
  0
VERTEX
  5
2B6
  8
CUT
 62
     1
 10
-945.2315282418898
 20
168.7474154904735
 30
0.0
 42
0.9999999999999999
  0
VERTEX
  5
2B7
  8
CUT
 62
     1
 10
-944.849690580049
 20
168.3655778286329
 30
0.0
  0
VERTEX
  5
2B8
  8
CUT
 62
     1
 10
-942.6133662418898
 20
168.3655778286329
 30
0.0
 42
0.9999999999999999
  0
VERTEX
  5
2B9
  8
CUT
 62
     1
 10
-942.231528580049
 20
168.7474154904735
 30
0.0
  0
VERTEX
  5
2BA
  8
CUT
 62
     1
 10
-942.231528580049
 20
177.983740828633
 30
0.0
 42
0.9999999999999999
  0
VERTEX
  5
2BB
  8
CUT
 62
     1
 10
-942.6133662418898
 20
178.3655784904736
 30
0.0
  0
VERTEX
  5
2BC
  8
CUT
 62
     1
 10
-944.849690580049
 20
178.3655784904736
 30
0.0
 42
0.9999999999999999
  0
SEQEND
  5
459
  8
CUT
 62
     1
  0
CIRCLE
  5
158
  8
CUT
 62
     1
 10
-882.7350494109699
 20
143.0655776595531
 30
0.0
 40
20.013443
  0
POLYLINE
  5
159
  8
CUT
 62
     1
 66
     1
 10
0.0
 20
0.0
 30
0.0
  0
VERTEX
  5
2BD
  8
CUT
 62
     1
 10
-914.8633664109695
 20
118.3655776595533
 30
0.0
  0
VERTEX
  5
2BE
  8
CUT
 62
     1
 10
-924.0996905800491
 20
118.3655784904736
 30
0.0
 42
0.9999995571447072
  0
VERTEX
  5
2BF
  8
CUT
 62
     1
 10
-924.4815284109695
 20
117.9837406595534
 30
0.0
  0
VERTEX
  5
2C0
  8
CUT
 62
     1
 10
-924.4815282418899
 20
115.7474154904735
 30
0.0
 42
0.9999999999999999
  0
VERTEX
  5
2C1
  8
CUT
 62
     1
 10
-924.0996905800491
 20
115.3655778286329
 30
0.0
  0
VERTEX
  5
2C2
  8
CUT
 62
     1
 10
-914.8633662418899
 20
115.3655778286329
 30
0.0
 42
0.9999999999999999
  0
VERTEX
  5
2C3
  8
CUT
 62
     1
 10
-914.4815285800491
 20
115.7474154904735
 30
0.0
  0
VERTEX
  5
2C4
  8
CUT
 62
     1
 10
-914.4815285800491
 20
117.983740828633
 30
0.0
 42
0.9999999999999999
  0
VERTEX
  5
2C5
  8
CUT
 62
     1
 10
-914.8633662418899
 20
118.3655784904736
 30
0.0
  0
SEQEND
  5
45A
  8
CUT
 62
     1
  0
CIRCLE
  5
15A
  8
0
  6
BYBLOCK
 62
     1
 10
-935.1738884109695
 20
55.703190659553
 30
0.0
 40
1.3
  0
LINE
  5
15B
  8
CUT
 62
     5
 10
-896.2515254772445
 20
219.0812510778455
 30
0.0
 11
-896.2515254772445
 21
205.840129075626
 31
0.0
  0
CIRCLE
  5
15C
  8
CUT
 62
     1
 10
-881.7515255065987
 20
205.3358590210698
 30
0.0
 40
4.0
  0
ARC
  5
15D
  8
CUT
 62
     5
 10
-881.7515255065987
 20
200.1984740210701
 30
0.0
 40
16.86261500000007
 50
210.6957259999987
 51
329.3042739999989
  0
CIRCLE
  5
15E
  8
0
  6
BYBLOCK
 62
     1
 10
-830.2891591708433
 20
55.703190659553
 30
0.0
 40
1.3
  0
POLYLINE
  5
15F
  8
CUT
 62
     1
 66
     1
 10
0.0
 20
0.0
 30
0.0
 70
     1
  0
VERTEX
  5
2C6
  8
CUT
 62
     1
 10
-860.7472534438848
 20
201.3281988973563
 30
0.0
 42
0.9999999999999999
  0
VERTEX
  5
2C7
  8
CUT
 62
     1
 10
-863.7472533780544
 20
201.3275704217504
 30
0.0
 42
0.9999999999999999
  0
SEQEND
  5
45B
  8
CUT
 62
     1
  0
CIRCLE
  5
160
  8
0
  6
BYBLOCK
 62
     1
 10
-926.1862805967799
 20
52.63810354898078
 30
0.0
 40
1.3
  0
POLYLINE
  5
161
  8
CUT
 62
     1
 66
     1
 10
0.0
 20
0.0
 30
0.0
 70
     1
  0
VERTEX
  5
2C8
  8
CUT
 62
     1
 10
-860.7493554438847
 20
211.3601608973559
 30
0.0
 42
0.9999999999999999
  0
VERTEX
  5
2C9
  8
CUT
 62
     1
 10
-863.7493553780546
 20
211.3595324217504
 30
0.0
 42
0.9999999999999999
  0
SEQEND
  5
45C
  8
CUT
 62
     1
  0
POLYLINE
  5
162
  8
APS_GEOMETRY
 62
     5
 66
     1
 10
0.0
 20
0.0
 30
0.0
  0
VERTEX
  5
2CA
  8
APS_GEOMETRY
 62
     5
 10
-867.2480496883306
 20
205.1285771353046
 30
0.0
  0
VERTEX
  5
2CB
  8
APS_GEOMETRY
 62
     5
 10
-867.2443205426221
 20
187.3268375730404
 30
0.0
 42
-0.4142135667797503
  0
VERTEX
  5
2CC
  8
APS_GEOMETRY
 62
     5
 10
-873.2430635500295
 20
181.3255807911946
 30
0.0
  0
VERTEX
  5
2CD
  8
APS_GEOMETRY
 62
     5
 10
-892.2430635273117
 20
181.3215997911998
 30
0.0
 42
-0.4142135625657932
  0
VERTEX
  5
2CE
  8
APS_GEOMETRY
 62
     5
 10
-898.2443202793097
 20
187.3203427122894
 30
0.0
  0
VERTEX
  5
2CF
  8
APS_GEOMETRY
 62
     5
 10
-898.2522234109299
 20
225.0460894704161
 30
0.0
 42
0.301877921278244
  0
VERTEX
  5
2D0
  8
APS_GEOMETRY
 62
     5
 10
-979.8117331620501
 20
150.2460938741469
 30
0.0
 42
0.0544533874056382
  0
VERTEX
  5
2D1
  8
APS_GEOMETRY
 62
     5
 10
-981.7631207588938
 20
139.9702236778012
 30
0.0
 42
0.4234266799631312
  0
VERTEX
  5
2D2
  8
APS_GEOMETRY
 62
     5
 10
-977.7642225479008
 20
135.8456707473051
 30
0.0
  0
VERTEX
  5
2D3
  8
APS_GEOMETRY
 62
     5
 10
-951.1439614877258
 20
135.8512465993485
 30
0.0
 42
-0.414213562373095
  0
VERTEX
  5
2D4
  8
APS_GEOMETRY
 62
     5
 10
-946.7431995859483
 20
131.4524875515763
 30
0.0
  0
VERTEX
  5
2D5
  8
APS_GEOMETRY
 62
     5
 10
-946.739152470624
 20
117.1022776998143
 30
0.0
 42
-0.4142348075347859
  0
VERTEX
  5
2D6
  8
APS_GEOMETRY
 62
     5
 10
-948.2388374109764
 20
115.601854692628
 30
0.0
  0
VERTEX
  5
2D7
  8
APS_GEOMETRY
 62
     5
 10
-949.2388379602617
 20
115.6016456267821
 30
0.0
 42
0.4142137619563372
  0
VERTEX
  5
2D8
  8
APS_GEOMETRY
 62
     5
 10
-950.7385243779845
 20
114.1013310881317
 30
0.0
  0
VERTEX
  5
2D9
  8
APS_GEOMETRY
 62
     5
 10
-950.7377904109694
 20
110.6013316595531
 30
0.0
  0
VERTEX
  5
2DA
  8
APS_GEOMETRY
 62
     5
 10
-950.7370994109697
 20
101.9750506595533
 30
0.0
  0
VERTEX
  5
2DB
  8
APS_GEOMETRY
 62
     5
 10
-950.7356744006124
 20
89.84890738951754
 30
0.0
 42
0.4142406513420664
  0
VERTEX
  5
2DC
  8
APS_GEOMETRY
 62
     5
 10
-949.2353594109763
 20
88.34908369262803
 30
0.0
  0
VERTEX
  5
2DD
  8
APS_GEOMETRY
 62
     5
 10
-948.7353612795002
 20
88.34918861548067
 30
0.0
 42
-0.4142136919481242
  0
VERTEX
  5
2DE
  8
APS_GEOMETRY
 62
     5
 10
-946.7349414991595
 20
86.34978259494346
 30
0.0
  0
VERTEX
  5
2DF
  8
APS_GEOMETRY
 62
     5
 10
-946.7309036049905
 20
72.75255532913843
 30
0.0
 42
-0.4142391889535527
  0
VERTEX
  5
2E0
  8
APS_GEOMETRY
 62
     5
 10
-951.1299817142058
 20
68.35124875609017
 30
0.0
  0
VERTEX
  5
2E1
  8
APS_GEOMETRY
 62
     5
 10
-956.1042854109696
 20
68.35020665955335
 30
0.0
 42
0.6449501382002399
  0
VERTEX
  5
2E2
  8
APS_GEOMETRY
 62
     5
 10
-959.2438522070302
 20
61.86284686454883
 30
0.0
 42
0.0141781059742259
  0
VERTEX
  5
2E3
  8
APS_GEOMETRY
 62
     5
 10
-957.3882897427247
 20
59.71903430701923
 30
0.0
 42
0.4488920065918959
  0
VERTEX
  5
2E4
  8
APS_GEOMETRY
 62
     5
 10
-808.0818090792143
 20
59.71903430701923
 30
0.0
 42
0.0140895274866905
  0
VERTEX
  5
2E5
  8
APS_GEOMETRY
 62
     5
 10
-806.2374574108196
 20
61.84913197130663
 30
0.0
 42
0.6379542853955544
  0
VERTEX
  5
2E6
  8
APS_GEOMETRY
 62
     5
 10
-809.3047453191459
 20
68.38106999543515
 30
0.0
  0
VERTEX
  5
2E7
  8
APS_GEOMETRY
 62
     5
 10
-814.3087230262379
 20
68.37991077763809
 30
0.0
 42
-0.4142457058992359
  0
VERTEX
  5
2E8
  8
APS_GEOMETRY
 62
     5
 10
-818.70974237826
 20
72.77937414672306
 30
0.0
  0
VERTEX
  5
2E9
  8
APS_GEOMETRY
 62
     5
 10
-818.7114003961003
 20
86.3766017783596
 30
0.0
 42
-0.414213562373095
  0
VERTEX
  5
2EA
  8
APS_GEOMETRY
 62
     5
 10
-816.7119079583547
 20
88.37684559902891
 30
0.0
  0
VERTEX
  5
2EB
  8
APS_GEOMETRY
 62
     5
 10
-816.2118182852112
 20
88.37695069265465
 30
0.0
 42
0.4142449706129619
  0
VERTEX
  5
2EC
  8
APS_GEOMETRY
 62
     5
 10
-814.7121334862534
 20
89.87742574717458
 30
0.0
  0
VERTEX
  5
2ED
  8
APS_GEOMETRY
 62
     5
 10
-814.7187124109698
 20
110.6298256595533
 30
0.0
  0
VERTEX
  5
2EE
  8
APS_GEOMETRY
 62
     5
 10
-814.7194454438652
 20
114.1298248024036
 30
0.0
 42
0.4142135809137493
  0
VERTEX
  5
2EF
  8
APS_GEOMETRY
 62
     5
 10
-816.2197589109626
 20
115.6295106267926
 30
0.0
  0
VERTEX
  5
2F0
  8
APS_GEOMETRY
 62
     5
 10
-817.2197599602744
 20
115.6293016923037
 30
0.0
 42
-0.414234737450235
  0
VERTEX
  5
2F1
  8
APS_GEOMETRY
 62
     5
 10
-818.7200733968241
 20
117.1290958652617
 30
0.0
  0
VERTEX
  5
2F2
  8
APS_GEOMETRY
 62
     5
 10
-818.7220383697165
 20
131.4793061419255
 30
0.0
 42
-0.414213562373095
  0
VERTEX
  5
2F3
  8
APS_GEOMETRY
 62
     5
 10
-814.3231198431379
 20
135.8799085324481
 30
0.0
  0
VERTEX
  5
2F4
  8
APS_GEOMETRY
 62
     5
 10
-787.7028593835587
 20
135.8854857473393
 30
0.0
 42
0.4234265118513237
  0
VERTEX
  5
2F5
  8
APS_GEOMETRY
 62
     5
 10
-783.7056889260118
 20
140.0117130653493
 30
0.0
 42
0.0528243570533899
  0
VERTEX
  5
2F6
  8
APS_GEOMETRY
 62
     5
 10
-785.6613849365629
 20
150.2867752344946
 30
0.0
 42
0.3018779126557015
  0
VERTEX
  5
2F7
  8
APS_GEOMETRY
 62
     5
 10
-867.2522234109158
 20
225.052583403165
 30
0.0
  0
VERTEX
  5
2F8
  8
APS_GEOMETRY
 62
     5
 10
-867.248198745722
 20
205.840129075626
 30
0.0
  0
SEQEND
  5
45D
  8
APS_GEOMETRY
 62
     5
  0
CIRCLE
  5
163
  8
CUT
 62
     1
 10
-881.7515255065985
 20
223.13585902107
 30
0.0
 40
1.5
  0
LINE
  5
164
  8
CUT
 62
     1
 10
-914.4815283264297
 20
85.8164202284861
 30
0.0
 11
-914.4815283264297
 21
82.8164202284861
 31
0.0
  0
POLYLINE
  5
165
  8
CUT
 62
     1
 66
     1
 10
0.0
 20
0.0
 30
0.0
 70
     1
  0
VERTEX
  5
2F9
  8
CUT
 62
     1
 10
-861.3156084329132
 20
50.26489215142192
 30
0.0
 42
0.9999999999999999
  0
VERTEX
  5
2FA
  8
CUT
 62
     1
 10
-863.315608389026
 20
50.26447316768463
 30
0.0
 42
0.9999999999999999
  0
SEQEND
  5
45E
  8
CUT
 62
     1
  0
POLYLINE
  5
166
  8
CUT
 62
     1
 66
     1
 10
0.0
 20
0.0
 30
0.0
 70
     1
  0
VERTEX
  5
2FB
  8
CUT
 62
     1
 10
-823.2385704109697
 20
177.983740659553
 30
0.0
  0
VERTEX
  5
2FC
  8
CUT
 62
     1
 10
-823.2385702418901
 20
168.7474154904735
 30
0.0
 42
0.9999995572073856
  0
VERTEX
  5
2FD
  8
CUT
 62
     1
 10
-822.8567324109695
 20
168.3655776595533
 30
0.0
  0
VERTEX
  5
2FE
  8
CUT
 62
     1
 10
-820.6204082418899
 20
168.3655778286329
 30
0.0
 42
0.9999995572073856
  0
VERTEX
  5
2FF
  8
CUT
 62
     1
 10
-820.2385704109697
 20
168.7474156595531
 30
0.0
  0
VERTEX
  5
300
  8
CUT
 62
     1
 10
-820.2385705800493
 20
177.983740828633
 30
0.0
 42
1.000002176082156
  0
VERTEX
  5
301
  8
CUT
 62
     1
 10
-820.6204074109696
 20
178.3655776595533
 30
0.0
  0
VERTEX
  5
302
  8
CUT
 62
     1
 10
-822.8567325800491
 20
178.3655784904736
 30
0.0
 42
0.9999995572073856
  0
SEQEND
  5
45F
  8
CUT
 62
     1
  0
LINE
  5
167
  8
CUT
 62
     5
 10
-896.2515254772445
 20
205.1285771353046
 30
0.0
 11
-896.2515254772447
 21
191.590466964295
 31
0.0
  0
LINE
  5
168
  8
CUT
 62
     1
 10
-840.9815284109698
 20
82.8164202284861
 30
0.0
 11
-850.9815284109698
 21
82.8164202284861
 31
0.0
  0
POLYLINE
  5
169
  8
CUT
 62
     1
 66
     1
 10
0.0
 20
0.0
 30
0.0
 70
     1
  0
VERTEX
  5
303
  8
CUT
 62
     1
 10
-898.1156074109697
 20
51.04936165955314
 30
0.0
  0
VERTEX
  5
304
  8
CUT
 62
     1
 10
-898.1156074109697
 20
47.04936165955314
 30
0.0
  0
VERTEX
  5
305
  8
CUT
 62
     1
 10
-870.3156084109696
 20
47.04936165955314
 30
0.0
  0
VERTEX
  5
306
  8
CUT
 62
     1
 10
-870.3156084109696
 20
51.04936165955314
 30
0.0
  0
SEQEND
  5
460
  8
CUT
 62
     1
  0
CIRCLE
  5
16A
  8
0
  6
BYBLOCK
 62
     1
 10
-839.276766985033
 20
52.63810354898078
 30
0.0
 40
1.3
  0
POLYLINE
  5
16B
  8
CUT
 62
     1
 66
     1
 10
0.0
 20
0.0
 30
0.0
  0
VERTEX
  5
307
  8
CUT
 62
     1
 10
-850.9815284109698
 20
117.9837406595534
 30
0.0
  0
VERTEX
  5
308
  8
CUT
 62
     1
 10
-850.9815282418901
 20
115.7474154904735
 30
0.0
 42
0.9999999999999999
  0
VERTEX
  5
309
  8
CUT
 62
     1
 10
-850.5996905800491
 20
115.3655778286329
 30
0.0
  0
VERTEX
  5
30A
  8
CUT
 62
     1
 10
-841.3633662418899
 20
115.3655778286329
 30
0.0
 42
0.9999999999999999
  0
VERTEX
  5
30B
  8
CUT
 62
     1
 10
-840.9815285800494
 20
115.7474154904735
 30
0.0
  0
VERTEX
  5
30C
  8
CUT
 62
     1
 10
-840.9815285800494
 20
117.983740828633
 30
0.0
 42
1.000002176082156
  0
VERTEX
  5
30D
  8
CUT
 62
     1
 10
-841.3633664109695
 20
118.3655776595533
 30
0.0
  0
VERTEX
  5
30E
  8
CUT
 62
     1
 10
-850.5996905800491
 20
118.3655784904736
 30
0.0
 42
0.9999999999999999
  0
VERTEX
  5
30F
  8
CUT
 62
     1
 10
-850.9815282418901
 20
117.983740828633
 30
0.0
  0
SEQEND
  5
461
  8
CUT
 62
     1
  0
LINE
  5
16C
  8
CUT
 62
     1
 10
-840.9815284109698
 20
85.8164202284861
 30
0.0
 11
-840.9815284109698
 21
82.8164202284861
 31
0.0
  0
CIRCLE
  5
16D
  8
CUT
 62
     1
 10
-881.7515255065989
 20
187.5358590210699
 30
0.0
 40
1.5
  0
POLYLINE
  5
16E
  8
CUT
 62
     1
 66
     1
 10
0.0
 20
0.0
 30
0.0
 70
     1
  0
VERTEX
  5
310
  8
CUT
 62
     1
 10
-912.1156074329128
 20
50.25425015142173
 30
0.0
 42
0.9999999999999999
  0
VERTEX
  5
311
  8
CUT
 62
     1
 10
-914.1156073890261
 20
50.25383116768444
 30
0.0
 42
0.9999999999999999
  0
SEQEND
  5
462
  8
CUT
 62
     1
  0
POLYLINE
  5
16F
  8
CUT
 62
     1
 66
     1
 10
0.0
 20
0.0
 30
0.0
 70
     1
  0
VERTEX
  5
312
  8
CUT
 62
     1
 10
-869.75274763436
 20
86.64079564781377
 30
0.0
 42
0.3235436018676892
  0
VERTEX
  5
313
  8
CUT
 62
     1
 10
-869.7566743143814
 20
105.3853926346208
 30
0.0
  0
VERTEX
  5
314
  8
CUT
 62
     1
 10
-895.6919791779985
 20
105.3799596346494
 30
0.0
 42
0.9999999999999999
  0
SEQEND
  5
463
  8
CUT
 62
     1
  0
POLYLINE
  5
170
  8
CUT
 62
     1
 66
     1
 10
0.0
 20
0.0
 30
0.0
 70
     1
  0
VERTEX
  5
315
  8
CUT
 62
     1
 10
-901.7493544438846
 20
211.3515718973563
 30
0.0
 42
0.9999999999999999
  0
VERTEX
  5
316
  8
CUT
 62
     1
 10
-904.7493543780542
 20
211.3509434217503
 30
0.0
 42
0.9999999999999999
  0
SEQEND
  5
464
  8
CUT
 62
     1
  0
ARC
  5
171
  8
CUT
 62
     5
 10
-881.7515255065987
 20
210.4732440210701
 30
0.0
 40
16.862615
 50
30.69572599999976
 51
149.3042739999996
  0
LINE
  5
172
  8
CUT
 62
     1
 10
-914.4815283264297
 20
82.8164202284861
 30
0.0
 11
-924.4815283264297
 21
82.8164202284861
 31
0.0
  0
LINE
  5
173
  8
CUT
 62
     1
 10
-924.4815283264297
 20
82.8164202284861
 30
0.0
 11
-924.4815283264297
 21
85.8164202284861
 31
0.0
  0
POLYLINE
  5
174
  8
CUT
 62
     1
 66
     1
 10
0.0
 20
0.0
 30
0.0
  0
VERTEX
  5
317
  8
CUT
 62
     1
 10
-820.6204074109696
 20
158.3655776595533
 30
0.0
  0
VERTEX
  5
318
  8
CUT
 62
     1
 10
-822.8567325800491
 20
158.3655784904736
 30
0.0
 42
0.9999995572073856
  0
VERTEX
  5
319
  8
CUT
 62
     1
 10
-823.2385704109697
 20
157.983740659553
 30
0.0
  0
VERTEX
  5
31A
  8
CUT
 62
     1
 10
-823.2385702418903
 20
148.7474154904735
 30
0.0
 42
0.9999995572073856
  0
VERTEX
  5
31B
  8
CUT
 62
     1
 10
-822.8567324109697
 20
148.3655776595533
 30
0.0
  0
VERTEX
  5
31C
  8
CUT
 62
     1
 10
-820.6204082418901
 20
148.3655778286329
 30
0.0
 42
0.9999995572073856
  0
VERTEX
  5
31D
  8
CUT
 62
     1
 10
-820.2385704109699
 20
148.7474156595531
 30
0.0
  0
VERTEX
  5
31E
  8
CUT
 62
     1
 10
-820.2385705800493
 20
157.983740828633
 30
0.0
 42
0.9999999999999999
  0
VERTEX
  5
31F
  8
CUT
 62
     1
 10
-820.6204082418899
 20
158.3655784904736
 30
0.0
  0
SEQEND
  5
465
  8
CUT
 62
     1
  0
LINE
  5
175
  8
CUT
 62
     1
 10
-850.9815284109698
 20
85.8164202284861
 30
0.0
 11
-840.9815284109698
 21
85.8164202284861
 31
0.0
  0
POLYLINE
  5
176
  8
CUT
 62
     1
 66
     1
 10
0.0
 20
0.0
 30
0.0
 70
     1
  0
VERTEX
  5
320
  8
CUT
 62
     1
 10
-901.7472524438845
 20
201.3196098973563
 30
0.0
 42
0.9999999999999999
  0
VERTEX
  5
321
  8
CUT
 62
     1
 10
-904.7472523780543
 20
201.3189814217503
 30
0.0
 42
0.9999999999999999
  0
SEQEND
  5
466
  8
CUT
 62
     1
  0
POLYLINE
  5
177
  8
CUT
 62
     1
 66
     1
 10
0.0
 20
0.0
 30
0.0
  0
VERTEX
  5
322
  8
CUT
 62
     1
 10
-887.7315284109698
 20
117.9837406595534
 30
0.0
  0
VERTEX
  5
323
  8
CUT
 62
     1
 10
-887.7315282418901
 20
115.7474154904735
 30
0.0
 42
0.9999999999999999
  0
VERTEX
  5
324
  8
CUT
 62
     1
 10
-887.3496905800491
 20
115.3655778286329
 30
0.0
  0
VERTEX
  5
325
  8
CUT
 62
     1
 10
-878.1133662418899
 20
115.3655778286329
 30
0.0
 42
0.9999999999999999
  0
VERTEX
  5
326
  8
CUT
 62
     1
 10
-877.7315285800494
 20
115.7474154904735
 30
0.0
  0
VERTEX
  5
327
  8
CUT
 62
     1
 10
-877.7315285800494
 20
117.983740828633
 30
0.0
 42
0.9999999999999999
  0
VERTEX
  5
328
  8
CUT
 62
     1
 10
-878.1133662418899
 20
118.3655784904736
 30
0.0
  0
VERTEX
  5
329
  8
CUT
 62
     1
 10
-887.3496905800491
 20
118.3655784904736
 30
0.0
 42
0.9999999999999999
  0
VERTEX
  5
32A
  8
CUT
 62
     1
 10
-887.7315282418901
 20
117.983740828633
 30
0.0
  0
SEQEND
  5
467
  8
CUT
 62
     1
  0
LINE
  5
178
  8
CUT
 62
     1
 10
-924.4815283264297
 20
85.8164202284861
 30
0.0
 11
-914.4815283264297
 21
85.8164202284861
 31
0.0
  0
POLYLINE
  5
179
  8
CUT
 62
     1
 66
     1
 10
0.0
 20
0.0
 30
0.0
  0
VERTEX
  5
32B
  8
CUT
 62
     1
 10
-945.2315284109695
 20
108.9837406595534
 30
0.0
  0
VERTEX
  5
32C
  8
CUT
 62
     1
 10
-945.2315282418899
 20
91.99741549047349
 30
0.0
 42
0.9999999999999999
  0
VERTEX
  5
32D
  8
CUT
 62
     1
 10
-944.8496905800491
 20
91.61557782863292
 30
0.0
  0
VERTEX
  5
32E
  8
CUT
 62
     1
 10
-942.6133662418899
 20
91.61557782863292
 30
0.0
 42
0.9999999999999999
  0
VERTEX
  5
32F
  8
CUT
 62
     1
 10
-942.2315285800491
 20
91.99741549047349
 30
0.0
  0
VERTEX
  5
330
  8
CUT
 62
     1
 10
-942.2315285800491
 20
108.983740828633
 30
0.0
 42
0.9999999999999999
  0
VERTEX
  5
331
  8
CUT
 62
     1
 10
-942.6133662418899
 20
109.3655784904736
 30
0.0
  0
VERTEX
  5
332
  8
CUT
 62
     1
 10
-944.8496905800491
 20
109.3655784904736
 30
0.0
 42
0.9999999999999999
  0
VERTEX
  5
333
  8
CUT
 62
     1
 10
-945.2315282418899
 20
108.983740828633
 30
0.0
  0
SEQEND
  5
468
  8
CUT
 62
     1
  0
POLYLINE
  5
17A
  8
CUT
 62
     1
 66
     1
 10
0.0
 20
0.0
 30
0.0
 70
     1
  0
VERTEX
  5
334
  8
CUT
 62
     1
 10
-881.2354136905324
 20
33.25820669007658
 30
0.0
 42
0.9999999999999999
  0
VERTEX
  5
335
  8
CUT
 62
     1
 10
-884.235413624702
 20
33.25757821447064
 30
0.0
 42
0.9999999999999999
  0
SEQEND
  5
469
  8
CUT
 62
     1
  0
POLYLINE
  5
17B
  8
CUT
 62
     1
 66
     1
 10
0.0
 20
0.0
 30
0.0
 70
     1
  0
VERTEX
  5
336
  8
CUT
 62
     1
 10
-906.6191330529762
 20
54.30393641313503
 30
0.0
  0
VERTEX
  5
337
  8
CUT
 62
     1
 10
-906.6191330529762
 20
50.30393641313503
 30
0.0
  0
VERTEX
  5
338
  8
CUT
 62
     1
 10
-909.6191330529762
 20
50.30393641313503
 30
0.0
  0
VERTEX
  5
339
  8
CUT
 62
     1
 10
-909.6191330529762
 20
54.30393641313503
 30
0.0
  0
SEQEND
  5
46A
  8
CUT
 62
     1
  0
POLYLINE
  5
17C
  8
CUT
 62
     1
 66
     1
 10
0.0
 20
0.0
 30
0.0
 70
     1
  0
VERTEX
  5
33A
  8
CUT
 62
     1
 10
-858.8399486132387
 20
54.29059957407898
 30
0.0
  0
VERTEX
  5
33B
  8
CUT
 62
     1
 10
-858.8421816924631
 20
50.29060019740939
 30
0.0
  0
VERTEX
  5
33C
  8
CUT
 62
     1
 10
-855.8421821599609
 20
50.28892538799103
 30
0.0
  0
VERTEX
  5
33D
  8
CUT
 62
     1
 10
-855.8399490807365
 20
54.28892476466062
 30
0.0
  0
SEQEND
  5
46B
  8
CUT
 62
     1
  0
POLYLINE
  5
17D
  8
CUT
 62
     1
 66
     1
 10
0.0
 20
0.0
 30
0.0
 70
     1
  0
VERTEX
  5
33E
  8
CUT
 62
     1
 10
-942.2198494438845
 20
70.50024289735575
 30
0.0
 42
0.9999999999999999
  0
VERTEX
  5
33F
  8
CUT
 62
     1
 10
-945.2198493780542
 20
70.49961442174981
 30
0.0
 42
0.9999999999999999
  0
SEQEND
  5
46C
  8
CUT
 62
     1
  0
POLYLINE
  5
17E
  8
CUT
 62
     1
 66
     1
 10
0.0
 20
0.0
 30
0.0
 70
     1
  0
VERTEX
  5
340
  8
CUT
 62
     1
 10
-820.2198514438846
 20
70.52579989735568
 30
0.0
 42
0.9999999999999999
  0
VERTEX
  5
341
  8
CUT
 62
     1
 10
-823.2198513780545
 20
70.5251714217502
 30
0.0
 42
0.9999999999999999
  0
SEQEND
  5
46D
  8
CUT
 62
     1
  0
CIRCLE
  5
17F
  8
CUT
 62
     1
 10
-848.7439674011318
 20
185.8742749960616
 30
0.0
 40
1.800000009870012
  0
CIRCLE
  5
180
  8
CUT
 62
     1
 10
-830.7439679011534
 20
185.8780455990786
 30
0.0
 40
1.800000009870012
  0
CIRCLE
  5
181
  8
CUT
 62
     1
 10
-848.7439674011316
 20
194.3742749960616
 30
0.0
 40
1.800000009870012
  0
CIRCLE
  5
182
  8
CUT
 62
     1
 10
-832.7439674011316
 20
194.3742749960616
 30
0.0
 40
1.800000009870012
  0
ENDBLK
  5
183
  8
0
  0
BLOCK
  8
0
  2
MOTORBRACKET
 70
     0
 10
0.0
 20
0.0
 30
0.0
  3
MOTORBRACKET
  1

  0
CIRCLE
  5
187
  8
CUT
 62
     1
 10
-236.4082718584306
 20
171.7130231301427
 30
0.0
 40
4.0
  0
CIRCLE
  5
188
  8
CUT
 62
     1
 10
-236.457602176213
 20
180.2128799830399
 30
0.0
 40
1.5
  0
CIRCLE
  5
189
  8
CUT
 62
     1
 10
-236.3589415406481
 20
163.213166277245
 30
0.0
 40
1.4
  0
CIRCLE
  5
18A
  8
CUT
 62
     1
 10
-236.3591475850632
 20
153.9130909166265
 30
0.0
 40
1.5
  0
CIRCLE
  5
18B
  8
CUT
 62
     1
 10
-236.4573961317981
 20
189.5129553436587
 30
0.0
 40
1.5
  0
POLYLINE
  5
18C
  8
CUT
 62
     5
 66
     1
 10
0.0
 20
0.0
 30
0.0
 70
     1
  0
VERTEX
  5
342
  8
CUT
 62
     5
 10
-250.9461510140723
 20
185.4183458771323
 30
0.0
  0
VERTEX
  5
343
  8
CUT
 62
     5
 10
-250.8702822054273
 20
157.9276664547948
 30
0.0
 42
0.5692833075817556
  0
VERTEX
  5
344
  8
CUT
 62
     5
 10
-221.8703927027889
 20
158.0077003831529
 30
0.0
  0
VERTEX
  5
345
  8
CUT
 62
     5
 10
-221.9462615114339
 20
185.4983798054902
 30
0.0
 42
0.5692833075817535
  0
SEQEND
  5
46E
  8
CUT
 62
     5
  0
ENDBLK
  5
18D
  8
0
  0
BLOCK
  8
0
  2
BUMPER
 70
     0
 10
0.0
 20
0.0
 30
0.0
  3
BUMPER
  1

  0
POLYLINE
  5
191
  8
CUT
 62
     1
 66
     1
 10
0.0
 20
0.0
 30
0.0
 70
     1
  0
VERTEX
  5
346
  8
CUT
 62
     1
 10
-312.4109687889971
 20
308.0012542121517
 30
0.0
 42
-0.9999999999999503
  0
VERTEX
  5
347
  8
CUT
 62
     1
 10
-310.4162592361227
 20
308.1466288993308
 30
0.0
 42
-0.999999999999936
  0
SEQEND
  5
46F
  8
CUT
 62
     1
  0
POLYLINE
  5
192
  8
CUT
 62
     1
 66
     1
 10
0.0
 20
0.0
 30
0.0
 70
     1
  0
VERTEX
  5
348
  8
CUT
 62
     1
 10
-372.4180247598051
 20
308.0012542121517
 30
0.0
 42
-0.9999999999999998
  0
VERTEX
  5
349
  8
CUT
 62
     1
 10
-370.4233152069309
 20
308.1466288993308
 30
0.0
 42
-0.9999999999999998
  0
SEQEND
  5
470
  8
CUT
 62
     1
  0
POLYLINE
  5
193
  8
CUT
 62
     5
 66
     1
 10
0.0
 20
0.0
 30
0.0
 70
     1
  0
VERTEX
  5
34A
  8
CUT
 62
     5
 10
-281.4707796061761
 20
307.4370373541597
 30
0.0
 42
0.1084293107005381
  0
VERTEX
  5
34B
  8
CUT
 62
     5
 10
-341.4174663460535
 20
319.7190051556985
 30
0.0
 42
0.1084293107005685
  0
VERTEX
  5
34C
  8
CUT
 62
     5
 10
-401.3636796002707
 20
307.4347265586906
 30
0.0
 42
0.4605494227248822
  0
VERTEX
  5
34D
  8
CUT
 62
     5
 10
-403.4478008611561
 20
300.1269426297895
 30
0.0
  0
VERTEX
  5
34E
  8
CUT
 62
     5
 10
-401.4162083806693
 20
297.0620863386887
 30
0.0
 42
0.2363592900970391
  0
VERTEX
  5
34F
  8
CUT
 62
     5
 10
-396.2649677603556
 20
296.2754781908727
 30
0.0
  0
VERTEX
  5
350
  8
CUT
 62
     5
 10
-380.9173461073348
 20
299.8300759441088
 30
0.0
 42
-0.2789209437570487
  0
VERTEX
  5
351
  8
CUT
 62
     5
 10
-379.4313640964758
 20
299.3797178400231
 30
0.0
 42
0.2244020418737852
  0
VERTEX
  5
352
  8
CUT
 62
     5
 10
-378.302922567609
 20
298.9688050760803
 30
0.0
 42
-0.0303606642357121
  0
VERTEX
  5
353
  8
CUT
 62
     5
 10
-304.5147887476541
 20
298.9688050760804
 30
0.0
 42
0.2213240800365052
  0
VERTEX
  5
354
  8
CUT
 62
     5
 10
-303.4027845919118
 20
299.3811832019958
 30
0.0
 42
-0.2789209437571599
  0
VERTEX
  5
355
  8
CUT
 62
     5
 10
-301.9168199424079
 20
299.8315985868787
 30
0.0
  0
VERTEX
  5
356
  8
CUT
 62
     5
 10
-286.5690612793589
 20
296.2775924512079
 30
0.0
 42
0.2363592900970416
  0
VERTEX
  5
357
  8
CUT
 62
     5
 10
-281.4178509847771
 20
297.064399166719
 30
0.0
  0
VERTEX
  5
358
  8
CUT
 62
     5
 10
-279.3863766488423
 20
300.1293337686818
 30
0.0
 42
0.4605494227259449
  0
SEQEND
  5
471
  8
CUT
 62
     5
  0
POLYLINE
  5
194
  8
CUT
 62
     1
 66
     1
 10
0.0
 20
0.0
 30
0.0
 70
     1
  0
VERTEX
  5
359
  8
CUT
 62
     1
 10
-341.3812360216571
 20
303.7130046726406
 30
0.0
  0
VERTEX
  5
35A
  8
CUT
 62
     1
 10
-340.5281201601297
 20
303.8280993922745
 30
0.0
  0
VERTEX
  5
35B
  8
CUT
 62
     1
 10
-339.7077890627284
 20
304.1689605256461
 30
0.0
  0
VERTEX
  5
35C
  8
CUT
 62
     1
 10
-338.9517675934785
 20
304.7224889705558
 30
0.0
  0
VERTEX
  5
35D
  8
CUT
 62
     1
 10
-338.2891092334621
 20
305.4674129392897
 30
0.0
  0
VERTEX
  5
35E
  8
CUT
 62
     1
 10
-337.7452795718314
 20
306.3751054214872
 30
0.0
  0
VERTEX
  5
35F
  8
CUT
 62
     1
 10
-337.3411776774997
 20
307.4106843040963
 30
0.0
  0
VERTEX
  5
360
  8
CUT
 62
     1
 10
-337.0923329596426
 20
308.5343528714193
 30
0.0
  0
VERTEX
  5
361
  8
CUT
 62
     1
 10
-337.0083083812146
 20
309.702929170573
 30
0.0
  0
VERTEX
  5
362
  8
CUT
 62
     1
 10
-337.0923329596426
 20
310.8715054697268
 30
0.0
  0
VERTEX
  5
363
  8
CUT
 62
     1
 10
-337.3411776774997
 20
311.9951740370489
 30
0.0
  0
VERTEX
  5
364
  8
CUT
 62
     1
 10
-337.7452795718314
 20
313.030752919658
 30
0.0
  0
VERTEX
  5
365
  8
CUT
 62
     1
 10
-338.2891092334621
 20
313.9384454018555
 30
0.0
  0
VERTEX
  5
366
  8
CUT
 62
     1
 10
-338.9517675934785
 20
314.6833693705894
 30
0.0
  0
VERTEX
  5
367
  8
CUT
 62
     1
 10
-339.7077890627284
 20
315.2368978155
 30
0.0
  0
VERTEX
  5
368
  8
CUT
 62
     1
 10
-340.5281201601297
 20
315.5777589488707
 30
0.0
  0
VERTEX
  5
369
  8
CUT
 62
     1
 10
-341.3812360216571
 20
315.6928536685045
 30
0.0
  0
VERTEX
  5
36A
  8
CUT
 62
     1
 10
-342.234351883184
 20
315.5777589488707
 30
0.0
  0
VERTEX
  5
36B
  8
CUT
 62
     1
 10
-343.0546829805853
 20
315.2368978155
 30
0.0
  0
VERTEX
  5
36C
  8
CUT
 62
     1
 10
-343.8107044498352
 20
314.6833693705894
 30
0.0
  0
VERTEX
  5
36D
  8
CUT
 62
     1
 10
-344.4733628098516
 20
313.9384454018555
 30
0.0
  0
VERTEX
  5
36E
  8
CUT
 62
     1
 10
-345.0171924714823
 20
313.030752919658
 30
0.0
  0
VERTEX
  5
36F
  8
CUT
 62
     1
 10
-345.421294365814
 20
311.9951740370489
 30
0.0
  0
VERTEX
  5
370
  8
CUT
 62
     1
 10
-345.6701390836711
 20
310.8715054697268
 30
0.0
  0
VERTEX
  5
371
  8
CUT
 62
     1
 10
-345.754163662099
 20
309.702929170573
 30
0.0
  0
VERTEX
  5
372
  8
CUT
 62
     1
 10
-345.6701390836711
 20
308.5343528714193
 30
0.0
  0
VERTEX
  5
373
  8
CUT
 62
     1
 10
-345.421294365814
 20
307.4106843040963
 30
0.0
  0
VERTEX
  5
374
  8
CUT
 62
     1
 10
-345.0171924714823
 20
306.3751054214872
 30
0.0
  0
VERTEX
  5
375
  8
CUT
 62
     1
 10
-344.4733628098516
 20
305.4674129392897
 30
0.0
  0
VERTEX
  5
376
  8
CUT
 62
     1
 10
-343.8107044498352
 20
304.7224889705558
 30
0.0
  0
VERTEX
  5
377
  8
CUT
 62
     1
 10
-343.0546829805853
 20
304.1689605256461
 30
0.0
  0
VERTEX
  5
378
  8
CUT
 62
     1
 10
-342.234351883184
 20
303.8280993922745
 30
0.0
  0
SEQEND
  5
472
  8
CUT
 62
     1
  0
ENDBLK
  5
195
  8
0
  0
BLOCK
  8
0
  2
CASTERTOP
 70
     0
 10
0.0
 20
0.0
 30
0.0
  3
CASTERTOP
  1

  0
POLYLINE
  5
199
  8
CUT
 62
     1
 66
     1
 10
0.0
 20
0.0
 30
0.0
 70
     1
  0
VERTEX
  5
379
  8
CUT
 62
     1
 10
-269.0978897206385
 20
295.834769188972
 30
0.0
 42
0.9999999999999999
  0
VERTEX
  5
37A
  8
CUT
 62
     1
 10
-272.0978897206385
 20
295.834769188972
 30
0.0
 42
0.9999999999999999
  0
SEQEND
  5
473
  8
CUT
 62
     1
  0
POLYLINE
  5
19A
  8
CUT
 62
     1
 66
     1
 10
0.0
 20
0.0
 30
0.0
 70
     1
  0
VERTEX
  5
37B
  8
CUT
 62
     1
 10
-250.0978897206385
 20
291.7690691889721
 30
0.0
 42
0.9999999999999999
  0
VERTEX
  5
37C
  8
CUT
 62
     1
 10
-250.0978897206385
 20
293.7690691889721
 30
0.0
 42
0.9999999999999999
  0
SEQEND
  5
474
  8
CUT
 62
     1
  0
POLYLINE
  5
19B
  8
CUT
 62
     5
 66
     1
 10
0.0
 20
0.0
 30
0.0
 70
     1
  0
VERTEX
  5
37D
  8
CUT
 62
     5
 10
-250.0978897206385
 20
283.843969341514
 30
0.0
 42
-0.0457309178184224
  0
VERTEX
  5
37E
  8
CUT
 62
     5
 10
-268.2741208825453
 20
285.5293209973903
 30
0.0
 42
-0.3193275575364211
  0
VERTEX
  5
37F
  8
CUT
 62
     5
 10
-274.9918605913706
 20
294.9753131306171
 30
0.0
  0
VERTEX
  5
380
  8
CUT
 62
     5
 10
-274.9918605913706
 20
311.0900258545939
 30
0.0
 42
-0.2796186251546278
  0
VERTEX
  5
381
  8
CUT
 62
     5
 10
-268.3801521427317
 20
319.0836593888777
 30
0.0
 42
-0.0459965723943724
  0
VERTEX
  5
382
  8
CUT
 62
     5
 10
-250.0978897206385
 20
320.7690679960955
 30
0.0
 42
-0.0459965723943724
  0
VERTEX
  5
383
  8
CUT
 62
     5
 10
-231.8156272985452
 20
319.0836593888777
 30
0.0
 42
-0.2796186251546278
  0
VERTEX
  5
384
  8
CUT
 62
     5
 10
-225.2039188499064
 20
311.0900258545939
 30
0.0
  0
VERTEX
  5
385
  8
CUT
 62
     5
 10
-225.2039188499064
 20
294.9753131306171
 30
0.0
 42
-0.3193275575364211
  0
VERTEX
  5
386
  8
CUT
 62
     5
 10
-231.9216585587317
 20
285.5293209973903
 30
0.0
 42
-0.0457309178184224
  0
SEQEND
  5
475
  8
CUT
 62
     5
  0
POLYLINE
  5
19C
  8
CUT
 62
     1
 66
     1
 10
0.0
 20
0.0
 30
0.0
 70
     1
  0
VERTEX
  5
387
  8
CUT
 62
     1
 10
-250.0978897206385
 20
307.7690691889721
 30
0.0
 42
0.9999999999999999
  0
VERTEX
  5
388
  8
CUT
 62
     1
 10
-250.0978897206385
 20
309.7690691889721
 30
0.0
 42
0.9999999999999999
  0
SEQEND
  5
476
  8
CUT
 62
     1
  0
POLYLINE
  5
19D
  8
CUT
 62
     1
 66
     1
 10
0.0
 20
0.0
 30
0.0
 70
     1
  0
VERTEX
  5
389
  8
CUT
 62
     1
 10
-228.0978897206385
 20
305.834769188972
 30
0.0
 42
0.9999999999999999
  0
VERTEX
  5
38A
  8
CUT
 62
     1
 10
-231.0978897206385
 20
305.834769188972
 30
0.0
 42
0.9999999999999999
  0
SEQEND
  5
477
  8
CUT
 62
     1
  0
POLYLINE
  5
19E
  8
CUT
 62
     1
 66
     1
 10
0.0
 20
0.0
 30
0.0
 70
     1
  0
VERTEX
  5
38B
  8
CUT
 62
     1
 10
-269.0978897206385
 20
305.834769188972
 30
0.0
 42
0.9999999999999999
  0
VERTEX
  5
38C
  8
CUT
 62
     1
 10
-272.0978897206385
 20
305.834769188972
 30
0.0
 42
0.9999999999999999
  0
SEQEND
  5
478
  8
CUT
 62
     1
  0
POLYLINE
  5
19F
  8
CUT
 62
     1
 66
     1
 10
0.0
 20
0.0
 30
0.0
 70
     1
  0
VERTEX
  5
38D
  8
CUT
 62
     1
 10
-228.0978897206385
 20
295.834769188972
 30
0.0
 42
0.9999999999999999
  0
VERTEX
  5
38E
  8
CUT
 62
     1
 10
-231.0978897206385
 20
295.834769188972
 30
0.0
 42
0.9999999999999999
  0
SEQEND
  5
479
  8
CUT
 62
     1
  0
ENDBLK
  5
1A0
  8
0
  0
BLOCK
  8
0
  2
BUMPERSTOPPER
 70
     0
 10
0.0
 20
0.0
 30
0.0
  3
BUMPERSTOPPER
  1

  0
POLYLINE
  5
1A4
  8
CUT
 62
     5
 66
     1
 10
0.0
 20
0.0
 30
0.0
 70
     1
  0
VERTEX
  5
38F
  8
CUT
 62
     5
 10
-316.2648071962444
 20
277.4493481035024
 30
0.0
 42
0.9999999999999998
  0
VERTEX
  5
390
  8
CUT
 62
     5
 10
-334.2648071962444
 20
277.4493481035024
 30
0.0
 42
0.9999999999999998
  0
SEQEND
  5
47A
  8
CUT
 62
     5
  0
POLYLINE
  5
1A5
  8
CUT
 62
     1
 66
     1
 10
0.0
 20
0.0
 30
0.0
 70
     1
  0
VERTEX
  5
391
  8
CUT
 62
     1
 10
-326.7648071962444
 20
277.4493481035024
 30
0.0
 42
-0.9999999999999998
  0
VERTEX
  5
392
  8
CUT
 62
     1
 10
-323.7648071962444
 20
277.4493481035024
 30
0.0
 42
-0.9999999999999998
  0
SEQEND
  5
47B
  8
CUT
 62
     1
  0
ENDBLK
  5
1A6
  8
0
  0
BLOCK
  8
0
  2
CASTERBOTTOM
 70
     0
 10
0.0
 20
0.0
 30
0.0
  3
CASTERBOTTOM
  1

  0
POLYLINE
  5
1AA
  8
CUT
 62
     5
 66
     1
 10
0.0
 20
0.0
 30
0.0
  0
VERTEX
  5
393
  8
CUT
 62
     5
 10
-566.327621265783
 20
92.17696108529083
 30
0.0
 42
0.0921881813292838
  0
VERTEX
  5
394
  8
CUT
 62
     5
 10
-529.7630982119697
 20
92.17696141822285
 30
0.0
 42
0.3193275575364211
  0
VERTEX
  5
395
  8
CUT
 62
     5
 10
-523.0453606340627
 20
101.622952811005
 30
0.0
  0
VERTEX
  5
396
  8
CUT
 62
     5
 10
-523.0453606340627
 20
119.491552811005
 30
0.0
 42
0.1359329625573356
  0
VERTEX
  5
397
  8
CUT
 62
     5
 10
-524.4704314377914
 20
124.6365104667036
 30
0.0
 42
0.5661903735766028
  0
VERTEX
  5
398
  8
CUT
 62
     5
 10
-571.6202898911879
 20
124.6365103652809
 30
0.0
 42
0.1359329616251639
  0
VERTEX
  5
399
  8
CUT
 62
     5
 10
-573.0453606340627
 20
119.491552811005
 30
0.0
  0
VERTEX
  5
39A
  8
CUT
 62
     5
 10
-573.0453606340627
 20
101.622952811005
 30
0.0
 42
0.3193275575364211
  0
VERTEX
  5
39B
  8
CUT
 62
     5
 10
-566.3276209252374
 20
92.17696067777831
 30
0.0
  0
SEQEND
  5
47C
  8
CUT
 62
     5
  0
POLYLINE
  5
1AB
  8
CUT
 62
     1
 66
     1
 10
0.0
 20
0.0
 30
0.0
 70
     1
  0
VERTEX
  5
39C
  8
CUT
 62
     1
 10
-570.0453606340627
 20
115.4258516181283
 30
0.0
 42
0.9999999999999999
  0
VERTEX
  5
39D
  8
CUT
 62
     1
 10
-567.0453606340627
 20
115.4258516181283
 30
0.0
 42
0.9999999999999999
  0
SEQEND
  5
47D
  8
CUT
 62
     1
  0
POLYLINE
  5
1AC
  8
CUT
 62
     1
 66
     1
 10
0.0
 20
0.0
 30
0.0
 70
     1
  0
VERTEX
  5
39E
  8
CUT
 62
     1
 10
-559.2953606340627
 20
110.4915526181284
 30
0.0
 42
1.000000000000001
  0
VERTEX
  5
39F
  8
CUT
 62
     1
 10
-536.7953606340627
 20
110.4915526181284
 30
0.0
 42
0.9999999999999988
  0
SEQEND
  5
47E
  8
CUT
 62
     1
  0
POLYLINE
  5
1AD
  8
CUT
 62
     1
 66
     1
 10
0.0
 20
0.0
 30
0.0
 70
     1
  0
VERTEX
  5
3A0
  8
CUT
 62
     1
 10
-570.0453606340627
 20
105.4258516181283
 30
0.0
 42
0.9999999999999999
  0
VERTEX
  5
3A1
  8
CUT
 62
     1
 10
-567.0453606340627
 20
105.4258516181283
 30
0.0
 42
0.9999999999999999
  0
SEQEND
  5
47F
  8
CUT
 62
     1
  0
POLYLINE
  5
1AE
  8
CUT
 62
     1
 66
     1
 10
0.0
 20
0.0
 30
0.0
 70
     1
  0
VERTEX
  5
3A2
  8
CUT
 62
     1
 10
-529.0453606340628
 20
105.4258516181283
 30
0.0
 42
0.9999999999999999
  0
VERTEX
  5
3A3
  8
CUT
 62
     1
 10
-526.0453606340628
 20
105.4258516181283
 30
0.0
 42
0.9999999999999999
  0
SEQEND
  5
480
  8
CUT
 62
     1
  0
POLYLINE
  5
1AF
  8
CUT
 62
     1
 66
     1
 10
0.0
 20
0.0
 30
0.0
 70
     1
  0
VERTEX
  5
3A4
  8
CUT
 62
     1
 10
-529.0453606340627
 20
115.4258516181283
 30
0.0
 42
0.9999999999999999
  0
VERTEX
  5
3A5
  8
CUT
 62
     1
 10
-526.0453606340627
 20
115.4258516181283
 30
0.0
 42
0.9999999999999999
  0
SEQEND
  5
481
  8
CUT
 62
     1
  0
ENDBLK
  5
1B0
  8
0
  0
BLOCK
  8
0
  2
STRUT
 70
     0
 10
0.0
 20
0.0
 30
0.0
  3
STRUT
  1

  0
POLYLINE
  5
1B4
  8
CUT
 62
     5
 66
     1
 10
0.0
 20
0.0
 30
0.0
  0
VERTEX
  5
3A6
  8
CUT
 62
     5
 10
3052.026586928145
 20
678.2411238258414
 30
0.0
 42
-0.120076493712136
  0
VERTEX
  5
3A7
  8
CUT
 62
     5
 10
3102.096963205191
 20
667.2412271131464
 30
0.0
  0
VERTEX
  5
3A8
  8
CUT
 62
     5
 10
3102.061757566683
 20
678.2411238258424
 30
0.0
  0
VERTEX
  5
3A9
  8
CUT
 62
     5
 10
3102.061792566652
 20
678.2411238258424
 30
0.0
  0
VERTEX
  5
3AA
  8
CUT
 62
     5
 10
3102.096963205191
 20
682.2411238258424
 30
0.0
  0
VERTEX
  5
3AB
  8
CUT
 62
     5
 10
3104.861792566652
 20
682.2411238258414
 30
0.0
  0
VERTEX
  5
3AC
  8
CUT
 62
     5
 10
3104.861792566652
 20
686.2411238258414
 30
0.0
  0
VERTEX
  5
3AD
  8
CUT
 62
     5
 10
3102.096963205191
 20
686.2411238258414
 30
0.0
  0
VERTEX
  5
3AE
  8
CUT
 62
     5
 10
3102.096963205191
 20
690.2411238258403
 30
0.0
  0
VERTEX
  5
3AF
  8
CUT
 62
     5
 10
3102.096963205191
 20
701.0481094029803
 30
0.0
 42
0.2865051614658172
  0
VERTEX
  5
3B0
  8
CUT
 62
     5
 10
3101.083345833961
 20
700.7411212742534
 30
0.0
  0
VERTEX
  5
3B1
  8
CUT
 62
     5
 10
3100.966686490729
 20
700.5764735377725
 30
0.0
 42
-0.5883328981423787
  0
VERTEX
  5
3B2
  8
CUT
 62
     5
 10
3052.026586928145
 20
696.2410205385374
 30
0.0
  0
VERTEX
  5
3B3
  8
CUT
 62
     5
 10
3052.026586928145
 20
686.2411238258414
 30
0.0
  0
VERTEX
  5
3B4
  8
CUT
 62
     5
 10
3049.261792566652
 20
686.2411238258414
 30
0.0
  0
VERTEX
  5
3B5
  8
CUT
 62
     5
 10
3049.261792566652
 20
682.2411238258414
 30
0.0
  0
VERTEX
  5
3B6
  8
CUT
 62
     5
 10
3052.026586928145
 20
682.2411238258424
 30
0.0
  0
VERTEX
  5
3B7
  8
CUT
 62
     5
 10
3052.061757566683
 20
678.2411238258424
 30
0.0
  0
SEQEND
  5
482
  8
CUT
 62
     5
  0
ENDBLK
  5
1B5
  8
0
  0
BLOCK
  8
0
  2
IRSPACER
 70
     0
 10
0.0
 20
0.0
 30
0.0
  3
IRSPACER
  1

  0
POLYLINE
  5
1B9
  8
CUT
 62
     5
 66
     1
 10
0.0
 20
0.0
 30
0.0
 70
     1
  0
VERTEX
  5
3B8
  8
CUT
 62
     5
 10
4384.977377129606
 20
533.2617437286751
 30
0.0
  0
VERTEX
  5
3B9
  8
CUT
 62
     5
 10
4384.977377129606
 20
524.2617437286754
 30
0.0
 42
0.4142135623731199
  0
VERTEX
  5
3BA
  8
CUT
 62
     5
 10
4387.977377129606
 20
521.2617437286754
 30
0.0
  0
VERTEX
  5
3BB
  8
CUT
 62
     5
 10
4414.177377129606
 20
521.2617437286755
 30
0.0
  0
VERTEX
  5
3BC
  8
CUT
 62
     5
 10
4440.377377129606
 20
521.261743728675
 30
0.0
 42
0.4142135623730819
  0
VERTEX
  5
3BD
  8
CUT
 62
     5
 10
4443.377377129606
 20
524.2617437286748
 30
0.0
  0
VERTEX
  5
3BE
  8
CUT
 62
     5
 10
4443.377377129606
 20
533.2617437286748
 30
0.0
 42
0.4142135623730953
  0
VERTEX
  5
3BF
  8
CUT
 62
     5
 10
4440.377377129606
 20
536.2617437286752
 30
0.0
  0
VERTEX
  5
3C0
  8
CUT
 62
     5
 10
4439.177377129606
 20
536.261743728675
 30
0.0
 42
0.4142135623730819
  0
VERTEX
  5
3C1
  8
CUT
 62
     5
 10
4436.177377129606
 20
533.261743728675
 30
0.0
  0
VERTEX
  5
3C2
  8
CUT
 62
     5
 10
4436.177377129606
 20
531.2617437286749
 30
0.0
 42
-0.4142135623730899
  0
VERTEX
  5
3C3
  8
CUT
 62
     5
 10
4433.177377129606
 20
528.2617437286751
 30
0.0
  0
VERTEX
  5
3C4
  8
CUT
 62
     5
 10
4414.177377129606
 20
528.2617437286751
 30
0.0
  0
VERTEX
  5
3C5
  8
CUT
 62
     5
 10
4395.177377129606
 20
528.2617437286754
 30
0.0
 42
-0.4142135623730953
  0
VERTEX
  5
3C6
  8
CUT
 62
     5
 10
4392.177377129606
 20
531.2617437286752
 30
0.0
  0
VERTEX
  5
3C7
  8
CUT
 62
     5
 10
4392.177377129606
 20
533.2617437286754
 30
0.0
 42
0.4142135623730819
  0
VERTEX
  5
3C8
  8
CUT
 62
     5
 10
4389.177377129606
 20
536.2617437286751
 30
0.0
  0
VERTEX
  5
3C9
  8
CUT
 62
     5
 10
4387.977377129606
 20
536.2617437286752
 30
0.0
 42
0.4142135623730953
  0
SEQEND
  5
483
  8
CUT
 62
     5
  0
POLYLINE
  5
1BA
  8
CUT
 62
     1
 66
     1
 10
0.0
 20
0.0
 30
0.0
 70
     1
  0
VERTEX
  5
3CA
  8
CUT
 62
     1
 10
4389.777377129606
 20
533.2617437286752
 30
0.0
 42
-0.9999999999999998
  0
VERTEX
  5
3CB
  8
CUT
 62
     1
 10
4387.777377129606
 20
533.2617437286751
 30
0.0
 42
-0.9999999999999998
  0
SEQEND
  5
484
  8
CUT
 62
     1
  0
POLYLINE
  5
1BB
  8
CUT
 62
     1
 66
     1
 10
0.0
 20
0.0
 30
0.0
 70
     1
  0
VERTEX
  5
3CC
  8
CUT
 62
     1
 10
4440.577377129606
 20
533.2617437286751
 30
0.0
 42
-0.9999999999999998
  0
VERTEX
  5
3CD
  8
CUT
 62
     1
 10
4438.577377129605
 20
533.2617437286752
 30
0.0
 42
-0.9999999999999998
  0
SEQEND
  5
485
  8
CUT
 62
     1
  0
ENDBLK
  5
1BC
  8
0
  0
BLOCK
  8
0
  2
TOP
 70
     0
 10
0.0
 20
0.0
 30
0.0
  3
TOP
  1

  0
POLYLINE
  5
1C0
  8
CUT
 62
     1
 66
     1
 10
0.0
 20
0.0
 30
0.0
 70
     1
  0
VERTEX
  5
3CE
  8
CUT
 62
     1
 10
-432.1276145324973
 20
280.306982414704
 30
0.0
  0
VERTEX
  5
3CF
  8
CUT
 62
     1
 10
-432.1276121952646
 20
283.3069824147028
 30
0.0
  0
VERTEX
  5
3D0
  8
CUT
 62
     1
 10
-422.1276121952678
 20
283.3069746239266
 30
0.0
  0
VERTEX
  5
3D1
  8
CUT
 62
     1
 10
-422.1276145325005
 20
280.306974623928
 30
0.0
  0
SEQEND
  5
486
  8
CUT
 62
     1
  0
POLYLINE
  5
1C1
  8
CUT
 62
     5
 66
     1
 10
0.0
 20
0.0
 30
0.0
 70
     1
  0
VERTEX
  5
3D2
  8
CUT
 62
     5
 10
-399.4032811582083
 20
287.1408867376549
 30
0.0
 42
0.690144378585827
  0
VERTEX
  5
3D3
  8
CUT
 62
     5
 10
-574.2353475706168
 20
220.8071710536319
 30
0.0
 42
0.6901443786531407
  0
VERTEX
  5
3D4
  8
CUT
 62
     5
 10
-399.4033845166423
 20
154.4731829359635
 30
0.0
 42
0.3546575574428659
  0
VERTEX
  5
3D5
  8
CUT
 62
     5
 10
-399.6261135370801
 20
168.6760370910883
 30
0.0
 42
0.1013675749864434
  0
VERTEX
  5
3D6
  8
CUT
 62
     5
 10
-419.5128053095509
 20
187.4788438696182
 30
0.0
 42
-0.2218742401778213
  0
VERTEX
  5
3D7
  8
CUT
 62
     5
 10
-435.0678772352217
 20
220.8070626044544
 30
0.0
 42
-0.2218742403926054
  0
VERTEX
  5
3D8
  8
CUT
 62
     5
 10
-419.5127533790337
 20
254.1352571376374
 30
0.0
 42
0.1013675749864454
  0
VERTEX
  5
3D9
  8
CUT
 62
     5
 10
-399.6260323088961
 20
272.9380329295932
 30
0.0
 42
0.3546575574428606
  0
SEQEND
  5
487
  8
CUT
 62
     5
  0
POLYLINE
  5
1C2
  8
CUT
 62
     1
 66
     1
 10
0.0
 20
0.0
 30
0.0
 70
     1
  0
VERTEX
  5
3DA
  8
CUT
 62
     1
 10
-497.6572053667735
 20
211.7204329345002
 30
0.0
 42
-0.9999999999999998
  0
VERTEX
  5
3DB
  8
CUT
 62
     1
 10
-497.6571912082516
 20
229.8938759088453
 30
0.0
 42
-0.9999999999999998
  0
SEQEND
  5
488
  8
CUT
 62
     1
  0
CIRCLE
  5
1C3
  8
CUT
 62
     1
 10
-474.2353259302834
 20
130.8071950893327
 30
0.0
 40
2.0
  0
CIRCLE
  5
1C4
  8
CUT
 62
     1
 10
-498.4626853105599
 20
196.3071444260081
 30
0.0
 40
1.5
  0
POLYLINE
  5
1C5
  8
CUT
 62
     1
 66
     1
 10
0.0
 20
0.0
 30
0.0
 70
     1
  0
VERTEX
  5
3DC
  8
CUT
 62
     1
 10
-495.627558662402
 20
280.3070902892109
 30
0.0
  0
VERTEX
  5
3DD
  8
CUT
 62
     1
 10
-505.627558662386
 20
280.307108275244
 30
0.0
  0
VERTEX
  5
3DE
  8
CUT
 62
     1
 10
-505.6275532665763
 20
283.3071082752394
 30
0.0
  0
VERTEX
  5
3DF
  8
CUT
 62
     1
 10
-495.6275532665923
 20
283.3070902892057
 30
0.0
  0
SEQEND
  5
489
  8
CUT
 62
     1
  0
CIRCLE
  5
1C6
  8
CUT
 62
     1
 10
-419.3775261653327
 20
149.4582113953791
 30
0.0
 40
2.0
  0
POLYLINE
  5
1C7
  8
CUT
 62
     1
 66
     1
 10
0.0
 20
0.0
 30
0.0
 70
     1
  0
VERTEX
  5
3E0
  8
CUT
 62
     1
 10
-442.1276145324941
 20
280.3069902054795
 30
0.0
  0
VERTEX
  5
3E1
  8
CUT
 62
     1
 10
-452.127614532491
 20
280.3069979962554
 30
0.0
  0
VERTEX
  5
3E2
  8
CUT
 62
     1
 10
-452.1276121952585
 20
283.3069979962543
 30
0.0
  0
VERTEX
  5
3E3
  8
CUT
 62
     1
 10
-442.1276121952619
 20
283.3069902054785
 30
0.0
  0
SEQEND
  5
48A
  8
CUT
 62
     1
  0
CIRCLE
  5
1C8
  8
CUT
 62
     1
 10
-437.1424745638124
 20
288.8070642385492
 30
0.0
 40
4.0
  0
POLYLINE
  5
1C9
  8
CUT
 62
     1
 66
     1
 10
0.0
 20
0.0
 30
0.0
 70
     1
  0
VERTEX
  5
3E4
  8
CUT
 62
     1
 10
-482.1277012048636
 20
169.0570213686169
 30
0.0
  0
VERTEX
  5
3E5
  8
CUT
 62
     1
 10
-485.1277012048627
 20
169.0570237058496
 30
0.0
  0
VERTEX
  5
3E6
  8
CUT
 62
     1
 10
-485.1276934140867
 20
179.0570237058464
 30
0.0
  0
VERTEX
  5
3E7
  8
CUT
 62
     1
 10
-482.1276934140876
 20
179.0570213686137
 30
0.0
  0
SEQEND
  5
48B
  8
CUT
 62
     1
  0
CIRCLE
  5
1CA
  8
CUT
 62
     1
 10
-518.4885422992734
 20
196.1910310424037
 30
0.0
 40
1.5
  0
CIRCLE
  5
1CB
  8
CUT
 62
     1
 10
-567.2353169964463
 20
220.8071695332997
 30
0.0
 40
0.5
  0
CIRCLE
  5
1CC
  8
CUT
 62
     1
 10
-440.4126175203596
 20
245.2571818119036
 30
0.0
 40
1.5
  0
POLYLINE
  5
1CD
  8
CUT
 62
     1
 66
     1
 10
0.0
 20
0.0
 30
0.0
 70
     1
  0
VERTEX
  5
3E8
  8
CUT
 62
     1
 10
-485.1276647829854
 20
215.8070237058355
 30
0.0
  0
VERTEX
  5
3E9
  8
CUT
 62
     1
 10
-485.1276569922097
 20
225.8070237058323
 30
0.0
  0
VERTEX
  5
3EA
  8
CUT
 62
     1
 10
-482.1276569922104
 20
225.8070213685994
 30
0.0
  0
VERTEX
  5
3EB
  8
CUT
 62
     1
 10
-482.1276647829859
 20
215.8070213686024
 30
0.0
  0
SEQEND
  5
48C
  8
CUT
 62
     1
  0
CIRCLE
  5
1CE
  8
CUT
 62
     1
 10
-419.3775261653327
 20
170.1559002362724
 30
0.0
 40
1.5
  0
CIRCLE
  5
1CF
  8
CUT
 62
     1
 10
-474.2353692109555
 20
310.8071950893277
 30
0.0
 40
2.0
  0
POLYLINE
  5
1D0
  8
CUT
 62
     1
 66
     1
 10
0.0
 20
0.0
 30
0.0
 70
     1
  0
VERTEX
  5
3EC
  8
CUT
 62
     1
 10
-496.2170666922234
 20
251.0258360864254
 30
0.0
  0
VERTEX
  5
3ED
  8
CUT
 62
     1
 10
-503.6069884303918
 20
251.0258418437479
 30
0.0
  0
VERTEX
  5
3EE
  8
CUT
 62
     1
 10
-505.6069884303915
 20
251.0258434019029
 30
0.0
 42
-0.9999999999999999
  0
VERTEX
  5
3EF
  8
CUT
 62
     1
 10
-505.6069806396158
 20
261.0258434019001
 30
0.0
  0
VERTEX
  5
3F0
  8
CUT
 62
     1
 10
-503.6069806396165
 20
261.0258418437445
 30
0.0
  0
VERTEX
  5
3F1
  8
CUT
 62
     1
 10
-496.2170589014477
 20
261.0258360864223
 30
0.0
 42
-0.999999999999994
  0
SEQEND
  5
48D
  8
CUT
 62
     1
  0
CIRCLE
  5
1D1
  8
CUT
 62
     1
 10
-419.3775261653327
 20
292.1558190443741
 30
0.0
 40
2.0
  0
CIRCLE
  5
1D2
  8
BUMPED
 62
     1
 10
-564.2353446490761
 20
224.5571734489931
 30
0.0
 40
0.9999999999999999
  0
POLYLINE
  5
1D3
  8
CUT
 62
     1
 66
     1
 10
0.0
 20
0.0
 30
0.0
 70
     1
  0
VERTEX
  5
3F2
  8
CUT
 62
     1
 10
-485.1276439426604
 20
242.5570237058273
 30
0.0
  0
VERTEX
  5
3F3
  8
CUT
 62
     1
 10
-485.1276361518844
 20
252.5570237058246
 30
0.0
  0
VERTEX
  5
3F4
  8
CUT
 62
     1
 10
-482.1276361518851
 20
252.5570213685917
 30
0.0
  0
VERTEX
  5
3F5
  8
CUT
 62
     1
 10
-482.1276439426611
 20
242.5570213685949
 30
0.0
  0
SEQEND
  5
48E
  8
CUT
 62
     1
  0
POLYLINE
  5
1D4
  8
CUT
 62
     1
 66
     1
 10
0.0
 20
0.0
 30
0.0
 70
     1
  0
VERTEX
  5
3F6
  8
CUT
 62
     1
 10
-505.6276506513634
 20
158.3069932885051
 30
0.0
  0
VERTEX
  5
3F7
  8
CUT
 62
     1
 10
-505.627651372708
 20
161.3069932885051
 30
0.0
  0
VERTEX
  5
3F8
  8
CUT
 62
     1
 10
-495.627651372708
 20
161.3069956929869
 30
0.0
  0
VERTEX
  5
3F9
  8
CUT
 62
     1
 10
-495.6276506513636
 20
158.3069956929869
 30
0.0
  0
SEQEND
  5
48F
  8
CUT
 62
     1
  0
POLYLINE
  5
1D5
  8
CUT
 62
     1
 66
     1
 10
0.0
 20
0.0
 30
0.0
 70
     1
  0
VERTEX
  5
3FA
  8
CUT
 62
     1
 10
-478.8776145324832
 20
280.3070188365805
 30
0.0
  0
VERTEX
  5
3FB
  8
CUT
 62
     1
 10
-478.8776121952505
 20
283.3070188365798
 30
0.0
  0
VERTEX
  5
3FC
  8
CUT
 62
     1
 10
-468.8776121952537
 20
283.3070110458038
 30
0.0
  0
VERTEX
  5
3FD
  8
CUT
 62
     1
 10
-468.8776145324862
 20
280.3070110458048
 30
0.0
  0
SEQEND
  5
490
  8
CUT
 62
     1
  0
POLYLINE
  5
1D6
  8
CUT
 62
     1
 66
     1
 10
0.0
 20
0.0
 30
0.0
 70
     1
  0
VERTEX
  5
3FE
  8
CUT
 62
     1
 10
-478.8777095799483
 20
158.3070188366178
 30
0.0
  0
VERTEX
  5
3FF
  8
CUT
 62
     1
 10
-478.8777072427156
 20
161.3070188366169
 30
0.0
  0
VERTEX
  5
400
  8
CUT
 62
     1
 10
-468.8777072427183
 20
161.3070110458411
 30
0.0
  0
VERTEX
  5
401
  8
CUT
 62
     1
 10
-468.877709579951
 20
158.307011045842
 30
0.0
  0
SEQEND
  5
491
  8
CUT
 62
     1
  0
CIRCLE
  5
1D7
  8
CUT
 62
     1
 10
-460.4626057504152
 20
196.3071973814349
 30
0.0
 40
1.5
  0
CIRCLE
  5
1D8
  8
CUT
 62
     1
 10
-460.4126175203533
 20
245.2571973934555
 30
0.0
 40
1.5
  0
POLYLINE
  5
1D9
  8
CUT
 62
     1
 66
     1
 10
0.0
 20
0.0
 30
0.0
 70
     1
  0
VERTEX
  5
402
  8
CUT
 62
     1
 10
-496.2171215684471
 20
180.588404828567
 30
0.0
  0
VERTEX
  5
403
  8
CUT
 62
     1
 10
-503.6070433066157
 20
180.5884105858893
 30
0.0
  0
VERTEX
  5
404
  8
CUT
 62
     1
 10
-505.6070433066152
 20
180.5884121440445
 30
0.0
 42
-0.9999999999999999
  0
VERTEX
  5
405
  8
CUT
 62
     1
 10
-505.6070355158392
 20
190.5884121440413
 30
0.0
  0
VERTEX
  5
406
  8
CUT
 62
     1
 10
-503.6070355158399
 20
190.5884105858859
 30
0.0
  0
VERTEX
  5
407
  8
CUT
 62
     1
 10
-496.2171137776713
 20
190.5884048285639
 30
0.0
 42
-0.999999999999994
  0
SEQEND
  5
492
  8
CUT
 62
     1
  0
POLYLINE
  5
1DA
  8
CUT
 62
     1
 66
     1
 10
0.0
 20
0.0
 30
0.0
 70
     1
  0
VERTEX
  5
408
  8
CUT
 62
     1
 10
-432.1277095799628
 20
158.306982414741
 30
0.0
  0
VERTEX
  5
409
  8
CUT
 62
     1
 10
-432.1277072427297
 20
161.3069824147401
 30
0.0
  0
VERTEX
  5
40A
  8
CUT
 62
     1
 10
-422.1277072427324
 20
161.3069746239639
 30
0.0
  0
VERTEX
  5
40B
  8
CUT
 62
     1
 10
-422.1277095799655
 20
158.3069746239648
 30
0.0
  0
SEQEND
  5
493
  8
CUT
 62
     1
  0
CIRCLE
  5
1DB
  8
BUMPED
 62
     1
 10
-522.2353446490888
 20
224.5571407277348
 30
0.0
 40
0.9999999999999999
  0
CIRCLE
  5
1DC
  8
CUT
 62
     1
 10
-419.3775261653327
 20
271.4581302034808
 30
0.0
 40
1.5
  0
CIRCLE
  5
1DD
  8
BUMPED
 62
     1
 10
-564.235350492158
 20
217.0571734489954
 30
0.0
 40
0.9999999999999999
  0
POLYLINE
  5
1DE
  8
CUT
 62
     1
 66
     1
 10
0.0
 20
0.0
 30
0.0
 70
     1
  0
VERTEX
  5
40C
  8
CUT
 62
     1
 10
-482.1276283611096
 20
262.5570213685885
 30
0.0
  0
VERTEX
  5
40D
  8
CUT
 62
     1
 10
-485.1276283611087
 20
262.5570237058214
 30
0.0
  0
VERTEX
  5
40E
  8
CUT
 62
     1
 10
-485.1276205703327
 20
272.5570237058182
 30
0.0
  0
VERTEX
  5
40F
  8
CUT
 62
     1
 10
-482.1276205703334
 20
272.5570213685853
 30
0.0
  0
SEQEND
  5
494
  8
CUT
 62
     1
  0
POLYLINE
  5
1DF
  8
CUT
 62
     1
 66
     1
 10
0.0
 20
0.0
 30
0.0
 70
     1
  0
VERTEX
  5
410
  8
CUT
 62
     1
 10
-482.1276856233117
 20
189.0570213686105
 30
0.0
  0
VERTEX
  5
411
  8
CUT
 62
     1
 10
-485.1276856233108
 20
189.0570237058432
 30
0.0
  0
VERTEX
  5
412
  8
CUT
 62
     1
 10
-485.127677832535
 20
199.05702370584
 30
0.0
  0
VERTEX
  5
413
  8
CUT
 62
     1
 10
-482.1276778325357
 20
199.0570213686074
 30
0.0
  0
SEQEND
  5
495
  8
CUT
 62
     1
  0
POLYLINE
  5
1E0
  8
CUT
 62
     1
 66
     1
 10
0.0
 20
0.0
 30
0.0
 70
     1
  0
VERTEX
  5
414
  8
CUT
 62
     1
 10
-515.6276145324721
 20
280.307047467682
 30
0.0
  0
VERTEX
  5
415
  8
CUT
 62
     1
 10
-525.6276145324687
 20
280.3070552584581
 30
0.0
  0
VERTEX
  5
416
  8
CUT
 62
     1
 10
-525.6276121952365
 20
283.307055258457
 30
0.0
  0
VERTEX
  5
417
  8
CUT
 62
     1
 10
-515.6276121952392
 20
283.3070474676811
 30
0.0
  0
SEQEND
  5
496
  8
CUT
 62
     1
  0
CIRCLE
  5
1E1
  8
BUMPED
 62
     1
 10
-522.2353504921707
 20
217.0571407277371
 30
0.0
 40
0.9999999999999999
  0
CIRCLE
  5
1E2
  8
CUT
 62
     1
 10
-498.4626175323795
 20
245.3071678538868
 30
0.0
 40
1.5
  0
CIRCLE
  5
1E3
  8
CUT
 62
     1
 10
-518.4885540812338
 20
245.1910310424023
 30
0.0
 40
1.5
  0
CIRCLE
  5
1E4
  8
CUT
 62
     1
 10
-440.4626057504211
 20
196.307181799883
 30
0.0
 40
1.5
  0
POLYLINE
  5
1E5
  8
CUT
 62
     1
 66
     1
 10
0.0
 20
0.0
 30
0.0
 70
     1
  0
VERTEX
  5
418
  8
CUT
 62
     1
 10
-525.6277095799337
 20
158.307055258495
 30
0.0
  0
VERTEX
  5
419
  8
CUT
 62
     1
 10
-525.627707242701
 20
161.3070552584938
 30
0.0
  0
VERTEX
  5
41A
  8
CUT
 62
     1
 10
-515.6277072427042
 20
161.3070474677179
 30
0.0
  0
VERTEX
  5
41B
  8
CUT
 62
     1
 10
-515.6277095799369
 20
158.307047467719
 30
0.0
  0
SEQEND
  5
497
  8
CUT
 62
     1
  0
CIRCLE
  5
1E6
  8
CUT
 62
     1
 10
-514.4199662231797
 20
220.8071244436896
 30
0.0
 40
1.5
  0
POLYLINE
  5
1E7
  8
CUT
 62
     1
 66
     1
 10
0.0
 20
0.0
 30
0.0
 70
     1
  0
VERTEX
  5
41C
  8
CUT
 62
     1
 10
-442.1277095799594
 20
158.3069902055167
 30
0.0
  0
VERTEX
  5
41D
  8
CUT
 62
     1
 10
-452.127709579956
 20
158.3069979962925
 30
0.0
  0
VERTEX
  5
41E
  8
CUT
 62
     1
 10
-452.1277072427238
 20
161.3069979962916
 30
0.0
  0
VERTEX
  5
41F
  8
CUT
 62
     1
 10
-442.127707242727
 20
161.3069902055158
 30
0.0
  0
SEQEND
  5
498
  8
CUT
 62
     1
  0
CIRCLE
  5
1E8
  8
CUT
 62
     1
 10
-437.142580518364
 20
152.8070642385906
 30
0.0
 40
4.0
  0
POLYLINE
  5
1E9
  8
CUT
 62
     1
 66
     1
 10
0.0
 20
0.0
 30
0.0
 70
     1
  0
VERTEX
  5
420
  8
CUT
 62
     1
 10
-550.1963948248928
 20
193.9179430804105
 30
0.0
  0
VERTEX
  5
421
  8
CUT
 62
     1
 10
-546.1963948248928
 20
193.9179430804105
 30
0.0
  0
VERTEX
  5
422
  8
CUT
 62
     1
 10
-546.1963948248928
 20
196.9179430804105
 30
0.0
  0
VERTEX
  5
423
  8
CUT
 62
     1
 10
-550.1963948248928
 20
196.9179430804105
 30
0.0
  0
SEQEND
  5
499
  8
CUT
 62
     1
  0
POLYLINE
  5
1EA
  8
CUT
 62
     1
 66
     1
 10
0.0
 20
0.0
 30
0.0
 70
     1
  0
VERTEX
  5
424
  8
CUT
 62
     1
 10
-550.1830579858367
 20
244.697127520148
 30
0.0
  0
VERTEX
  5
425
  8
CUT
 62
     1
 10
-546.1813837997488
 20
244.697127520148
 30
0.0
  0
VERTEX
  5
426
  8
CUT
 62
     1
 10
-546.1813837997488
 20
247.6948939734258
 30
0.0
  0
VERTEX
  5
427
  8
CUT
 62
     1
 10
-550.1830579858367
 20
247.6948939734258
 30
0.0
  0
SEQEND
  5
49A
  8
CUT
 62
     1
  0
CIRCLE
  5
1EB
  8
CUT
 62
     1
 10
-549.0687116307217
 20
170.8070152198768
 30
0.0
 40
2.0
  0
CIRCLE
  5
1EC
  8
CUT
 62
     1
 10
-549.0687116307217
 20
270.8070152198768
 30
0.0
 40
2.0
  0
LINE
  5
1ED
  8
0
 62
     1
 10
-560.7353536084695
 20
213.3071707222252
 30
0.0
 11
-543.4853419223107
 21
213.3071574779065
 31
0.0
  0
ARC
  5
1EE
  8
0
 62
     1
 10
-525.7353532189411
 20
213.8071434545095
 30
0.0
 40
0.5
 50
269.9999553621873
 51
359.9999553621874
  0
ARC
  5
1EF
  8
0
 62
     1
 10
-560.7353423118445
 20
213.8071715013034
 30
0.0
 40
0.5
 50
180.0000446378646
 51
270.0000446379167
  0
ARC
  5
1F0
  8
0
 62
     1
 10
-525.7353423118552
 20
227.8071434545063
 30
0.0
 40
0.5
 50
359.9999553621874
 51
89.9999553621093
  0
LINE
  5
1F1
  8
0
 62
     1
 10
-542.9853419223111
 20
228.3071566988247
 30
0.0
 11
-525.7353419223161
 21
228.3071434545054
 31
0.0
  0
LINE
  5
1F2
  8
0
 62
     1
 10
-525.2353477653983
 20
220.3071430649698
 30
0.0
 11
-525.2353532189411
 21
213.8071430649716
 31
0.0
  0
POLYLINE
  5
1F3
  8
0
 62
     1
 66
     1
 10
0.0
 20
0.0
 30
0.0
  0
VERTEX
  5
428
  8
0
 62
     1
 10
-525.2353473758592
 20
221.3071430649684
 30
0.0
  0
VERTEX
  5
429
  8
0
 62
     1
 10
-525.2353423118554
 20
227.8071430649675
 30
0.0
  0
SEQEND
  5
49B
  8
0
 62
     1
  0
LINE
  5
1F4
  8
0
 62
     1
 10
-542.9853419223111
 20
213.3071566988283
 30
0.0
 11
-525.73535360848
 21
213.3071434545104
 31
0.0
  0
LINE
  5
1F5
  8
0
 62
     1
 10
-560.7353419223052
 20
228.3071707222216
 30
0.0
 11
-543.4853419223107
 21
228.3071574779024
 31
0.0
  0
LINE
  5
1F6
  8
0
 62
     1
 10
-561.2353477653874
 20
220.3071711117627
 30
0.0
 11
-561.2353532189302
 21
213.8071711117645
 31
0.0
  0
ARC
  5
1F7
  8
0
 62
     1
 10
-560.7353423118445
 20
227.8071707222216
 30
0.0
 40
0.5
 50
89.99995536208324
 51
179.9999553621354
  0
POLYLINE
  5
1F8
  8
0
 62
     1
 66
     1
 10
0.0
 20
0.0
 30
0.0
  0
VERTEX
  5
42A
  8
0
 62
     1
 10
-561.2353473758483
 20
221.3071711117618
 30
0.0
  0
VERTEX
  5
42B
  8
0
 62
     1
 10
-561.2353423118445
 20
227.8071711117605
 30
0.0
  0
SEQEND
  5
49C
  8
0
 62
     1
  0
ENDBLK
  5
1F9
  8
0
  0
BLOCK
  8
0
  2
BUMPER_TOP
 70
     0
 10
0.0
 20
0.0
 30
0.0
  3
BUMPER_TOP
  1

  0
POLYLINE
  5
1FD
  8
CUT
 62
     1
 66
     1
 10
0.0
 20
0.0
 30
0.0
 70
     1
  0
VERTEX
  5
42C
  8
CUT
 62
     1
 10
-497.2989047116255
 20
44.05412305285832
 30
0.0
  0
VERTEX
  5
42D
  8
CUT
 62
     1
 10
-498.1520205731526
 20
43.93902833322473
 30
0.0
  0
VERTEX
  5
42E
  8
CUT
 62
     1
 10
-498.9723516705541
 20
43.59816719985366
 30
0.0
  0
VERTEX
  5
42F
  8
CUT
 62
     1
 10
-499.7283731398038
 20
43.04463875494342
 30
0.0
  0
VERTEX
  5
430
  8
CUT
 62
     1
 10
-500.3910314998202
 20
42.29971478620958
 30
0.0
  0
VERTEX
  5
431
  8
CUT
 62
     1
 10
-500.934861161451
 20
41.3920223040124
 30
0.0
  0
VERTEX
  5
432
  8
CUT
 62
     1
 10
-501.3389630557828
 20
40.35644342140291
 30
0.0
  0
VERTEX
  5
433
  8
CUT
 62
     1
 10
-501.5878077736396
 20
39.23277485408049
 30
0.0
  0
VERTEX
  5
434
  8
CUT
 62
     1
 10
-501.6718323520676
 20
38.06419855492672
 30
0.0
  0
VERTEX
  5
435
  8
CUT
 62
     1
 10
-501.5878077736396
 20
36.89562225577295
 30
0.0
  0
VERTEX
  5
436
  8
CUT
 62
     1
 10
-501.3389630557828
 20
35.77195368845052
 30
0.0
  0
VERTEX
  5
437
  8
CUT
 62
     1
 10
-500.934861161451
 20
34.73637480584104
 30
0.0
  0
VERTEX
  5
438
  8
CUT
 62
     1
 10
-500.3910314998202
 20
33.82868232364386
 30
0.0
  0
VERTEX
  5
439
  8
CUT
 62
     1
 10
-499.7283731398038
 20
33.08375835491002
 30
0.0
  0
VERTEX
  5
43A
  8
CUT
 62
     1
 10
-498.9723516705541
 20
32.53022990999978
 30
0.0
  0
VERTEX
  5
43B
  8
CUT
 62
     1
 10
-498.1520205731526
 20
32.1893687766287
 30
0.0
  0
VERTEX
  5
43C
  8
CUT
 62
     1
 10
-497.2989047116255
 20
32.07427405699512
 30
0.0
  0
VERTEX
  5
43D
  8
CUT
 62
     1
 10
-496.4457888500984
 20
32.1893687766287
 30
0.0
  0
VERTEX
  5
43E
  8
CUT
 62
     1
 10
-495.6254577526969
 20
32.53022990999978
 30
0.0
  0
VERTEX
  5
43F
  8
CUT
 62
     1
 10
-494.8694362834472
 20
33.08375835491002
 30
0.0
  0
VERTEX
  5
440
  8
CUT
 62
     1
 10
-494.2067779234308
 20
33.82868232364387
 30
0.0
  0
VERTEX
  5
441
  8
CUT
 62
     1
 10
-493.6629482618
 20
34.73637480584105
 30
0.0
  0
VERTEX
  5
442
  8
CUT
 62
     1
 10
-493.2588463674681
 20
35.77195368845053
 30
0.0
  0
VERTEX
  5
443
  8
CUT
 62
     1
 10
-493.0100016496114
 20
36.89562225577296
 30
0.0
  0
VERTEX
  5
444
  8
CUT
 62
     1
 10
-492.9259770711834
 20
38.06419855492673
 30
0.0
  0
VERTEX
  5
445
  8
CUT
 62
     1
 10
-493.0100016496114
 20
39.2327748540805
 30
0.0
  0
VERTEX
  5
446
  8
CUT
 62
     1
 10
-493.2588463674682
 20
40.35644342140294
 30
0.0
  0
VERTEX
  5
447
  8
CUT
 62
     1
 10
-493.6629482618
 20
41.39202230401241
 30
0.0
  0
VERTEX
  5
448
  8
CUT
 62
     1
 10
-494.2067779234308
 20
42.29971478620959
 30
0.0
  0
VERTEX
  5
449
  8
CUT
 62
     1
 10
-494.8694362834472
 20
43.04463875494343
 30
0.0
  0
VERTEX
  5
44A
  8
CUT
 62
     1
 10
-495.6254577526969
 20
43.59816719985367
 30
0.0
  0
VERTEX
  5
44B
  8
CUT
 62
     1
 10
-496.4457888500984
 20
43.93902833322474
 30
0.0
  0
SEQEND
  5
49D
  8
CUT
 62
     1
  0
POLYLINE
  5
1FE
  8
CUT
 62
     1
 66
     1
 10
0.0
 20
0.0
 30
0.0
 70
     1
  0
VERTEX
  5
44C
  8
CUT
 62
     1
 10
-526.269171944285
 20
39.76587351334859
 30
0.0
 42
-0.9999999999999503
  0
VERTEX
  5
44D
  8
CUT
 62
     1
 10
-528.2638814971593
 20
39.62049882616952
 30
0.0
 42
-0.999999999999936
  0
SEQEND
  5
49E
  8
CUT
 62
     1
  0
POLYLINE
  5
1FF
  8
CUT
 62
     1
 66
     1
 10
0.0
 20
0.0
 30
0.0
 70
     1
  0
VERTEX
  5
44E
  8
CUT
 62
     1
 10
-466.2621159734769
 20
39.76587351334859
 30
0.0
 42
-0.9999999999999998
  0
VERTEX
  5
44F
  8
CUT
 62
     1
 10
-468.2568255263511
 20
39.62049882616952
 30
0.0
 42
-0.9999999999999998
  0
SEQEND
  5
49F
  8
CUT
 62
     1
  0
ARC
  5
200
  8
CUT
 62
     5
 10
-499.2510345766529
 20
170.7801680375008
 30
0.0
 40
142.7458944405624
 50
246.0446581718236
 51
270.7981198468523
  0
ARC
  5
201
  8
CUT
 62
     5
 10
-495.2798161858525
 20
170.7802445780902
 30
0.0
 40
142.7458944405607
 50
269.204088771461
 51
293.9575504464967
  0
ARC
  5
202
  8
CUT
 62
     5
 10
-439.3998852507409
 20
44.87765626919836
 30
0.0
 40
5.000000000012756
 50
294.6254627408768
 51
33.53908935024558
  0
LINE
  5
203
  8
CUT
 62
     5
 10
-435.2323398721259
 20
47.64018509571082
 30
0.0
 11
-437.2639323526128
 21
50.70504138681162
 31
0.0
  0
ARC
  5
204
  8
CUT
 62
     5
 10
-440.6250768129767
 20
45.95420358776938
 30
0.0
 40
5.819600662953029
 50
54.72118223272395
 51
107.9145201677265
  0
LINE
  5
205
  8
CUT
 62
     5
 10
-442.4151729729264
 20
51.49164953462758
 30
0.0
 11
-457.7627946259472
 21
47.93705178139152
 31
0.0
  0
ARC
  5
206
  8
CUT
 62
     5
 10
-458.1335281403146
 20
49.39051545873
 30
0.0
 40
1.50000000000584
 50
221.9696643077875
 51
284.3092633620695
  0
ARC
  5
207
  8
CUT
 62
     5
 10
-460.2477313323217
 20
47.39900746118169
 30
0.0
 40
1.405293505302649
 50
44.69577942613672
 51
95.28685824096735
  0
ARC
  5
208
  8
CUT
 62
     5
 10
-497.2712850756514
 20
655.8347626664797
 30
0.0
 40
608.1565683948035
 50
266.5219925305129
 51
273.4780074694873
  0
ARC
  5
209
  8
CUT
 62
     5
 10
-534.2783633459316
 20
47.39758060721084
 30
0.0
 40
1.405293505417884
 50
85.38738810499804
 51
135.3064291910945
  0
ARC
  5
20A
  8
CUT
 62
     5
 10
-536.3926433044077
 20
49.38900710579034
 30
0.0
 40
1.500000000006033
 50
255.6929452562358
 51
318.0325443105417
  0
LINE
  5
20B
  8
CUT
 62
     5
 10
-536.7633207908741
 20
47.93552913862158
 30
0.0
 11
-552.1110794539231
 21
51.48953527429239
 31
0.0
  0
ARC
  5
20C
  8
CUT
 62
     5
 10
-553.9009621569512
 20
45.95202032752771
 30
0.0
 40
5.819600662952848
 50
72.08768845058542
 51
125.2810263855885
  0
LINE
  5
20D
  8
CUT
 62
     5
 10
-557.2622897485049
 20
50.7027285587813
 30
0.0
 11
-559.2937640844398
 21
47.63779395681848
 31
0.0
  0
ARC
  5
20E
  8
CUT
 62
     5
 10
-555.1261122198953
 20
44.87542578148702
 30
0.0
 40
5.000000000012546
 50
146.4631192680674
 51
245.3767458776372
  0
ENDBLK
  5
20F
  8
0
  0
ENDSEC
  0
SECTION
  2
ENTITIES
  0
POLYLINE
  5
22E
  8
CUT
 62
     5
 66
     1
 10
0.0
 20
0.0
 30
0.0
  0
VERTEX
  5
254
  8
CUT
 62
     5
 10
273.0190461596466
 20
168.9423281250386
 30
0.0
  0
VERTEX
  5
255
  8
CUT
 62
     5
 10
273.019046159643
 20
131.2040500213555
 30
0.0
 42
-0.2316946133046168
  0
VERTEX
  5
256
  8
CUT
 62
     5
 10
271.4717893405777
 20
128.04429514346
 30
0.0
 42
0.2297173057858225
  0
VERTEX
  5
257
  8
CUT
 62
     5
 10
262.3069170019025
 20
109.5046786281512
 30
0.0
 42
0.2297173057858223
  0
VERTEX
  5
258
  8
CUT
 62
     5
 10
271.4717893405777
 20
90.9650621128424
 30
0.0
 42
-0.2316946133046172
  0
VERTEX
  5
259
  8
CUT
 62
     5
 10
273.019046159643
 20
87.80530723494603
 30
0.0
  0
VERTEX
  5
25A
  8
CUT
 62
     5
 10
273.0190461596466
 20
49.9423281250386
 30
0.0
  0
VERTEX
  5
25B
  8
CUT
 62
     5
 10
267.670973543838
 20
49.9423281250386
 30
0.0
  0
VERTEX
  5
25C
  8
CUT
 62
     5
 10
267.670973543838
 20
46.9423281250386
 30
0.0
  0
VERTEX
  5
25D
  8
CUT
 62
     5
 10
261.670973543838
 20
46.9423281250386
 30
0.0
  0
VERTEX
  5
25E
  8
CUT
 62
     5
 10
261.670973543838
 20
49.9423281250386
 30
0.0
  0
VERTEX
  5
25F
  8
CUT
 62
     5
 10
251.4582258036907
 20
49.9423281250386
 30
0.0
  0
VERTEX
  5
260
  8
CUT
 62
     5
 10
251.4582258036907
 20
46.9423281250386
 30
0.0
  0
VERTEX
  5
261
  8
CUT
 62
     5
 10
245.4582258036907
 20
46.9423281250386
 30
0.0
  0
VERTEX
  5
262
  8
CUT
 62
     5
 10
245.4582258036907
 20
49.9423281250386
 30
0.0
  0
VERTEX
  5
263
  8
CUT
 62
     5
 10
231.7990461596491
 20
49.9423281250386
 30
0.0
  0
VERTEX
  5
264
  8
CUT
 62
     5
 10
225.4039521223821
 20
49.9423281250386
 30
0.0
  0
VERTEX
  5
265
  8
CUT
 62
     5
 10
225.4039521223821
 20
46.9423281250386
 30
0.0
  0
VERTEX
  5
266
  8
CUT
 62
     5
 10
222.4039521223821
 20
46.9423281250386
 30
0.0
  0
VERTEX
  5
267
  8
CUT
 62
     5
 10
222.4039521223821
 20
49.9423281250386
 30
0.0
  0
VERTEX
  5
268
  8
CUT
 62
     5
 10
220.018496143135
 20
49.9423281250386
 30
0.0
  0
VERTEX
  5
269
  8
CUT
 62
     5
 10
220.018496143135
 20
85.82436488719058
 30
0.0
 42
-0.1141649934503095
  0
VERTEX
  5
26A
  8
CUT
 62
     5
 10
221.0428268289451
 20
86.2715149164308
 30
0.0
 42
0.6697097235311059
  0
VERTEX
  5
26B
  8
CUT
 62
     5
 10
220.7176361951696
 20
132.5200590104326
 30
0.0
 42
-0.0789915334879435
  0
VERTEX
  5
26C
  8
CUT
 62
     5
 10
220.018496143135
 20
132.8932461254356
 30
0.0
  0
VERTEX
  5
26D
  8
CUT
 62
     5
 10
220.018496143135
 20
168.9423281250386
 30
0.0
  0
VERTEX
  5
26E
  8
CUT
 62
     5
 10
222.403952118615
 20
168.9421940246814
 30
0.0
  0
VERTEX
  5
26F
  8
CUT
 62
     5
 10
222.4041207660666
 20
171.9421940199412
 30
0.0
  0
VERTEX
  5
270
  8
CUT
 62
     5
 10
225.4041207613245
 20
171.9420253724896
 30
0.0
  0
VERTEX
  5
271
  8
CUT
 62
     5
 10
225.4039521138747
 20
168.9420253772317
 30
0.0
  0
VERTEX
  5
272
  8
CUT
 62
     5
 10
231.7990461410336
 20
168.9416658717949
 30
0.0
  0
VERTEX
  5
273
  8
CUT
 62
     5
 10
245.4582257634901
 20
168.9408980098509
 30
0.0
  0
VERTEX
  5
274
  8
CUT
 62
     5
 10
245.4583944109435
 20
171.9408980051106
 30
0.0
  0
VERTEX
  5
275
  8
CUT
 62
     5
 10
251.4583944014611
 20
171.9405607102092
 30
0.0
  0
VERTEX
  5
276
  8
CUT
 62
     5
 10
251.4582257540114
 20
168.9405607149495
 30
0.0
  0
VERTEX
  5
277
  8
CUT
 62
     5
 10
261.6709734780215
 20
168.9399865969911
 30
0.0
  0
VERTEX
  5
278
  8
CUT
 62
     5
 10
261.6711421254731
 20
171.9399865922499
 30
0.0
  0
VERTEX
  5
279
  8
CUT
 62
     5
 10
267.6711421159925
 20
171.9396492973486
 30
0.0
  0
VERTEX
  5
27A
  8
CUT
 62
     5
 10
267.6709734685409
 20
168.9396493020889
 30
0.0
  0
VERTEX
  5
27B
  8
CUT
 62
     5
 10
273.0190460759022
 20
168.9393486558168
 30
0.0
  0
SEQEND
  5
450
  8
CUT
 62
     5
  0
INSERT
  5
22F
  8
CUT
 62
     4
  2
BOTTOM
 10
258.0725236941934
 20
1138.933693473204
 30
0.0
 50
90.0
  0
INSERT
  5
230
  8
CUT
 62
     4
  2
MOTORBRACKET
 10
319.1608518886614
 20
578.1828885896632
 30
0.0
 50
89.84187544334183
  0
INSERT
  5
231
  8
CUT
 62
     4
  2
BUMPER
 10
328.9687361021642
 20
579.851192668156
 30
0.0
 50
90.0
  0
INSERT
  5
232
  8
CUT
 62
     4
  2
CASTERTOP
 10
329.7684185138723
 20
583.1080918127918
 30
0.0
 50
90.0
  0
INSERT
  5
233
  8
CUT
 62
     4
  2
BUMPERSTOPPER
 10
413.5185822153571
 20
501.5882329556146
 30
0.0
 50
90.0
  0
INSERT
  5
234
  8
CUT
 62
     4
  2
CASTERBOTTOM
 10
140.3553421865926
 20
-217.1042928250317
 30
0.0
 50
270.0
  0
INSERT
  5
235
  8
CUT
 62
     4
  2
STRUT
 10
3065.438629186946
 20
-1313.125591976704
 30
0.0
 41
-1.0
 50
347.5422385551528
  0
INSERT
  5
236
  8
CUT
 62
     4
  2
IRSPACER
 10
802.1668124766337
 20
-4141.948357217589
 30
0.0
 50
90.07578011281466
  0
INSERT
  5
237
  8
CUT
 62
     4
  2
TOP
 10
330.0430530272342
 20
581.3182819305091
 30
0.0
 50
90.0
  0
INSERT
  5
238
  8
CUT
 62
     4
  2
BUMPER_TOP
 10
353.8904148073897
 20
723.2878661851187
 30
0.0
 50
81.73550591534145
  0
CIRCLE
  5
239
  8
0
 62
     1
 10
222.603242430343
 20
103.9798705649649
 30
0.0
 40
1.5
  0
CIRCLE
  5
23A
  8
0
 62
     1
 10
222.603242430343
 20
113.9798705649649
 30
0.0
 40
1.5
  0
POLYLINE
  5
23B
  8
0
 62
     5
 66
     1
 10
0.0
 20
0.0
 30
0.0
 70
     1
  0
VERTEX
  5
27C
  8
0
 62
     5
 10
217.603242430343
 20
93.97987056496486
 30
0.0
 42
0.414213562373095
  0
VERTEX
  5
27D
  8
0
 62
     5
 10
227.603242430343
 20
103.9798705649646
 30
0.0
  0
VERTEX
  5
27E
  8
0
 62
     5
 10
227.603242430343
 20
113.9798705649646
 30
0.0
 42
0.414213562373095
  0
VERTEX
  5
27F
  8
0
 62
     5
 10
217.603242430343
 20
123.9798705649649
 30
0.0
  0
SEQEND
  5
451
  8
0
 62
     5
  0
CIRCLE
  5
23C
  8
0
 62
     1
 10
20.86108655081618
 20
14.64962090553358
 30
0.0
 40
1.5
  0
CIRCLE
  5
23D
  8
0
 62
     1
 10
30.86108655081618
 20
14.64962090553358
 30
0.0
 40
1.5
  0
POLYLINE
  5
23E
  8
0
 62
     5
 66
     1
 10
0.0
 20
0.0
 30
0.0
 70
     1
  0
VERTEX
  5
280
  8
0
 62
     5
 10
24.36108655081618
 20
14.64962090553358
 30
0.0
  0
VERTEX
  5
281
  8
0
 62
     5
 10
24.36108655081618
 20
19.64962090553358
 30
0.0
  0
VERTEX
  5
282
  8
0
 62
     5
 10
10.86108655081618
 20
19.64962090553358
 30
0.0
 42
0.414213562373095
  0
VERTEX
  5
283
  8
0
 62
     5
 10
20.86108655081618
 20
9.649620905533585
 30
0.0
  0
VERTEX
  5
284
  8
0
 62
     5
 10
30.86108655081618
 20
9.649620905533585
 30
0.0
 42
0.414213562373095
  0
VERTEX
  5
285
  8
0
 62
     5
 10
40.86108655081618
 20
19.64962090553358
 30
0.0
  0
VERTEX
  5
286
  8
0
 62
     5
 10
27.36108655081618
 20
19.64962090553358
 30
0.0
  0
VERTEX
  5
287
  8
0
 62
     5
 10
27.36108655081618
 20
14.64962090553358
 30
0.0
  0
SEQEND
  5
452
  8
0
 62
     5
  0
CIRCLE
  5
23F
  8
0
 62
     1
 10
59.90600046254069
 20
348.4346988186126
 30
0.0
 40
1.5
  0
CIRCLE
  5
240
  8
0
 62
     1
 10
69.90600046254069
 20
348.4346988186126
 30
0.0
 40
1.5
  0
POLYLINE
  5
241
  8
0
 62
     5
 66
     1
 10
0.0
 20
0.0
 30
0.0
 70
     1
  0
VERTEX
  5
288
  8
0
 62
     5
 10
49.90600046254069
 20
353.4346988186126
 30
0.0
 42
0.414213562373095
  0
VERTEX
  5
289
  8
0
 62
     5
 10
59.90600046254069
 20
343.4346988186126
 30
0.0
  0
VERTEX
  5
28A
  8
0
 62
     5
 10
69.90600046254069
 20
343.4346988186126
 30
0.0
 42
0.414213562373095
  0
VERTEX
  5
28B
  8
0
 62
     5
 10
79.90600046254069
 20
353.4346988186126
 30
0.0
  0
SEQEND
  5
453
  8
0
 62
     5
  0
CIRCLE
  5
242
  8
0
 62
     1
 10
30.45950617000646
 20
29.10863915428836
 30
0.0
 40
1.5
  0
CIRCLE
  5
243
  8
0
 62
     1
 10
20.45950617000646
 20
29.10863915428836
 30
0.0
 40
1.5
  0
POLYLINE
  5
244
  8
0
 62
     5
 66
     1
 10
0.0
 20
0.0
 30
0.0
 70
     1
  0
VERTEX
  5
28C
  8
0
 62
     5
 10
26.95950617000646
 20
29.10863915428836
 30
0.0
  0
VERTEX
  5
28D
  8
0
 62
     5
 10
26.95950617000646
 20
24.10863915428836
 30
0.0
  0
VERTEX
  5
28E
  8
0
 62
     5
 10
40.45950617000646
 20
24.10863915428836
 30
0.0
 42
0.414213562373095
  0
VERTEX
  5
28F
  8
0
 62
     5
 10
30.45950617000646
 20
34.10863915428835
 30
0.0
  0
VERTEX
  5
290
  8
0
 62
     5
 10
20.45950617000646
 20
34.10863915428835
 30
0.0
 42
0.414213562373095
  0
VERTEX
  5
291
  8
0
 62
     5
 10
10.45950617000646
 20
24.10863915428836
 30
0.0
  0
VERTEX
  5
292
  8
0
 62
     5
 10
23.95950617000646
 20
24.10863915428836
 30
0.0
  0
VERTEX
  5
293
  8
0
 62
     5
 10
23.95950617000646
 20
29.10863915428836
 30
0.0
  0
SEQEND
  5
454
  8
0
 62
     5
  0
CIRCLE
  5
245
  8
0
 62
     1
 10
217.7303701077525
 20
346.2885627320482
 30
0.0
 40
0.8499999999999995
  0
CIRCLE
  5
246
  8
BUMPED
 62
     1
 10
224.1521030978856
 20
350.038562732045
 30
0.0
 40
0.9999999999999994
  0
CIRCLE
  5
247
  8
BUMPED
 62
     1
 10
224.152097254805
 20
342.5385627320473
 30
0.0
 40
0.9999999999999994
  0
POLYLINE
  5
248
  8
0
 62
     1
 66
     1
 10
0.0
 20
0.0
 30
0.0
 70
     1
  0
VERTEX
  5
294
  8
0
 62
     1
 10
191.4803701077544
 20
344.1883192356671
 30
0.0
  0
VERTEX
  5
295
  8
0
 62
     1
 10
191.4803701077544
 20
346.2885627320459
 30
0.0
  0
VERTEX
  5
296
  8
0
 62
     1
 10
191.4803701077544
 20
346.2885627320459
 30
0.0
  0
VERTEX
  5
297
  8
0
 62
     1
 10
191.4803701077525
 20
348.3888062284253
 30
0.0
  0
VERTEX
  5
298
  8
0
 62
     1
 10
191.4803701077535
 20
352.4885627320471
 30
0.0
  0
VERTEX
  5
299
  8
0
 62
     1
 10
214.9803701077544
 20
352.4885627320471
 30
0.0
  0
VERTEX
  5
29A
  8
0
 62
     1
 10
214.9803701077535
 20
340.0885627320461
 30
0.0
  0
VERTEX
  5
29B
  8
0
 62
     1
 10
191.4803701077553
 20
340.088562732047
 30
0.0
  0
SEQEND
  5
455
  8
0
 62
     1
  0
POLYLINE
  5
249
  8
CUT
 62
     5
 66
     1
 10
0.0
 20
0.0
 30
0.0
 70
     1
  0
VERTEX
  5
29C
  8
CUT
 62
     5
 10
172.6563252705445
 20
356.318088353886
 30
0.0
 42
0.0251212485967614
  0
VERTEX
  5
29D
  8
CUT
 62
     5
 10
172.1521001763612
 20
346.2885930579421
 30
0.0
 42
0.0251213991152731
  0
VERTEX
  5
29E
  8
CUT
 62
     5
 10
172.6563156758202
 20
336.2590371102081
 30
0.0
  0
VERTEX
  5
29F
  8
CUT
 62
     5
 10
224.3773833290115
 20
336.2590371102081
 30
0.0
 42
0.414213562373095
  0
VERTEX
  5
2A0
  8
CUT
 62
     5
 10
228.3773833290115
 20
340.2590371102072
 30
0.0
  0
VERTEX
  5
2A1
  8
CUT
 62
     5
 10
228.3773833290133
 20
352.3180883538851
 30
0.0
 42
0.414213562373095
  0
VERTEX
  5
2A2
  8
CUT
 62
     5
 10
224.3773833290133
 20
356.3180883538851
 30
0.0
  0
SEQEND
  5
456
  8
CUT
 62
     5
  0
CIRCLE
  5
24A
  8
0
 62
     1
 10
188.2303701077525
 20
346.2885627320459
 30
0.0
 40
0.8749999999999996
  0
CIRCLE
  5
24B
  8
CUT
 62
     1
 10
179.1521307505299
 20
346.2885915376112
 30
0.0
 40
0.4999999999999997
  0
CIRCLE
  5
24C
  8
BUMPED
 62
     1
 10
182.152103097901
 20
350.0385954533033
 30
0.0
 40
0.9999999999999994
  0
CIRCLE
  5
24D
  8
BUMPED
 62
     1
 10
182.1520972548196
 20
342.5385954533061
 30
0.0
 40
0.9999999999999994
  0
CIRCLE
  5
24E
  8
CUT
 62
     1
 10
84.84335106641804
 20
126.410836912919
 30
0.0
 40
1.0
  0
CIRCLE
  5
24F
  8
CUT
 62
     1
 10
133.065145429261
 20
125.14137295196
 30
0.0
 40
1.0
  0
CIRCLE
  5
250
  8
CUT
 62
     1
 10
89.91779009357644
 20
74.38042312028215
 30
0.0
 40
1.0
  0
CIRCLE
  5
251
  8
CUT
 62
     1
 10
117.8305285177884
 20
74.38046592786922
 30
0.0
 40
1.0
  0
INSERT
  5
252
  8
CUT
 62
     4
  2
IRSPACER
 10
801.5348296180481
 20
-4205.14664307615
 30
0.0
 50
90.07578011281466
  0
INSERT
  5
253
  8
CUT
 62
     4
  2
STRUT
 10
-2678.237915085336
 20
1224.094765937946
 30
0.0
 41
-1.0
 50
170.2649644202714
  0
ENDSEC
  0
EOF
